<svg id="Layer_1" data-name="Layer 1" xmlns="http://www.w3.org/2000/svg" viewBox="0 0 1920 517.9"><defs><style>.cls-1,.cls-11,.cls-8,.cls-9{fill:#fff;}.cls-1,.cls-11,.cls-3,.cls-4,.cls-5,.cls-6,.cls-8,.cls-9{stroke:#000;stroke-miterlimit:10;}.cls-1,.cls-11,.cls-3,.cls-4,.cls-5{stroke-width:4px;}.cls-2{fill:#f07d00;opacity:0.5;}.cls-3,.cls-4,.cls-6{fill:none;}.cls-11,.cls-4,.cls-5,.cls-8{stroke-linecap:round;}.cls-5{fill:#fff59f;}.cls-6{stroke-width:3px;}.cls-7{font-size:21.03px;letter-spacing:0.1em;}.cls-10,.cls-13,.cls-7{font-family:Moche-Bold, Moche;font-weight:700;}.cls-8{stroke-width:3.69px;}.cls-9{stroke-width:4.2px;}.cls-10{font-size:39.47px;letter-spacing:0.1em;}.cls-12{fill:#9bff94;}.cls-13{font-size:22px;letter-spacing:0.1em;}</style></defs><path class="cls-1" d="M689.18,299.4A117.87,117.87,0,1,1,807.06,181.53,118,118,0,0,1,689.18,299.4Z"/><path class="cls-2" d="M791.06,181.53H689.18V79.66A101.87,101.87,0,0,1,791.06,181.53Z"/><circle class="cls-3" cx="689.18" cy="181.53" r="101.87"/><line class="cls-4" x1="689.18" y1="79.66" x2="689.18" y2="94.99"/><line class="cls-4" x1="689.18" y1="268.07" x2="689.18" y2="283.4"/><line class="cls-4" x1="791.06" y1="181.53" x2="775.73" y2="181.53"/><line class="cls-4" x1="602.64" y1="181.53" x2="587.31" y2="181.53"/><rect class="cls-5" x="684.81" y="134.99" width="8.74" height="46.8" rx="4.37"/><rect class="cls-5" x="723.76" y="142.85" width="8.74" height="77.89" rx="4.37" transform="translate(909.93 -546.34) rotate(90)"/><circle cx="689.18" cy="181.53" r="10.66"/><rect class="cls-1" x="511.83" y="211.42" width="139.77" height="248.98" rx="13.17" transform="translate(1163.43 671.83) rotate(-180)"/><rect class="cls-3" x="527.21" y="229.07" width="109.02" height="191.7" transform="translate(1163.43 649.85) rotate(-180)"/><circle class="cls-6" cx="581.71" cy="439.78" r="10.46"/><text class="cls-7" transform="translate(542.89 262.03)">NEWS</text><rect x="540.3" y="275.74" width="82.9" height="49.19"/><line class="cls-8" x1="543.08" y1="388.83" x2="620.42" y2="388.83"/><line class="cls-8" x1="543.08" y1="373.4" x2="620.42" y2="373.4"/><line class="cls-8" x1="543.08" y1="404.26" x2="620.42" y2="404.26"/><line class="cls-8" x1="543.08" y1="342.53" x2="620.42" y2="342.53"/><line class="cls-8" x1="543.08" y1="357.96" x2="620.42" y2="357.96"/><path class="cls-1" d="M1402.47,299.4a117.87,117.87,0,1,1,117.88-117.87A118,118,0,0,1,1402.47,299.4Z"/><path class="cls-2" d="M1504.35,181.53H1402.47V79.66A101.87,101.87,0,0,1,1504.35,181.53Z"/><circle class="cls-3" cx="1402.47" cy="181.53" r="101.87"/><line class="cls-4" x1="1402.47" y1="79.66" x2="1402.47" y2="94.99"/><line class="cls-4" x1="1402.47" y1="268.07" x2="1402.47" y2="283.4"/><line class="cls-4" x1="1504.35" y1="181.53" x2="1489.02" y2="181.53"/><line class="cls-4" x1="1315.93" y1="181.53" x2="1300.6" y2="181.53"/><rect class="cls-5" x="1398.1" y="134.99" width="8.74" height="46.8" rx="4.37"/><rect class="cls-5" x="1437.05" y="142.85" width="8.74" height="77.89" rx="4.37" transform="translate(1623.22 -1259.63) rotate(90)"/><circle cx="1402.47" cy="181.53" r="10.66"/><polygon class="cls-9" points="1357.59 460.41 1116.81 460.41 1116.81 217.68 1357.59 217.68 1357.59 436.76 1367.12 436.76 1367.12 460.41 1357.59 460.41"/><path class="cls-1" d="M1369.09,460.41h0a11.63,11.63,0,0,1-11.57-11.49V366h23.06v82.95A11.5,11.5,0,0,1,1369.09,460.41Z"/><text class="cls-10" transform="translate(1165.11 271.86)">NEWS</text><rect x="1136.86" y="290.79" width="202.23" height="53.57"/><rect x="1136.86" y="362.64" width="88.1" height="49.63"/><line class="cls-11" x1="1242.96" y1="412.27" x2="1333.97" y2="412.27"/><line class="cls-11" x1="1242.96" y1="396.84" x2="1333.97" y2="396.84"/><line class="cls-11" x1="1242.96" y1="427.7" x2="1333.97" y2="427.7"/><line class="cls-11" x1="1242.96" y1="443.14" x2="1333.97" y2="443.14"/><line class="cls-11" x1="1242.96" y1="365.97" x2="1333.97" y2="365.97"/><line class="cls-11" x1="1242.96" y1="381.41" x2="1333.97" y2="381.41"/><line class="cls-11" x1="1136.86" y1="427.7" x2="1227.87" y2="427.7"/><line class="cls-11" x1="1136.86" y1="443.14" x2="1227.87" y2="443.14"/><path class="cls-12" d="M473.23,197.11a13.81,13.81,0,0,1-11.54-6.2,17.85,17.85,0,0,0-20.3-7.16,13.71,13.71,0,0,1-4.24.67,13.89,13.89,0,0,1-10-4.3,13.66,13.66,0,0,1-3.8-10.15,17.89,17.89,0,0,0-12.22-17.72,13.84,13.84,0,0,1-6.48-21.75A17.89,17.89,0,0,0,405.2,109a13.84,13.84,0,0,1,7.55-21.41,17.89,17.89,0,0,0,13.07-17.09A13.78,13.78,0,0,1,444.5,57.61a17.84,17.84,0,0,0,20.63-6.15,13.83,13.83,0,0,1,22.68.56,17.85,17.85,0,0,0,20.3,7.16,13.76,13.76,0,0,1,4.24-.67,13.93,13.93,0,0,1,10,4.3A13.66,13.66,0,0,1,526.14,73a17.9,17.9,0,0,0,12.21,17.72,13.83,13.83,0,0,1,6.48,21.75,17.89,17.89,0,0,0-.53,21.51,13.83,13.83,0,0,1-7.54,21.41,17.9,17.9,0,0,0-13.08,17.09,13.84,13.84,0,0,1-13.81,13.77,13.67,13.67,0,0,1-4.87-.89,17.83,17.83,0,0,0-20.62,6.15A13.73,13.73,0,0,1,473.23,197.11Z"/><path d="M476.27,47.82a11.64,11.64,0,0,1,9.88,5.31,19.83,19.83,0,0,0,22.57,7.95,11.77,11.77,0,0,1,12.17,3.11,11.72,11.72,0,0,1,3.25,8.68,19.9,19.9,0,0,0,13.59,19.71,11.84,11.84,0,0,1,5.54,18.6,19.9,19.9,0,0,0-.59,23.93,11.83,11.83,0,0,1-6.45,18.31,19.91,19.91,0,0,0-14.55,19,11.79,11.79,0,0,1-16,11,19.65,19.65,0,0,0-6.95-1.26,19.9,19.9,0,0,0-16,8.09,11.82,11.82,0,0,1-19.4-.48,19.84,19.84,0,0,0-22.58-8,11.77,11.77,0,0,1-12.17-3.11,11.67,11.67,0,0,1-3.24-8.68,19.91,19.91,0,0,0-13.59-19.71,11.82,11.82,0,0,1-5.54-18.6,19.91,19.91,0,0,0,.59-23.93,11.83,11.83,0,0,1,6.45-18.31,19.88,19.88,0,0,0,14.54-19,11.79,11.79,0,0,1,16-11,19.69,19.69,0,0,0,6.95,1.26,19.9,19.9,0,0,0,16-8.09,11.71,11.71,0,0,1,9.53-4.83m0-4a15.7,15.7,0,0,0-12.75,6.46,15.84,15.84,0,0,1-12.77,6.46,16.07,16.07,0,0,1-5.55-1,15.77,15.77,0,0,0-21.38,14.74,15.83,15.83,0,0,1-11.61,15.18h0a15.82,15.82,0,0,0-8.63,24.49,15.85,15.85,0,0,1-.47,19.11,15.82,15.82,0,0,0,7.41,24.89,15.83,15.83,0,0,1,10.85,15.73A15.8,15.8,0,0,0,442,185.66h0A15.83,15.83,0,0,1,460,192a15.84,15.84,0,0,0,26,.64,15.81,15.81,0,0,1,18.31-5.45h0a15.8,15.8,0,0,0,21.38-14.75,15.84,15.84,0,0,1,11.61-15.18,15.82,15.82,0,0,0,8.64-24.49,15.82,15.82,0,0,1,.47-19.1A15.84,15.84,0,0,0,539,88.78a15.83,15.83,0,0,1-10.85-15.73A15.8,15.8,0,0,0,507.5,57.27a15.67,15.67,0,0,1-4.81.75,15.84,15.84,0,0,1-13.21-7.1h0a15.73,15.73,0,0,0-13.21-7.1Z"/><text class="cls-13" transform="translate(429.92 112.27)">Better <tspan x="-3.18" y="25">Option</tspan></text></svg>