<svg id="Layer_1" data-name="Layer 1" xmlns="http://www.w3.org/2000/svg" viewBox="0 0 1920 517.9"><defs><style>.cls-1,.cls-7,.cls-8,.cls-9{fill:#fff;}.cls-1,.cls-3,.cls-4,.cls-5,.cls-6,.cls-7,.cls-8,.cls-9{stroke:#000;stroke-miterlimit:10;}.cls-1,.cls-3,.cls-4,.cls-5,.cls-9{stroke-width:4px;}.cls-2{fill:#f07d00;opacity:0.5;}.cls-3,.cls-4,.cls-6{fill:none;}.cls-4,.cls-5,.cls-7,.cls-9{stroke-linecap:round;}.cls-5{fill:#fff59f;}.cls-6{stroke-width:3px;}.cls-7{stroke-width:3.69px;}.cls-8{stroke-width:4.2px;}.cls-10{fill:#9bff94;}</style></defs><path class="cls-1" d="M689.18,299.4A117.87,117.87,0,1,1,807.06,181.53,118,118,0,0,1,689.18,299.4Z"/><path class="cls-2" d="M791.06,181.53H689.18V79.66A101.87,101.87,0,0,1,791.06,181.53Z"/><circle class="cls-3" cx="689.18" cy="181.53" r="101.87"/><line class="cls-4" x1="689.18" y1="79.66" x2="689.18" y2="94.99"/><line class="cls-4" x1="689.18" y1="268.07" x2="689.18" y2="283.4"/><line class="cls-4" x1="791.06" y1="181.53" x2="775.73" y2="181.53"/><line class="cls-4" x1="602.64" y1="181.53" x2="587.31" y2="181.53"/><rect class="cls-5" x="684.81" y="134.99" width="8.74" height="46.8" rx="4.37"/><rect class="cls-5" x="723.76" y="142.85" width="8.74" height="77.89" rx="4.37" transform="translate(909.93 -546.34) rotate(90)"/><circle cx="689.18" cy="181.53" r="10.66"/><rect class="cls-1" x="511.83" y="211.42" width="139.77" height="248.98" rx="13.17" transform="translate(1163.43 671.83) rotate(-180)"/><rect class="cls-3" x="527.21" y="229.07" width="109.02" height="191.7" transform="translate(1163.43 649.85) rotate(-180)"/><circle class="cls-6" cx="581.71" cy="439.78" r="10.46"/><path d="M544.89,256.78l-.73-8.41,1.89.06,1.28-.06,9.38,10.32.06-1.91-1.28-8.41,2.54.06,1.79-.06-.65,8.41.74,5.25-1.86-.06-1.28.06-9.29-10.24-.19,5,1.28,5.25-2.52-.06-1.81.06Z"/><path d="M577.72,262,568,262l-3.49.06.65-5.25-.65-8.39,3.49.06,9.49-.06-.07,1.72.07,1.73h-9.78l-.23,2.2H576v2.13h-8.52l.15,2.39h10.14l-.07,1.73Z"/><path d="M584.8,258.61l-4.14-10.24H585l2,10.26,3.59-10.24,1,.06,1-.06,3.7,10.26,2-10.28h4.33l-4.08,10.24L597.46,262l-1-.06-1.79.06-.81-3.42-2.09-6.82-2,6.82-.78,3.45-1.81-.09L586,262Z"/><path d="M606.3,256.48a12.49,12.49,0,0,0,7.54,2.38c2.23,0,3.31-.74,3.31-1.47,0-2.36-11.13.63-11.21-5.18,0-3,2.8-4.18,6.69-4.18a16.09,16.09,0,0,1,6.54,1.26l-.87,3.47a16.46,16.46,0,0,0-6.77-1.3c-1.53,0-3.45.36-3.45,1.26,0,2.42,11.91-.38,11.82,5.32,0,2.8-2.73,4.31-6.5,4.33a13.91,13.91,0,0,1-8-2.27Z"/><rect x="540.3" y="275.74" width="82.9" height="49.19"/><line class="cls-7" x1="543.08" y1="388.83" x2="620.42" y2="388.83"/><line class="cls-7" x1="543.08" y1="373.4" x2="620.42" y2="373.4"/><line class="cls-7" x1="543.08" y1="404.26" x2="620.42" y2="404.26"/><line class="cls-7" x1="543.08" y1="342.53" x2="620.42" y2="342.53"/><line class="cls-7" x1="543.08" y1="357.96" x2="620.42" y2="357.96"/><path class="cls-1" d="M1402.47,299.4a117.87,117.87,0,1,1,117.88-117.87A118,118,0,0,1,1402.47,299.4Z"/><path class="cls-2" d="M1504.35,181.53H1402.47V79.66A101.87,101.87,0,0,1,1504.35,181.53Z"/><circle class="cls-3" cx="1402.47" cy="181.53" r="101.87"/><line class="cls-4" x1="1402.47" y1="79.66" x2="1402.47" y2="94.99"/><line class="cls-4" x1="1402.47" y1="268.07" x2="1402.47" y2="283.4"/><line class="cls-4" x1="1504.35" y1="181.53" x2="1489.02" y2="181.53"/><line class="cls-4" x1="1315.93" y1="181.53" x2="1300.6" y2="181.53"/><rect class="cls-5" x="1398.1" y="134.99" width="8.74" height="46.8" rx="4.37"/><rect class="cls-5" x="1437.05" y="142.85" width="8.74" height="77.89" rx="4.37" transform="translate(1623.22 -1259.63) rotate(90)"/><circle cx="1402.47" cy="181.53" r="10.66"/><polygon class="cls-8" points="1357.59 460.41 1116.81 460.41 1116.81 217.68 1357.59 217.68 1357.59 436.76 1367.12 436.76 1367.12 460.41 1357.59 460.41"/><path class="cls-1" d="M1369.09,460.41h0a11.63,11.63,0,0,1-11.57-11.49V366h23.06v82.95A11.5,11.5,0,0,1,1369.09,460.41Z"/><path d="M1168.87,262l-1.39-15.79,3.56.11,2.4-.11,17.61,19.38.12-3.59-2.41-15.79,4.78.11,3.35-.11L1195.67,262l1.38,9.86-3.47-.11-2.41.11-17.45-19.22-.35,9.36,2.4,9.86-4.73-.11-3.4.11Z"/><path d="M1230.48,271.86l-18.2-.11-6.55.11L1207,262l-1.22-15.76,6.55.12,17.81-.12-.12,3.24.12,3.24h-18.36l-.43,4.14h15.86v4h-16l.27,4.5h19l-.12,3.24Z"/><path d="M1243.78,265.43,1236,246.21h8.21l3.83,19.26,6.75-19.23,1.85.12,1.93-.12,7,19.27,3.71-19.3h8.14l-7.66,19.22-2.17,6.43-1.94-.11-3.35.11-1.54-6.43-3.91-12.79-3.71,12.79-1.46,6.47-3.4-.15-2.25.11Z"/><path d="M1284.12,261.44a23.53,23.53,0,0,0,14.17,4.46c4.19,0,6.2-1.38,6.2-2.76,0-4.42-20.88,1.18-21-9.71-.08-5.72,5.25-7.86,12.55-7.86a30.11,30.11,0,0,1,12.28,2.37l-1.62,6.52A31,31,0,0,0,1294,252c-2.88,0-6.47.67-6.47,2.37,0,4.54,22.34-.71,22.18,10-.08,5.25-5.13,8.1-12.2,8.14a26.2,26.2,0,0,1-15-4.27Z"/><rect x="1136.86" y="290.79" width="202.23" height="53.57"/><rect x="1136.86" y="362.64" width="88.1" height="49.63"/><line class="cls-9" x1="1242.96" y1="412.27" x2="1333.97" y2="412.27"/><line class="cls-9" x1="1242.96" y1="396.84" x2="1333.97" y2="396.84"/><line class="cls-9" x1="1242.96" y1="427.7" x2="1333.97" y2="427.7"/><line class="cls-9" x1="1242.96" y1="443.14" x2="1333.97" y2="443.14"/><line class="cls-9" x1="1242.96" y1="365.97" x2="1333.97" y2="365.97"/><line class="cls-9" x1="1242.96" y1="381.41" x2="1333.97" y2="381.41"/><line class="cls-9" x1="1136.86" y1="427.7" x2="1227.87" y2="427.7"/><line class="cls-9" x1="1136.86" y1="443.14" x2="1227.87" y2="443.14"/><path class="cls-10" d="M473.23,197.11a13.81,13.81,0,0,1-11.54-6.2,17.85,17.85,0,0,0-20.3-7.16,13.71,13.71,0,0,1-4.24.67,13.89,13.89,0,0,1-10-4.3,13.66,13.66,0,0,1-3.8-10.15,17.89,17.89,0,0,0-12.22-17.72,13.84,13.84,0,0,1-6.48-21.75A17.89,17.89,0,0,0,405.2,109a13.84,13.84,0,0,1,7.55-21.41,17.89,17.89,0,0,0,13.07-17.09A13.78,13.78,0,0,1,444.5,57.61a17.84,17.84,0,0,0,20.63-6.15,13.83,13.83,0,0,1,22.68.56,17.85,17.85,0,0,0,20.3,7.16,13.76,13.76,0,0,1,4.24-.67,13.93,13.93,0,0,1,10,4.3A13.66,13.66,0,0,1,526.14,73a17.9,17.9,0,0,0,12.21,17.72,13.83,13.83,0,0,1,6.48,21.75,17.89,17.89,0,0,0-.53,21.51,13.83,13.83,0,0,1-7.54,21.41,17.9,17.9,0,0,0-13.08,17.09,13.84,13.84,0,0,1-13.81,13.77,13.67,13.67,0,0,1-4.87-.89,17.83,17.83,0,0,0-20.62,6.15A13.73,13.73,0,0,1,473.23,197.11Z"/><path d="M476.27,47.82a11.64,11.64,0,0,1,9.88,5.31,19.83,19.83,0,0,0,22.57,7.95,11.77,11.77,0,0,1,12.17,3.11,11.72,11.72,0,0,1,3.25,8.68,19.9,19.9,0,0,0,13.59,19.71,11.84,11.84,0,0,1,5.54,18.6,19.9,19.9,0,0,0-.59,23.93,11.83,11.83,0,0,1-6.45,18.31,19.91,19.91,0,0,0-14.55,19,11.79,11.79,0,0,1-16,11,19.65,19.65,0,0,0-6.95-1.26,19.9,19.9,0,0,0-16,8.09,11.82,11.82,0,0,1-19.4-.48,19.84,19.84,0,0,0-22.58-8,11.77,11.77,0,0,1-12.17-3.11,11.67,11.67,0,0,1-3.24-8.68,19.91,19.91,0,0,0-13.59-19.71,11.82,11.82,0,0,1-5.54-18.6,19.91,19.91,0,0,0,.59-23.93,11.83,11.83,0,0,1,6.45-18.31,19.88,19.88,0,0,0,14.54-19,11.79,11.79,0,0,1,16-11,19.69,19.69,0,0,0,6.95,1.26,19.9,19.9,0,0,0,16-8.09,11.71,11.71,0,0,1,9.53-4.83m0-4a15.7,15.7,0,0,0-12.75,6.46,15.84,15.84,0,0,1-12.77,6.46,16.07,16.07,0,0,1-5.55-1,15.77,15.77,0,0,0-21.38,14.74,15.83,15.83,0,0,1-11.61,15.18h0a15.82,15.82,0,0,0-8.63,24.49,15.85,15.85,0,0,1-.47,19.11,15.82,15.82,0,0,0,7.41,24.89,15.83,15.83,0,0,1,10.85,15.73A15.8,15.8,0,0,0,442,185.66h0A15.83,15.83,0,0,1,460,192a15.84,15.84,0,0,0,26,.64,15.81,15.81,0,0,1,18.31-5.45h0a15.8,15.8,0,0,0,21.38-14.75,15.84,15.84,0,0,1,11.61-15.18,15.82,15.82,0,0,0,8.64-24.49,15.82,15.82,0,0,1,.47-19.1A15.84,15.84,0,0,0,539,88.78a15.83,15.83,0,0,1-10.85-15.73A15.8,15.8,0,0,0,507.5,57.27a15.67,15.67,0,0,1-4.81.75,15.84,15.84,0,0,1-13.21-7.1h0a15.73,15.73,0,0,0-13.21-7.1Z"/><path d="M434.89,98.05,440,98c4.34-.07,6.54,1.14,6.54,3.58,0,1.76-1,2.82-3.08,3.13,2.55.17,3.83,1.34,3.83,3.45,0,2.8-2.44,4.18-7.29,4.12l-5.1-.07-3.65.07.66-5.5L431.24,98Zm-.66,8,.31,2.62h6.73c2.16,0,2.88-.37,2.88-1.36s-.72-1.26-2.88-1.26Zm.37-4.46-.26,2.24h6.36c2.13,0,2.77-.26,2.77-1.14s-.64-1.1-2.77-1.1Z"/><path d="M463.64,111.43a13.89,13.89,0,0,1-5.67,1.19c-4.14,0-7.17-1.87-7.17-5.66,0-3.43,2.55-6,6.75-6,3.26,0,6.12,1.48,6.12,5.22a12.39,12.39,0,0,1-.13,1.62l-10.39,0c0,1.34,2.24,1.72,4.27,1.72a11.68,11.68,0,0,0,5.26-1.11Zm-2.26-5.17c0-1.39-1.59-2.31-4-2.31s-4.16.92-4.16,2.31Z"/><path d="M474.67,108.9a7.21,7.21,0,0,0,2.17-.37l.36,3.32a11.15,11.15,0,0,1-4.14.77c-3.85,0-4.34-1.78-3.87-3.65l.55-2.18v-2.6h-2.56l.12-1.38-.09-1.5h2.13l-.9-3.85,2.38.07,2.24-.07-.81,3.85h3.87l-.09,1.47.07,1.41h-4.32v2.6C471.78,108.17,473,108.9,474.67,108.9Z"/><path d="M487.76,108.9a7.27,7.27,0,0,0,2.17-.37l.36,3.32a11.15,11.15,0,0,1-4.14.77c-3.85,0-4.34-1.78-3.87-3.65l.55-2.18v-2.6h-2.56l.11-1.38-.08-1.5h2.13l-.9-3.85,2.37.07,2.25-.07-.82,3.85h3.88l-.09,1.47.06,1.41h-4.31v2.6C484.87,108.17,486.1,108.9,487.76,108.9Z"/><path d="M506.21,111.43a13.89,13.89,0,0,1-5.67,1.19c-4.14,0-7.18-1.87-7.18-5.66,0-3.43,2.56-6,6.76-6,3.26,0,6.12,1.48,6.12,5.22a11,11,0,0,1-.14,1.62l-10.38,0c0,1.34,2.24,1.72,4.27,1.72a11.68,11.68,0,0,0,5.26-1.11ZM504,106.26c0-1.39-1.59-2.31-4-2.31s-4.16.92-4.16,2.31Z"/><path d="M511.54,106.79l-1.13-5.48,2.27.07,1.39-.07-.14,2.6a7.25,7.25,0,0,1,5.22-2.89v3.66a3.64,3.64,0,0,0-.6-.05,8.69,8.69,0,0,0-4.7,1.56l1.1,6.08-2.27-.07-2.27.07Z"/><path d="M436.09,122.61c5,0,8.65,2.71,8.65,7.4,0,5.15-4.38,7.65-8.65,7.65s-8.69-2.5-8.69-7.65C427.4,125.32,431.05,122.61,436.09,122.61Zm0,11.44c3.08,0,6.23-1.71,6.23-4,0-2.12-2.58-3.79-6.23-3.79s-6.25,1.67-6.25,3.79C429.84,132.34,432.94,134.05,436.09,134.05Z"/><path d="M451.18,141.62l-2.27,0,1.13-9.88-1.13-5.48,2.27.07,2.27-.07-.44,2.16a6.83,6.83,0,0,1,5-2.51,5.81,5.81,0,0,1-.13,11.62,7.69,7.69,0,0,1-5.28-2.31l.86,6.4Zm1.37-10.78-.34,1.61A8,8,0,0,0,457,134c2.29,0,4.22-.95,4.22-2.18s-1.93-2.12-4.33-2.12A7.9,7.9,0,0,0,452.55,130.84Z"/><path d="M474.61,133.9a7.33,7.33,0,0,0,2.18-.37l.35,3.32a11.05,11.05,0,0,1-4.13.77c-3.86,0-4.34-1.78-3.88-3.65l.55-2.18v-2.6h-2.55l.11-1.38-.09-1.5h2.14l-.91-3.85,2.38.07,2.25-.07-.82,3.85h3.87l-.09,1.47.07,1.41h-4.31v2.6C471.73,133.17,473,133.9,474.61,133.9Z"/><path d="M480.88,120.3l2.33.07,2.25-.07V124h-4.58ZM482,131.79l-1.12-5.48,2.27.07,2.26-.07-1.12,5.48,1.12,5.48-2.26-.07-2.27.07Z"/><path d="M489.63,131.81c0-3.34,2.65-5.81,6.76-5.81s6.73,2.47,6.73,5.81c0,3.68-2.75,5.81-6.73,5.81S489.63,135.49,489.63,131.81Zm11.14.11c0-1.08-1.26-2.29-4.38-2.29s-4.4,1.21-4.4,2.29c0,1.23,1.67,2.07,4.38,2.07S500.77,133.15,500.77,131.92Z"/><path d="M508.42,131.79l-1.12-5.48,2.27.07,2.26-.07-.48,2.05a7.18,7.18,0,0,1,5.28-2.36c2.46,0,4.93,1.37,4.22,4.05l-.46,1.74,1.06,5.48-2.18-.07-2.18.07,1.08-5.48c.24-1.23-.84-2.16-2.73-2.16a8.75,8.75,0,0,0-4.71,1.56l1.1,6.08-2.26-.07-2.27.07Z"/></svg>