<svg id="Layer_1" data-name="Layer 1" xmlns="http://www.w3.org/2000/svg" viewBox="0 0 1920 510.19"><defs><style>.cls-1,.cls-10,.cls-6,.cls-7{fill:#fff;}.cls-1,.cls-10,.cls-3,.cls-4,.cls-5,.cls-6,.cls-7,.cls-9{stroke:#000;stroke-miterlimit:10;}.cls-1,.cls-3,.cls-4,.cls-5,.cls-7{stroke-width:4px;}.cls-2{fill:#f07d00;opacity:0.5;}.cls-3,.cls-4,.cls-9{fill:none;}.cls-10,.cls-4,.cls-5,.cls-7{stroke-linecap:round;}.cls-5{fill:#fff59f;}.cls-6{stroke-width:4.2px;}.cls-8{fill:#9bff94;}.cls-9{stroke-width:3px;}.cls-10{stroke-width:3.69px;}</style></defs><path class="cls-1" d="M686.62,300.05A117.87,117.87,0,1,1,804.49,182.18,118,118,0,0,1,686.62,300.05Z"/><path class="cls-2" d="M686.64,80.31V284.05a101.87,101.87,0,1,0,0-203.74Z"/><circle class="cls-3" cx="686.62" cy="182.18" r="101.87"/><line class="cls-4" x1="686.62" y1="80.31" x2="686.62" y2="95.64"/><line class="cls-4" x1="686.62" y1="268.72" x2="686.62" y2="284.05"/><line class="cls-4" x1="788.49" y1="182.18" x2="773.16" y2="182.18"/><line class="cls-4" x1="600.08" y1="182.18" x2="584.75" y2="182.18"/><rect class="cls-5" x="682.25" y="135.64" width="8.74" height="46.8" rx="4.37"/><rect class="cls-5" x="682.27" y="182.45" width="8.74" height="77.89" rx="4.37" transform="translate(1373.29 442.79) rotate(-180)"/><circle cx="686.62" cy="182.18" r="10.66"/><path class="cls-1" d="M1399.91,300.05a117.87,117.87,0,1,1,117.87-117.87A118,118,0,0,1,1399.91,300.05Z"/><path class="cls-2" d="M1399.91,80.57V284.32a101.88,101.88,0,0,0,0-203.75Z"/><circle class="cls-3" cx="1399.91" cy="182.18" r="101.87"/><line class="cls-4" x1="1399.91" y1="80.31" x2="1399.91" y2="95.64"/><line class="cls-4" x1="1399.91" y1="268.72" x2="1399.91" y2="284.05"/><line class="cls-4" x1="1501.78" y1="182.18" x2="1486.45" y2="182.18"/><line class="cls-4" x1="1313.37" y1="182.18" x2="1298.04" y2="182.18"/><rect class="cls-5" x="1395.54" y="135.64" width="8.74" height="46.8" rx="4.37"/><rect class="cls-5" x="1395.54" y="182.18" width="8.74" height="77.89" rx="4.37" transform="translate(2799.82 442.26) rotate(-180)"/><circle cx="1399.91" cy="182.18" r="10.66"/><polygon class="cls-6" points="1355.03 461.06 1114.24 461.06 1114.24 218.33 1355.03 218.33 1355.03 437.41 1364.56 437.41 1364.56 461.06 1355.03 461.06"/><path class="cls-1" d="M1366.52,461.06h0A11.63,11.63,0,0,1,1355,449.57V366.62H1378v82.95A11.5,11.5,0,0,1,1366.52,461.06Z"/><path d="M1166.3,262.65l-1.38-15.79,3.55.11,2.41-.11,17.61,19.38.11-3.59-2.4-15.79,4.77.11,3.36-.11-1.22,15.79,1.38,9.86-3.48-.11-2.41.11-17.44-19.22-.36,9.36,2.41,9.86-4.74-.11-3.39.11Z"/><path d="M1227.92,272.51l-18.2-.11-6.55.11,1.22-9.86-1.22-15.76,6.55.12,17.8-.12-.12,3.24.12,3.24h-18.35l-.44,4.14h15.87v4h-16l.27,4.5h19l-.12,3.24Z"/><path d="M1241.22,266.08l-7.78-19.22h8.21l3.83,19.26,6.75-19.23,1.86.12,1.93-.12,7,19.27,3.71-19.3h8.13l-7.66,19.22-2.17,6.43-1.93-.11-3.36.11-1.54-6.43-3.9-12.79-3.71,12.79-1.47,6.47-3.39-.15-2.25.11Z"/><path d="M1281.56,262.09a23.53,23.53,0,0,0,14.17,4.46c4.18,0,6.2-1.38,6.2-2.76,0-4.42-20.89,1.18-21-9.71-.08-5.72,5.25-7.86,12.55-7.86a30.15,30.15,0,0,1,12.28,2.37l-1.62,6.52a31,31,0,0,0-12.71-2.45c-2.88,0-6.48.67-6.48,2.37,0,4.54,22.35-.71,22.19,10-.08,5.25-5.13,8.1-12.2,8.14a26.17,26.17,0,0,1-15-4.27Z"/><rect x="1134.3" y="291.44" width="202.23" height="53.57"/><rect x="1134.3" y="363.29" width="88.1" height="49.63"/><line class="cls-7" x1="1240.4" y1="412.92" x2="1331.41" y2="412.92"/><line class="cls-7" x1="1240.4" y1="397.49" x2="1331.41" y2="397.49"/><line class="cls-7" x1="1240.4" y1="428.35" x2="1331.41" y2="428.35"/><line class="cls-7" x1="1240.4" y1="443.79" x2="1331.41" y2="443.79"/><line class="cls-7" x1="1240.4" y1="366.62" x2="1331.41" y2="366.62"/><line class="cls-7" x1="1240.4" y1="382.06" x2="1331.41" y2="382.06"/><line class="cls-7" x1="1134.3" y1="428.35" x2="1225.31" y2="428.35"/><line class="cls-7" x1="1134.3" y1="443.79" x2="1225.31" y2="443.79"/><path class="cls-8" d="M1178.29,184.82a13.81,13.81,0,0,1-11.55-6.21,17.81,17.81,0,0,0-20.3-7.15,13.71,13.71,0,0,1-4.24.67,13.93,13.93,0,0,1-10-4.3,13.66,13.66,0,0,1-3.8-10.15A17.89,17.89,0,0,0,1116.2,140a13.84,13.84,0,0,1-6.48-21.75,17.9,17.9,0,0,0,.54-21.52,13.82,13.82,0,0,1,7.54-21.4,17.89,17.89,0,0,0,13.07-17.09,13.86,13.86,0,0,1,13.81-13.78,13.68,13.68,0,0,1,4.87.9,17.84,17.84,0,0,0,20.63-6.15,13.84,13.84,0,0,1,22.69.56,17.81,17.81,0,0,0,20.3,7.15,13.79,13.79,0,0,1,14.22,3.64,13.66,13.66,0,0,1,3.8,10.15,17.89,17.89,0,0,0,12.22,17.72,13.83,13.83,0,0,1,6.47,21.75,17.89,17.89,0,0,0-.53,21.51,13.82,13.82,0,0,1-7.54,21.4,17.88,17.88,0,0,0-13.07,17.1A13.81,13.81,0,0,1,1210.05,173a17.84,17.84,0,0,0-20.62,6.14A13.7,13.7,0,0,1,1178.29,184.82Z"/><path d="M1181.32,35.53a11.66,11.66,0,0,1,9.88,5.3,19.82,19.82,0,0,0,22.57,8,11.77,11.77,0,0,1,12.17,3.11,11.7,11.7,0,0,1,3.25,8.68,19.92,19.92,0,0,0,13.59,19.71,11.83,11.83,0,0,1,5.54,18.6,19.9,19.9,0,0,0-.59,23.93,11.83,11.83,0,0,1-6.45,18.31,19.88,19.88,0,0,0-14.54,19,11.86,11.86,0,0,1-11.82,11.78,11.73,11.73,0,0,1-4.16-.76,19.83,19.83,0,0,0-22.94,6.83,11.83,11.83,0,0,1-19.41-.48,19.81,19.81,0,0,0-16.54-8.9,19.59,19.59,0,0,0-6,.95,11.78,11.78,0,0,1-12.18-3.12,11.69,11.69,0,0,1-3.24-8.68,19.9,19.9,0,0,0-13.59-19.7,11.82,11.82,0,0,1-5.54-18.6,19.9,19.9,0,0,0,.59-23.93,11.83,11.83,0,0,1,6.45-18.31,19.9,19.9,0,0,0,14.54-19,11.79,11.79,0,0,1,16-11,19.83,19.83,0,0,0,22.94-6.83,11.72,11.72,0,0,1,9.53-4.83m0-4A15.71,15.71,0,0,0,1168.57,38a15.81,15.81,0,0,1-18.31,5.45,15.8,15.8,0,0,0-21.39,14.75,15.81,15.81,0,0,1-11.61,15.17,15.84,15.84,0,0,0-8.63,24.5,15.82,15.82,0,0,1-.47,19.1,15.84,15.84,0,0,0,7.42,24.9,15.82,15.82,0,0,1,10.84,15.73,15.8,15.8,0,0,0,20.63,15.78,15.78,15.78,0,0,1,18,6.35,15.84,15.84,0,0,0,26,.64,15.85,15.85,0,0,1,18.31-5.46,15.8,15.8,0,0,0,21.39-14.74,15.82,15.82,0,0,1,11.6-15.18,15.83,15.83,0,0,0,8.64-24.49,15.83,15.83,0,0,1,.47-19.11h0A15.83,15.83,0,0,0,1244,76.49h0a15.81,15.81,0,0,1-10.84-15.73A15.8,15.8,0,0,0,1212.56,45a15.84,15.84,0,0,1-18-6.35,15.71,15.71,0,0,0-13.21-7.1Z"/><path d="M1139.94,85.76l5.11-.07c4.33-.06,6.53,1.15,6.53,3.59,0,1.76-1,2.82-3.08,3.13,2.55.17,3.83,1.34,3.83,3.45,0,2.79-2.44,4.18-7.28,4.11l-5.11-.06-3.65.06.66-5.5-.66-8.78Zm-.66,8,.31,2.62h6.73c2.16,0,2.89-.38,2.89-1.37s-.73-1.25-2.89-1.25Zm.38-4.47-.27,2.25h6.36c2.13,0,2.77-.27,2.77-1.15s-.64-1.1-2.77-1.1Z"/><path d="M1168.7,99.14a14.14,14.14,0,0,1-5.68,1.19c-4.14,0-7.17-1.87-7.17-5.66,0-3.43,2.55-6,6.75-6,3.26,0,6.12,1.47,6.12,5.21a10.89,10.89,0,0,1-.13,1.63l-10.39,0c0,1.34,2.25,1.71,4.27,1.71a11.81,11.81,0,0,0,5.26-1.1ZM1166.43,94c0-1.39-1.58-2.31-4-2.31s-4.16.92-4.16,2.31Z"/><path d="M1179.72,96.61a7.34,7.34,0,0,0,2.18-.38l.35,3.33a11.07,11.07,0,0,1-4.14.77c-3.85,0-4.33-1.79-3.87-3.66l.55-2.17V91.9h-2.55l.11-1.39-.09-1.49h2.13l-.9-3.85,2.38.06,2.24-.06L1177.3,89h3.87l-.09,1.47.07,1.41h-4.31v2.6C1176.84,95.88,1178.07,96.61,1179.72,96.61Z"/><path d="M1192.81,96.61a7.22,7.22,0,0,0,2.17-.38l.36,3.33a11.07,11.07,0,0,1-4.14.77c-3.85,0-4.33-1.79-3.87-3.66l.55-2.17V91.9h-2.55l.11-1.39-.09-1.49h2.13l-.9-3.85,2.38.06,2.24-.06-.81,3.85h3.87l-.09,1.47.07,1.41h-4.32v2.6C1189.92,95.88,1191.16,96.61,1192.81,96.61Z"/><path d="M1211.27,99.14a14.14,14.14,0,0,1-5.68,1.19c-4.14,0-7.17-1.87-7.17-5.66,0-3.43,2.55-6,6.75-6,3.26,0,6.12,1.47,6.12,5.21a12.4,12.4,0,0,1-.13,1.63l-10.39,0c0,1.34,2.24,1.71,4.27,1.71a11.81,11.81,0,0,0,5.26-1.1ZM1209,94c0-1.39-1.59-2.31-4-2.31s-4.15.92-4.15,2.31Z"/><path d="M1216.59,94.5,1215.46,89l2.27.06,1.39-.06-.13,2.59a7.23,7.23,0,0,1,5.21-2.88v3.65a5,5,0,0,0-.59,0,8.69,8.69,0,0,0-4.71,1.56L1220,100l-2.27-.06-2.27.06Z"/><path d="M1141.14,110.32c5,0,8.65,2.71,8.65,7.39,0,5.15-4.38,7.66-8.65,7.66s-8.69-2.51-8.69-7.66C1132.45,113,1136.1,110.32,1141.14,110.32Zm0,11.44c3.08,0,6.23-1.71,6.23-4.05,0-2.11-2.58-3.78-6.23-3.78s-6.25,1.67-6.25,3.78C1134.89,120.05,1138,121.76,1141.14,121.76Z"/><path d="M1156.23,129.33l-2.26,0,1.12-9.87L1154,114l2.26.06,2.27-.06-.44,2.15a6.87,6.87,0,0,1,5-2.51,5.87,5.87,0,0,1,5.61,5.88,5.81,5.81,0,0,1-5.74,5.74,7.71,7.71,0,0,1-5.28-2.31l.86,6.4Zm1.37-10.78-.33,1.61a8,8,0,0,0,4.77,1.49c2.29,0,4.23-.94,4.23-2.18s-1.94-2.11-4.34-2.11A7.82,7.82,0,0,0,1157.6,118.55Z"/><path d="M1179.66,121.61a7.29,7.29,0,0,0,2.18-.38l.35,3.33a11.05,11.05,0,0,1-4.13.77c-3.85,0-4.34-1.79-3.88-3.66l.55-2.17v-2.6h-2.55l.11-1.39-.09-1.49h2.14l-.9-3.85,2.37.06,2.25-.06-.82,3.85h3.88l-.09,1.47.06,1.41h-4.31v2.6C1176.78,120.88,1178,121.61,1179.66,121.61Z"/><path d="M1185.93,108l2.33.07,2.25-.07v3.7h-4.58Zm1.15,11.49L1186,114l2.27.06,2.27-.06-1.13,5.48,1.13,5.47-2.27-.06L1186,125Z"/><path d="M1194.69,119.52c0-3.35,2.64-5.81,6.75-5.81s6.74,2.46,6.74,5.81c0,3.67-2.76,5.81-6.74,5.81S1194.69,123.19,1194.69,119.52Zm11.13.11c0-1.08-1.25-2.29-4.38-2.29s-4.4,1.21-4.4,2.29c0,1.23,1.67,2.07,4.38,2.07S1205.82,120.86,1205.82,119.63Z"/><path d="M1213.47,119.5l-1.12-5.48,2.27.06,2.26-.06-.48,2a7.23,7.23,0,0,1,5.28-2.35c2.47,0,4.93,1.36,4.23,4.05l-.46,1.74,1,5.47-2.18-.06-2.18.06,1.08-5.47c.24-1.24-.83-2.16-2.73-2.16a8.69,8.69,0,0,0-4.7,1.56l1.09,6.07-2.26-.06-2.27.06Z"/><rect class="cls-1" x="511.83" y="213.2" width="139.77" height="248.98" rx="13.17" transform="translate(1163.43 675.39) rotate(-180)"/><rect class="cls-3" x="527.21" y="230.85" width="109.02" height="191.7" transform="translate(1163.43 653.41) rotate(-180)"/><circle class="cls-9" cx="581.71" cy="441.56" r="10.46"/><path d="M544.89,258.56l-.73-8.41,1.89.06,1.28-.06,9.38,10.32.06-1.91-1.28-8.41,2.54.06,1.79-.06-.65,8.41.73,5.25-1.85-.06-1.28.06-9.29-10.24-.19,5,1.28,5.25-2.52-.06-1.81.06Z"/><path d="M577.72,263.81l-9.7-.06-3.49.06.65-5.25-.65-8.39,3.49.06,9.49-.06-.07,1.72.07,1.72h-9.78l-.23,2.21H576V258h-8.52l.15,2.39h10.14l-.07,1.73Z"/><path d="M584.8,260.39l-4.14-10.24H585l2,10.26,3.6-10.24,1,.06,1-.06,3.7,10.26,2-10.28h4.33l-4.08,10.24-1.16,3.42-1-.06-1.79.06-.82-3.42-2.08-6.82-2,6.82-.78,3.44-1.81-.08-1.2.06Z"/><path d="M606.3,258.26a12.55,12.55,0,0,0,7.54,2.38c2.23,0,3.31-.74,3.31-1.47,0-2.36-11.13.63-11.21-5.18,0-3,2.79-4.18,6.69-4.18a16,16,0,0,1,6.53,1.26l-.86,3.47a16.46,16.46,0,0,0-6.77-1.3c-1.53,0-3.45.35-3.45,1.26,0,2.42,11.9-.38,11.82,5.32,0,2.79-2.73,4.31-6.5,4.33a14,14,0,0,1-8-2.27Z"/><rect x="540.3" y="277.52" width="82.9" height="49.19"/><line class="cls-10" x1="543.08" y1="390.61" x2="620.42" y2="390.61"/><line class="cls-10" x1="543.08" y1="375.18" x2="620.42" y2="375.18"/><line class="cls-10" x1="543.08" y1="406.04" x2="620.42" y2="406.04"/><line class="cls-10" x1="543.08" y1="344.31" x2="620.42" y2="344.31"/><line class="cls-10" x1="543.08" y1="359.74" x2="620.42" y2="359.74"/></svg>