<svg id="Layer_1" data-name="Layer 1" xmlns="http://www.w3.org/2000/svg" viewBox="0 0 1920 510.19"><defs><style>.cls-1,.cls-13,.cls-6,.cls-8{fill:#fff;}.cls-1,.cls-11,.cls-13,.cls-3,.cls-4,.cls-5,.cls-6,.cls-8{stroke:#000;stroke-miterlimit:10;}.cls-1,.cls-3,.cls-4,.cls-5,.cls-8{stroke-width:4px;}.cls-2{fill:#f07d00;opacity:0.5;}.cls-11,.cls-3,.cls-4{fill:none;}.cls-13,.cls-4,.cls-5,.cls-8{stroke-linecap:round;}.cls-5{fill:#fff59f;}.cls-6{stroke-width:4.2px;}.cls-7{font-size:39.47px;letter-spacing:0.1em;}.cls-10,.cls-12,.cls-7{font-family:Moche-Bold, Moche;font-weight:700;}.cls-9{fill:#9bff94;}.cls-10{font-size:22px;letter-spacing:0.1em;}.cls-11{stroke-width:3px;}.cls-12{font-size:21.03px;letter-spacing:0.1em;}.cls-13{stroke-width:3.69px;}</style></defs><path class="cls-1" d="M686.62,300.05A117.87,117.87,0,1,1,804.49,182.18,118,118,0,0,1,686.62,300.05Z"/><path class="cls-2" d="M686.64,80.31V284.05a101.87,101.87,0,1,0,0-203.74Z"/><circle class="cls-3" cx="686.62" cy="182.18" r="101.87"/><line class="cls-4" x1="686.62" y1="80.31" x2="686.62" y2="95.64"/><line class="cls-4" x1="686.62" y1="268.72" x2="686.62" y2="284.05"/><line class="cls-4" x1="788.49" y1="182.18" x2="773.16" y2="182.18"/><line class="cls-4" x1="600.08" y1="182.18" x2="584.75" y2="182.18"/><rect class="cls-5" x="682.25" y="135.64" width="8.74" height="46.8" rx="4.37"/><rect class="cls-5" x="721.2" y="143.5" width="8.74" height="77.89" rx="4.37" transform="translate(908.02 -543.12) rotate(90)"/><circle cx="686.62" cy="182.18" r="10.66"/><path class="cls-1" d="M1399.91,300.05a117.87,117.87,0,1,1,117.87-117.87A118,118,0,0,1,1399.91,300.05Z"/><path class="cls-2" d="M1399.91,80.57V284.32a101.88,101.88,0,0,0,0-203.75Z"/><circle class="cls-3" cx="1399.91" cy="182.18" r="101.87"/><line class="cls-4" x1="1399.91" y1="80.31" x2="1399.91" y2="95.64"/><line class="cls-4" x1="1399.91" y1="268.72" x2="1399.91" y2="284.05"/><line class="cls-4" x1="1501.78" y1="182.18" x2="1486.45" y2="182.18"/><line class="cls-4" x1="1313.37" y1="182.18" x2="1298.04" y2="182.18"/><rect class="cls-5" x="1395.54" y="135.64" width="8.74" height="46.8" rx="4.37"/><rect class="cls-5" x="1434.49" y="143.5" width="8.74" height="77.89" rx="4.37" transform="translate(1621.31 -1256.41) rotate(90)"/><circle cx="1399.91" cy="182.18" r="10.66"/><polygon class="cls-6" points="1355.03 461.06 1114.24 461.06 1114.24 218.33 1355.03 218.33 1355.03 437.41 1364.56 437.41 1364.56 461.06 1355.03 461.06"/><path class="cls-1" d="M1366.52,461.06h0A11.63,11.63,0,0,1,1355,449.57V366.62H1378v82.95A11.5,11.5,0,0,1,1366.52,461.06Z"/><text class="cls-7" transform="translate(1162.55 272.51)">NEWS</text><rect x="1134.3" y="291.44" width="202.23" height="53.57"/><rect x="1134.3" y="363.29" width="88.1" height="49.63"/><line class="cls-8" x1="1240.4" y1="412.92" x2="1331.41" y2="412.92"/><line class="cls-8" x1="1240.4" y1="397.49" x2="1331.41" y2="397.49"/><line class="cls-8" x1="1240.4" y1="428.35" x2="1331.41" y2="428.35"/><line class="cls-8" x1="1240.4" y1="443.79" x2="1331.41" y2="443.79"/><line class="cls-8" x1="1240.4" y1="366.62" x2="1331.41" y2="366.62"/><line class="cls-8" x1="1240.4" y1="382.06" x2="1331.41" y2="382.06"/><line class="cls-8" x1="1134.3" y1="428.35" x2="1225.31" y2="428.35"/><line class="cls-8" x1="1134.3" y1="443.79" x2="1225.31" y2="443.79"/><path class="cls-9" d="M1178.29,184.82a13.81,13.81,0,0,1-11.55-6.21,17.81,17.81,0,0,0-20.3-7.15,13.71,13.71,0,0,1-4.24.67,13.93,13.93,0,0,1-10-4.3,13.66,13.66,0,0,1-3.8-10.15A17.89,17.89,0,0,0,1116.2,140a13.84,13.84,0,0,1-6.48-21.75,17.9,17.9,0,0,0,.54-21.52,13.82,13.82,0,0,1,7.54-21.4,17.89,17.89,0,0,0,13.07-17.09,13.86,13.86,0,0,1,13.81-13.78,13.68,13.68,0,0,1,4.87.9,17.84,17.84,0,0,0,20.63-6.15,13.84,13.84,0,0,1,22.69.56,17.81,17.81,0,0,0,20.3,7.15,13.79,13.79,0,0,1,14.22,3.64,13.66,13.66,0,0,1,3.8,10.15,17.89,17.89,0,0,0,12.22,17.72,13.83,13.83,0,0,1,6.47,21.75,17.89,17.89,0,0,0-.53,21.51,13.82,13.82,0,0,1-7.54,21.4,17.88,17.88,0,0,0-13.07,17.1A13.81,13.81,0,0,1,1210.05,173a17.84,17.84,0,0,0-20.62,6.14A13.7,13.7,0,0,1,1178.29,184.82Z"/><path d="M1181.32,35.53a11.66,11.66,0,0,1,9.88,5.3,19.82,19.82,0,0,0,22.57,8,11.77,11.77,0,0,1,12.17,3.11,11.7,11.7,0,0,1,3.25,8.68,19.92,19.92,0,0,0,13.59,19.71,11.83,11.83,0,0,1,5.54,18.6,19.9,19.9,0,0,0-.59,23.93,11.83,11.83,0,0,1-6.45,18.31,19.88,19.88,0,0,0-14.54,19,11.86,11.86,0,0,1-11.82,11.78,11.73,11.73,0,0,1-4.16-.76,19.83,19.83,0,0,0-22.94,6.83,11.83,11.83,0,0,1-19.41-.48,19.81,19.81,0,0,0-16.54-8.9,19.59,19.59,0,0,0-6,.95,11.78,11.78,0,0,1-12.18-3.12,11.69,11.69,0,0,1-3.24-8.68,19.9,19.9,0,0,0-13.59-19.7,11.82,11.82,0,0,1-5.54-18.6,19.9,19.9,0,0,0,.59-23.93,11.83,11.83,0,0,1,6.45-18.31,19.9,19.9,0,0,0,14.54-19,11.79,11.79,0,0,1,16-11,19.83,19.83,0,0,0,22.94-6.83,11.72,11.72,0,0,1,9.53-4.83m0-4A15.71,15.71,0,0,0,1168.57,38a15.81,15.81,0,0,1-18.31,5.45,15.8,15.8,0,0,0-21.39,14.75,15.81,15.81,0,0,1-11.61,15.17,15.84,15.84,0,0,0-8.63,24.5,15.82,15.82,0,0,1-.47,19.1,15.84,15.84,0,0,0,7.42,24.9,15.82,15.82,0,0,1,10.84,15.73,15.8,15.8,0,0,0,20.63,15.78,15.78,15.78,0,0,1,18,6.35,15.84,15.84,0,0,0,26,.64,15.85,15.85,0,0,1,18.31-5.46,15.8,15.8,0,0,0,21.39-14.74,15.82,15.82,0,0,1,11.6-15.18,15.83,15.83,0,0,0,8.64-24.49,15.83,15.83,0,0,1,.47-19.11h0A15.83,15.83,0,0,0,1244,76.49h0a15.81,15.81,0,0,1-10.84-15.73A15.8,15.8,0,0,0,1212.56,45a15.84,15.84,0,0,1-18-6.35,15.71,15.71,0,0,0-13.21-7.1Z"/><text class="cls-10" transform="translate(1134.97 99.97)">Better <tspan x="-3.18" y="25">Option</tspan></text><rect class="cls-1" x="511.83" y="213.2" width="139.77" height="248.98" rx="13.17" transform="translate(1163.43 675.39) rotate(-180)"/><rect class="cls-3" x="527.21" y="230.85" width="109.02" height="191.7" transform="translate(1163.43 653.41) rotate(-180)"/><circle class="cls-11" cx="581.71" cy="441.56" r="10.46"/><text class="cls-12" transform="translate(542.89 263.81)">NEWS</text><rect x="540.3" y="277.52" width="82.9" height="49.19"/><line class="cls-13" x1="543.08" y1="390.61" x2="620.42" y2="390.61"/><line class="cls-13" x1="543.08" y1="375.18" x2="620.42" y2="375.18"/><line class="cls-13" x1="543.08" y1="406.04" x2="620.42" y2="406.04"/><line class="cls-13" x1="543.08" y1="344.31" x2="620.42" y2="344.31"/><line class="cls-13" x1="543.08" y1="359.74" x2="620.42" y2="359.74"/></svg>