<svg id="Layer_1" data-name="Layer 1" xmlns="http://www.w3.org/2000/svg" viewBox="0 0 260 260"><defs><style>.cls-1{fill:#a4d3ff;stroke:#000;stroke-miterlimit:10;stroke-width:3px;}</style></defs><path class="cls-1" d="M175.59,223.38l-5.3,8.78-9.87-2.8-6.61,7.85-9.31-4.31-7.76,6.71-8.52-5.71-8.71,5.42-7.52-7-9.45,4-6.34-8.06-10,2.46-5-9L71,222.64,67.49,213l-10.23-.73-2-10.07-10-2.32-.39-10.25-9.5-3.87,1.22-10.18-8.78-5.3,2.8-9.87-7.85-6.61,4.31-9.31-6.71-7.76,5.71-8.52-5.42-8.71,7-7.52-4-9.45,8.06-6.34-2.46-10,9-5L37.36,71,47,67.49l.73-10.23,10.07-2,2.32-10,10.25-.39,3.87-9.5,10.18,1.22,5.3-8.78,9.87,2.8,6.61-7.85,9.31,4.31,7.76-6.71,8.52,5.71,8.71-5.42,7.52,7,9.45-4,6.34,8.06,9.95-2.46,5,9L189,37.36,192.51,47l10.23.73,2,10.07,10,2.32.39,10.25,9.5,3.87-1.22,10.18,8.78,5.3-2.8,9.87,7.85,6.61-4.31,9.31,6.71,7.76-5.71,8.52,5.42,8.71-7,7.52,4,9.45-8.06,6.34,2.46,9.95-9,5,.87,10.22L213,192.51l-.73,10.23-10.07,2-2.32,10-10.25.39-3.87,9.5Z"/><path d="M107.82,80.93l-.43-5h-5.45l-.21-3.5h14.38l-.22,3.5h-5.42l-.43,5,1.09,5.34-2.2,0-2.2,0Z"/><path d="M123.4,77.36a6.94,6.94,0,0,1,4.87-2c2.39,0,4.78,1.33,4.1,3.94L131.92,81l1,5.32-2.11-.06-2.11.06,1-5.32c.24-1.19-.81-2.09-2.65-2.09a8.43,8.43,0,0,0-4.06,1.2l1.09,6.21-2.2-.06-2.2.06L120.83,81l-1.09-9.61,2.2.06,2.2-.06Z"/><path d="M137.65,69.8l2.26.07,2.18-.07v3.59h-4.44ZM138.76,81l-1.09-5.32,2.2.07,2.2-.07L141,81l1.09,5.32-2.2-.06-2.2.06Z"/><path d="M146.81,81.85a13.87,13.87,0,0,0,6.58,1.77c1.65,0,2.12-.34,2.12-.83,0-2-8.82.26-8.82-4.19,0-2.37,2.71-3.29,5.94-3.29a10.28,10.28,0,0,1,4.65,1.07l-.85,2.86a16.58,16.58,0,0,0-5.34-.91c-.86,0-2.1.08-2.1.74,0,1.8,8.85-.45,8.85,4.13,0,2.43-2.54,3.41-5.19,3.41a11.77,11.77,0,0,1-6.5-1.88Z"/><path d="M92,116l-1.45-.06L89,116l-1.07-3.48-1.43-3.93L85,112.47,83.88,116l-1.48-.09L81,116l-1.26-3.48-3-7.2h4.4l1.15,8.54,3.23-8.5,1,.07,1-.07,3,8.52,1.26-8.56h4.42l-3,7.2Z"/><path d="M111.44,115.14a13.63,13.63,0,0,1-5.51,1.15c-4,0-7-1.81-7-5.49,0-3.33,2.48-5.79,6.56-5.79,3.16,0,5.94,1.43,5.94,5.07a10.47,10.47,0,0,1-.13,1.58l-10.08,0c0,1.3,2.18,1.66,4.14,1.66a11.58,11.58,0,0,0,5.11-1.06Zm-2.2-5c0-1.35-1.54-2.25-3.89-2.25s-4,.9-4,2.25Z"/><path d="M119.28,107.19A6.82,6.82,0,0,1,124,105a5.83,5.83,0,0,1,5.77,5.64,5.68,5.68,0,0,1-5.61,5.64,6.44,6.44,0,0,1-5.22-2.58l.11,2.24-1.35-.06-2.2.06,1.09-5.32L115.52,101l2.2,0,2.2-.06Zm-.42,4.23a7.81,7.81,0,0,0,4.46,1.28c2.26,0,4.14-.85,4.14-2s-1.88-2.11-4.33-2.11a6.63,6.63,0,0,0-4.12,1.24l-.15,1.47Z"/><path d="M133.88,111.53a13.81,13.81,0,0,0,6.58,1.77c1.64,0,2.11-.34,2.11-.83,0-2-8.82.25-8.82-4.19,0-2.37,2.71-3.29,5.94-3.29a10.22,10.22,0,0,1,4.66,1.07l-.86,2.86a16.57,16.57,0,0,0-5.34-.92c-.85,0-2.09.09-2.09.75,0,1.79,8.84-.45,8.84,4.12,0,2.44-2.54,3.42-5.19,3.42a11.81,11.81,0,0,1-6.49-1.88Z"/><path d="M149,99.48l2.27.06,2.18-.06v3.59H149Zm1.11,11.15L149,105.31l2.2.07,2.2-.07-1.09,5.32,1.09,5.32-2.2-.06L149,116Z"/><path d="M164.73,112.68a7.25,7.25,0,0,0,2.12-.36l.34,3.22a10.71,10.71,0,0,1-4,.75c-3.74,0-4.21-1.73-3.76-3.54l.54-2.12v-2.52h-2.48l.1-1.35-.08-1.45h2.07l-.87-3.74,2.3.07,2.18-.07-.79,3.74h3.76l-.08,1.43.06,1.37h-4.19v2.52C161.93,112,163.13,112.68,164.73,112.68Z"/><path d="M182.66,115.14a13.63,13.63,0,0,1-5.51,1.15c-4,0-7-1.81-7-5.49,0-3.33,2.48-5.79,6.56-5.79,3.16,0,5.94,1.43,5.94,5.07a10.47,10.47,0,0,1-.13,1.58l-10.08,0c0,1.3,2.18,1.66,4.14,1.66a11.58,11.58,0,0,0,5.11-1.06Zm-2.2-5c0-1.35-1.54-2.25-3.89-2.25s-4,.9-4,2.25Z"/><path d="M105.14,144.82A13.64,13.64,0,0,1,99.62,146c-4,0-7-1.82-7-5.49,0-3.33,2.48-5.79,6.56-5.79,3.16,0,5.94,1.43,5.94,5.06a11.7,11.7,0,0,1-.13,1.58l-10.08,0c0,1.3,2.17,1.66,4.14,1.66A11.45,11.45,0,0,0,104.2,142Zm-2.21-5c0-1.35-1.53-2.25-3.88-2.25s-4,.9-4,2.25Z"/><path d="M110.31,140.31,109.22,135l2.2.06,2.2-.06-.51,2a6.29,6.29,0,0,1,4.72-2.35c1.6,0,3.14.66,3.4,2.29a6.21,6.21,0,0,1,4.65-2.33c2.07,0,4,1.11,3.27,3.93l-.45,1.69,1,5.31-2.12-.06-2.11.06,1-5.31c.32-1.59-.81-2.1-2.05-2.1a7.45,7.45,0,0,0-3.82,1.26l1,6.2-2.11-.07-2.12.07,1-5.32c.32-1.58-.81-2.1-2-2.1a7.64,7.64,0,0,0-3.91,1.31l1.09,6.11-2.2-.07-2.2.07Z"/><path d="M134.43,129.16l2.27.06,2.18-.06v3.59h-4.45Zm1.11,11.15L134.46,135l2.2.06,2.2-.06-1.09,5.32,1.09,5.32-2.2-.07-2.2.07Z"/><path d="M150.2,142.36a7.25,7.25,0,0,0,2.12-.36l.34,3.22a10.71,10.71,0,0,1-4,.75c-3.74,0-4.21-1.73-3.76-3.55l.54-2.11v-2.52h-2.48l.1-1.35L143,135H145l-.87-3.74,2.3.06,2.18-.06-.79,3.74h3.76l-.08,1.43.06,1.37H147.4v2.52C147.4,141.65,148.6,142.36,150.2,142.36Z"/><path d="M156.31,141.21a13.87,13.87,0,0,0,6.58,1.77c1.65,0,2.12-.34,2.12-.83,0-2-8.82.25-8.82-4.19,0-2.37,2.71-3.29,5.94-3.29a10.15,10.15,0,0,1,4.65,1.07l-.85,2.86a16.57,16.57,0,0,0-5.34-.92c-.86,0-2.1.09-2.1.75,0,1.79,8.85-.45,8.85,4.12,0,2.44-2.54,3.42-5.19,3.42a11.85,11.85,0,0,1-6.5-1.88Z"/><path d="M64.05,168.41c0-6.11,4.25-7.33,6.43-7.33s6.43,1.22,6.43,7.33c0,5.16-3.25,7.24-6.43,7.24S64.05,173.57,64.05,168.41Zm10.72-.09c0-2.07-1.43-3.74-4.29-3.74s-4.31,1.67-4.31,3.74c0,2.67,2.09,3.85,4.31,3.85S74.77,171,74.77,168.32Z"/><path d="M82,171.72l2.26.06,2.18-.06v3.59H82Z"/><path d="M91.49,168.41c0-6.11,4.25-7.33,6.43-7.33s6.43,1.22,6.43,7.33c0,5.16-3.25,7.24-6.43,7.24S91.49,173.57,91.49,168.41Zm10.72-.09c0-2.07-1.43-3.74-4.29-3.74s-4.32,1.67-4.32,3.74c0,2.67,2.1,3.85,4.32,3.85S102.21,171,102.21,168.32Z"/><path d="M108.11,170.82a11.42,11.42,0,0,0,5.64,1.35c1.28,0,3.38-.18,3.38-1.14,0-.77-1.35-1.28-4.17-1.28H110.5l0-1.47,0-1.54h1.88c2.29,0,4.32-.36,4.32-1.37,0-.68-1.9-.81-3.08-.81a9.69,9.69,0,0,0-5.06,1.17l-1.35-3a9.32,9.32,0,0,1,5.64-1.62c2.74,0,5.94.85,5.94,3.76,0,2-1.69,2.65-2.63,3.1,1.39.51,3.08,1.19,3.08,3.39,0,3.27-3,4.32-6.34,4.32a10.62,10.62,0,0,1-6.18-1.67Z"/><path d="M126.06,171.5c-.88.05-1.28.26-1.28.6s.64.73,3.39.73h2.7c2.56,0,4,1.73,4,3.46,0,2.2-2.37,3.61-6.34,3.61-4.13,0-6.16-1.45-6.16-3.38a2.77,2.77,0,0,1,2.16-2.6c-1-.41-1.43-1-1.43-1.71a2,2,0,0,1,1.52-1.86,3.42,3.42,0,0,1-.67-2.12c0-2.26,1.82-3.86,4.62-3.86a4.68,4.68,0,0,1,3.05,1l3.38-.81-.07,1.9.07,1.45h-2.05a2.11,2.11,0,0,1,0,.36c0,2.38-1.8,3.76-4.4,3.76A6,6,0,0,1,126.06,171.5Zm2.44,5.34c3,0,4-.49,4-1.41,0-.42-.3-1-1.28-1H128.2a13.66,13.66,0,0,1-1.8-.09c-.83.2-1.22.73-1.22,1.18C125.18,176.48,126.06,176.84,128.5,176.84Zm2.58-8.58c0-.62-.73-1.35-2.54-1.35s-2.54.73-2.54,1.35,1,1.19,2.52,1.19S131.08,169,131.08,168.26Z"/><path d="M163.47,174.15a15.77,15.77,0,0,1-6.79,1.5c-6.2,0-8.89-3.29-8.89-7.33,0-4.68,3.44-7.24,9.19-7.24a15.89,15.89,0,0,1,6.45,1.32l-.92,3.53a13.07,13.07,0,0,0-6.13-1.41c-4,0-6.22,1.47-6.22,3.82s2.1,3.76,5.9,3.76a14.77,14.77,0,0,0,6.64-1.54Z"/><path d="M175.12,161.08c4.89,0,8.39,2.63,8.39,7.18,0,5-4.25,7.43-8.39,7.43s-8.44-2.44-8.44-7.43C166.68,163.71,170.23,161.08,175.12,161.08Zm0,11.11c3,0,6-1.67,6-3.93,0-2-2.5-3.68-6-3.68s-6.07,1.63-6.07,3.68C169.05,170.52,172.06,172.19,175.12,172.19Z"/><path d="M195.74,174l0,1.3h-9.19v-2.52c1.88-4,7.56-2.8,7.56-4.46,0-.77-1.06-1.06-2.16-1.06a6,6,0,0,0-4.26,1.73l-1.18-2.11c.76-1.2,2.35-2.25,5.09-2.25s4.14,1.27,4.14,3.11c0,3.54-6.66,2-7.34,4.93h7.34Z"/></svg>