<svg id="Layer_1" data-name="Layer 1" xmlns="http://www.w3.org/2000/svg" viewBox="0 0 260 260"><defs><style>.cls-1{fill:#a4d3ff;stroke:#000;stroke-miterlimit:10;stroke-width:3px;}.cls-2{font-size:21.37px;font-family:Moche-Bold, Moche;font-weight:700;letter-spacing:0.1em;}.cls-3{font-size:16px;letter-spacing:0.1em;}.cls-4{font-size:26.12px;letter-spacing:0.1em;}</style></defs><path class="cls-1" d="M175.59,223.38l-5.3,8.78-9.87-2.8-6.61,7.85-9.31-4.31-7.76,6.71-8.52-5.71-8.71,5.42-7.52-7-9.45,4-6.34-8.06-10,2.46-5-9L71,222.64,67.49,213l-10.23-.73-2-10.07-10-2.32-.39-10.25-9.5-3.87,1.22-10.18-8.78-5.3,2.8-9.87-7.85-6.61,4.31-9.31-6.71-7.76,5.71-8.52-5.42-8.71,7-7.52-4-9.45,8.06-6.34-2.46-10,9-5L37.36,71,47,67.49l.73-10.23,10.07-2,2.32-10,10.25-.39,3.87-9.5,10.18,1.22,5.3-8.78,9.87,2.8,6.61-7.85,9.31,4.31,7.76-6.71,8.52,5.71,8.71-5.42,7.52,7,9.45-4,6.34,8.06,9.95-2.46,5,9L189,37.36,192.51,47l10.23.73,2,10.07,10,2.32.39,10.25,9.5,3.87-1.22,10.18,8.78,5.3-2.8,9.87,7.85,6.61-4.31,9.31,6.71,7.76-5.71,8.52,5.42,8.71-7,7.52,4,9.45-8.06,6.34,2.46,9.95-9,5,.87,10.22L213,192.51l-.73,10.23-10.07,2-2.32,10-10.25.39-3.87,9.5Z"/><text class="cls-2" transform="translate(101.52 86.27)">This <tspan x="-24.84" y="29.68">website </tspan><tspan x="-9.5" y="59.35">emits </tspan><tspan x="-37.83" y="89.03">0.03g CO</tspan><tspan class="cls-3" x="84.78" y="89.03">2</tspan><tspan class="cls-4" x="96.4" y="89.03"> </tspan></text></svg>