<svg id="Layer_1" data-name="Layer 1" xmlns="http://www.w3.org/2000/svg" viewBox="0 0 1920 1649.18"><defs><style>.cls-1,.cls-3,.cls-4,.cls-5,.cls-6,.cls-7{fill:none;}.cls-1,.cls-2,.cls-3,.cls-4,.cls-5,.cls-6{stroke:#000;}.cls-1{stroke-linejoin:bevel;}.cls-1,.cls-2,.cls-4,.cls-6,.cls-7{stroke-width:4px;}.cls-2{fill:#fff;}.cls-2,.cls-3,.cls-4,.cls-5,.cls-7,.cls-8{stroke-miterlimit:10;}.cls-3{stroke-width:2px;}.cls-5{stroke-width:3px;}.cls-6{stroke-linejoin:round;}.cls-7,.cls-8{stroke:#fff;}.cls-8{stroke-linecap:round;stroke-width:3.53px;}</style></defs><rect class="cls-1" x="947.34" y="700.63" width="50.25" height="54.67"/><rect class="cls-1" x="947.34" y="755.29" width="50.25" height="54.67"/><polygon class="cls-1" points="1019.76 977.8 925.18 977.8 947.34 809.96 997.6 809.96 1019.76 977.8"/><polygon class="cls-1" points="997.6 700.63 947.34 700.63 960.97 650.11 983.97 650.11 997.6 700.63"/><polyline class="cls-1" points="947.34 809.96 997.6 755.29 947.34 700.63"/><polyline class="cls-1" points="997.6 700.63 947.34 755.29 997.6 809.96"/><polyline class="cls-1" points="947.34 700.63 905.81 755.29 905.81 776"/><polyline class="cls-1" points="1039.13 776 1039.13 755.29 997.6 700.63"/><polyline class="cls-1" points="905.81 809.96 947.34 809.96 1004.88 865.91 932.42 921.85 1019.76 977.8 925.18 977.8 1012.4 922.02 939.93 866.1 997.6 809.96 1039.13 809.96"/><rect class="cls-2" x="946.33" y="1198.02" width="195.13" height="125.08" rx="10.14" transform="translate(2087.78 2521.13) rotate(-180)"/><rect class="cls-2" x="1018.75" y="1323.1" width="50.27" height="31.34" transform="translate(2087.78 2677.55) rotate(-180)"/><rect class="cls-2" x="993.91" y="1354.52" width="99.96" height="9.75" transform="translate(2087.78 2718.8) rotate(-180)"/><rect x="955.04" y="1205.86" width="177.7" height="95.28" transform="translate(2087.78 2507.01) rotate(-180)"/><rect class="cls-2" x="820.5" y="1257.47" width="85.14" height="151.68" rx="9.86" transform="translate(2061.89 2375.15) rotate(163.91)"/><rect x="828.01" y="1268.49" width="66.41" height="116.78" transform="translate(2056.47 2363.05) rotate(163.91)"/><circle class="cls-3" cx="880.61" cy="1394.1" r="6.37"/><line class="cls-4" x1="1028.57" y1="280.67" x2="1028.57" y2="305.33"/><line class="cls-4" x1="910.08" y1="350.34" x2="910.08" y2="375.33"/><line class="cls-5" x1="972.47" y1="424.11" x2="972.47" y2="444.57"/><path d="M1144,289.69l4.2-.07c4.93-.06,7.81,2.38,7.81,6.64,0,4.49-3.09,7.07-8.33,7l-3.68-.06-3.46.06.65-5.25-.65-8.38Zm-.5,10.14H1148c3.74,0,5.69-1.18,5.69-3.42s-1.87-3.32-5.46-3.32h-4.32l-.4,6.65Z"/><path d="M1166.91,301a6.78,6.78,0,0,1-5.58,2.63c-1.81,0-4-.68-4-3.13,0-3.07,3.74-3.63,9.77-3.68-.46-1-2.06-1.47-3.74-1.47a9.49,9.49,0,0,0-5,1.45l-.75-2.83a11.94,11.94,0,0,1,6.07-1.45c3.23,0,6.63.92,6,3.78l-.42,1.76,1,5.23-2.16-.06-1.24.06Zm-5.27,0a7.73,7.73,0,0,0,5.54-2.64c-6.88,0-7.76.63-7.76,1.51C1159.42,300.48,1160,301,1161.64,301Z"/><path d="M1178.88,300a6.93,6.93,0,0,0,2.08-.36l.34,3.17a10.57,10.57,0,0,1-4,.74c-3.68,0-4.14-1.71-3.7-3.49l.53-2.08v-2.48h-2.44l.11-1.32-.09-1.43h2l-.86-3.67,2.27.06,2.14-.06-.78,3.67h3.7l-.09,1.41.07,1.34h-4.12V298C1176.13,299.34,1177.31,300,1178.88,300Z"/><path d="M1191.75,301a6.77,6.77,0,0,1-5.58,2.63c-1.81,0-4-.68-4-3.13,0-3.07,3.73-3.63,9.76-3.68-.46-1-2.06-1.47-3.74-1.47a9.42,9.42,0,0,0-5,1.45l-.76-2.83a11.94,11.94,0,0,1,6.07-1.45c3.23,0,6.63.92,6,3.78l-.42,1.76,1,5.23-2.16-.06-1.24.06Zm-5.27,0a7.77,7.77,0,0,0,5.55-2.64c-6.89,0-7.77.63-7.77,1.51C1184.26,300.48,1184.82,301,1186.48,301Z"/><path d="M1219.77,302.12a15.66,15.66,0,0,1-6.68,1.47c-6.09,0-8.73-3.24-8.73-7.21,0-4.59,3.38-7.11,9-7.11a15.46,15.46,0,0,1,6.34,1.3l-.9,3.46a12.91,12.91,0,0,0-6-1.38c-4,0-6.11,1.45-6.11,3.76s2,3.69,5.79,3.69a14.48,14.48,0,0,0,6.53-1.51Z"/><path d="M1233.08,302.45a13.34,13.34,0,0,1-5.42,1.14c-3.94,0-6.84-1.79-6.84-5.4,0-3.28,2.43-5.69,6.45-5.69,3.1,0,5.83,1.41,5.83,5A11.28,11.28,0,0,1,1233,299l-9.91,0c0,1.28,2.14,1.64,4.07,1.64a11.35,11.35,0,0,0,5-1Zm-2.16-4.93c0-1.32-1.51-2.21-3.82-2.21s-4,.89-4,2.21Z"/><path d="M1236.06,298l-1.07-5.23,2.17.07,2.16-.07-.46,2a6.85,6.85,0,0,1,5-2.25c2.35,0,4.7,1.3,4,3.86l-.44,1.66,1,5.23-2.07-.06-2.08.06,1-5.23c.23-1.17-.8-2.06-2.61-2.06a8.37,8.37,0,0,0-4.49,1.49l1,5.8-2.16-.06-2.17.06Z"/><path d="M1257.11,300a6.92,6.92,0,0,0,2.07-.36l.34,3.17a10.57,10.57,0,0,1-4,.74c-3.67,0-4.13-1.71-3.69-3.49l.52-2.08v-2.48H1250l.1-1.32-.08-1.43h2l-.86-3.67,2.27.06,2.14-.06-.77,3.67h3.69l-.08,1.41.06,1.34h-4.11V298C1254.36,299.34,1255.53,300,1257.11,300Z"/><path d="M1272.62,302.45a13.29,13.29,0,0,1-5.41,1.14c-4,0-6.85-1.79-6.85-5.4,0-3.28,2.44-5.69,6.45-5.69,3.1,0,5.83,1.41,5.83,5a11.28,11.28,0,0,1-.12,1.55l-9.91,0c0,1.28,2.14,1.64,4.07,1.64a11.32,11.32,0,0,0,5-1Zm-2.16-4.93c0-1.32-1.51-2.21-3.82-2.21s-4,.89-4,2.21Z"/><path d="M1275.61,298l-1.07-5.23,2.16.07,1.32-.07-.12,2.48a6.89,6.89,0,0,1,5-2.75V296a4.65,4.65,0,0,0-.57-.05,8.37,8.37,0,0,0-4.49,1.49l1,5.8-2.16-.06-2.16.06Z"/><path d="M1084.86,800.71l-.42-4.93h-5.36l-.21-3.44H1093l-.21,3.44h-5.33l-.42,4.93,1.07,5.25-2.16,0-2.16,0Z"/><path d="M1095.55,800.73l-1.08-5.22,2.17.06,1.32-.06-.13,2.47a6.93,6.93,0,0,1,5-2.75v3.49a4.78,4.78,0,0,0-.57,0,8.28,8.28,0,0,0-4.49,1.49l1,5.79-2.16-.06-2.17.06Z"/><path d="M1113.48,803.67a6.8,6.8,0,0,1-5.59,2.63c-1.8,0-4-.67-4-3.13,0-3.07,3.74-3.63,9.77-3.68-.47-1-2.06-1.46-3.74-1.46a9.52,9.52,0,0,0-5,1.44l-.75-2.83a11.87,11.87,0,0,1,6.06-1.45c3.24,0,6.64.93,6,3.78l-.42,1.76,1,5.23-2.17-.06-1.23.06Zm-5.27,0a7.76,7.76,0,0,0,5.54-2.64c-6.89,0-7.77.63-7.77,1.51C1106,803.19,1106.55,803.67,1108.21,803.67Z"/><path d="M1120.43,800.73l-1.07-5.22,2.16.06,2.16-.06-.46,2a6.86,6.86,0,0,1,5-2.25c2.35,0,4.71,1.3,4,3.87l-.44,1.65,1,5.23-2.08-.06-2.08.06,1-5.23c.23-1.17-.8-2.05-2.6-2.05a8.29,8.29,0,0,0-4.5,1.49l1,5.79-2.16-.06-2.16.06Z"/><path d="M1135.4,801.62a13.67,13.67,0,0,0,6.47,1.74c1.62,0,2.08-.34,2.08-.82,0-1.93-8.67.25-8.67-4.12,0-2.33,2.66-3.23,5.83-3.23a10.1,10.1,0,0,1,4.58,1l-.84,2.81a16.29,16.29,0,0,0-5.25-.9c-.84,0-2,.09-2,.74,0,1.76,8.69-.44,8.69,4.05,0,2.39-2.5,3.36-5.11,3.36a11.64,11.64,0,0,1-6.38-1.85Z"/><path d="M1149.2,800.73l-1.07-5.22,2.16.06,2.16-.06-.5,2a6.24,6.24,0,0,1,4.64-2.31c1.58,0,3.09.65,3.34,2.25a6.13,6.13,0,0,1,4.58-2.29c2,0,3.94,1.09,3.21,3.86l-.44,1.66,1,5.23-2.08-.06-2.08.06,1-5.23c.31-1.55-.8-2.06-2-2.06a7.4,7.4,0,0,0-3.76,1.24l1,6.09-2.08-.06-2.08.06,1-5.23c.32-1.55-.8-2.05-2-2.05a7.48,7.48,0,0,0-3.85,1.28l1.07,6-2.16-.06-2.16.06Z"/><path d="M1170.81,789.77l2.22.07,2.15-.07v3.53h-4.37Zm1.09,11-1.07-5.22,2.16.06,2.16-.06-1.07,5.22,1.07,5.23-2.16-.06-2.16.06Z"/><path d="M1177.72,801.62a13.6,13.6,0,0,0,6.46,1.74c1.62,0,2.08-.34,2.08-.82,0-1.93-8.67.25-8.67-4.12,0-2.33,2.67-3.23,5.84-3.23a10.1,10.1,0,0,1,4.58,1l-.84,2.81a16.34,16.34,0,0,0-5.25-.9c-.84,0-2.06.09-2.06.74,0,1.76,8.69-.44,8.69,4.05,0,2.39-2.5,3.36-5.1,3.36a11.64,11.64,0,0,1-6.38-1.85Z"/><path d="M1190.47,801.62a13.6,13.6,0,0,0,6.46,1.74c1.62,0,2.08-.34,2.08-.82,0-1.93-8.67.25-8.67-4.12,0-2.33,2.67-3.23,5.84-3.23a10.06,10.06,0,0,1,4.57,1l-.84,2.81a16.29,16.29,0,0,0-5.25-.9c-.84,0-2.05.09-2.05.74,0,1.76,8.69-.44,8.69,4.05,0,2.39-2.5,3.36-5.1,3.36a11.65,11.65,0,0,1-6.39-1.85Z"/><path d="M1203.19,789.77l2.23.07,2.14-.07v3.53h-4.37Zm1.09,11-1.07-5.22,2.16.06,2.17-.06-1.07,5.22,1.07,5.23-2.17-.06-2.16.06Z"/><path d="M1209.45,800.75c0-3.19,2.52-5.54,6.44-5.54s6.43,2.35,6.43,5.54c0,3.51-2.63,5.55-6.43,5.55S1209.45,804.26,1209.45,800.75Zm10.62.11c0-1-1.19-2.18-4.18-2.18s-4.19,1.15-4.19,2.18,1.59,2,4.17,2S1220.07,802,1220.07,800.86Z"/><path d="M1225.28,800.73l-1.07-5.22,2.16.06,2.17-.06-.47,2a6.88,6.88,0,0,1,5-2.25c2.36,0,4.71,1.3,4,3.87l-.44,1.65,1,5.23-2.08-.06-2.08.06,1-5.23c.23-1.17-.79-2.05-2.6-2.05a8.23,8.23,0,0,0-4.49,1.49l1,5.79-2.17-.06-2.16.06Z"/><path d="M1248.32,800.71l-.74-8.4,1.89.07,1.28-.07,9.37,10.31.06-1.91-1.28-8.4,2.54.07,1.78-.07-.65,8.4.74,5.25-1.85-.06-1.28.06-9.28-10.22-.19,5L1252,806l-2.52-.06-1.8.06Z"/><path d="M1277.46,805.16a13.29,13.29,0,0,1-5.41,1.14c-4,0-6.85-1.79-6.85-5.4,0-3.27,2.44-5.69,6.45-5.69,3.11,0,5.83,1.41,5.83,5a11.28,11.28,0,0,1-.12,1.55l-9.91,0c0,1.28,2.14,1.64,4.07,1.64a11.18,11.18,0,0,0,5-1Zm-2.16-4.93c0-1.32-1.51-2.2-3.82-2.2s-4,.88-4,2.2Z"/><path d="M1285.89,802.75a7,7,0,0,0,2.08-.36l.33,3.17a10.3,10.3,0,0,1-4,.74c-3.67,0-4.13-1.7-3.69-3.49l.52-2.08v-2.47h-2.43l.1-1.33-.08-1.42h2l-.86-3.68,2.27.06,2.14-.06-.77,3.68h3.69l-.08,1.4.06,1.35h-4.12v2.47C1283.13,802.06,1284.31,802.75,1285.89,802.75Z"/><path d="M1303.55,806l-1.43-.06-1.51.06-1-3.42-1.41-3.86-1.47,3.86-1.09,3.42-1.45-.08-1.41.08-1.24-3.42-3-7.08h4.33l1.13,8.4,3.17-8.35,1,.06,1-.06,3,8.37,1.24-8.42h4.34l-2.94,7.08Z"/><path d="M1308.31,800.75c0-3.19,2.52-5.54,6.45-5.54s6.43,2.35,6.43,5.54c0,3.51-2.63,5.55-6.43,5.55S1308.31,804.26,1308.31,800.75Zm10.63.11c0-1-1.2-2.18-4.18-2.18s-4.2,1.15-4.2,2.18,1.6,2,4.18,2S1318.94,802,1318.94,800.86Z"/><path d="M1324.15,800.73l-1.07-5.22,2.16.06,1.32-.06-.12,2.47a6.89,6.89,0,0,1,5-2.75v3.49a4.6,4.6,0,0,0-.56,0,8.29,8.29,0,0,0-4.5,1.49l1.05,5.79-2.16-.06-2.16.06Z"/><path d="M1344.26,806h-3.86l-2.14-5-1.66,1.16.82,3.84-2.16-.06-2.17.06,1.07-5.23-1.07-9.44,2.17.06,2.16-.06-1,8.23,5.72-5.15,1,1.91,1.12,1.62L1340,800l4.3,5.52Z"/><path d="M621.76,1201.2l-9.68-.07-3.48.07.65-5.25-.65-8.38,3.48.06,9.47-.06-.06,1.72.06,1.72h-9.76l-.23,2.21H620v2.12h-8.51l.15,2.39h10.12l-.06,1.72Z"/><path d="M624.94,1196l-1.08-5.23,2.17.06,2.16-.06-.46,2a6.88,6.88,0,0,1,5-2.24c2.35,0,4.7,1.3,4,3.86l-.44,1.66,1,5.23-2.07-.07-2.08.07,1-5.23c.23-1.18-.8-2.06-2.61-2.06a8.37,8.37,0,0,0-4.49,1.49l1.05,5.8-2.16-.07-2.17.07Z"/><path d="M651.12,1186.58l2.16,0-1.07,9.43,1.07,5.23-2.16-.07-1.32.07.1-2.21a6.31,6.31,0,0,1-5.12,2.54,5.61,5.61,0,0,1-5.52-5.56,5.69,5.69,0,0,1,5.67-5.52,6.78,6.78,0,0,1,4.64,2l-.61-5.88ZM645.83,1198a7,7,0,0,0,4.18-1.23v-.19l-.15-1.45a7,7,0,0,0-4.07-1.22c-2.4,0-4.25.9-4.25,2.08S643.39,1198,645.83,1198Z"/><path d="M671.18,1201.57c-3.34,0-7-1-7.37-5.62l-.66-8.38,1.75.06,2.58-.06-1.49,7.54c-.4,2,1.93,3,5.19,3s5.6-1,5.2-3l-1.49-7.54,2.58.06,1.75-.06-.65,8.38C678.21,1200.54,674.49,1201.57,671.18,1201.57Z"/><path d="M681.76,1196.85a13.64,13.64,0,0,0,6.47,1.74c1.61,0,2.08-.33,2.08-.82,0-1.93-8.68.26-8.68-4.11,0-2.33,2.67-3.24,5.84-3.24a10.1,10.1,0,0,1,4.58,1l-.84,2.82a16.07,16.07,0,0,0-5.25-.9c-.84,0-2.06.08-2.06.73,0,1.76,8.69-.44,8.69,4.05,0,2.4-2.49,3.36-5.1,3.36a11.56,11.56,0,0,1-6.38-1.85Z"/><path d="M706.12,1200.4a13.32,13.32,0,0,1-5.42,1.13c-4,0-6.84-1.78-6.84-5.39,0-3.28,2.43-5.69,6.44-5.69,3.11,0,5.84,1.4,5.84,5A10.12,10.12,0,0,1,706,1197l-9.91,0c0,1.28,2.14,1.64,4.08,1.64a11.31,11.31,0,0,0,5-1.05Zm-2.17-4.94c0-1.32-1.51-2.2-3.82-2.2s-4,.88-4,2.2Z"/><path d="M709.1,1196l-1.07-5.23,2.16.06,1.33-.06-.13,2.48a6.87,6.87,0,0,1,5-2.75V1194a4.78,4.78,0,0,0-.57,0,8.31,8.31,0,0,0-4.49,1.49l1.05,5.8-2.17-.07-2.16.07Z"/><path d="M728.86,1187.63l4.2-.06c4.94-.06,7.81,2.37,7.81,6.63,0,4.5-3.08,7.08-8.33,7l-3.68-.07-3.46.07.65-5.25-.65-8.38Zm-.5,10.14h4.47c3.74,0,5.69-1.17,5.69-3.42s-1.87-3.32-5.46-3.32h-4.32l-.4,6.66Z"/><path d="M754.4,1200.4a13.35,13.35,0,0,1-5.42,1.13c-4,0-6.85-1.78-6.85-5.39,0-3.28,2.44-5.69,6.45-5.69,3.11,0,5.84,1.4,5.84,5a11.55,11.55,0,0,1-.13,1.56l-9.91,0c0,1.28,2.14,1.64,4.07,1.64a11.32,11.32,0,0,0,5-1.05Zm-2.17-4.94c0-1.32-1.51-2.2-3.82-2.2s-4,.88-4,2.2Z"/><path d="M762,1201.13l-1.14.07-1.74-3.43-4-7.07h4.35l2.49,8.19,2.65-8.19h4.39l-4,7.07-1.75,3.43Z"/><path d="M770.19,1185l2.23.06,2.14-.06v3.52h-4.37Zm1.09,11-1.07-5.23,2.16.06,2.17-.06-1.07,5.23,1.07,5.23-2.17-.07-2.16.07Z"/><path d="M787.26,1194.54a15.15,15.15,0,0,0-4.14-.63c-2.3,0-4.43.63-4.43,2.1,0,1.18,1.35,2,4.08,2a16.71,16.71,0,0,0,4.49-.69l1,2.9a12.33,12.33,0,0,1-5.65,1.32c-3.61,0-6.19-1.62-6.19-5.35s2.94-5.73,6.76-5.73a10.29,10.29,0,0,1,5.08,1.19Z"/><path d="M801.6,1200.4a13.27,13.27,0,0,1-5.41,1.13c-4,0-6.85-1.78-6.85-5.39,0-3.28,2.44-5.69,6.45-5.69,3.11,0,5.83,1.4,5.83,5a11.42,11.42,0,0,1-.12,1.56l-9.91,0c0,1.28,2.14,1.64,4.07,1.64a11.32,11.32,0,0,0,5-1.05Zm-2.16-4.94c0-1.32-1.51-2.2-3.82-2.2s-4,.88-4,2.2Z"/><path class="cls-4" d="M1203.15,1066l-614.65,0A34.55,34.55,0,0,0,554,1100.6v90.86A34.55,34.55,0,0,0,588.5,1226h219a34.55,34.55,0,0,1,34.55,34.55h0"/><path class="cls-4" d="M1039.13,755.29H997.6L1039.13,810v20.71h474.28A34.55,34.55,0,0,1,1548,865.22V1031.5a34.55,34.55,0,0,1-34.55,34.55l-200.13,0"/><path class="cls-4" d="M799.81,578.71l487.38.1a34.55,34.55,0,0,0,34.56-34.55V362.42a34.55,34.55,0,0,0-34.55-34.55H1136.39a34.55,34.55,0,0,0-34.55,34.55v59.74a34.55,34.55,0,0,1-34.55,34.55H999.74"/><path class="cls-4" d="M439,830.65H406.6A34.55,34.55,0,0,1,372,796.11V613.36a34.54,34.54,0,0,1,34.54-34.55l275.8-.1"/><polyline class="cls-4" points="905.81 755.29 947.34 755.29 905.81 809.96 905.81 830.67 540.79 830.65"/><polyline class="cls-6" points="438.96 830.65 459.33 830.65 466.43 817.97 479.21 844.69 491.72 806.06 502.27 833.99 511.25 812.42 520.42 830.65 540.79 830.65"/><polyline class="cls-6" points="1203.15 1066.03 1223.17 1066.03 1233.19 1046.82 1243.71 1077.12 1252.21 1061.23 1261.44 1086.22 1275.57 1051.39 1287.74 1077.02 1293.25 1066.03 1313.28 1066.03"/><polyline class="cls-6" points="682.38 578.71 703.73 578.71 711.49 562.89 726.67 594.8 738.29 567.25 746.43 584.17 759.29 553.52 771.35 591.77 778.46 578.71 799.81 578.71"/><rect x="873.33" y="233.55" width="198.28" height="49.25" rx="9.32"/><circle class="cls-7" cx="1046.01" cy="258.17" r="9.59"/><line class="cls-8" x1="889.91" y1="247.41" x2="889.91" y2="268.93"/><line class="cls-8" x1="900" y1="247.41" x2="900" y2="268.93"/><line class="cls-8" x1="910.08" y1="247.41" x2="910.08" y2="268.93"/><line class="cls-8" x1="920.16" y1="247.41" x2="920.16" y2="268.93"/><line class="cls-8" x1="930.25" y1="247.41" x2="930.25" y2="268.93"/><line class="cls-8" x1="950.41" y1="247.41" x2="950.41" y2="268.93"/><line class="cls-8" x1="940.33" y1="247.41" x2="940.33" y2="268.93"/><rect x="873.33" y="303.25" width="198.28" height="49.25" rx="9.32"/><circle class="cls-7" cx="1046.01" cy="327.87" r="9.59"/><rect x="873.33" y="373.91" width="198.28" height="49.25" rx="9.32"/><circle class="cls-7" cx="1046.01" cy="398.53" r="9.59"/><rect x="945.21" y="444.57" width="54.53" height="24.29"/><line class="cls-8" x1="889.91" y1="317.11" x2="889.91" y2="338.63"/><line class="cls-8" x1="900" y1="317.11" x2="900" y2="338.63"/><line class="cls-8" x1="910.08" y1="317.11" x2="910.08" y2="338.63"/><line class="cls-8" x1="920.16" y1="317.11" x2="920.16" y2="338.63"/><line class="cls-8" x1="930.25" y1="317.11" x2="930.25" y2="338.63"/><line class="cls-8" x1="950.41" y1="317.11" x2="950.41" y2="338.63"/><line class="cls-8" x1="940.33" y1="317.11" x2="940.33" y2="338.63"/><line class="cls-8" x1="889.91" y1="387.77" x2="889.91" y2="409.29"/><line class="cls-8" x1="900" y1="387.77" x2="900" y2="409.29"/><line class="cls-8" x1="910.08" y1="387.77" x2="910.08" y2="409.29"/><line class="cls-8" x1="920.16" y1="387.77" x2="920.16" y2="409.29"/><line class="cls-8" x1="930.25" y1="387.77" x2="930.25" y2="409.29"/><line class="cls-8" x1="950.41" y1="387.77" x2="950.41" y2="409.29"/><line class="cls-8" x1="940.33" y1="387.77" x2="940.33" y2="409.29"/></svg>