<svg id="Layer_1" data-name="Layer 1" xmlns="http://www.w3.org/2000/svg" viewBox="0 0 1920 1649.18"><defs><style>.cls-1,.cls-3,.cls-4,.cls-5,.cls-8,.cls-9{fill:none;}.cls-1,.cls-2,.cls-3,.cls-4,.cls-5,.cls-8{stroke:#000;}.cls-1{stroke-linejoin:bevel;}.cls-1,.cls-2,.cls-4,.cls-8,.cls-9{stroke-width:4px;}.cls-2{fill:#fff;}.cls-10,.cls-2,.cls-3,.cls-4,.cls-5,.cls-9{stroke-miterlimit:10;}.cls-3{stroke-width:2px;}.cls-5{stroke-width:3px;}.cls-6{font-size:21px;font-family:Moche-Bold, Moche;font-weight:700;}.cls-7{letter-spacing:-0.02em;}.cls-8{stroke-linejoin:round;}.cls-10,.cls-9{stroke:#fff;}.cls-10{stroke-linecap:round;stroke-width:3.53px;}</style></defs><rect class="cls-1" x="947.34" y="700.63" width="50.25" height="54.67"/><rect class="cls-1" x="947.34" y="755.29" width="50.25" height="54.67"/><polygon class="cls-1" points="1019.76 977.8 925.18 977.8 947.34 809.96 997.6 809.96 1019.76 977.8"/><polygon class="cls-1" points="997.6 700.63 947.34 700.63 960.97 650.11 983.97 650.11 997.6 700.63"/><polyline class="cls-1" points="947.34 809.96 997.6 755.29 947.34 700.63"/><polyline class="cls-1" points="997.6 700.63 947.34 755.29 997.6 809.96"/><polyline class="cls-1" points="947.34 700.63 905.81 755.29 905.81 776"/><polyline class="cls-1" points="1039.13 776 1039.13 755.29 997.6 700.63"/><polyline class="cls-1" points="905.81 809.96 947.34 809.96 1004.88 865.91 932.42 921.85 1019.76 977.8 925.18 977.8 1012.4 922.02 939.93 866.1 997.6 809.96 1039.13 809.96"/><rect class="cls-2" x="946.33" y="1198.02" width="195.13" height="125.08" rx="10.14" transform="translate(2087.78 2521.13) rotate(-180)"/><rect class="cls-2" x="1018.75" y="1323.1" width="50.27" height="31.34" transform="translate(2087.78 2677.55) rotate(-180)"/><rect class="cls-2" x="993.91" y="1354.52" width="99.96" height="9.75" transform="translate(2087.78 2718.8) rotate(-180)"/><rect x="955.04" y="1205.86" width="177.7" height="95.28" transform="translate(2087.78 2507.01) rotate(-180)"/><rect class="cls-2" x="820.5" y="1257.47" width="85.14" height="151.68" rx="9.86" transform="translate(2061.89 2375.15) rotate(163.91)"/><rect x="828.01" y="1268.49" width="66.41" height="116.78" transform="translate(2056.47 2363.05) rotate(163.91)"/><circle class="cls-3" cx="880.61" cy="1394.1" r="6.37"/><line class="cls-4" x1="1028.57" y1="280.67" x2="1028.57" y2="305.33"/><line class="cls-4" x1="910.08" y1="350.34" x2="910.08" y2="375.33"/><line class="cls-5" x1="972.47" y1="424.11" x2="972.47" y2="444.57"/><text class="cls-6" transform="translate(1139.3 303.25)">D<tspan class="cls-7" x="17.37" y="0">a</tspan><tspan x="31.82" y="0">ta Ce</tspan><tspan class="cls-7" x="94.44" y="0">n</tspan><tspan x="110.04" y="0">ter</tspan></text><text class="cls-6" transform="translate(1078.66 805.96)">Transmission Network</text><text class="cls-6" transform="translate(607.34 1201.2)">End User Device</text><path class="cls-4" d="M1203.15,1066l-614.65,0A34.55,34.55,0,0,0,554,1100.6v90.86A34.55,34.55,0,0,0,588.5,1226h219a34.55,34.55,0,0,1,34.55,34.55h0"/><path class="cls-4" d="M1039.13,755.29H997.6L1039.13,810v20.71h474.28A34.55,34.55,0,0,1,1548,865.22V1031.5a34.55,34.55,0,0,1-34.55,34.55l-200.13,0"/><path class="cls-4" d="M799.81,578.71l487.38.1a34.55,34.55,0,0,0,34.56-34.55V362.42a34.55,34.55,0,0,0-34.55-34.55H1136.39a34.55,34.55,0,0,0-34.55,34.55v59.74a34.55,34.55,0,0,1-34.55,34.55H999.74"/><path class="cls-4" d="M439,830.65H406.6A34.55,34.55,0,0,1,372,796.11V613.36a34.54,34.54,0,0,1,34.54-34.55l275.8-.1"/><polyline class="cls-4" points="905.81 755.29 947.34 755.29 905.81 809.96 905.81 830.67 540.79 830.65"/><polyline class="cls-8" points="438.96 830.65 459.33 830.65 466.43 817.97 479.21 844.69 491.72 806.06 502.27 833.99 511.25 812.42 520.42 830.65 540.79 830.65"/><polyline class="cls-8" points="1203.15 1066.03 1223.17 1066.03 1233.19 1046.82 1243.71 1077.12 1252.21 1061.23 1261.44 1086.22 1275.57 1051.39 1287.74 1077.02 1293.25 1066.03 1313.28 1066.03"/><polyline class="cls-8" points="682.38 578.71 703.73 578.71 711.49 562.89 726.67 594.8 738.29 567.25 746.43 584.17 759.29 553.52 771.35 591.77 778.46 578.71 799.81 578.71"/><rect x="873.33" y="233.55" width="198.28" height="49.25" rx="9.32"/><circle class="cls-9" cx="1046.01" cy="258.17" r="9.59"/><line class="cls-10" x1="889.91" y1="247.41" x2="889.91" y2="268.93"/><line class="cls-10" x1="900" y1="247.41" x2="900" y2="268.93"/><line class="cls-10" x1="910.08" y1="247.41" x2="910.08" y2="268.93"/><line class="cls-10" x1="920.16" y1="247.41" x2="920.16" y2="268.93"/><line class="cls-10" x1="930.25" y1="247.41" x2="930.25" y2="268.93"/><line class="cls-10" x1="950.41" y1="247.41" x2="950.41" y2="268.93"/><line class="cls-10" x1="940.33" y1="247.41" x2="940.33" y2="268.93"/><rect x="873.33" y="303.25" width="198.28" height="49.25" rx="9.32"/><circle class="cls-9" cx="1046.01" cy="327.87" r="9.59"/><rect x="873.33" y="373.91" width="198.28" height="49.25" rx="9.32"/><circle class="cls-9" cx="1046.01" cy="398.53" r="9.59"/><rect x="945.21" y="444.57" width="54.53" height="24.29"/><line class="cls-10" x1="889.91" y1="317.11" x2="889.91" y2="338.63"/><line class="cls-10" x1="900" y1="317.11" x2="900" y2="338.63"/><line class="cls-10" x1="910.08" y1="317.11" x2="910.08" y2="338.63"/><line class="cls-10" x1="920.16" y1="317.11" x2="920.16" y2="338.63"/><line class="cls-10" x1="930.25" y1="317.11" x2="930.25" y2="338.63"/><line class="cls-10" x1="950.41" y1="317.11" x2="950.41" y2="338.63"/><line class="cls-10" x1="940.33" y1="317.11" x2="940.33" y2="338.63"/><line class="cls-10" x1="889.91" y1="387.77" x2="889.91" y2="409.29"/><line class="cls-10" x1="900" y1="387.77" x2="900" y2="409.29"/><line class="cls-10" x1="910.08" y1="387.77" x2="910.08" y2="409.29"/><line class="cls-10" x1="920.16" y1="387.77" x2="920.16" y2="409.29"/><line class="cls-10" x1="930.25" y1="387.77" x2="930.25" y2="409.29"/><line class="cls-10" x1="950.41" y1="387.77" x2="950.41" y2="409.29"/><line class="cls-10" x1="940.33" y1="387.77" x2="940.33" y2="409.29"/></svg>