<svg id="Layer_1" data-name="Layer 1" xmlns="http://www.w3.org/2000/svg" viewBox="0 0 1920 974.83"><defs><style>.cls-1{fill:#76a0dd;}.cls-2{fill:none;}.cls-12,.cls-2,.cls-5,.cls-6{stroke:#000;stroke-miterlimit:10;}.cls-2,.cls-5,.cls-6{stroke-width:3.2px;}.cls-3,.cls-4{font-size:19.2px;font-family:Moche-Regular, Moche;}.cls-3{letter-spacing:0.1em;}.cls-4{letter-spacing:0.1em;}.cls-5{fill:#e7846d;}.cls-6{fill:#fbbbda;}.cls-11,.cls-7,.cls-8{font-size:17px;}.cls-12,.cls-7{fill:#fff9e8;}.cls-11,.cls-13,.cls-7,.cls-8{font-family:Moche-Bold, Moche;font-weight:700;}.cls-10,.cls-7,.cls-8{letter-spacing:0.1em;}.cls-9{letter-spacing:0.08em;}.cls-11{letter-spacing:0.1em;}.cls-12{stroke-width:4px;}.cls-13{font-size:19px;letter-spacing:0.1em;}.cls-14{letter-spacing:0.08em;}</style></defs><rect class="cls-1" width="1920" height="974.83"/><line class="cls-2" x1="393.88" y1="728.57" x2="1562.87" y2="728.57"/><line class="cls-2" x1="393.88" y1="728.57" x2="393.88" y2="715.13"/><text class="cls-3" transform="translate(341 613.09)">0,5</text><text class="cls-4" transform="translate(345.85 478.71)">1,0</text><text class="cls-4" transform="translate(345.83 344.33)">1,5</text><text class="cls-3" transform="translate(341.03 209.95)">2,0</text><line class="cls-2" x1="393.88" y1="728.57" x2="393.88" y2="191.05"/><line class="cls-2" x1="393.88" y1="728.57" x2="423.1" y2="728.57"/><line class="cls-2" x1="393.88" y1="594.19" x2="423.1" y2="594.19"/><line class="cls-2" x1="393.88" y1="459.81" x2="423.1" y2="459.81"/><line class="cls-2" x1="393.88" y1="325.43" x2="423.1" y2="325.43"/><line class="cls-2" x1="393.88" y1="191.05" x2="423.1" y2="191.05"/><rect class="cls-5" x="1268.29" y="561.94" width="168.34" height="166.63"/><rect class="cls-5" x="1081.25" y="535.06" width="168.34" height="193.51"/><rect class="cls-6" x="894.21" y="311.99" width="168.34" height="416.58"/><rect class="cls-5" x="707.17" y="688.26" width="168.34" height="40.31"/><rect class="cls-5" x="520.13" y="653.32" width="168.34" height="75.25"/><text class="cls-7" transform="translate(579.93 628.94)">0.28</text><text class="cls-7" transform="translate(769.2 671)">0.15</text><text class="cls-7" transform="translate(958.57 293.22)">1.55</text><text class="cls-7" transform="translate(1143.55 514.8)">0.72</text><text class="cls-7" transform="translate(1330.38 545.33)">0.62</text><text class="cls-8" transform="translate(748.64 794.07)">Publish<tspan x="-1.17" y="22">a Photo</tspan></text><text class="cls-8" transform="translate(936.19 785.87)">Scrolling<tspan x="5.02" y="22">through</tspan><tspan class="cls-9"><tspan x="24.05" y="44">f</tspan><tspan class="cls-10" x="34.14" y="44">eed</tspan></tspan></text><text class="cls-8" transform="translate(1139.98 794.07)">View<tspan x="-7.83" y="22">a Live</tspan></text><text class="cls-11" transform="translate(1327.76 794.07)">Host<tspan class="cls-10"><tspan x="-8" y="22">a Live</tspan></tspan></text><text class="cls-8" transform="translate(561.03 794.07)">Publish<tspan x="1.59" y="22">a Story</tspan></text><path class="cls-12" d="M1630.82,386l-24.63-6.81-9.67,23.66-21.88-13.2L1559,409.84l-17.51-18.61-20.55,15.18-11.84-22.64-23.89,9.07-5.29-25-25.45,2.3,1.65-25.5L1431,340l8.47-24.11-22.94-11.26,14.66-20.93-19-17,19.76-16.2-13.75-21.54,23.41-10.26-7.43-24.45,25.3-3.58-.55-25.54,25.33,3.39,6.36-24.75L1514,153.81l12.81-22.11,19.88,16.05L1565,129.91l14.81,20.83,22.43-12.25,8.64,24,24.9-5.74,1.84,25.49,25.52,1.19-5.11,25,24.26,8-11.67,22.73,21.19,14.28-17.38,18.74L1691,291.77l-21.78,13.36,10.68,23.21-24.58,7,4,25.23-25.56.1Z"/><text class="cls-13" transform="translate(1507.64 213.78)">Carbon <tspan x="-14.83" y="24">impact in </tspan><tspan x="-38.65" y="48">grams of CO2 </tspan><tspan x="-21.75" y="72">equivale</tspan><tspan class="cls-14" x="84.92" y="72">n</tspan><tspan x="100.94" y="72">t </tspan><tspan x="-26.77" y="96">(gCO2e) per </tspan><tspan x="1.04" y="120">minute</tspan></text></svg>