<svg id="Layer_1" data-name="Layer 1" xmlns="http://www.w3.org/2000/svg" viewBox="0 0 1920 974.83"><defs><style>.cls-1{fill:#76a0dd;}.cls-2{fill:none;}.cls-2,.cls-4,.cls-5,.cls-7{stroke:#000;stroke-miterlimit:10;}.cls-2,.cls-4,.cls-5{stroke-width:3.2px;}.cls-3{font-size:19.2px;font-family:Courier-Bold, Courier;font-weight:700;letter-spacing:0.1em;}.cls-4{fill:#e7846d;}.cls-5{fill:#fbbbda;}.cls-6,.cls-7{fill:#fff9e8;}.cls-7{stroke-width:4px;}</style></defs><rect class="cls-1" width="1920" height="974.83"/><line class="cls-2" x1="393.88" y1="728.57" x2="1562.87" y2="728.57"/><line class="cls-2" x1="393.88" y1="728.57" x2="393.88" y2="715.13"/><text class="cls-3" transform="translate(337.21 613.09)">0,5</text><text class="cls-3" transform="translate(337.21 478.71)">1,0</text><text class="cls-3" transform="translate(337.21 344.33)">1,5</text><text class="cls-3" transform="translate(337.21 209.95)">2,0</text><line class="cls-2" x1="393.88" y1="728.57" x2="393.88" y2="191.05"/><line class="cls-2" x1="393.88" y1="728.57" x2="423.1" y2="728.57"/><line class="cls-2" x1="393.88" y1="594.19" x2="423.1" y2="594.19"/><line class="cls-2" x1="393.88" y1="459.81" x2="423.1" y2="459.81"/><line class="cls-2" x1="393.88" y1="325.43" x2="423.1" y2="325.43"/><line class="cls-2" x1="393.88" y1="191.05" x2="423.1" y2="191.05"/><rect class="cls-4" x="1268.29" y="561.94" width="168.34" height="166.63"/><rect class="cls-4" x="1081.25" y="535.06" width="168.34" height="193.51"/><rect class="cls-5" x="894.21" y="311.99" width="168.34" height="416.58"/><rect class="cls-4" x="707.17" y="688.26" width="168.34" height="40.31"/><rect class="cls-4" x="520.13" y="653.32" width="168.34" height="75.25"/><path class="cls-6" d="M580.22,623.45c0-4.86,3.38-5.83,5.11-5.83s5.12,1,5.12,5.83c0,4.12-2.58,5.76-5.12,5.76S580.22,627.57,580.22,623.45Zm8.53-.07c0-1.64-1.14-3-3.42-3s-3.43,1.33-3.43,3c0,2.13,1.66,3.06,3.43,3.06S588.75,625.51,588.75,623.38Z"/><path class="cls-6" d="M594.48,626.09l1.8,0,1.73,0v2.85h-3.53Z"/><path class="cls-6" d="M611.78,627.57l0,1.37h-9.76v-2.67c2-4.21,8-3,8-4.74,0-.81-1.12-1.12-2.29-1.12a6.31,6.31,0,0,0-4.52,1.84L602,620c.82-1.27,2.5-2.38,5.4-2.38s4.41,1.35,4.41,3.3c0,3.76-7.07,2.12-7.8,5.23h7.8Z"/><path class="cls-6" d="M619.5,629.21c-2.75,0-5.08-.93-5.08-3.11,0-1.64,1.09-2.68,2.79-3v0c-1.69-.72-2.4-1.34-2.4-2.45,0-1.87,1.58-3,4.66-3s4.72,1.26,4.69,3c0,1.06-.66,1.7-2.36,2.4v0c1.68.38,2.78,1.33,2.78,3C624.58,628.23,622.6,629.21,619.5,629.21Zm3.42-4c0-1.19-2.25-1.58-3.23-1.74h-.36c-1,.16-3.24.58-3.24,1.72s2.19,1.38,3.41,1.38S622.92,626.38,622.92,625.24Zm-6.44-3.93c0,.8,2,1.16,2.85,1.28h.36c.9-.12,2.84-.51,2.84-1.3s-1.77-.95-3-.95S616.48,620.58,616.48,621.31Z"/><path class="cls-6" d="M769.49,665.52c0-4.87,3.38-5.84,5.11-5.84s5.12,1,5.12,5.84c0,4.11-2.58,5.76-5.12,5.76S769.49,669.63,769.49,665.52Zm8.53-.07c0-1.65-1.14-3-3.42-3s-3.43,1.33-3.43,3c0,2.12,1.67,3.06,3.43,3.06S778,667.57,778,665.45Z"/><path class="cls-6" d="M783.75,668.15l1.8.05,1.73-.05V671h-3.53Z"/><path class="cls-6" d="M794.92,666.74l-.46-3.28h-2.58l0-1.38,0-1.34a4.15,4.15,0,0,0,2.87-.78h1.78l-.52,6.78.86,4.27-1.42,0-1.4,0Z"/><path class="cls-6" d="M801.24,667.25a7.43,7.43,0,0,0,4.23,1.24c2,0,3.15-.61,3.15-1.72,0-1.29-1.62-1.66-2.87-1.66a5.21,5.21,0,0,0-3.54,1.24l-1.31-.46.43-5.93h8.26l-.05,1.39,0,1.34H803l-.71,2.23a7,7,0,0,1,4-1.07c2.45,0,4.12.88,4.12,3.18,0,2-1.4,4.25-5.08,4.25a9.28,9.28,0,0,1-5.21-1.46Z"/><path class="cls-6" d="M962.47,289l-.46-3.28h-2.59l0-1.38,0-1.34a4.27,4.27,0,0,0,2.88-.78h1.78l-.52,6.78.86,4.26-1.43,0-1.39,0Z"/><path class="cls-6" d="M969.52,290.37l1.8.05,1.74-.05v2.85h-3.54Z"/><path class="cls-6" d="M978.11,289.47a7.43,7.43,0,0,0,4.23,1.24c2,0,3.15-.61,3.15-1.72,0-1.29-1.62-1.66-2.88-1.66a5.14,5.14,0,0,0-3.53,1.24l-1.31-.46.42-5.93h8.26l-.05,1.39,0,1.34h-6.58l-.71,2.23a7,7,0,0,1,4-1.07c2.45,0,4.11.88,4.11,3.18,0,2-1.39,4.25-5.08,4.25A9.16,9.16,0,0,1,977,292Z"/><path class="cls-6" d="M990.74,289.47a7.43,7.43,0,0,0,4.23,1.24c2,0,3.15-.61,3.15-1.72,0-1.29-1.62-1.66-2.88-1.66a5.14,5.14,0,0,0-3.53,1.24l-1.31-.46.42-5.93h8.26l-.05,1.39,0,1.34h-6.58l-.71,2.23a7,7,0,0,1,4-1.07c2.45,0,4.11.88,4.11,3.18,0,2-1.39,4.25-5.08,4.25a9.16,9.16,0,0,1-5.2-1.47Z"/><path class="cls-6" d="M1143.84,509.31c0-4.86,3.39-5.83,5.12-5.83s5.12,1,5.12,5.83c0,4.12-2.59,5.76-5.12,5.76S1143.84,513.43,1143.84,509.31Zm8.54-.07c0-1.64-1.14-3-3.42-3s-3.43,1.33-3.43,3c0,2.13,1.66,3.06,3.43,3.06S1152.38,511.37,1152.38,509.24Z"/><path class="cls-6" d="M1158.11,512l1.8.05,1.73-.05v2.85h-3.53Z"/><path class="cls-6" d="M1165.69,505.15l0-1.4h8.54l0,1.35,0,1.39-5,8.6h-3.35l6.85-8.52h-7.1Z"/><path class="cls-6" d="M1186.34,513.43l0,1.37h-9.76v-2.67c2-4.21,8-3,8-4.74,0-.82-1.12-1.12-2.29-1.12a6.31,6.31,0,0,0-4.52,1.84l-1.26-2.25c.81-1.27,2.5-2.38,5.4-2.38s4.41,1.34,4.41,3.3c0,3.76-7.08,2.12-7.81,5.23h7.81Z"/><path class="cls-6" d="M1330.66,539.84c0-4.86,3.39-5.83,5.12-5.83s5.12,1,5.12,5.83c0,4.11-2.59,5.76-5.12,5.76S1330.66,544,1330.66,539.84Zm8.54-.07c0-1.65-1.14-3-3.42-3s-3.43,1.32-3.43,3c0,2.13,1.66,3.06,3.43,3.06S1339.2,541.9,1339.2,539.77Z"/><path class="cls-6" d="M1344.93,542.48l1.8,0,1.73,0v2.85h-3.53Z"/><path class="cls-6" d="M1357.9,545.55c-3.18,0-5.42-2.48-5.42-5.91,0-3.66,2.63-5.63,6-5.63a6,6,0,0,1,3.79,1.12l-.83,2.2a6.33,6.33,0,0,0-3.23-.87c-2,0-4,1.14-4,3a6,6,0,0,1,4.08-1.53c2.5,0,4.35,1.26,4.35,3.52C1362.62,544.06,1360.31,545.55,1357.9,545.55Zm-3.59-4.5c.31,1.32,2.3,1.78,3.66,1.78,1.53,0,2.94-.59,2.94-1.76s-1.6-1.81-3-1.81A4.27,4.27,0,0,0,1354.31,541.05Z"/><path class="cls-6" d="M1374.74,544l0,1.38H1365v-2.67c2-4.21,8-3,8-4.74,0-.82-1.12-1.12-2.29-1.12a6.35,6.35,0,0,0-4.52,1.83l-1.26-2.24c.82-1.27,2.5-2.38,5.41-2.38s4.4,1.34,4.4,3.3c0,3.76-7.07,2.12-7.8,5.23h7.8Z"/><path d="M752.08,790.24l1.09,3.83-2.09-.05-1.42.05.53-4.25-.53-6.79,2.79.06,4.27-.06c3.09,0,4.49.94,4.49,3.47s-1.4,3.74-4.49,3.74Zm.22-4.42-.22,2.71h4.64c1.8,0,2.62-.57,2.62-1.38s-.84-1.33-2.64-1.33Z"/><path d="M774.16,789.83l.87,4.24-1.75-.05-1,.05,0-2a5.27,5.27,0,0,1-4.13,2.25c-1.9,0-3.81-1.06-3.26-3.13l.35-1.35-.81-4.23,1.68,0,1.68,0-.83,4.23c-.19,1,.65,1.67,2.11,1.67a5.53,5.53,0,0,0,3.23-1.16l-.78-4.74,1.75,0,1.75,0Z"/><path d="M781.76,787.1a5.41,5.41,0,0,1,3.77-1.74,4.64,4.64,0,0,1,4.59,4.49,4.52,4.52,0,0,1-4.47,4.49,5.09,5.09,0,0,1-4.14-2.06l.08,1.79-1.07-.05-1.75.05.87-4.24-.87-7.63,1.75,0,1.75,0Zm-.34,3.36a6.22,6.22,0,0,0,3.55,1c1.81,0,3.3-.68,3.3-1.63s-1.49-1.68-3.45-1.68a5.34,5.34,0,0,0-3.28,1l-.12,1.18Z"/><path d="M794.22,789.83l-.87-7.64,1.76,0,1.75,0-.87,7.64.87,4.24-1.75-.05-1.76.05Z"/><path d="M800.6,781l1.8,0,1.73,0v2.86H800.6Zm.88,8.87-.87-4.23,1.76,0,1.75,0-.87,4.23.87,4.24-1.75-.05-1.76.05Z"/><path d="M807.89,790.55a11.06,11.06,0,0,0,5.23,1.41c1.31,0,1.69-.27,1.69-.66,0-1.57-7,.2-7-3.34,0-1.88,2.16-2.61,4.72-2.61a8.12,8.12,0,0,1,3.71.85l-.68,2.27a13.31,13.31,0,0,0-4.25-.73c-.68,0-1.67.07-1.67.6,0,1.43,7-.36,7,3.28,0,1.94-2,2.72-4.13,2.72a9.39,9.39,0,0,1-5.17-1.5Z"/><path d="M822.8,787a5.53,5.53,0,0,1,3.87-1.62c1.91,0,3.81,1.06,3.27,3.13l-.36,1.34.82,4.24-1.69-.05-1.68.05.83-4.24c.19-1-.64-1.66-2.1-1.66a6.68,6.68,0,0,0-3.23,1l.86,5-1.75-.05-1.75.05.87-4.24-.87-7.64,1.75,0,1.75,0Z"/><path d="M755.78,814.21a5.51,5.51,0,0,1-4.53,2.13c-1.46,0-3.26-.54-3.26-2.53,0-2.49,3-2.94,7.9-3-.37-.8-1.66-1.19-3-1.19a7.68,7.68,0,0,0-4,1.17l-.62-2.29a9.74,9.74,0,0,1,4.92-1.17c2.62,0,5.37.74,4.83,3.06l-.34,1.42.84,4.24-1.75-.05-1,.05Zm-4.27,0a6.29,6.29,0,0,0,4.49-2.14c-5.58,0-6.29.51-6.29,1.23C749.71,813.82,750.17,814.21,751.51,814.21Z"/><path d="M772.3,812.24l1.09,3.83L771.3,816l-1.41.05.52-4.25-.52-6.79,2.78.06,4.27-.06c3.09,0,4.49.94,4.49,3.47s-1.4,3.74-4.49,3.74Zm.22-4.42-.22,2.71h4.64c1.8,0,2.62-.57,2.62-1.38s-.83-1.33-2.64-1.33Z"/><path d="M787.57,809a5.51,5.51,0,0,1,3.87-1.62c1.9,0,3.81,1.06,3.26,3.13l-.35,1.34.81,4.24-1.68-.05-1.68.05.83-4.24c.19-1-.65-1.66-2.11-1.66a6.74,6.74,0,0,0-3.23,1l.87,5-1.75-.05-1.75.05.87-4.24-.87-7.64,1.75,0,1.75,0Z"/><path d="M798.39,811.85c0-2.58,2-4.49,5.22-4.49s5.2,1.91,5.2,4.49c0,2.84-2.12,4.49-5.2,4.49S798.39,814.69,798.39,811.85Zm8.61.09c0-.84-1-1.77-3.39-1.77s-3.4.93-3.4,1.77,1.3,1.59,3.39,1.59S807,812.89,807,811.94Z"/><path d="M817.31,813.47a5.65,5.65,0,0,0,1.69-.29l.27,2.56a8.37,8.37,0,0,1-3.2.6c-3,0-3.34-1.38-3-2.82l.43-1.69v-2h-2l.09-1.07-.07-1.16h1.65l-.7-3,1.84,0,1.73,0-.62,3h3l-.07,1.14,0,1.09h-3.33v2C815.09,812.9,816,813.47,817.31,813.47Z"/><path d="M821.65,811.85c0-2.58,2-4.49,5.22-4.49s5.2,1.91,5.2,4.49c0,2.84-2.12,4.49-5.2,4.49S821.65,814.69,821.65,811.85Zm8.6.09c0-.84-1-1.77-3.38-1.77s-3.4.93-3.4,1.77,1.29,1.59,3.38,1.59S830.25,812.89,830.25,811.94Z"/><path d="M937.4,781.39a10.15,10.15,0,0,0,6.1,1.92c1.8,0,2.67-.6,2.67-1.19,0-1.91-9,.51-9.06-4.18,0-2.47,2.26-3.39,5.4-3.39a13,13,0,0,1,5.29,1l-.7,2.81a13.4,13.4,0,0,0-5.47-1.06c-1.24,0-2.79.29-2.79,1,0,2,9.62-.3,9.55,4.31,0,2.26-2.21,3.48-5.25,3.5a11.29,11.29,0,0,1-6.44-1.84Z"/><path d="M959.87,780.49a12.13,12.13,0,0,0-3.35-.51c-1.87,0-3.59.51-3.59,1.7,0,1,1.09,1.61,3.3,1.61a13.63,13.63,0,0,0,3.64-.56l.83,2.35a10,10,0,0,1-4.57,1.07c-2.92,0-5-1.31-5-4.34s2.37-4.64,5.47-4.64a8.31,8.31,0,0,1,4.11,1Z"/><path d="M964.63,781.64l-.87-4.23,1.75.05,1.07-.05-.1,2a5.6,5.6,0,0,1,4-2.23V780a3.23,3.23,0,0,0-.46,0,6.73,6.73,0,0,0-3.64,1.2l.85,4.69-1.75,0-1.75,0Z"/><path d="M973.06,781.66c0-2.58,2-4.49,5.22-4.49s5.2,1.91,5.2,4.49c0,2.84-2.12,4.49-5.2,4.49S973.06,784.5,973.06,781.66Zm8.6.08c0-.83-1-1.76-3.38-1.76s-3.4.93-3.4,1.76,1.29,1.6,3.38,1.6S981.66,782.7,981.66,781.74Z"/><path d="M987.58,781.64l-.87-7.65,1.75,0,1.75,0-.86,7.65.86,4.23-1.75,0-1.75,0Z"/><path d="M994.82,781.64,994,774l1.75,0,1.76,0-.87,7.65.87,4.23-1.76,0-1.75,0Z"/><path d="M1001.2,772.77l1.8.05,1.73-.05v2.85h-3.53Zm.88,8.87-.87-4.23,1.75.05,1.75-.05-.86,4.23.86,4.23-1.75,0-1.75,0Z"/><path d="M1009.34,781.64l-.87-4.23,1.75.05,1.75-.05-.37,1.58a5.56,5.56,0,0,1,4.08-1.82c1.9,0,3.81,1.06,3.26,3.13l-.35,1.34.81,4.23-1.68,0-1.68,0,.83-4.23c.19-.95-.65-1.66-2.11-1.66a6.73,6.73,0,0,0-3.64,1.2l.85,4.69-1.75,0-1.75,0Z"/><path d="M1025.17,782.85c-.7,0-1,.2-1,.47s.51.58,2.7.58H1029a2.89,2.89,0,0,1,3.16,2.76c0,1.75-1.88,2.87-5.05,2.87s-4.89-1.16-4.89-2.69a2.21,2.21,0,0,1,1.71-2.07c-.83-.32-1.13-.82-1.13-1.36a1.58,1.58,0,0,1,1.2-1.48,2.71,2.71,0,0,1-.52-1.68c0-1.8,1.44-3.08,3.67-3.08a3.72,3.72,0,0,1,2.43.77l2.68-.65,0,1.51,0,1.16h-1.63a1.32,1.32,0,0,1,0,.29c0,1.89-1.43,3-3.5,3A4.81,4.81,0,0,1,1025.17,782.85Zm1.93,4.25c2.37,0,3.22-.39,3.22-1.12,0-.34-.24-.8-1-.8h-2.43a12,12,0,0,1-1.43-.07c-.67.15-1,.58-1,.93C1024.47,786.81,1025.17,787.1,1027.1,787.1Zm2.06-6.83c0-.5-.58-1.08-2-1.08s-2,.58-2,1.08.77,1,2,1S1029.16,780.83,1029.16,780.27Z"/><path d="M947.5,805.27a5.71,5.71,0,0,0,1.69-.29l.27,2.57a8.41,8.41,0,0,1-3.2.6c-3,0-3.35-1.38-3-2.83l.42-1.68v-2h-2l.09-1.07-.07-1.16h1.65l-.7-3,1.84,0,1.73,0-.63,3h3l-.06,1.14.05,1.09h-3.33v2C945.28,804.71,946.23,805.27,947.5,805.27Z"/><path d="M955.25,800.79a5.55,5.55,0,0,1,3.88-1.62c1.9,0,3.81,1.06,3.26,3.13l-.35,1.34.81,4.23-1.68,0-1.68,0,.83-4.23c.19-.95-.65-1.66-2.11-1.66a6.74,6.74,0,0,0-3.23.95l.87,4.94-1.75,0-1.75,0,.86-4.23-.86-7.65,1.75,0,1.75,0Z"/><path d="M967.46,803.64l-.87-4.23,1.75.05,1.07-.05-.1,2a5.6,5.6,0,0,1,4-2.23V802a3.23,3.23,0,0,0-.46,0,6.73,6.73,0,0,0-3.64,1.2l.85,4.69-1.75,0-1.75,0Z"/><path d="M975.89,803.66c0-2.58,2-4.49,5.22-4.49s5.2,1.91,5.2,4.49c0,2.84-2.12,4.49-5.2,4.49S975.89,806.5,975.89,803.66Zm8.6.08c0-.83-1-1.76-3.38-1.76s-3.4.93-3.4,1.76,1.29,1.6,3.38,1.6S984.49,804.7,984.49,803.74Z"/><path d="M999.27,803.64l.86,4.23-1.75,0-1,0,0-2a5.29,5.29,0,0,1-4.13,2.24c-1.91,0-3.81-1.05-3.27-3.13l.36-1.34-.82-4.23,1.69.05,1.68-.05-.83,4.23c-.19,1,.64,1.67,2.1,1.67a5.49,5.49,0,0,0,3.23-1.16l-.78-4.74,1.75.05,1.75-.05Z"/><path d="M1005.9,804.85c-.7,0-1,.2-1,.47s.51.58,2.7.58h2.14a2.89,2.89,0,0,1,3.16,2.76c0,1.75-1.88,2.87-5,2.87s-4.89-1.16-4.89-2.69a2.21,2.21,0,0,1,1.72-2.07c-.84-.32-1.14-.82-1.14-1.36a1.58,1.58,0,0,1,1.2-1.48,2.71,2.71,0,0,1-.52-1.68c0-1.8,1.44-3.08,3.67-3.08a3.72,3.72,0,0,1,2.43.77l2.69-.65-.06,1.51L1013,802h-1.64a1.32,1.32,0,0,1,0,.29c0,1.89-1.43,3-3.5,3A4.81,4.81,0,0,1,1005.9,804.85Zm1.93,4.25c2.37,0,3.22-.39,3.22-1.12,0-.34-.24-.8-1-.8h-2.43a12,12,0,0,1-1.43-.07c-.66.15-1,.58-1,.93C1005.2,808.81,1005.9,809.1,1007.83,809.1Zm2.06-6.83c0-.5-.58-1.08-2-1.08s-2,.58-2,1.08.76,1,2,1S1009.89,802.83,1009.89,802.27Z"/><path d="M1019,800.79a5.55,5.55,0,0,1,3.88-1.62c1.9,0,3.81,1.06,3.26,3.13l-.35,1.34.81,4.23-1.68,0-1.68,0,.83-4.23c.18-.95-.65-1.66-2.11-1.66a6.74,6.74,0,0,0-3.23.95l.87,4.94-1.75,0-1.75,0,.86-4.23-.86-7.65,1.75,0,1.75,0Z"/><path d="M962.71,825.64l0-2h-1.94l0-1.06,0-1.17h1.68c-.83-2-.05-3.57,4.17-3.57a16.24,16.24,0,0,1,2.68.22L969,820.7a8.75,8.75,0,0,0-2.68-.53c-1.38,0-1.81.49-1.81,1.24h3.74l-.07,1.14.06,1.09h-3.74v2l.86,4.23-1.75,0-1.75,0Z"/><path d="M980.76,829.23a10.91,10.91,0,0,1-4.38.92c-3.2,0-5.55-1.45-5.55-4.37,0-2.65,2-4.61,5.22-4.61,2.52,0,4.73,1.14,4.73,4a10.08,10.08,0,0,1-.1,1.26l-8,0c0,1,1.74,1.33,3.3,1.33A9.18,9.18,0,0,0,980,827Zm-1.75-4c0-1.07-1.22-1.78-3.09-1.78s-3.22.71-3.22,1.78Z"/><path d="M993.43,829.23a10.92,10.92,0,0,1-4.39.92c-3.19,0-5.54-1.45-5.54-4.37,0-2.65,2-4.61,5.22-4.61,2.51,0,4.72,1.14,4.72,4a8.48,8.48,0,0,1-.1,1.26l-8,0c0,1,1.73,1.33,3.3,1.33a9.18,9.18,0,0,0,4.06-.85Zm-1.75-4c0-1.07-1.23-1.78-3.1-1.78s-3.21.71-3.21,1.78Z"/><path d="M1005.77,818l1.75,0-.87,7.63.87,4.23-1.75,0-1.07,0,.08-1.78a5.14,5.14,0,0,1-4.15,2.06,4.55,4.55,0,0,1-4.47-4.51,4.62,4.62,0,0,1,4.59-4.47,5.5,5.5,0,0,1,3.76,1.58L1004,818Zm-4.29,9.25a5.65,5.65,0,0,0,3.39-1v-.15l-.12-1.18a5.7,5.7,0,0,0-3.3-1c-1.94,0-3.43.73-3.43,1.68S999.51,827.29,1001.48,827.29Z"/><path d="M1143.44,783l2.54,6.75.71,1.54.68-1.51,2.45-6.78h3.55l-3.64,6.76-2.07,4.29-.9-.05-.94.05-2.12-4.27L1140,783Z"/><path d="M1156.09,781l1.8,0,1.74,0v2.86h-3.54Zm.89,8.87-.87-4.23,1.75,0,1.75,0-.87,4.23.87,4.24-1.75-.05-1.75.05Z"/><path d="M1172.78,793.42a10.71,10.71,0,0,1-4.38.92c-3.2,0-5.54-1.45-5.54-4.37,0-2.65,2-4.61,5.22-4.61,2.51,0,4.72,1.14,4.72,4a8.38,8.38,0,0,1-.1,1.26l-8,0c0,1,1.73,1.33,3.29,1.33a9.19,9.19,0,0,0,4.07-.85Zm-1.75-4c0-1.07-1.22-1.79-3.09-1.79s-3.21.72-3.21,1.79Z"/><path d="M1187.18,794.07,1186,794l-1.23.05-.85-2.77-1.14-3.13-1.19,3.13-.88,2.77-1.17-.07-1.14.07-1-2.77-2.42-5.73h3.5l.92,6.8,2.57-6.77.8,0,.8,0,2.41,6.78,1-6.81h3.52l-2.38,5.73Z"/><path d="M1140.44,814.21a5.49,5.49,0,0,1-4.52,2.13c-1.46,0-3.26-.55-3.26-2.53,0-2.49,3-2.95,7.9-3-.37-.8-1.66-1.19-3-1.19a7.72,7.72,0,0,0-4,1.17l-.61-2.29a9.7,9.7,0,0,1,4.91-1.17c2.62,0,5.38.74,4.83,3.06l-.34,1.42.85,4.24-1.75-.05-1,.05Zm-4.26,0a6.25,6.25,0,0,0,4.48-2.14c-5.57,0-6.29.51-6.29,1.23C1134.37,813.82,1134.83,814.21,1136.18,814.21Z"/><path d="M1165,816.07l-7.6-.05-2.82.05.53-4.25-.53-6.79,1.41.06,2.09-.06-1.29,8.27,8.21-.11,0,1.43Z"/><path d="M1168.2,803l1.8,0,1.74,0v2.86h-3.54Zm.89,8.87-.87-4.23,1.75,0,1.75,0-.86,4.23.86,4.24L1170,816l-1.75.05Z"/><path d="M1180.05,816l-.92.05-1.41-2.77-3.26-5.73H1178l2,6.63,2.14-6.63h3.56l-3.29,5.73-1.41,2.77Z"/><path d="M1197.83,815.42a10.74,10.74,0,0,1-4.38.92c-3.2,0-5.54-1.45-5.54-4.37,0-2.65,2-4.61,5.21-4.61,2.52,0,4.73,1.14,4.73,4a8.38,8.38,0,0,1-.1,1.26l-8,0c0,1,1.73,1.33,3.29,1.33a9.22,9.22,0,0,0,4.07-.85Zm-1.75-4c0-1.07-1.22-1.79-3.09-1.79s-3.21.72-3.21,1.79Z"/><path d="M1331.63,787.9h7.28l-.39-4.87,1.41.06,1.75-.06-.87,6.79.87,4.25-1.75-.05-1.41.05.49-4.36h-7.55l.82,4.36-1.75-.05-1.75.05.86-4.25-.86-6.79,1.75.06,1.75-.06Z"/><path d="M1344.91,789.85c0-2.58,2-4.49,5.22-4.49s5.2,1.91,5.2,4.49c0,2.84-2.13,4.49-5.2,4.49S1344.91,792.69,1344.91,789.85Zm8.6.09c0-.84-1-1.77-3.38-1.77s-3.4.93-3.4,1.77,1.29,1.59,3.38,1.59S1353.51,790.89,1353.51,789.94Z"/><path d="M1358.58,790.55a11.06,11.06,0,0,0,5.23,1.41c1.31,0,1.69-.27,1.69-.66,0-1.57-7,.2-7-3.34,0-1.88,2.16-2.61,4.72-2.61a8.12,8.12,0,0,1,3.71.85l-.68,2.27a13.31,13.31,0,0,0-4.25-.73c-.68,0-1.67.07-1.67.6,0,1.43,7-.36,7,3.28,0,1.94-2,2.72-4.13,2.72a9.39,9.39,0,0,1-5.17-1.5Z"/><path d="M1375.85,791.47a5.59,5.59,0,0,0,1.68-.29l.27,2.56a8.36,8.36,0,0,1-3.19.6c-3,0-3.35-1.38-3-2.82l.42-1.69v-2h-2l.09-1.07-.07-1.16h1.65l-.7-3,1.83,0,1.74,0-.63,3h3l-.07,1.14,0,1.09h-3.33v2C1373.62,790.9,1374.57,791.47,1375.85,791.47Z"/><path d="M1328.05,814.21a5.49,5.49,0,0,1-4.52,2.13c-1.46,0-3.26-.55-3.26-2.53,0-2.49,3-2.95,7.9-3-.37-.8-1.66-1.19-3-1.19a7.68,7.68,0,0,0-4,1.17l-.62-2.29a9.74,9.74,0,0,1,4.92-1.17c2.61,0,5.37.74,4.82,3.06l-.34,1.42.85,4.24L1329,816l-1,.05Zm-4.26,0a6.29,6.29,0,0,0,4.49-2.14c-5.58,0-6.29.51-6.29,1.23C1322,813.82,1322.44,814.21,1323.79,814.21Z"/><path d="M1352.58,816.07,1345,816l-2.83.05.53-4.25-.53-6.79,1.41.06,2.1-.06-1.3,8.27,8.21-.11,0,1.43Z"/><path d="M1355.81,803l1.81,0,1.73,0v2.86h-3.54Zm.89,8.87-.87-4.23,1.75,0,1.75,0-.86,4.23.86,4.24-1.75-.05-1.75.05Z"/><path d="M1367.66,816l-.91.05-1.42-2.77-3.26-5.73h3.52l2,6.63,2.14-6.63h3.56L1370,813.3l-1.41,2.77Z"/><path d="M1385.44,815.42a10.71,10.71,0,0,1-4.38.92c-3.2,0-5.54-1.45-5.54-4.37,0-2.65,2-4.61,5.22-4.61,2.51,0,4.72,1.14,4.72,4a8.38,8.38,0,0,1-.1,1.26l-8,0c0,1,1.73,1.33,3.29,1.33a9.19,9.19,0,0,0,4.07-.85Zm-1.75-4c0-1.07-1.22-1.79-3.09-1.79s-3.21.72-3.21,1.79Z"/><path d="M564.46,790.24l1.09,3.83-2.09-.05-1.41.05.53-4.25-.53-6.79,2.79.06,4.27-.06c3.09,0,4.48.94,4.48,3.47s-1.39,3.74-4.48,3.74Zm.23-4.42-.23,2.71h4.65c1.8,0,2.61-.57,2.61-1.38s-.83-1.33-2.63-1.33Z"/><path d="M586.55,789.83l.86,4.24-1.75-.05-1,.05,0-2a5.3,5.3,0,0,1-4.13,2.25c-1.91,0-3.81-1.06-3.27-3.13l.36-1.35-.82-4.23,1.69,0,1.68,0-.83,4.23c-.19,1,.64,1.67,2.1,1.67a5.49,5.49,0,0,0,3.23-1.16l-.78-4.74,1.75,0,1.75,0Z"/><path d="M594.15,787.1a5.38,5.38,0,0,1,3.77-1.74,4.64,4.64,0,0,1,4.59,4.49,4.53,4.53,0,0,1-4.47,4.49,5.11,5.11,0,0,1-4.15-2.06l.09,1.79-1.07-.05-1.76.05.87-4.24-.87-7.63,1.76,0,1.75,0Zm-.34,3.36a6.2,6.2,0,0,0,3.55,1c1.8,0,3.3-.68,3.3-1.63s-1.5-1.68-3.45-1.68a5.32,5.32,0,0,0-3.28,1l-.12,1.18Z"/><path d="M606.61,789.83l-.87-7.64,1.75,0,1.75,0-.87,7.64.87,4.24-1.75-.05-1.75.05Z"/><path d="M613,781l1.8,0,1.74,0v2.86H613Zm.89,8.87L613,785.6l1.75,0,1.75,0-.87,4.23.87,4.24-1.75-.05-1.75.05Z"/><path d="M620.28,790.55a11,11,0,0,0,5.23,1.41c1.31,0,1.68-.27,1.68-.66,0-1.57-7,.2-7-3.34,0-1.88,2.16-2.61,4.73-2.61a8,8,0,0,1,3.7.85l-.68,2.27a13.31,13.31,0,0,0-4.25-.73c-.68,0-1.66.07-1.66.6,0,1.43,7-.36,7,3.28,0,1.94-2,2.72-4.13,2.72a9.34,9.34,0,0,1-5.17-1.5Z"/><path d="M635.18,787a5.55,5.55,0,0,1,3.88-1.62c1.9,0,3.81,1.06,3.26,3.13l-.35,1.34.81,4.24L641.1,794l-1.68.05.83-4.24c.19-1-.65-1.66-2.11-1.66a6.74,6.74,0,0,0-3.23,1l.87,5L634,794l-1.75.05.86-4.24-.86-7.64,1.75,0,1.75,0Z"/><path d="M570.91,814.21a5.48,5.48,0,0,1-4.52,2.13c-1.46,0-3.26-.54-3.26-2.53,0-2.49,3-2.94,7.9-3-.37-.8-1.66-1.19-3-1.19a7.68,7.68,0,0,0-4,1.17l-.62-2.29a9.74,9.74,0,0,1,4.92-1.17c2.61,0,5.37.74,4.82,3.06l-.34,1.42.85,4.24-1.75-.05-1,.05Zm-4.26,0a6.29,6.29,0,0,0,4.49-2.14c-5.58,0-6.29.51-6.29,1.23C564.85,813.82,565.31,814.21,566.65,814.21Z"/><path d="M585.21,811.58a10.18,10.18,0,0,0,6.11,1.92c1.8,0,2.66-.6,2.66-1.19,0-1.9-9,.51-9.06-4.18,0-2.47,2.26-3.38,5.41-3.38a12.9,12.9,0,0,1,5.29,1l-.7,2.8a13.38,13.38,0,0,0-5.47-1.05c-1.25,0-2.79.29-2.79,1,0,2,9.62-.31,9.55,4.3,0,2.26-2.21,3.48-5.25,3.5a11.19,11.19,0,0,1-6.44-1.84Z"/><path d="M604.71,813.47a5.59,5.59,0,0,0,1.68-.29l.28,2.56a8.45,8.45,0,0,1-3.2.6c-3,0-3.35-1.38-3-2.82l.42-1.69v-2h-2l.09-1.07L599,807.6h1.65l-.7-3,1.84,0,1.73,0-.63,3h3l-.06,1.14.05,1.09h-3.34v2C602.48,812.9,603.44,813.47,604.71,813.47Z"/><path d="M609.05,811.85c0-2.58,2-4.49,5.21-4.49s5.21,1.91,5.21,4.49c0,2.84-2.13,4.49-5.21,4.49S609.05,814.69,609.05,811.85Zm8.6.09c0-.84-1-1.77-3.39-1.77s-3.39.93-3.39,1.77,1.29,1.59,3.38,1.59S617.65,812.89,617.65,811.94Z"/><path d="M623.56,811.83l-.86-4.23,1.75,0,1.07,0-.1,2a5.56,5.56,0,0,1,4-2.23v2.82c-.14,0-.29,0-.46,0a6.67,6.67,0,0,0-3.64,1.21l.85,4.69-1.75-.05-1.75.05Z"/><path d="M642.21,807.57v.27l-3.16,5.46-2,3.85c-.8,1.43-3,2.44-5.58,1.64l.26-2.81c1.46.43,3.09.56,3.63-.58l-1.05-2.1-3.14-5.43v-.3h3.31l2.11,6.56,2.19-6.56Z"/><path class="cls-7" d="M1630.82,386l-24.63-6.81-9.67,23.66-21.88-13.2L1559,409.84l-17.51-18.61-20.55,15.18-11.84-22.64-23.89,9.07-5.29-25-25.45,2.3,1.65-25.5L1431,340l8.47-24.11-22.94-11.26,14.66-20.93-19-17,19.76-16.2-13.75-21.54,23.41-10.26-7.43-24.45,25.3-3.58-.55-25.54,25.33,3.39,6.36-24.75L1514,153.81l12.81-22.11,19.88,16.05L1565,129.91l14.81,20.83,22.43-12.25,8.64,24,24.9-5.74,1.84,25.49,25.52,1.19-5.11,25,24.26,8-11.67,22.73,21.19,14.28-17.38,18.74L1691,291.77l-21.78,13.36,10.68,23.21-24.58,7,4,25.23-25.56.1Z"/><path d="M1522.16,212.76a14.15,14.15,0,0,1-6,1.33c-5.51,0-7.91-2.93-7.91-6.52,0-4.16,3.06-6.44,8.17-6.44a14.06,14.06,0,0,1,5.74,1.18l-.82,3.13a11.71,11.71,0,0,0-5.45-1.25c-3.59,0-5.53,1.31-5.53,3.4s1.86,3.34,5.25,3.34a13,13,0,0,0,5.9-1.37Z"/><path d="M1533.71,211.71a6.16,6.16,0,0,1-5,2.38c-1.64,0-3.65-.61-3.65-2.83,0-2.78,3.38-3.29,8.83-3.33-.42-.89-1.86-1.33-3.38-1.33a8.58,8.58,0,0,0-4.48,1.31l-.69-2.56a10.8,10.8,0,0,1,5.49-1.31c2.93,0,6,.83,5.4,3.42l-.38,1.59,1,4.73-2-.05-1.12.05Zm-4.77,0a7,7,0,0,0,5-2.39c-6.23,0-7,.57-7,1.37C1526.93,211.27,1527.44,211.71,1528.94,211.71Z"/><path d="M1541.9,209.05l-1-4.73,2,.06,1.19-.06-.11,2.24a6.26,6.26,0,0,1,4.5-2.49v3.16a3.77,3.77,0,0,0-.51,0,7.59,7.59,0,0,0-4.07,1.35l.95,5.24-1.95-.05-2,.05Z"/><path d="M1555.24,206a6.07,6.07,0,0,1,4.21-1.93,5.18,5.18,0,0,1,5.13,5,5.06,5.06,0,0,1-5,5,5.74,5.74,0,0,1-4.64-2.3l.1,2-1.2-.05-2,.05,1-4.73-1-8.53,2,0,2-.06Zm-.38,3.77a7,7,0,0,0,4,1.13c2,0,3.68-.76,3.68-1.82s-1.67-1.88-3.85-1.88a6,6,0,0,0-3.67,1.1l-.13,1.31Z"/><path d="M1567.63,209.07c0-2.89,2.28-5,5.83-5s5.81,2.12,5.81,5c0,3.17-2.37,5-5.81,5S1567.63,212.24,1567.63,209.07Zm9.61.1c0-.93-1.08-2-3.78-2s-3.8,1.05-3.8,2,1.44,1.78,3.78,1.78S1577.24,210.23,1577.24,209.17Z"/><path d="M1583.85,209.05l-1-4.73,2,.06,2-.06-.42,1.77a6.23,6.23,0,0,1,4.56-2c2.13,0,4.25,1.17,3.64,3.49l-.39,1.5.91,4.73-1.88-.05-1.88.05.93-4.73c.21-1.06-.72-1.86-2.36-1.86a7.53,7.53,0,0,0-4.06,1.35l1,5.24-2-.05-2,.05Z"/><path d="M1494,223.14l2,.05,1.94-.05v3.19h-4Zm1,9.91-1-4.73,2,.06,2-.06-1,4.73,1,4.73-2-.05-2,.05Z"/><path d="M1503.05,233.05l-1-4.73,2,.06,2-.06-.46,1.83a5.62,5.62,0,0,1,4.2-2.09c1.43,0,2.79.58,3,2a5.54,5.54,0,0,1,4.14-2.07c1.85,0,3.58,1,2.91,3.49l-.4,1.5.91,4.73-1.88-.05-1.88.05.93-4.73c.29-1.4-.72-1.86-1.82-1.86a6.67,6.67,0,0,0-3.4,1.12l.89,5.51-1.88-.05-1.88.05.93-4.73c.29-1.4-.72-1.86-1.82-1.86a6.81,6.81,0,0,0-3.48,1.16l1,5.43-2-.05-2,.05Z"/><path d="M1526.46,241.54l-2,0,1-8.53-1-4.73,2,.06,2-.06-.38,1.86a5.94,5.94,0,0,1,4.31-2.16,5,5,0,0,1-.11,10,6.65,6.65,0,0,1-4.56-2l.74,5.53Zm1.18-9.3-.29,1.38a6.9,6.9,0,0,0,4.13,1.29c2,0,3.64-.81,3.64-1.88s-1.67-1.82-3.74-1.82A6.74,6.74,0,0,0,1527.64,232.24Z"/><path d="M1548.94,235.71a6.16,6.16,0,0,1-5,2.38c-1.64,0-3.65-.61-3.65-2.83,0-2.78,3.38-3.29,8.83-3.33-.42-.89-1.86-1.33-3.38-1.33a8.55,8.55,0,0,0-4.48,1.31l-.69-2.56A10.78,10.78,0,0,1,1546,228c2.93,0,6,.83,5.4,3.42l-.38,1.59,1,4.73-2-.05-1.12.05Zm-4.77,0a7,7,0,0,0,5-2.39c-6.24,0-7,.57-7,1.37C1542.16,235.27,1542.67,235.71,1544.17,235.71Z"/><path d="M1565.37,231.76a13.77,13.77,0,0,0-3.74-.57c-2.09,0-4,.57-4,1.9,0,1.06,1.22,1.8,3.69,1.8a14.92,14.92,0,0,0,4.06-.62l.93,2.62a11.13,11.13,0,0,1-5.11,1.2c-3.26,0-5.6-1.47-5.6-4.85s2.66-5.18,6.12-5.18a9.24,9.24,0,0,1,4.59,1.08Z"/><path d="M1575.62,234.88a6.35,6.35,0,0,0,1.88-.33l.3,2.87a9.43,9.43,0,0,1-3.57.67c-3.33,0-3.74-1.54-3.35-3.16l.48-1.88v-2.24h-2.2l.09-1.2-.08-1.29H1571l-.78-3.32,2,.05,1.94-.05-.7,3.32h3.34l-.08,1.28.06,1.21h-3.72v2.24C1573.13,234.25,1574.19,234.88,1575.62,234.88Z"/><path d="M1589.58,223.14l2,.05,1.94-.05v3.19h-4Zm1,9.91-1-4.73,2,.06,2-.06-1,4.73,1,4.73-2-.05-2,.05Z"/><path d="M1598.68,233.05l-1-4.73,2,.06,2-.06-.42,1.77a6.23,6.23,0,0,1,4.56-2c2.12,0,4.25,1.17,3.64,3.49l-.39,1.5.91,4.73-1.88-.05-1.88.05.93-4.73c.21-1.06-.73-1.86-2.36-1.86a7.53,7.53,0,0,0-4.06,1.35l1,5.24-2-.05-2,.05Z"/><path d="M1472.39,258.4c-.78,0-1.14.23-1.14.53s.57.65,3,.65h2.39a3.23,3.23,0,0,1,3.54,3.08c0,1.95-2.11,3.21-5.64,3.21s-5.48-1.29-5.48-3a2.47,2.47,0,0,1,1.92-2.31c-.93-.36-1.27-.91-1.27-1.52a1.78,1.78,0,0,1,1.35-1.66,3,3,0,0,1-.59-1.88c0-2,1.61-3.43,4.1-3.43a4.19,4.19,0,0,1,2.72.85l3-.72-.06,1.69.06,1.29h-1.82a1.67,1.67,0,0,1,0,.32c0,2.11-1.6,3.35-3.92,3.35A5.23,5.23,0,0,1,1472.39,258.4Zm2.17,4.75c2.64,0,3.59-.44,3.59-1.25,0-.38-.27-.9-1.14-.9h-2.72a15.07,15.07,0,0,1-1.6-.07c-.74.17-1.08.64-1.08,1C1471.61,262.83,1472.39,263.15,1474.56,263.15Zm2.29-7.64c0-.55-.64-1.19-2.26-1.19s-2.26.64-2.26,1.19.86,1.07,2.24,1.07S1476.85,256.14,1476.85,255.51Z"/><path d="M1484.7,257.05l-1-4.73,2,.06,1.2-.06-.12,2.24a6.26,6.26,0,0,1,4.51-2.49v3.16a4.07,4.07,0,0,0-.52,0,7.53,7.53,0,0,0-4.06,1.35l1,5.24-2,0-2,0Z"/><path d="M1502.83,259.71a6.17,6.17,0,0,1-5.06,2.38c-1.63,0-3.64-.61-3.64-2.83,0-2.78,3.38-3.29,8.83-3.33-.42-.89-1.86-1.33-3.38-1.33a8.59,8.59,0,0,0-4.49,1.31l-.68-2.56a10.75,10.75,0,0,1,5.49-1.31c2.93,0,6,.83,5.4,3.42l-.38,1.59.95,4.73-2,0-1.12,0Zm-4.77,0a7,7,0,0,0,5-2.39c-6.23,0-7,.57-7,1.37C1496,259.27,1496.56,259.71,1498.06,259.71Z"/><path d="M1511,257.05l-1-4.73,2,.06,2-.06-.45,1.83a5.6,5.6,0,0,1,4.19-2.09c1.43,0,2.8.58,3,2a5.56,5.56,0,0,1,4.15-2.07c1.84,0,3.57,1,2.9,3.49l-.4,1.5.91,4.73-1.88-.05-1.88.05.93-4.73c.29-1.4-.72-1.86-1.82-1.86a6.7,6.7,0,0,0-3.4,1.12l.89,5.51-1.88,0-1.88,0,.93-4.73c.29-1.4-.72-1.86-1.82-1.86a6.84,6.84,0,0,0-3.48,1.16l1,5.43-2,0-2,0Z"/><path d="M1532.49,257.85a12.32,12.32,0,0,0,5.85,1.58c1.46,0,1.88-.31,1.88-.74,0-1.75-7.85.22-7.85-3.73,0-2.11,2.41-2.92,5.28-2.92a9,9,0,0,1,4.14,1l-.76,2.54a14.79,14.79,0,0,0-4.75-.82c-.75,0-1.86.08-1.86.67,0,1.6,7.87-.4,7.87,3.67,0,2.16-2.26,3-4.62,3a10.49,10.49,0,0,1-5.77-1.68Z"/><path d="M1553.88,257.07c0-2.89,2.28-5,5.83-5s5.82,2.12,5.82,5c0,3.17-2.38,5-5.82,5S1553.88,260.24,1553.88,257.07Zm9.61.1c0-.93-1.08-2-3.78-2s-3.8,1.05-3.8,2,1.45,1.78,3.78,1.78S1563.49,258.23,1563.49,257.17Z"/><path d="M1570.75,257.05l0-2.24h-2.16l0-1.18,0-1.31h1.88c-.93-2.22-.06-4,4.65-4a18.62,18.62,0,0,1,3,.25l-.36,2.94a10.14,10.14,0,0,0-3-.58c-1.54,0-2,.55-2,1.38h4.18l-.08,1.28.06,1.21h-4.18v2.24l1,4.73-2,0-2,0Z"/><path d="M1602.71,260.76a14.15,14.15,0,0,1-6,1.33c-5.51,0-7.91-2.93-7.91-6.52,0-4.16,3.06-6.44,8.17-6.44a14.06,14.06,0,0,1,5.74,1.18l-.82,3.13a11.71,11.71,0,0,0-5.45-1.25c-3.59,0-5.53,1.31-5.53,3.4s1.86,3.34,5.25,3.34a13,13,0,0,0,5.9-1.37Z"/><path d="M1613.06,249.13c4.35,0,7.47,2.34,7.47,6.38,0,4.45-3.78,6.61-7.47,6.61s-7.5-2.16-7.5-6.61C1605.56,251.47,1608.71,249.13,1613.06,249.13Zm0,9.88c2.66,0,5.38-1.48,5.38-3.5,0-1.82-2.22-3.26-5.38-3.26s-5.39,1.44-5.39,3.26C1607.67,257.53,1610.35,259,1613.06,259Z"/><path d="M1634.21,260.24l0,1.54h-10.91v-3c2.23-4.71,9-3.32,9-5.3,0-.91-1.25-1.25-2.56-1.25a7.11,7.11,0,0,0-5.06,2.05l-1.4-2.51c.91-1.43,2.79-2.66,6-2.66s4.92,1.5,4.92,3.69c0,4.19-7.9,2.37-8.72,5.85h8.72Z"/><path d="M1497.56,285.06a12.09,12.09,0,0,1-4.9,1c-3.57,0-6.19-1.62-6.19-4.89,0-3,2.2-5.14,5.83-5.14,2.81,0,5.28,1.27,5.28,4.5a10.46,10.46,0,0,1-.11,1.4l-9,0c0,1.16,1.94,1.48,3.69,1.48a10.13,10.13,0,0,0,4.54-1Zm-2-4.46c0-1.2-1.37-2-3.46-2s-3.59.8-3.59,2Z"/><path d="M1510.05,284.2a6.47,6.47,0,0,1-4.34,1.87,5.16,5.16,0,0,1-5.09-5,5.08,5.08,0,0,1,5-5,5.79,5.79,0,0,1,4.62,2.26l-.08-2,1.2.06,2-.06-1,4.73,1,8.53-2-.06-1.92,0Zm-3.71-1.27a6.74,6.74,0,0,0,4-1.21l0-.16,0-1.21a7,7,0,0,0-3.93-1.12c-2,0-3.69.76-3.69,1.82S1504.37,282.93,1506.34,282.93Z"/><path d="M1528.36,281.05l1,4.73-2,0-1.16,0,.06-2.24a5.9,5.9,0,0,1-4.61,2.51c-2.13,0-4.26-1.18-3.65-3.5l.4-1.5-.92-4.73,1.89.06,1.88-.06-.93,4.73c-.21,1.07.72,1.86,2.35,1.86a6.13,6.13,0,0,0,3.61-1.29l-.87-5.3,1.95.06,2-.06Z"/><path d="M1533.51,271.14l2,.05,1.93-.05v3.19h-4Zm1,9.91-1-4.73,2,.06,2-.06-1,4.73,1,4.73-2,0-2,0Z"/><path d="M1546.75,285.73l-1,0-1.58-3.09-3.65-6.41h3.94l2.26,7.41,2.39-7.41h4l-3.67,6.41-1.57,3.09Z"/><path d="M1564.23,283.71a6.14,6.14,0,0,1-5,2.38c-1.63,0-3.65-.61-3.65-2.83,0-2.78,3.38-3.29,8.84-3.33-.42-.89-1.87-1.33-3.38-1.33a8.59,8.59,0,0,0-4.49,1.31l-.68-2.56a10.75,10.75,0,0,1,5.49-1.31c2.92,0,6,.83,5.39,3.42l-.38,1.59,1,4.73-2,0-1.12,0Zm-4.77,0a7,7,0,0,0,5-2.39c-6.23,0-7,.57-7,1.37C1557.45,283.27,1558,283.71,1559.46,283.71Z"/><path d="M1572.42,281.05l-1-8.55,2,.06,2-.06-1,8.55,1,4.73-2,0-2,0Z"/><path d="M1590.07,285.06a12.09,12.09,0,0,1-4.9,1c-3.57,0-6.19-1.62-6.19-4.89,0-3,2.2-5.14,5.83-5.14,2.81,0,5.28,1.27,5.28,4.5a10.46,10.46,0,0,1-.11,1.4l-9,0c0,1.16,1.94,1.48,3.69,1.48a10.13,10.13,0,0,0,4.54-1Zm-2-4.46c0-1.2-1.37-2-3.46-2s-3.59.8-3.59,2Z"/><path d="M1594.67,281.05l-1-4.73,2,.06,2-.06-.42,1.77a6.23,6.23,0,0,1,4.56-2c2.13,0,4.25,1.17,3.65,3.49l-.4,1.5.91,4.73-1.88,0-1.88,0,.93-4.73c.21-1.06-.72-1.86-2.36-1.86a7.53,7.53,0,0,0-4.06,1.35l.95,5.24-2,0-2,0Z"/><path d="M1615.61,282.88a6.35,6.35,0,0,0,1.88-.33l.3,2.87a9.43,9.43,0,0,1-3.57.67c-3.32,0-3.74-1.54-3.34-3.16l.47-1.88v-2.24h-2.2l.09-1.2-.07-1.29H1611l-.78-3.32,2,.05,1.94-.05-.7,3.32h3.34l-.07,1.28,0,1.21h-3.72v2.24C1613.12,282.25,1614.18,282.88,1615.61,282.88Z"/><path d="M1487.6,297.53c-1.88,1.56-3.55,4.1-3.55,6.46s1.82,5.32,3.59,6.8l-3.54.34a11.13,11.13,0,0,1,0-14Z"/><path d="M1493.13,306.4c-.78,0-1.14.23-1.14.53s.57.65,3,.65h2.39a3.23,3.23,0,0,1,3.54,3.08c0,1.95-2.11,3.21-5.65,3.21s-5.47-1.29-5.47-3a2.47,2.47,0,0,1,1.92-2.31c-.93-.36-1.27-.91-1.27-1.52a1.78,1.78,0,0,1,1.35-1.66,3,3,0,0,1-.59-1.88c0-2,1.61-3.43,4.1-3.43a4.21,4.21,0,0,1,2.72.85l3-.72-.06,1.69.06,1.29h-1.82c0,.1,0,.21,0,.32,0,2.11-1.59,3.35-3.91,3.35A5.2,5.2,0,0,1,1493.13,306.4Zm2.16,4.75c2.64,0,3.59-.44,3.59-1.25,0-.38-.26-.9-1.14-.9H1495a15.07,15.07,0,0,1-1.6-.07c-.74.17-1.08.64-1.08,1C1492.35,310.83,1493.13,311.15,1495.29,311.15Zm2.3-7.64c0-.55-.64-1.19-2.26-1.19s-2.26.64-2.26,1.19.86,1.07,2.24,1.07S1497.59,304.14,1497.59,303.51Z"/><path d="M1517.84,308.76a14.08,14.08,0,0,1-6,1.33c-5.51,0-7.9-2.93-7.9-6.52,0-4.16,3.06-6.44,8.17-6.44a14.06,14.06,0,0,1,5.74,1.18l-.82,3.13a11.74,11.74,0,0,0-5.45-1.25c-3.59,0-5.53,1.31-5.53,3.4s1.86,3.34,5.24,3.34a13.07,13.07,0,0,0,5.91-1.37Z"/><path d="M1528.2,297.13c4.35,0,7.47,2.34,7.47,6.38,0,4.45-3.78,6.61-7.47,6.61s-7.5-2.16-7.5-6.61C1520.7,299.47,1523.85,297.13,1528.2,297.13Zm0,9.88c2.66,0,5.38-1.48,5.38-3.5,0-1.82-2.23-3.26-5.38-3.26s-5.39,1.44-5.39,3.26C1522.81,305.53,1525.48,307,1528.2,307Z"/><path d="M1549.35,308.24l0,1.54h-10.9v-3c2.22-4.71,9-3.32,9-5.3,0-.91-1.26-1.25-2.57-1.25a7.1,7.1,0,0,0-5.05,2.05l-1.41-2.51c.92-1.43,2.8-2.66,6-2.66s4.92,1.5,4.92,3.69c0,4.19-7.9,2.37-8.72,5.85h8.72Z"/><path d="M1563.6,309.06a12.16,12.16,0,0,1-4.9,1c-3.58,0-6.2-1.62-6.2-4.89,0-3,2.21-5.14,5.83-5.14,2.82,0,5.29,1.27,5.29,4.5a9.13,9.13,0,0,1-.12,1.4l-9,0c0,1.16,1.94,1.48,3.69,1.48a10.13,10.13,0,0,0,4.54-1Zm-2-4.46c0-1.2-1.37-2-3.46-2s-3.59.8-3.59,2Z"/><path d="M1572.28,304.12a10.76,10.76,0,0,1-2.47,7l-3.53-.34c1.76-1.48,3.59-4.33,3.59-6.8s-1.67-4.9-3.55-6.46l3.51-.36A10.7,10.7,0,0,1,1572.28,304.12Z"/><path d="M1586.59,313.54l-2,0,1-8.53-1-4.73,2,.06,2-.06-.38,1.86a6,6,0,0,1,4.32-2.16,5,5,0,0,1-.12,10,6.67,6.67,0,0,1-4.56-2l.74,5.53Zm1.18-9.3-.29,1.38a6.88,6.88,0,0,0,4.12,1.29c2,0,3.65-.81,3.65-1.88s-1.67-1.82-3.74-1.82A6.71,6.71,0,0,0,1587.77,304.24Z"/><path d="M1611.46,309.06a12.16,12.16,0,0,1-4.9,1c-3.58,0-6.2-1.62-6.2-4.89,0-3,2.21-5.14,5.84-5.14,2.81,0,5.28,1.27,5.28,4.5a9.13,9.13,0,0,1-.12,1.4l-9,0c0,1.16,1.93,1.48,3.68,1.48a10.13,10.13,0,0,0,4.54-1Zm-2-4.46c0-1.2-1.37-2-3.46-2s-3.59.8-3.59,2Z"/><path d="M1616.06,305.05l-1-4.73,2,.06,1.2-.06-.11,2.24a6.26,6.26,0,0,1,4.5-2.49v3.16a3.77,3.77,0,0,0-.51,0,7.53,7.53,0,0,0-4.07,1.35l1,5.24-2,0-2,0Z"/><path d="M1510.79,329.05l-1-4.73,2,.06,2-.06-.45,1.83a5.6,5.6,0,0,1,4.2-2.09c1.42,0,2.79.58,3,2a5.53,5.53,0,0,1,4.14-2.07c1.84,0,3.57,1,2.9,3.49l-.4,1.5.92,4.73-1.88-.05-1.89.05.94-4.73c.28-1.4-.73-1.86-1.83-1.86a6.7,6.7,0,0,0-3.4,1.12l.89,5.51-1.88,0-1.88,0,.93-4.73c.29-1.4-.72-1.86-1.82-1.86a6.84,6.84,0,0,0-3.48,1.16l1,5.43-2,0-2,0Z"/><path d="M1532.24,319.14l2,.05,1.94-.05v3.19h-4Zm1,9.91-1-4.73,2,.06,2-.06-1,4.73,1,4.73-2,0-2,0Z"/><path d="M1541.34,329.05l-1-4.73,2,.06,2-.06-.41,1.77a6.21,6.21,0,0,1,4.55-2c2.13,0,4.26,1.17,3.65,3.49l-.4,1.5.92,4.73-1.89,0-1.88,0,.93-4.73c.21-1.06-.72-1.86-2.35-1.86a7.59,7.59,0,0,0-4.07,1.35l1,5.24-2,0-2,0Z"/><path d="M1567.63,329.05l1,4.73-1.95,0-1.16,0,0-2.24a5.89,5.89,0,0,1-4.61,2.51c-2.13,0-4.26-1.18-3.65-3.5l.4-1.5-.91-4.73,1.88.06,1.88-.06-.93,4.73c-.21,1.07.72,1.86,2.35,1.86a6.11,6.11,0,0,0,3.61-1.29l-.87-5.3,2,.06,1.95-.06Z"/><path d="M1578.67,330.88a6.24,6.24,0,0,0,1.88-.33l.31,2.87a9.5,9.5,0,0,1-3.57.67c-3.33,0-3.75-1.54-3.35-3.16l.48-1.88v-2.24h-2.21l.1-1.2-.08-1.29h1.85l-.78-3.32,2,.05,1.94-.05-.71,3.32h3.35l-.08,1.28.06,1.21h-3.73v2.24C1576.18,330.25,1577.25,330.88,1578.67,330.88Z"/><path d="M1594.61,333.06a12.09,12.09,0,0,1-4.9,1c-3.57,0-6.19-1.62-6.19-4.89,0-3,2.2-5.14,5.83-5.14,2.81,0,5.28,1.27,5.28,4.5a9,9,0,0,1-.11,1.4l-9,0c0,1.16,1.94,1.48,3.69,1.48a10.13,10.13,0,0,0,4.54-1Zm-1.95-4.46c0-1.2-1.37-2-3.46-2s-3.59.8-3.59,2Z"/></svg>