<svg id="Layer_1" data-name="Layer 1" xmlns="http://www.w3.org/2000/svg" viewBox="0 0 430 430"><defs><style>.cls-1{fill:none;stroke:#000;stroke-linejoin:bevel;stroke-width:5.06px;}</style></defs><path class="cls-1" d="M349,215a134,134,0,1,1-38.68-94.16A133.47,133.47,0,0,1,349,215Z"/><path class="cls-1" d="M215,349V81s-71.28,43-71.28,134S215,349,215,349Z"/><path class="cls-1" d="M215,81V349s71.28-43,71.28-134S215,81,215,81Z"/><path class="cls-1" d="M310.29,309.16a134,134,0,0,1-190.36.23A157.92,157.92,0,0,1,215,278.19h.25a158.07,158.07,0,0,1,95,31Z"/><path class="cls-1" d="M310.29,120.84a160.29,160.29,0,0,1-41,21.83,160.26,160.26,0,0,1-54,9.14H215a160.2,160.2,0,0,1-54.2-9.29,159.72,159.72,0,0,1-40.87-21.91,134,134,0,0,1,190.36.23Z"/><line class="cls-1" x1="348.97" y1="215" x2="81.03" y2="215"/><path d="M55,185.74l-18.84,2.49L38,180.94l18,1-15.51-10.4L41,170l.34-1.75L60,166.45l-16.28-7.72,1.86-7.21,15.31,11.2,5.21,3.4-.55,1.69-.66,3-6.07-.11-12.24.53,10.5,6.23,5.41,2.78-.92,3-.41,2Z"/><path d="M61.94,137.62a11.76,11.76,0,0,1,.93-8.89c1.93-3.56,5.84-6,9.16-2.92l2.15,2,8.75,2.78-1.81,3.09-1.62,3.2-7.06-5.86c-1.59-1.32-3.78-.49-5.26,2.25a14.24,14.24,0,0,0-1.51,7l10.13,3.41-1.87,3.23-1.69,3.32-7-5.92L50,138.18,51.9,135l1.69-3.32Z"/><path d="M95.86,107.71A11.66,11.66,0,0,1,93.08,118c-2,2.38-5.37,4.55-8.6,1.81-4-3.41-.61-9,6-16.92-1.81-.49-4.22,1.07-6.09,3.27a16.27,16.27,0,0,0-3.62,8.13l-4.57-2.17a20.66,20.66,0,0,1,4.86-9.59c3.61-4.25,8.61-7.69,11.61-3.62l1.85,2.52,8,4.45-2.49,2.77-1.3,1.7ZM90,114.64a13.36,13.36,0,0,0,2.71-10.24c-7.62,9.1-7.83,10.91-6.68,11.9C86.87,117,88.14,116.81,90,114.64Z"/><path d="M114.92,87.72A12.2,12.2,0,0,0,117.28,85l3.94,3.83a18.29,18.29,0,0,1-4.42,5.32c-4.87,4-7.35,2.31-8.74-.54l-1.59-3.33L103.73,87l-3.22,2.68-1.32-1.86L97.51,86l2.69-2.25L95,79.82l3.07-2.42L100.85,75l3,5.72,4.9-4.08,1.43,2,1.57,1.71-5.45,4.54,2.73,3.28C110.51,89.84,112.83,89.46,114.92,87.72Z"/><path d="M160.18,62.34l-10.72,4.28.63,5.95-6.69,2.67,2.81-26.41,2.1-.68,1.93-.93,20.34,17.16-6.68,2.67Zm-2.8-2.82-7.06-5.86-.84,9Z"/><path d="M182.65,46.83A11.5,11.5,0,0,1,190,41.92a9.88,9.88,0,0,1,11.16,7.88,9.64,9.64,0,0,1-7.89,10.94,10.91,10.91,0,0,1-9.41-2.93l.78,3.72-2.26.26-3.67.69.4-9.18-4.39-15.75,3.69-.52,3.66-.7Zm.42,7.19a13.16,13.16,0,0,0,7.81.94c3.79-.6,6.7-2.53,6.38-4.53s-3.71-3-7.82-2.38a11.34,11.34,0,0,0-6.56,3.18l.15,2.5Z"/><path d="M211.25,49.39c.24-5.49,4.76-9.35,11.52-9s10.88,4.53,10.64,10c-.26,6-4.93,9.35-11.48,9.06S211,55.43,211.25,49.39Zm18.29,1c.07-1.77-1.9-3.85-7-4.07s-7.32,1.67-7.4,3.44c-.08,2,2.6,3.52,7,3.72S229.45,52.4,229.54,50.37Z"/><path d="M264.51,56.94l-.4,9.19-3.59-1-2.17-.43,1.14-4.11c-3.09,2.2-6.11,3.39-9.69,2.49-3.93-1-7.31-4.15-5.11-8.15l1.43-2.59.51-9.16,3.44,1,3.5.77-3.91,8.3c-.88,1.87.47,3.78,3.49,4.53a11.68,11.68,0,0,0,7.27-.71l.84-10.2,3.59,1,3.64.8Z"/><path d="M286.39,69.64a11.68,11.68,0,0,0,3.52.93l-1.75,5.21a18,18,0,0,1-6.72-1.68c-5.75-2.64-5.26-5.63-3.28-8.11l2.31-2.88,1.78-3.89-3.82-1.74,1.12-2,.89-2.3,3.19,1.46,1.29-6.37L288.43,50l3.4,1.43L288,56.63l5.79,2.66-1.15,2.14-.86,2.15-6.45-2.95-1.78,3.88C282.58,66.58,283.93,68.51,286.39,69.64Z"/><path d="M319.21,90.13l7.12-17.62,5.41,5.23L322,92.88l16.7-8.37,1.15,1.25,1.35,1.16L333.49,104l14.75-10.36,5.36,5.18-17.3,7.79-5.53,2.86-1.2-1.31-2.28-2.06,3.08-5.22L335.94,90l-10.59,6.07-5.09,3.33-2.13-2.26-1.56-1.36Z"/><path d="M353.55,138.9a22.84,22.84,0,0,1-6.68-6.8c-3.68-5.72-3.78-11.59,1.46-14.95,4.75-3,10.52-1.76,14.25,4.06,2.89,4.51,3.38,9.78-1.79,13.1a19.08,19.08,0,0,1-2.37,1.26l-9.28-14.34c-1.86,1.19-.39,4.63,1.41,7.43a19.47,19.47,0,0,0,6.19,6.31Zm5.14-7.72c1.92-1.23,1.8-4.25-.35-7.6s-5-4.93-6.89-3.7Z"/><path d="M372.85,148.56a11.48,11.48,0,0,1,6.34,6.16,9.88,9.88,0,0,1-5.39,12.55,9.63,9.63,0,0,1-12.34-5.43,10.93,10.93,0,0,1,.9-9.82l-3.48,1.54-.72-2.16L356.72,148l9.07-1.53,14.49-7.57,1.28,3.5L383,145.8Zm-6.94,1.9a13.2,13.2,0,0,0,.7,7.84c1.38,3.57,3.88,6,5.77,5.29s2.19-4.26.69-8.14a11.32,11.32,0,0,0-4.47-5.76l-2.42.67Z"/><path d="M374,181.07l.55,3.8.73,3.62-6,1L368,182.11Zm4.35.32c2.18-.38,4.13.54,6.95,3.9,2.08,2.47,2.72,2.77,3.11,2.7.89-.15,1-2.27.53-5.23a27.72,27.72,0,0,0-2.43-7.51l6.1-1.06a54.69,54.69,0,0,1,1.89,7.35c.94,5.46.69,11.05-3.84,11.83-2,.34-4.63-.27-6.89-3.33-1.68-2.28-3-3.49-4.48-3.23l-2,.34-.94-5.42Z"/><path d="M59.94,252.26l-.07.12-1.79.36-.12-.08-.91-4.45-11.78,2.41-.12-.08-.37-1.78.08-.12,11.79-2.41-.91-4.46.07-.12,1.79-.36.12.08Z"/><path d="M61.56,258.18l-.07.12-5,1.56,2.27,7.34,5-1.55.13.06.53,1.74-.06.13L51,271.7l-.13-.06-.54-1.74.07-.13,6.37-2-2.27-7.34-6.37,2-.13-.07-.54-1.74.07-.12,13.33-4.13.13.07Z"/><path d="M69.57,280.26l-.06.13-1.68.7L67.7,281,65.17,275l-3.08,1.28L64,280.82l-.06.13-1.68.7-.13,0L60.23,277l-4.39,1.83,2.76,6.63-.06.13-1.68.7-.13-.06-3.5-8.4.06-.13,12.88-5.36.13.05Z"/><path d="M77.28,302.42a7.57,7.57,0,0,0-.83-5,5.26,5.26,0,0,0-9.08,5.3,7.52,7.52,0,0,0,4,3.19l0,.14-2,1.17a8.1,8.1,0,0,1-3.75-3.43,7.38,7.38,0,1,1,12.75-7.44,8.1,8.1,0,0,1,1.13,5l-2,1.17Z"/><path d="M86.7,309.58l0,.14-8,12.79-.14,0-1.19-1.63,0-.14,1.85-3-3.69-5.07-3.39.84-.14,0-1.19-1.63,0-.14,14.61-3.63.14,0Zm-9,2.56,2.74,3.76,3.45-5.39Z"/><path d="M95.15,320.08c1.88,2.12,1.8,4.62.06,6.16a3.86,3.86,0,0,1-4.34.6l-1.68,7.7H89l-1.6-1.81v-.15L89,325.29l-1.21-1.36-4.46,3.95h-.14l-1.21-1.36v-.14l10.45-9.25h.14Zm-5.88,2.51,1.34,1.51c1,1.13,2.15,1.2,3,.4s1-1.95,0-3.08l-1.34-1.51Z"/><path d="M104.86,330.21c2.06,1.94,2.33,4.15.81,5.77a2.68,2.68,0,0,1-2.48.85,3.91,3.91,0,0,1-.5,4.81,4.48,4.48,0,0,1-6.44-.09l-3.53-3.33v-.15l9.58-10.15h.14Zm-9.36,7.85,2.13,2a2.2,2.2,0,0,0,3.36,0,2.25,2.25,0,0,0-.17-3.36l-2.13-2Zm4.58-4.85,1,1c1.1,1,2,1.16,2.87.2.76-.81.59-1.66-.51-2.7l-1-1Z"/><path d="M119.74,351.68a7.48,7.48,0,1,1-1.46-10.41A7.44,7.44,0,0,1,119.74,351.68Zm-10-7.67A5.16,5.16,0,1,0,117,343,5.21,5.21,0,0,0,109.69,344Z"/><path d="M129.52,349.56l.13.19,1.56,13.54,5.55-9.29.14,0,1.57.93,0,.14-7.16,12-.14,0-1.65-1-.12-.2-1.57-13.54-5.54,9.29-.14,0-1.57-.94,0-.14,7.16-12,.13,0Z"/><path d="M157.54,363.69l.06.13-.71,1.68-.13.06L150.7,363l-1.29,3.07L154,368l.06.14-.71,1.67-.13.06-4.57-1.93L146,374.1l-.13,0-1.68-.71-.05-.13,5.41-12.86.14-.05Z"/><path d="M172.06,376a7.48,7.48,0,1,1-4.91-9.29A7.44,7.44,0,0,1,172.06,376ZM160,372.16a5.15,5.15,0,1,0,6.5-3.46A5.19,5.19,0,0,0,160,372.16Z"/><path d="M191.33,379.93a7.48,7.48,0,1,1-6-8.65A7.45,7.45,0,0,1,191.33,379.93Zm-12.41-2.37a5.16,5.16,0,1,0,6.05-4.2A5.19,5.19,0,0,0,178.92,377.56Z"/><path d="M205.73,374.21l.09.11-.17,1.81-.11.09-4.53-.43-1.12,12-.11.09L198,387.7l-.09-.11,1.13-12-4.53-.42-.09-.11.17-1.81.11-.09Z"/><path d="M214.39,374.39c2.83,0,4.84,1.95,4.83,4.37s-2.05,4.34-4.88,4.32h-2.43l0,5.35-.1.11-1.82,0-.1-.1.08-14,.08-.1ZM211.92,381l2.43,0a2.33,2.33,0,1,0,0-4.65l-2.43,0Z"/><path d="M227.36,373.91c2.82-.23,4.78,1.33,5,3.65a3.86,3.86,0,0,1-2.12,3.83l5.16,6-.1.11-2.41.2-.11-.09L227.82,382l-1.81.15.49,5.94-.09.11-1.81.15-.11-.09-1.15-13.9.09-.11Zm-1.51,6.22,2-.17c1.51-.13,2.25-1,2.15-2.21s-1-1.95-2.48-1.82l-2,.17Z"/><path d="M239.81,372.44l.12.09,2.1,13.78-.08.12-1.8.27-.11-.08-2.11-13.79.08-.11Z"/><path d="M247,371.19l.22.06,10.53,8.65-2.46-10.54.08-.12,1.77-.41.12.07,3.17,13.59-.07.12-1.88.44-.22-.06-10.53-8.64,2.46,10.53-.07.12-1.78.42-.12-.08L245,371.75l.07-.12Z"/><path d="M271.76,364l.13.07.59,1.72-.07.13-4.3,1.47,3.9,11.38-.06.13-1.73.59-.12-.06L266.2,368l-4.31,1.47-.13-.06-.59-1.72.07-.13Z"/><path d="M296.46,360.34a7.48,7.48,0,1,1-10-3.24A7.44,7.44,0,0,1,296.46,360.34ZM285.17,366a5.15,5.15,0,1,0,2.25-7A5.18,5.18,0,0,0,285.17,366Z"/><path d="M304.38,347l.14,0,1,1.54,0,.14-5.56,3.52,1.79,2.82,4.18-2.65.14,0,1,1.54,0,.14-4.19,2.65,3.57,5.64,0,.14-1.54,1-.14,0-7.47-11.79,0-.14Z"/><path d="M315.11,339l.14,0L324,350l0,.14-1.42,1.13h-.14l-8.7-10.91,0-.14Z"/><path d="M320.68,334.39l.22-.06,13.44,2.24-7.38-7.9v-.14l1.33-1.24h.15L338,337.48v.15l-1.4,1.31-.22.06-13.44-2.24,7.39,7.9v.14L328.94,346h-.14l-9.52-10.19v-.15Z"/><path d="M338.57,315.8h.15l1.37,1.2v.14l-3,3.42,9.06,7.92v.14L345,330h-.14l-9.06-7.91-3,3.42h-.14l-1.37-1.2v-.14Z"/><path d="M346.22,305.52l.15,0,1.47,1.07,0,.14L344,312l2.7,2,2.92-4,.14,0,1.47,1.08,0,.14-2.91,4,3.83,2.8,4.24-5.8.14,0,1.47,1.07,0,.14-5.36,7.35-.14,0-11.28-8.23,0-.14Z"/><path d="M351.1,297.88c1.46-2.43,3.87-3.1,5.86-1.9a3.84,3.84,0,0,1,1.87,4l7.86-.7,0,.14-1.26,2.08-.14,0-7.4.73-.94,1.57,5.11,3.07,0,.14-.94,1.56-.14,0-12-7.2,0-.14Zm4.15,4.86L356.3,301c.78-1.3.5-2.41-.54-3s-2.15-.35-2.93.95l-1,1.74Z"/><path d="M357.26,286.91l.17-.14,13.33-2.88L361,279.27l-.05-.14.78-1.64.13-.05,12.62,6,.05.13-.82,1.74-.18.14-13.33,2.88,9.79,4.62,0,.13-.78,1.65-.13.05-12.63-6,0-.14Z"/><path d="M366.51,264.55l.13-.07,1.72.62.06.13-2.22,6.19,3.14,1.12,1.67-4.66.13-.06,1.72.61.06.13-1.68,4.66,4.48,1.61,2.42-6.76.13-.06,1.71.61.07.13L377,277.32l-.13.06-13.14-4.71-.06-.13Z"/><path d="M370.6,249.88l.12-.08,1.76.46.08.13-1.16,4.4,11.64,3,.07.12-.46,1.76-.12.08-11.64-3.05-1.16,4.4-.12.07-1.76-.46-.07-.13Z"/></svg>