<svg id="Layer_1" data-name="Layer 1" xmlns="http://www.w3.org/2000/svg" viewBox="0 0 430 430"><defs><style>.cls-1{fill:none;stroke:#000;stroke-linejoin:bevel;stroke-width:5.06px;}.cls-2{font-size:36.18px;font-family:Moche-Bold, Moche;font-weight:700;}.cls-3,.cls-4{font-size:20.22px;font-family:P22Underground-PCp, P22 Underground;}.cls-4{fill:#fff;}</style></defs><path class="cls-1" d="M349,215a134,134,0,1,1-38.68-94.16A133.47,133.47,0,0,1,349,215Z"/><path class="cls-1" d="M215,349V81s-71.28,43-71.28,134S215,349,215,349Z"/><path class="cls-1" d="M215,81V349s71.28-43,71.28-134S215,81,215,81Z"/><path class="cls-1" d="M310.29,309.16a134,134,0,0,1-190.36.23A157.92,157.92,0,0,1,215,278.19h.25a158.07,158.07,0,0,1,95,31Z"/><path class="cls-1" d="M310.29,120.84a160.29,160.29,0,0,1-41,21.83,160.26,160.26,0,0,1-54,9.14H215a160.2,160.2,0,0,1-54.2-9.29,159.72,159.72,0,0,1-40.87-21.91,134,134,0,0,1,190.36.23Z"/><line class="cls-1" x1="348.97" y1="215" x2="81.03" y2="215"/><text class="cls-2" transform="matrix(0.25, -0.97, 0.97, 0.25, 58.91, 194.11)">W</text><text class="cls-2" transform="translate(71.2 152.17) rotate(-61.47)">h</text><text class="cls-2" transform="matrix(0.65, -0.76, 0.76, 0.65, 87.45, 123.73)">a</text><text class="cls-2" transform="matrix(0.77, -0.64, 0.64, 0.77, 108.17, 100.54)">t</text><text class="cls-2" transform="translate(127.25 85.47) rotate(-31.85)"> </text><text class="cls-2" transform="translate(143.23 75.31) rotate(-21.8)">A</text><text class="cls-2" transform="translate(176.57 62.83) rotate(-9.09)">b</text><text class="cls-2" transform="matrix(1, 0.04, -0.04, 1, 209.78, 58.31)">o</text><text class="cls-2" transform="translate(240.14 60.11) rotate(14.09)">u</text><text class="cls-2" transform="translate(271.91 69.1) rotate(24.62)">t</text><text class="cls-2" transform="translate(293.75 79.8) rotate(32.6)"> </text><text class="cls-2" transform="translate(309.99 89.42) rotate(44.04)">W</text><text class="cls-2" transform="translate(340.4 120.95) rotate(57.34)">e</text><text class="cls-2" transform="translate(355.94 145.93) rotate(68.89)">b</text><text class="cls-2" transform="matrix(0.17, 0.99, -0.99, 0.17, 367.17, 177.47)">?</text><text class="cls-3" transform="translate(43.71 243.51) rotate(78.42)">T</text><text class="cls-3" transform="translate(46.99 258.98) rotate(72.81)">H</text><text class="cls-3" transform="translate(52.57 276.27) rotate(67.42)">E</text><text class="cls-3" transform="matrix(0.44, 0.9, -0.9, 0.44, 58.35, 289.65)"> </text><text class="cls-3" transform="translate(61.52 296.27) rotate(59.76)">C</text><text class="cls-3" transform="matrix(0.59, 0.81, -0.81, 0.59, 70.68, 311.61)">A</text><text class="cls-3" transform="translate(80.8 325.22) rotate(48.5)">R</text><text class="cls-3" transform="matrix(0.73, 0.69, -0.69, 0.73, 91.46, 337.04)">B</text><text class="cls-3" transform="matrix(0.79, 0.61, -0.61, 0.79, 102.74, 347.6)">O</text><text class="cls-3" transform="translate(119.14 359.84) rotate(30.85)">N</text><text class="cls-3" transform="matrix(0.9, 0.44, -0.44, 0.9, 135.42, 369.19)"> </text><text class="cls-3" transform="translate(142.64 372.78) rotate(22.85)">F</text><text class="cls-3" transform="translate(154.7 377.9) rotate(17.55)">O</text><text class="cls-3" transform="translate(174.32 383.89) rotate(10.8)">O</text><text class="cls-3" transform="matrix(1, 0.09, -0.09, 1, 192.63, 387.2)">T</text><text class="cls-3" transform="matrix(1, 0.01, -0.01, 1, 208.24, 388.5)">P</text><text class="cls-3" transform="translate(222.88 388.48) rotate(-4.72)">R</text><text class="cls-3" transform="matrix(0.99, -0.15, 0.15, 0.99, 238.45, 386.96)">I</text><text class="cls-3" transform="translate(246.62 385.81) rotate(-13.15)">N</text><text class="cls-3" transform="translate(265.16 381.22) rotate(-18.9)">T</text><text class="cls-3" transform="translate(278.42 376.52) rotate(-22.29)"> </text><text class="cls-3" transform="matrix(0.89, -0.45, 0.45, 0.89, 285.36, 373.82)">O</text><text class="cls-3" transform="translate(303.33 364.46) rotate(-32.33)">F</text><text class="cls-3" transform="translate(314.83 356.97) rotate(-35.95)"> </text><text class="cls-3" transform="matrix(0.78, -0.62, 0.62, 0.78, 321.16, 352.31)">I</text><text class="cls-3" transform="matrix(0.73, -0.68, 0.68, 0.73, 327.69, 347.22)">N</text><text class="cls-3" transform="translate(341.45 334.02) rotate(-48.85)">T</text><text class="cls-3" transform="translate(351.64 322.11) rotate(-53.89)">E</text><text class="cls-3" transform="translate(360.31 310.04) rotate(-58.96)">R</text><text class="cls-3" transform="matrix(0.43, -0.9, 0.9, 0.43, 368.51, 296.24)">N</text><text class="cls-3" transform="translate(376.4 278.94) rotate(-70.29)">E</text><text class="cls-3" transform="translate(381.29 264.91) rotate(-75.32)">T</text><text class="cls-3" transform="translate(384.71 251.24) rotate(-78.77)"> </text><text class="cls-4" transform="translate(386.18 243.53) rotate(-81.36)"> </text></svg>