<svg id="Layer_1" data-name="Layer 1" xmlns="http://www.w3.org/2000/svg" viewBox="0 0 1920 731.08"><defs><style>.cls-1{fill:#8fe9a0;}.cls-2{fill:#dd595f;}.cls-3{fill:#fff9e8;stroke-width:4.49px;}.cls-3,.cls-4{stroke:#000;stroke-miterlimit:10;}.cls-4{fill:none;stroke-width:3px;}</style></defs><rect class="cls-1" x="-0.94" width="971.35" height="731.08"/><rect class="cls-2" x="970.41" width="948.65" height="731.08"/><circle class="cls-3" cx="1261.85" cy="412.44" r="68.89"/><circle class="cls-3" cx="1359.22" cy="315.08" r="68.89"/><circle class="cls-3" cx="1395.84" cy="448.22" r="68.89"/><circle class="cls-3" cx="341.94" cy="379.77" r="68.89"/><circle class="cls-3" cx="439.31" cy="282.4" r="68.89"/><circle class="cls-3" cx="574.03" cy="316.17" r="68.89"/><circle class="cls-3" cx="613.08" cy="448.66" r="68.89"/><circle class="cls-3" cx="475.93" cy="415.55" r="68.89"/><circle class="cls-3" cx="1493.63" cy="350.36" r="68.89"/><circle class="cls-3" cx="1591" cy="252.99" r="68.89"/><circle class="cls-3" cx="1627.62" cy="386.14" r="68.89"/><g id="he9QYG"><path d="M341.93,362.7c3.05-.07,6-.17,8.86-.2,5.56,0,11.11-.08,16.66-.06,2.59,0,5.18.1,7.77.21a22.33,22.33,0,0,1,4,.38,7,7,0,0,1,5.09,4.54,10.73,10.73,0,0,1,.53,3.55c.08,1.16.11,2.33.13,3.5.06,2.87.14,5.73.12,8.6,0,1.89-.2,3.77-.27,5.66a8.81,8.81,0,0,1-.9,3.85,7.34,7.34,0,0,1-5.1,3.82,14.84,14.84,0,0,1-3,.22q-4.43.12-8.86.19-4.83.09-9.66.14c-1.53,0-3.07,0-4.61,0l-7.47-.21c-1.54-.05-3.09-.12-4.62-.23a6.4,6.4,0,0,1-3.09-1.1,7.26,7.26,0,0,1-3.4-5.63c-.16-1.72-.21-3.44-.26-5.17-.06-2.26-.12-4.52-.11-6.78,0-1.7.13-3.39.2-5.09,0-1,.11-1.94.14-2.9a7.33,7.33,0,0,1,1.91-4.78,7.13,7.13,0,0,1,4.64-2.37Zm18.48,5.07v23h3.17v-1.09a14.28,14.28,0,0,0,1.31.95,2.86,2.86,0,0,0,4.09-1.19,4.13,4.13,0,0,0,.36-1.54c0-3.88.05-7.77-.14-11.65a2.74,2.74,0,0,0-4-2.46,13.12,13.12,0,0,0-1.59,1.08v-7.11Zm20.56,15c-.07-2-.14-3.92-.22-5.85a3.86,3.86,0,0,0-.92-2.3c-1.32-1.65-4.48-1.82-6.25-.48a4.85,4.85,0,0,0-1.87,4.17c0,2.7,0,5.39,0,8.09a5.3,5.3,0,0,0,.89,3,4.33,4.33,0,0,0,4.28,1.74,3.93,3.93,0,0,0,3.18-1.74c1-1.52.87-3.23.81-4.94h-3.16c0,.89,0,1.73-.12,2.56s-.44,1.12-1.11,1.15c-.93,0-1.36-.22-1.44-1.06-.12-1.44-.13-2.89-.18-4.38Zm-23.63,8v-17h-3.1v.59c0,3.76,0,7.51,0,11.27a1.8,1.8,0,0,1-.92,1.7,3.66,3.66,0,0,1-.42.26c-.75.39-1.34,0-1.34-.79v-13h-3.16v.53q0,7,0,13.94a5.47,5.47,0,0,0,.17,1.27,2,2,0,0,0,2,1.53,3.18,3.18,0,0,0,1.94-.64c.57-.39,1.09-.86,1.66-1.32v1.71Zm-12.44,0V371.34h3.58v-3.6H337.75v3.62h3.62v19.42Z"/><path d="M310.42,382.31v-4.52a3.85,3.85,0,0,1,3.07-4,5,5,0,0,1,3.85.41,3.71,3.71,0,0,1,2,3c.13,1.31.11,2.63.12,3.95,0,1.84,0,3.67,0,5.51a4.19,4.19,0,0,1-4.32,4.52,4.76,4.76,0,0,1-3.11-.91,3.93,3.93,0,0,1-1.44-2.46,12.81,12.81,0,0,1-.12-2.06C310.41,384.62,310.42,383.46,310.42,382.31Zm5.81.05h0V377.5a1,1,0,0,0-.09-.37,1.52,1.52,0,0,0-1.7-.62,1.08,1.08,0,0,0-.87,1.16c0,3.2,0,6.41,0,9.61a1.08,1.08,0,0,0,1.25,1.08,1.27,1.27,0,0,0,1.37-1.19Z"/><path d="M298.78,368c1.09,0,2.13,0,3.17,0a.61.61,0,0,1,.39.38c.7,2.77,1.38,5.54,2.08,8.32a3.47,3.47,0,0,0,.2.5h.16c.13-.54.28-1.08.4-1.62.44-1.88.87-3.75,1.32-5.62a14.13,14.13,0,0,1,.44-1.61.6.6,0,0,1,.42-.34c1,0,2,0,3.13,0-.3,1-.6,1.89-.88,2.83-.8,2.65-1.59,5.31-2.39,8a6.39,6.39,0,0,1-.31.83c-.66,1.44-.47,3-.48,4.48,0,2,0,4,0,6v.59h-3.2c-.35,0-.29-.26-.29-.46v-5a28.8,28.8,0,0,0,0-3.22,17.23,17.23,0,0,0-.7-2.81c-.71-2.39-1.43-4.76-2.15-7.14C299.65,370.78,299.22,369.44,298.78,368Z"/><path d="M327.87,374.06h3V390.7h-3V389a17.25,17.25,0,0,1-1.82,1.45,2.69,2.69,0,0,1-3,.15,1.67,1.67,0,0,1-.62-.77,5.66,5.66,0,0,1-.3-1.63c0-4.66,0-9.33,0-14,0-.05,0-.09,0-.18h3c0,.17,0,.35,0,.52V386.1c0,.33,0,.66,0,1,0,.86.6,1.21,1.36.79a5.82,5.82,0,0,0,1.09-.83.76.76,0,0,0,.19-.51q0-6,0-12.06C327.84,374.35,327.86,374.22,327.87,374.06Z"/><path d="M366.12,382.55V387c0,.72-.24,1.15-.7,1.29a1.84,1.84,0,0,1-1.77-.63.85.85,0,0,1-.07-.43v-9.66a1.07,1.07,0,0,1,.9-1.07,1.12,1.12,0,0,1,1.38.49,2.89,2.89,0,0,1,.25,1.09C366.13,379.57,366.12,381.06,366.12,382.55Z"/><path d="M374.86,379.88c.07-.85.1-1.69.23-2.51a1,1,0,0,1,1.16-.85c.73,0,1.15.22,1.26.85.15.82.17,1.65.24,2.51Z"/></g><path d="M54.79,49l2.57,9-4.94-.12-3.32.12,1.24-10L49.1,32l6.57.12L65.74,32c7.3-.12,10.58,2.21,10.58,8.18C76.32,46.35,73,49,65.74,49Zm.52-10.43L54.79,45H65.74c4.25,0,6.17-1.33,6.17-3.25s-2-3.13-6.21-3.13Z"/><path d="M95.09,51.68H82.3l-1.8,6.38h-8L86.27,32l2.45.16L91.08,32l13.88,26H97Zm-1.72-4-4.85-8.94L84,47.63Z"/><path d="M108,47.47A24,24,0,0,0,122.41,52c4.25,0,6.29-1.4,6.29-2.8,0-4.49-21.21,1.2-21.37-9.87-.08-5.81,5.33-8,12.75-8a30.51,30.51,0,0,1,12.47,2.41l-1.64,6.61A31.59,31.59,0,0,0,118,37.89c-2.92,0-6.57.68-6.57,2.4,0,4.62,22.69-.72,22.53,10.15-.08,5.33-5.21,8.22-12.39,8.26a26.49,26.49,0,0,1-15.19-4.33Z"/><path d="M138,47.47A23.94,23.94,0,0,0,152.4,52c4.25,0,6.3-1.4,6.3-2.8,0-4.49-21.21,1.2-21.38-9.87-.08-5.81,5.34-8,12.76-8a30.51,30.51,0,0,1,12.47,2.41l-1.65,6.61A31.57,31.57,0,0,0,148,37.89c-2.93,0-6.57.68-6.57,2.4,0,4.62,22.69-.72,22.53,10.15-.08,5.33-5.21,8.22-12.39,8.26a26.52,26.52,0,0,1-15.2-4.33Z"/><path d="M1029.19,66.47l-4.93-.12-3.33.12,1.24-10-1.24-16,6.65.12,18.09-.12-.12,3.29.12,3.29h-18.53l-.4,5h16.32v4h-16.68l0,.4Z"/><path d="M1064.84,60.1h-12.79l-1.81,6.37h-8l13.76-26,2.44.16,2.37-.16,13.87,26h-8Zm-1.72-4.05-4.86-8.94-4.57,8.94Z"/><path d="M1079.36,56.49l-2-16,4.13.12,4.13-.12-2,16,2,10-4.13-.12-4.13.12Z"/><path d="M1115,66.47,1097,66.35l-6.65.12,1.24-10-1.24-16,3.33.12,4.93-.12-3.05,19.49L1115,59.7l-.12,3.37Z"/><g id="j9Cxd5"><path d="M439,313.81c-3.31,0-6.62,0-9.93,0a37.53,37.53,0,0,1-8.19-.78,16.22,16.22,0,0,1-10.71-7.83,18.47,18.47,0,0,1-2.28-7.2,103.69,103.69,0,0,1-.4-11.56c0-4.24,0-8.48,0-12.71a50.91,50.91,0,0,1,.53-8.09A16.6,16.6,0,0,1,415.37,254a16.82,16.82,0,0,1,7.94-2.7c3.33-.25,6.67-.36,10-.4,4.86-.06,9.73,0,14.59,0a45.3,45.3,0,0,1,8.3.62,16.35,16.35,0,0,1,11.59,8.11,19,19,0,0,1,2.3,7.89c.37,4.24.32,8.5.32,12.75,0,3.94,0,7.87-.06,11.8a37.2,37.2,0,0,1-.75,8.15c-1.59,6.61-5.64,10.86-12.22,12.66a29,29,0,0,1-7.08.83c-3.78.07-7.56.11-11.35.17Zm-.09-5.56v-.12c3.28,0,6.56,0,9.84,0a31.58,31.58,0,0,0,6.79-.58,10.62,10.62,0,0,0,8.55-8.39,34.74,34.74,0,0,0,.65-7.75c.06-5.16.05-10.33,0-15.49a62.54,62.54,0,0,0-.46-9.18,10.82,10.82,0,0,0-8.94-9.55,38.17,38.17,0,0,0-7.39-.57c-4.41-.06-8.82-.05-13.22,0a93.18,93.18,0,0,0-10.83.38,12.27,12.27,0,0,0-5.59,1.93,10.92,10.92,0,0,0-4.61,7.26,36.68,36.68,0,0,0-.51,6.94c0,6.67,0,13.34,0,20a27.31,27.31,0,0,0,.54,5.84,10.53,10.53,0,0,0,6.94,8.13,19.08,19.08,0,0,0,6.18,1C430.88,308.14,434.87,308.19,438.87,308.25Z"/><path d="M455.1,282.36a16.17,16.17,0,1,1-16.28-16.15A16.23,16.23,0,0,1,455.1,282.36Zm-16.17,10.51a10.49,10.49,0,1,0-10.49-10.35A10.54,10.54,0,0,0,438.93,292.87Z"/><path d="M452,265.54a3.78,3.78,0,0,1,7.55,0,3.78,3.78,0,1,1-7.55,0Z"/></g><g id="BJ4bEr.tif"><path d="M487.46,445.79v-23.4l.73,0c2,0,4.09,0,6.13,0,.7,0,1-.13,1.05-.89.29-2.62.67-5.23,1-7.85,0-.11,0-.22,0-.41h-8.91c0-.27-.05-.47-.05-.67,0-1.69,0-3.39,0-5.09a9.8,9.8,0,0,1,.16-1.71,2.84,2.84,0,0,1,2.76-2.62c1.7-.16,3.43-.12,5.15-.17h1.23v-7.57c0-.29.08-.62-.38-.66a36.61,36.61,0,0,0-9.47,0,10.28,10.28,0,0,0-8.76,9.6c-.2,2.71-.11,5.45-.16,8.18v.7h-7.82v9.16h7.78v23.38a4.6,4.6,0,0,1-.52.06c-6.82,0-13.63,0-20.45,0a11.26,11.26,0,0,1-11-8.8,10.64,10.64,0,0,1-.26-2.25c0-12.78,0-25.56,0-38.35a11.14,11.14,0,0,1,8.83-10.8,13.09,13.09,0,0,1,2.8-.25q18.58,0,37.17,0a11.28,11.28,0,0,1,11.29,8.58,12.54,12.54,0,0,1,.33,2.93q0,18.72,0,37.45a11.27,11.27,0,0,1-9.32,11.32,19.46,19.46,0,0,1-3.15.19c-1.81,0-3.62,0-5.44,0Z"/></g><g id="jomKMa.tif"><path d="M573.07,281.65h3.11a8.83,8.83,0,0,0,1,.16,31.13,31.13,0,0,1,11.46,2.92,33.6,33.6,0,0,1-27.14,61.46c-1.08-.47-2.12-1.32-3.21-1.37s-2.29.64-3.44,1l-15.1,4.85v-.17a1,1,0,0,0,.19-.27c1.87-5.55,3.71-11.11,5.61-16.66a2,2,0,0,0-.14-1.76c-5.6-10.39-6-21-.76-31.58,4.89-9.81,13-15.75,23.73-17.94C569.93,282,571.51,281.86,573.07,281.65ZM548.53,342l.87-.21c3-1,6.08-1.92,9.11-2.92a1.57,1.57,0,0,1,1.44.19c9.84,5.68,19.75,5.78,29.51-.08a28,28,0,1,0-37.91-8,1.38,1.38,0,0,1,.19,1.42c-.49,1.29-.89,2.61-1.33,3.92C549.8,338.17,549.2,340,548.53,342Z"/><path d="M564.18,298.91c.39,0,.71.06,1,0a1.52,1.52,0,0,1,1.59,1.08c.93,2.42,1.85,4.83,2.7,7.27a1.64,1.64,0,0,1-.2,1.29,20.59,20.59,0,0,1-2.15,2.67,1.52,1.52,0,0,0-.28,2.07,23.58,23.58,0,0,0,11.33,10.43,1.39,1.39,0,0,0,1.84-.4c.88-1,1.8-2,2.66-3.06a1.28,1.28,0,0,1,1.72-.49q3.6,1.86,7.18,3.75c.62.33.58.94.53,1.52-.35,3.71-2.18,5.62-6.41,6.75-2.76.74-5.18-.42-7.67-1.3-7.38-2.59-12.57-7.74-16.69-14.17a20.23,20.23,0,0,1-3.27-7.25,9.68,9.68,0,0,1,3.27-9.47A3.31,3.31,0,0,1,564.18,298.91Z"/></g><g id="Gi8Me7"><path d="M608.68,436.66H619.6v4.22l.28.1c.41-.49.79-1,1.22-1.46,3.63-3.89,9.74-5.12,15.2-3a12.34,12.34,0,0,1,7.7,11.66c.08,8.13.06,16.25.08,24.38,0,.28,0,.55-.06.91H632.8c0-2.51,0-5,0-7.52,0-4.45-.08-8.9-.18-13.36-.1-4.17-2.41-6.64-6.08-6.63a6.38,6.38,0,0,0-6.75,6.65c-.12,6.48-.16,12.95-.24,19.43v1.42H608.68Z"/><path d="M590,436.67h11.22V473.4H590Z"/><path d="M602.24,425a6.7,6.7,0,0,1-6.76,6.74,6.79,6.79,0,0,1,0-13.57A6.61,6.61,0,0,1,602.24,425Z"/></g><g id="v8VwRN.tif"><path d="M1316.35,303.48c1.11,0,2.21,0,3.32,0a.43.43,0,0,1,.49.35c1.44,4.12,2.9,8.23,4.35,12.35a.82.82,0,0,0,.19.32v-13h3.5v21.78l-1.65.18c-.67.07-1.35.13-2,.22-.24,0-.34-.05-.42-.28-1.33-3.79-2.67-7.56-4-11.34a1.4,1.4,0,0,0-.2-.38v12.53l-2,.27c-.4,0-.81.13-1.21.2h-.34Z"/><path d="M1401.82,326.68l-2.14-.33c-.37-.05-.73-.11-1.1-.13a.47.47,0,0,1-.47-.37c-.73-2.11-1.48-4.22-2.23-6.33l-.15-.38-.16.38c-.77,1.9-1.55,3.8-2.31,5.7a.43.43,0,0,1-.54.32c-.92-.11-1.84-.2-2.76-.29l-.43-.06.21-.52q2.07-5.1,4.13-10.19a.92.92,0,0,0,0-.59c-1.17-3.36-2.36-6.7-3.54-10.05,0-.11-.07-.21-.11-.34h3.66l2.06,5.83.18-.39,2.08-5.14a.42.42,0,0,1,.48-.32h3.37c0,.14-.08.25-.12.35L1397.83,314a.92.92,0,0,0,0,.54q2.13,6,4.27,12.09a1,1,0,0,0,0,.1Z"/><path d="M1332.2,303.5h8.71v3.33h-5v5.67h4.35v3.37h-4.36v5.37l5-.33v3.36l-8.71.63Z"/><path d="M1358.56,303.5h8.7v3.34h-5v5.66h4.33v3.37h-4.36v7.87h-3.66Z"/><path d="M1351.55,323.84l-3.66.11V306.87h-3.4V303.5H1355v3.34h-3.4Z"/><path d="M1374.53,320.75l5.06.28v3.36l-8.71-.44V303.5h3.65Z"/><path d="M1383.09,303.5h3.65v21.44l-2.08-.16c-.41,0-.82-.09-1.23-.1s-.35-.11-.35-.38q0-4.85,0-9.69V303.5Z"/></g><g id="_0MqMqr.tif" data-name="0MqMqr.tif"><path d="M1285.08,427.94h-2.26a1.77,1.77,0,0,0-.31-.08,15.37,15.37,0,0,1-12.74-9.14c-.07-.14-.13-.28-.22-.48-.07.86-.1,1.64-.19,2.42a7.58,7.58,0,0,1-7.84,6.91h-13.4V397.28l.39,0h12.28a11.24,11.24,0,0,1,4.39.91,7,7,0,0,1,4.5,5.14,22,22,0,0,1,.23,2.47,3,3,0,0,0,.22-.39,15.53,15.53,0,0,1,28.89,3.35c.2.85.31,1.72.46,2.58v2.25a3,3,0,0,0-.08.41,15.49,15.49,0,0,1-11.29,13.39C1287.12,427.63,1286.09,427.75,1285.08,427.94Zm6.55-15.5a7.67,7.67,0,1,0-7.7,7.66A7.67,7.67,0,0,0,1291.63,412.44Zm-36,8h3.84a2.15,2.15,0,0,0,2.37-2.3,2,2,0,0,0-2.23-2.34c-1,.05-2,0-3,0h-1Zm0-15.8v4.58c1.48,0,2.92,0,4.36,0a1.79,1.79,0,0,0,1.5-1,2.85,2.85,0,0,0,.11-2.53,1.61,1.61,0,0,0-1.52-1C1258.62,404.63,1257.15,404.65,1255.64,404.65Zm12.87,5.55a5.19,5.19,0,0,1-3.27,2,6,6,0,0,1,3.27,2.45Z"/><path d="M1246.28,427.55h-8.34V416.4h-5.36v11.15h-8.36V397.29h8.34v11.37h5.34V397.29h8.38Z"/><path d="M1290.19,412.42a6.24,6.24,0,1,1-6.26-6.21A6.21,6.21,0,0,1,1290.19,412.42Z"/></g><g id="J9JHVB.tif"><path d="M1513.1,324.72h1.67l.27,0a11.54,11.54,0,0,1,2.41.39,7.13,7.13,0,0,1,4.51,3.59,9.79,9.79,0,0,1,.88,2.35,14.55,14.55,0,0,1,.44,3.66c0,.11,0,.22,0,.33v1a3.13,3.13,0,0,0,0,.44,12,12,0,0,1-.28,2.38,26.06,26.06,0,0,1-1.61,5.1,55,55,0,0,1-4.31,8,115.63,115.63,0,0,1-7.22,9.95,71.25,71.25,0,0,1-5.84,6.56,38,38,0,0,1-5.17,4.39,19,19,0,0,1-4.51,2.4,11,11,0,0,1-2.51.61l-.73.09h-.81l-.13,0a5.78,5.78,0,0,1-2.94-1.17,10.52,10.52,0,0,1-2.46-2.65,23,23,0,0,1-2.2-4.12,14.71,14.71,0,0,1-.7-1.81c-1.45-5.26-2.87-10.52-4.31-15.78-.52-1.91-1-3.82-1.75-5.67a18.65,18.65,0,0,0-1.57-3.32,6.57,6.57,0,0,0-1.28-1.55,2.75,2.75,0,0,0-1-.55,1.31,1.31,0,0,0-1.06.05c-.31.18-.65.33-1,.52-1,.65-2,1.32-3,2l-.22.14-2.79-3.59.23-.2c2.46-2.2,4.93-4.38,7.38-6.58a51,51,0,0,1,4.63-3.79,20.48,20.48,0,0,1,3.23-1.91,6.68,6.68,0,0,1,3.89-.52,5.94,5.94,0,0,1,3.74,2.07,10.19,10.19,0,0,1,1.69,2.88,21.35,21.35,0,0,1,1.18,4.59c.23,1.42.45,2.84.69,4.26s.52,3.11.79,4.66.55,3.07.91,4.59.72,3.08,1.23,4.58a15,15,0,0,0,1.23,2.85,4.42,4.42,0,0,0,.84,1.08,1.51,1.51,0,0,0,1.3.45,2,2,0,0,0,.77-.31,6.49,6.49,0,0,0,1.22-1,16.46,16.46,0,0,0,1.53-1.81,49.05,49.05,0,0,0,3.55-5.57,24.73,24.73,0,0,0,1.65-3.49,9.2,9.2,0,0,0,.64-4.4,4.36,4.36,0,0,0-.35-1.33,3.11,3.11,0,0,0-2.31-1.75,7.7,7.7,0,0,0-2.79,0,11.79,11.79,0,0,0-2.72.74l-.2.06c0-.12,0-.21.08-.3a28.72,28.72,0,0,1,1.59-4,19.74,19.74,0,0,1,3.55-5.17,14.19,14.19,0,0,1,9.15-4.24Z"/></g><path d="M1559.22,252.17c-.07-8.74,2-15.49,6.32-21.49a33.53,33.53,0,0,1,19.17-13.06,33,33,0,0,1,7.78-1.07,33.91,33.91,0,0,1,20.82,6.29A32.73,32.73,0,0,1,1627,244.16a33.53,33.53,0,0,1-2.8,21.32,32.26,32.26,0,0,1-21.36,17.78c-10.25,2.77-20,1.36-28.91-4.58a32.39,32.39,0,0,1-13.63-19.47A31.71,31.71,0,0,1,1559.22,252.17Zm32.59,7.14c.24.2.45.36.63.54a8.1,8.1,0,0,0,7.31,2.11,12.42,12.42,0,0,0,8.53-5.5,18.55,18.55,0,0,0,3.15-8.51,14.21,14.21,0,0,0,0-5.28c-1.35-5.55-4.48-9.55-10.09-11.31a19,19,0,0,0-15,1.09,16.46,16.46,0,0,0-7.26,6.87,14.65,14.65,0,0,0-1.08,10.94,7.82,7.82,0,0,0,4.38,5.35,1.29,1.29,0,0,0,2-.67,3.6,3.6,0,0,0-.13-3.79,8.47,8.47,0,0,1-1.33-5.33c.18-5.26,4.44-9.15,8-10.23a13.73,13.73,0,0,1,7.65,0,7.94,7.94,0,0,1,6.2,6.62,17.19,17.19,0,0,1,.08,4.91,15.36,15.36,0,0,1-2.79,7.63,5.19,5.19,0,0,1-6.06,2.08,3,3,0,0,1-2.21-4c.52-1.9,1-3.81,1.51-5.71a10.74,10.74,0,0,0,.38-4.4,2.9,2.9,0,0,0-2.23-2.49,4.52,4.52,0,0,0-5,2,9.28,9.28,0,0,0-.76,7.61,3.13,3.13,0,0,1,.1,1.39c-1,4.2-1.93,8.4-3,12.58a20.25,20.25,0,0,0-.13,9.32,4,4,0,0,0,.52,1l.19,0c.79-1,1.63-1.92,2.34-2.94a23.38,23.38,0,0,0,3.28-8C1591.26,261.92,1591.51,260.65,1591.81,259.31Z"/><g id="F2BwwP"><path d="M1601.54,404.51A24.38,24.38,0,0,0,1619,399.6a12.34,12.34,0,0,1-11.17-8.39,13.3,13.3,0,0,0,5.28-.23,12.19,12.19,0,0,1-6.85-4.31,11.72,11.72,0,0,1-2.58-7.6,12.78,12.78,0,0,0,5.29,1.45,12.12,12.12,0,0,1-4.91-7.36,11.91,11.91,0,0,1,1.34-8.63,34.37,34.37,0,0,0,24.68,12.55l-.16-1.28a12,12,0,0,1,20.21-10.16,1.1,1.1,0,0,0,1.19.33,25.11,25.11,0,0,0,6.27-2.41l.66-.33a12.72,12.72,0,0,1-4.81,6.45,21.09,21.09,0,0,0,6.43-1.73c-.24.37-.38.59-.53.8a25.48,25.48,0,0,1-5,5.12,1.18,1.18,0,0,0-.44.78,34.18,34.18,0,0,1-3.51,16.13C1646,399.83,1639,406,1629.2,408.66a34.07,34.07,0,0,1-26.89-3.55l-.66-.41S1601.61,404.63,1601.54,404.51Z"/></g><g id="b5FQOU.tif"><path d="M1355.45,448.55c.16-.71.29-1.43.49-2.14a11.49,11.49,0,0,1,10.6-8.35,10.59,10.59,0,0,1,6.33,1.76c2.77-1.13,5.33-2.3,8-3.24a39.08,39.08,0,0,1,10.76-2,.92.92,0,0,0,.94-.76q2.67-7.74,5.38-15.48c.1-.28.21-.56.33-.88l8.49,2c1.21.29,2.43.55,3.63.88a.78.78,0,0,0,1-.38,8.51,8.51,0,0,1,8.68-3.58,8.87,8.87,0,1,1-5.26,16.78,8.49,8.49,0,0,1-5.12-8.32c0-.18,0-.35,0-.59l-8.86-2.13c-1.42,4.09-2.85,8.17-4.29,12.29,1.71.18,3.35.31,5,.53a40,40,0,0,1,14.07,4.56,1.16,1.16,0,0,0,1.31,0,11.27,11.27,0,0,1,16.62,8.46,11.63,11.63,0,0,1-4.65,11.5,1.38,1.38,0,0,0-.5.78,19.55,19.55,0,0,1-5,10.42,32.1,32.1,0,0,1-13.77,8.72,43.05,43.05,0,0,1-13,2.35,6.5,6.5,0,0,0-.75.12h-2a7.9,7.9,0,0,0-.83-.12,42.76,42.76,0,0,1-9.28-1.27c-6.64-1.67-12.62-4.56-17.34-9.67a19.26,19.26,0,0,1-5-9.85,2,2,0,0,0-1-1.5,9.53,9.53,0,0,1-3.5-4.05,43.41,43.41,0,0,1-1.42-4.4Zm39.2,29.29a41.06,41.06,0,0,0,16.55-3.31,25.16,25.16,0,0,0,10.65-8.27,14,14,0,0,0,0-16.28,25.21,25.21,0,0,0-11-8.44,40.87,40.87,0,0,0-17.89-3.1,38.54,38.54,0,0,0-16.77,4.28c-4.06,2.14-7.53,5-9.65,9.15a13.15,13.15,0,0,0,0,12.52c2.13,4.18,5.6,7,9.66,9.13A39.65,39.65,0,0,0,1394.65,477.84Zm19-52.69a4.93,4.93,0,1,0,4.94-5A5,5,0,0,0,1413.62,425.15ZM1361.36,455c1.07-5.23,4-9.16,8-12.46a7.08,7.08,0,0,0-8.56,2.78A8,8,0,0,0,1361.36,455Zm66.72-.43a7.9,7.9,0,0,0-.45-10.1c-1.92-2.21-5.2-3.12-7.29-2.08,1.57,1.79,3.26,3.55,4.75,5.46A17,17,0,0,1,1428.08,454.58Z"/><path d="M1394.52,473.16a22.74,22.74,0,0,1-12.53-3.92,2,2,0,0,1-.69-2.9,2,2,0,0,1,2.91-.36c6.27,4.15,12.68,4.25,19.21.62.48-.27.95-.58,1.45-.83a2,2,0,0,1,2.09,3.31,22.87,22.87,0,0,1-10.22,3.9C1396,473.07,1395.17,473.11,1394.52,473.16Z"/><path d="M1388.16,454.09a5.27,5.27,0,0,1-5.2,5.29,5.26,5.26,0,1,1-.06-10.52A5.25,5.25,0,0,1,1388.16,454.09Z"/><path d="M1400.33,454.1a5.26,5.26,0,0,1,10.52,0,5.33,5.33,0,0,1-5.31,5.28A5.27,5.27,0,0,1,1400.33,454.1Z"/></g><path d="M54.07,677.81V684h1.4a1.16,1.16,0,0,1,.8.22.83.83,0,0,1,.25.68.87.87,0,0,1-.25.7,1.18,1.18,0,0,1-.8.22H50.53a1.22,1.22,0,0,1-.8-.21.89.89,0,0,1-.25-.71.87.87,0,0,1,.24-.69,1.23,1.23,0,0,1,.81-.21h1.4v-6.19h-1.4a1.22,1.22,0,0,1-.8-.21,1.12,1.12,0,0,1,0-1.4,1.23,1.23,0,0,1,.81-.21h4.94a1.24,1.24,0,0,1,.82.21,1.16,1.16,0,0,1,0,1.4,1.23,1.23,0,0,1-.81.21Z"/><path d="M66.69,684h.11a.82.82,0,0,1,.93.91.92.92,0,0,1-.24.71,1.22,1.22,0,0,1-.8.21h-2a1.25,1.25,0,0,1-.81-.21.92.92,0,0,1-.24-.71.89.89,0,0,1,.24-.68.94.94,0,0,1,.71-.23h.1v-2.4a2.73,2.73,0,0,0-.28-1.42,1,1,0,0,0-.93-.42,1.4,1.4,0,0,0-1.12.51,1.94,1.94,0,0,0-.44,1.33V684H62a1,1,0,0,1,.71.23,1.15,1.15,0,0,1,0,1.39,1.22,1.22,0,0,1-.8.21H59.82a1.19,1.19,0,0,1-.79-.21.92.92,0,0,1-.24-.71.89.89,0,0,1,.23-.68.93.93,0,0,1,.7-.23h.1v-4h-.14a1,1,0,0,1-.68-.23,1.12,1.12,0,0,1,0-1.37,1.17,1.17,0,0,1,.81-.22h1.41a.6.6,0,0,1,.36.09.32.32,0,0,1,.12.27v.65a2.46,2.46,0,0,1,1-.9,2.92,2.92,0,0,1,1.38-.31,2.4,2.4,0,0,1,2,.81,3.86,3.86,0,0,1,.65,2.45Z"/><path d="M71.21,685.71a1.77,1.77,0,0,1-.44.25,1.27,1.27,0,0,1-.47.09.57.57,0,0,1-.5-.2,1.18,1.18,0,0,1-.15-.71V684a1.28,1.28,0,0,1,.18-.78.79.79,0,0,1,.63-.23.91.91,0,0,1,.8.48,4,4,0,0,0,.31.38,2.7,2.7,0,0,0,1,.54,3.55,3.55,0,0,0,1.22.19,1.79,1.79,0,0,0,1-.23.7.7,0,0,0,.35-.61c0-.45-.63-.76-1.91-.93l-.67-.09a4.25,4.25,0,0,1-2.15-.79,1.93,1.93,0,0,1-.7-1.57,2.15,2.15,0,0,1,.84-1.81,4,4,0,0,1,2.42-.64A7.11,7.11,0,0,1,74,678a8.43,8.43,0,0,1,1.16.27,1.3,1.3,0,0,1,.37-.31,1.05,1.05,0,0,1,.44-.1.64.64,0,0,1,.52.21,1,1,0,0,1,.18.64v1a.74.74,0,0,1-.19.55.66.66,0,0,1-.51.2,2.6,2.6,0,0,1-1.17-.6,2.85,2.85,0,0,0-1.65-.59,2,2,0,0,0-1,.21.67.67,0,0,0-.35.59c0,.39.49.64,1.49.78L74,681a5.85,5.85,0,0,1,2.58.82,1.9,1.9,0,0,1,.7,1.61,2.27,2.27,0,0,1-.93,1.94,4.3,4.3,0,0,1-2.62.69A8.77,8.77,0,0,1,72.4,686,9,9,0,0,1,71.21,685.71Z"/><path d="M83,678.62h2.53a1.31,1.31,0,0,1,.82.2.87.87,0,0,1,.24.69.89.89,0,0,1-.25.71,1.23,1.23,0,0,1-.81.21H83v2.13a2,2,0,0,0,.28,1.23,1.18,1.18,0,0,0,1,.33,4,4,0,0,0,1.53-.37,4,4,0,0,1,1.18-.38.76.76,0,0,1,.58.27,1,1,0,0,1,.25.65c0,.43-.39.82-1.16,1.17A6.3,6.3,0,0,1,84,686a4.55,4.55,0,0,1-1.5-.23,2.43,2.43,0,0,1-1-.67,1.82,1.82,0,0,1-.39-.8,6.92,6.92,0,0,1-.12-1.55v-2.31h-.78a1.2,1.2,0,0,1-.8-.21.92.92,0,0,1-.24-.71.87.87,0,0,1,.24-.69,1.19,1.19,0,0,1,.8-.2H81v-2a1.08,1.08,0,0,1,.24-.8,1.06,1.06,0,0,1,.78-.23,1.08,1.08,0,0,1,.79.23,1.12,1.12,0,0,1,.23.8Z"/><path d="M97.19,684h.14a.84.84,0,0,1,.92.92.84.84,0,0,1-.25.69,1.23,1.23,0,0,1-.81.21h-.78a1,1,0,0,1-.61-.16,1.09,1.09,0,0,1-.34-.57,5.6,5.6,0,0,1-1.46.7,5.28,5.28,0,0,1-1.56.24,3.06,3.06,0,0,1-2.1-.67,2.26,2.26,0,0,1-.77-1.81,2.23,2.23,0,0,1,1-1.94,4.79,4.79,0,0,1,2.77-.69c.27,0,.55,0,.85.05s.63.07,1,.13v-.16a1.62,1.62,0,0,0-.36-1.14,1.37,1.37,0,0,0-1.06-.39,3.47,3.47,0,0,0-1.4.41,3.47,3.47,0,0,1-1.25.41.89.89,0,0,1-.63-.23.78.78,0,0,1-.24-.6c0-.45.33-.81,1-1.07a7.48,7.48,0,0,1,2.68-.39,3.74,3.74,0,0,1,2.53.68,3,3,0,0,1,.76,2.3Zm-2-1.6c-.27-.06-.53-.1-.76-.13a3.77,3.77,0,0,0-.65,0,2.78,2.78,0,0,0-1.43.31.94.94,0,0,0-.52.84.86.86,0,0,0,.34.74,1.52,1.52,0,0,0,1,.25,3.22,3.22,0,0,0,1.08-.17,3.59,3.59,0,0,0,1-.51Z"/><path d="M105.71,678.92v-.43a.29.29,0,0,1,.12-.25.6.6,0,0,1,.36-.09h1.35a1.21,1.21,0,0,1,.81.21.93.93,0,0,1,.23.7.92.92,0,0,1-.23.68.91.91,0,0,1-.67.23h-.14v5.72a3.28,3.28,0,0,1-1,2.64,4.94,4.94,0,0,1-3.17.82,5.39,5.39,0,0,1-2-.27.89.89,0,0,1-.38-1.48.92.92,0,0,1,.68-.25l.71.07a9.35,9.35,0,0,0,1.12.08,2.3,2.3,0,0,0,1.64-.45,2.2,2.2,0,0,0,.46-1.61v-.37a5.79,5.79,0,0,1-1.17.5,4.29,4.29,0,0,1-1.2.16,3.76,3.76,0,0,1-2.73-1,3.61,3.61,0,0,1-1-2.68,3.71,3.71,0,0,1,1.1-2.77,3.88,3.88,0,0,1,2.84-1.09,3.33,3.33,0,0,1,1.31.24A2.58,2.58,0,0,1,105.71,678.92Zm-2.06.78a1.77,1.77,0,0,0-1.35.59,2.21,2.21,0,0,0-.53,1.51,2.15,2.15,0,0,0,.53,1.48,1.87,1.87,0,0,0,2.71,0,2.1,2.1,0,0,0,.53-1.48,2.16,2.16,0,0,0-.53-1.51A1.77,1.77,0,0,0,103.65,679.7Z"/><path d="M113.84,681.31V684h2a1.22,1.22,0,0,1,.8.21.91.91,0,0,1,.23.69,1,1,0,0,1-.23.71,1.22,1.22,0,0,1-.8.21h-4.64a1.24,1.24,0,0,1-.82-.21.92.92,0,0,1-.24-.71.87.87,0,0,1,.24-.69,1.24,1.24,0,0,1,.82-.21h.64v-4h-.36a1.23,1.23,0,0,1-.81-.21.9.9,0,0,1-.24-.7.92.92,0,0,1,.23-.7,1.19,1.19,0,0,1,.81-.21h1.77a.54.54,0,0,1,.35.1.31.31,0,0,1,.12.26v1.23a6.77,6.77,0,0,1,1.69-1.39,3.52,3.52,0,0,1,1.69-.41,2.05,2.05,0,0,1,1.3.37,1.17,1.17,0,0,1,.48,1,1,1,0,0,1-.33.79,1.17,1.17,0,0,1-.85.31,2,2,0,0,1-.89-.27,1.78,1.78,0,0,0-.71-.28,1.74,1.74,0,0,0-.93.36A9,9,0,0,0,113.84,681.31Z"/><path d="M127.8,684h.13a.93.93,0,0,1,.69.24,1,1,0,0,1,.23.68.87.87,0,0,1-.24.69,1.25,1.25,0,0,1-.81.21H127a1,1,0,0,1-.62-.16,1.09,1.09,0,0,1-.34-.57,5.45,5.45,0,0,1-1.46.7A5.18,5.18,0,0,1,123,686a3.06,3.06,0,0,1-2.1-.67,2.26,2.26,0,0,1-.76-1.81,2.23,2.23,0,0,1,1-1.94,4.79,4.79,0,0,1,2.77-.69c.26,0,.55,0,.85.05s.63.07,1,.13v-.16a1.62,1.62,0,0,0-.36-1.14,1.39,1.39,0,0,0-1.07-.39,3.51,3.51,0,0,0-1.4.41,3.36,3.36,0,0,1-1.25.41.89.89,0,0,1-.63-.23.78.78,0,0,1-.24-.6c0-.45.33-.81,1-1.07a7.38,7.38,0,0,1,2.67-.39,3.77,3.77,0,0,1,2.54.68,3,3,0,0,1,.76,2.3Zm-2-1.6c-.28-.06-.53-.1-.76-.13a3.85,3.85,0,0,0-.65,0,2.74,2.74,0,0,0-1.43.31.92.92,0,0,0-.52.84.88.88,0,0,0,.33.74,1.54,1.54,0,0,0,.95.25,3.14,3.14,0,0,0,1.08-.17,3.79,3.79,0,0,0,1-.51Z"/><path d="M135.14,678.72a2.49,2.49,0,0,1,.81-.57,2.45,2.45,0,0,1,1-.2,1.93,1.93,0,0,1,1.63.67,3.87,3.87,0,0,1,.49,2.24V684h.12a.75.75,0,0,1,.59.23,1,1,0,0,1,.19.67,1,1,0,0,1-.2.71,1,1,0,0,1-.7.21h-1.41a.61.61,0,0,1-.35-.09.33.33,0,0,1-.12-.27v-4.69a1.66,1.66,0,0,0-.17-.83.58.58,0,0,0-.51-.27.7.7,0,0,0-.64.37,2,2,0,0,0-.23,1.06V684h.12a.72.72,0,0,1,.58.23,1,1,0,0,1,.2.67,1,1,0,0,1-.2.71,1,1,0,0,1-.7.21h-1.41a.64.64,0,0,1-.36-.09.31.31,0,0,1-.13-.27v-4.69a1.66,1.66,0,0,0-.17-.83.55.55,0,0,0-.5-.27.76.76,0,0,0-.65.37,2,2,0,0,0-.23,1.06V684h.12a.72.72,0,0,1,.58.23,1.26,1.26,0,0,1,0,1.38,1,1,0,0,1-.69.21h-1.89a1,1,0,0,1-.69-.21,1.26,1.26,0,0,1,0-1.38.72.72,0,0,1,.58-.23h.12v-4h-.12a.73.73,0,0,1-.59-.24,1,1,0,0,1-.2-.67,1,1,0,0,1,.21-.7,1,1,0,0,1,.7-.21h1.12a.6.6,0,0,1,.46.14.84.84,0,0,1,.12.53,2.08,2.08,0,0,1,.74-.65,2.18,2.18,0,0,1,1-.22,1.83,1.83,0,0,1,.84.19A1.63,1.63,0,0,1,135.14,678.72Z"/><path d="M144.39,683h2a.41.41,0,0,1,.21,0,.16.16,0,0,1,.08.13.65.65,0,0,1,0,.11l-.06.13-2.48,4.87a.44.44,0,0,1-.17.21.41.41,0,0,1-.24.08h-.07l-.09,0-.63-.22a.44.44,0,0,1-.22-.14.26.26,0,0,1-.07-.18v-.14s0-.06,0-.09l1.18-4.31a.5.5,0,0,1,.59-.46Z"/><path d="M164,677.81l1.29,2.71,1.24-2.71h0a.72.72,0,0,1-.57-.23,1,1,0,0,1-.2-.68,1,1,0,0,1,.21-.71.92.92,0,0,1,.69-.21h1.89a1.17,1.17,0,0,1,.79.21.91.91,0,0,1,.23.71.94.94,0,0,1-.22.68.93.93,0,0,1-.66.23h-.14L166.29,682v2h1.09a1.16,1.16,0,0,1,.8.22.86.86,0,0,1,.24.68.9.9,0,0,1-.25.7,1.21,1.21,0,0,1-.81.22h-4.3a1.22,1.22,0,0,1-.8-.21.92.92,0,0,1-.24-.71.85.85,0,0,1,.24-.69,1.18,1.18,0,0,1,.8-.21h1.09v-1.8l-2.36-4.39h-.14a.9.9,0,0,1-.66-.23,1.19,1.19,0,0,1,0-1.39,1.19,1.19,0,0,1,.79-.21H164a1,1,0,0,1,.7.21,1.26,1.26,0,0,1,0,1.38.69.69,0,0,1-.57.24Z"/><path d="M175.42,678a4.73,4.73,0,0,1,3.27,1.13,4,4,0,0,1,0,5.8,5.28,5.28,0,0,1-6.53,0,4,4,0,0,1,0-5.8A4.72,4.72,0,0,1,175.42,678Zm0,1.75a2.13,2.13,0,0,0-1.6.64,2.19,2.19,0,0,0-.62,1.62,2.29,2.29,0,0,0,.62,1.65,2.29,2.29,0,0,0,3.2,0,2.3,2.3,0,0,0,.63-1.65,2.23,2.23,0,0,0-.62-1.62A2.15,2.15,0,0,0,175.42,679.72Z"/><path d="M186.93,680h-.13a1,1,0,0,1-.68-.23,1,1,0,0,1-.22-.68.88.88,0,0,1,.23-.7,1.18,1.18,0,0,1,.8-.21h1.57a.52.52,0,0,1,.35.1.31.31,0,0,1,.12.26V684h.14a.91.91,0,0,1,.68.24.86.86,0,0,1,.24.66.91.91,0,0,1-.24.71,1.24,1.24,0,0,1-.82.21h-1.39a.53.53,0,0,1-.36-.1.31.31,0,0,1-.13-.27v-.63a2.49,2.49,0,0,1-1,.89,2.93,2.93,0,0,1-1.36.3,2.44,2.44,0,0,1-2-.8,3.92,3.92,0,0,1-.64-2.47V680H182a.81.81,0,0,1-.92-.91.88.88,0,0,1,.24-.7,1.24,1.24,0,0,1,.82-.21h1.56a.49.49,0,0,1,.34.1.33.33,0,0,1,.11.26v3.86a2.61,2.61,0,0,0,.29,1.43,1,1,0,0,0,.93.42,1.45,1.45,0,0,0,1.13-.51,2,2,0,0,0,.44-1.34Z"/><path d="M198.63,677.79h-1.74V684h1.4a1.24,1.24,0,0,1,.8.21.91.91,0,0,1,.24.7.92.92,0,0,1-.24.71,1.24,1.24,0,0,1-.8.21h-4.93a1.19,1.19,0,0,1-.79-.21.92.92,0,0,1-.24-.71.88.88,0,0,1,.24-.7,1.17,1.17,0,0,1,.79-.21h1.39v-6.2H193l-.05,1.69v.21a.88.88,0,0,1-.22.62.82.82,0,0,1-.61.22.9.9,0,0,1-.69-.23,1.12,1.12,0,0,1-.22-.75v-.07l.09-2.48c0-.49.09-.79.21-.89a1.2,1.2,0,0,1,.72-.15h7.14a1.22,1.22,0,0,1,.73.15c.12.1.19.4.21.89l.08,2.48v.07a1.16,1.16,0,0,1-.2.75.86.86,0,0,1-.68.23.8.8,0,0,1-.64-.22,1.39,1.39,0,0,1-.21-.83Z"/><path d="M207.34,680h-.14a.92.92,0,0,1-.67-.23,1,1,0,0,1-.23-.68.92.92,0,0,1,.23-.7,1.23,1.23,0,0,1,.81-.21h1.57a.54.54,0,0,1,.35.1.31.31,0,0,1,.12.26V684h.13a.93.93,0,0,1,.69.24.9.9,0,0,1,.23.66.91.91,0,0,1-.24.71,1.23,1.23,0,0,1-.81.21H208a.57.57,0,0,1-.36-.1.33.33,0,0,1-.12-.27v-.63a2.59,2.59,0,0,1-1,.89,2.93,2.93,0,0,1-1.36.3,2.4,2.4,0,0,1-2-.8,3.92,3.92,0,0,1-.65-2.47V680h-.14a.93.93,0,0,1-.68-.23,1.15,1.15,0,0,1,0-1.38,1.24,1.24,0,0,1,.82-.21h1.56a.49.49,0,0,1,.34.1.31.31,0,0,1,.12.26v3.86a2.63,2.63,0,0,0,.28,1.43,1,1,0,0,0,.93.42,1.42,1.42,0,0,0,1.13-.51,2,2,0,0,0,.45-1.34Z"/><path d="M214.73,678.9a3,3,0,0,1,1-.55,3.38,3.38,0,0,1,1.14-.2,3.74,3.74,0,0,1,2.83,1.14,4.06,4.06,0,0,1,1.1,2.93,3.64,3.64,0,0,1-1.12,2.72,3.88,3.88,0,0,1-2.82,1.09,3.18,3.18,0,0,1-1.4-.28,2.29,2.29,0,0,1-1-.83v.54a.31.31,0,0,1-.13.27.6.6,0,0,1-.36.09h-1.28a1.22,1.22,0,0,1-.8-.21.91.91,0,0,1-.23-.71.92.92,0,0,1,.22-.67,1,1,0,0,1,.68-.23h.13v-7.2h-.13a.89.89,0,0,1-.68-.24.91.91,0,0,1-.24-.68.92.92,0,0,1,.24-.71,1.23,1.23,0,0,1,.81-.21h1.56a.52.52,0,0,1,.38.12.62.62,0,0,1,.12.42Zm1.84,1a1.7,1.7,0,0,0-1.35.61,2.25,2.25,0,0,0-.54,1.55,2.33,2.33,0,0,0,.53,1.57,1.72,1.72,0,0,0,1.36.61,1.7,1.7,0,0,0,1.35-.61,2.3,2.3,0,0,0,.54-1.57,2.27,2.27,0,0,0-.54-1.55A1.72,1.72,0,0,0,216.57,679.92Z"/><path d="M224.17,682.48a2.25,2.25,0,0,0,.83,1.37,2.71,2.71,0,0,0,1.65.46,4.58,4.58,0,0,0,2-.5,4.49,4.49,0,0,1,1.21-.5.63.63,0,0,1,.5.22.89.89,0,0,1,.19.59c0,.52-.38,1-1.15,1.34a6.4,6.4,0,0,1-2.85.57,4.73,4.73,0,0,1-3.27-1.13,4,4,0,0,1,0-5.8,4.73,4.73,0,0,1,3.27-1.13,4.27,4.27,0,0,1,3,1.06,3.36,3.36,0,0,1,1.18,2.59.79.79,0,0,1-.24.67,1.67,1.67,0,0,1-1,.19Zm4.47-1.3a1.79,1.79,0,0,0-.72-1.19,2.5,2.5,0,0,0-1.53-.43,2.4,2.4,0,0,0-1.45.41,2,2,0,0,0-.77,1.21Z"/><path d="M236.21,683h2a.41.41,0,0,1,.21,0,.14.14,0,0,1,.08.13.26.26,0,0,1,0,.11,1.12,1.12,0,0,1,0,.13l-2.48,4.87a.51.51,0,0,1-.17.21.41.41,0,0,1-.24.08h-.08l-.09,0-.63-.22a.46.46,0,0,1-.21-.14.27.27,0,0,1-.08-.18.53.53,0,0,1,0-.14.28.28,0,0,1,0-.09l1.18-4.31a.66.66,0,0,1,.19-.37A.67.67,0,0,1,236.21,683Z"/><path d="M259.5,677.73h-3.86v2.12h1.45v-.1a1,1,0,0,1,.21-.7.81.81,0,0,1,.64-.23.89.89,0,0,1,.61.21.67.67,0,0,1,.23.53v2a1.29,1.29,0,0,1-.19.8.81.81,0,0,1-.65.24.84.84,0,0,1-.64-.22.94.94,0,0,1-.21-.67v-.15h-1.45V684h.46a1.13,1.13,0,0,1,.79.22.86.86,0,0,1,.23.68.92.92,0,0,1-.24.71,1.17,1.17,0,0,1-.78.21h-2.48a1.17,1.17,0,0,1-.78-.21.92.92,0,0,1-.24-.71.88.88,0,0,1,.23-.67.86.86,0,0,1,.65-.23h.14v-6.19h-.14a.85.85,0,0,1-.65-.24.92.92,0,0,1-.23-.67.87.87,0,0,1,.25-.7,1.11,1.11,0,0,1,.77-.22h6.8a1.08,1.08,0,0,1,.68.15.79.79,0,0,1,.18.61v1.86a1.27,1.27,0,0,1-.21.81.86.86,0,0,1-.68.24.84.84,0,0,1-.68-.24,1.23,1.23,0,0,1-.21-.81Z"/><path d="M270.62,684h.13a.93.93,0,0,1,.69.24.91.91,0,0,1,.23.68.87.87,0,0,1-.24.69,1.23,1.23,0,0,1-.81.21h-.78a1,1,0,0,1-.62-.16,1.09,1.09,0,0,1-.33-.57,5.51,5.51,0,0,1-1.47.7,5.18,5.18,0,0,1-1.56.24,3.06,3.06,0,0,1-2.1-.67,2.29,2.29,0,0,1-.76-1.81,2.23,2.23,0,0,1,1-1.94,4.79,4.79,0,0,1,2.77-.69c.27,0,.55,0,.85.05s.63.07,1,.13v-.16a1.62,1.62,0,0,0-.36-1.14,1.38,1.38,0,0,0-1.07-.39,3.43,3.43,0,0,0-1.39.41,3.47,3.47,0,0,1-1.25.41.89.89,0,0,1-.63-.23.78.78,0,0,1-.24-.6c0-.45.32-.81,1-1.07a7.44,7.44,0,0,1,2.68-.39,3.74,3.74,0,0,1,2.53.68,3,3,0,0,1,.76,2.3Zm-2-1.6c-.27-.06-.53-.1-.76-.13a3.77,3.77,0,0,0-.65,0,2.76,2.76,0,0,0-1.43.31.92.92,0,0,0-.52.84.88.88,0,0,0,.33.74,1.55,1.55,0,0,0,1,.25,3.22,3.22,0,0,0,1.08-.17,3.73,3.73,0,0,0,1-.51Z"/><path d="M279.9,678.6a1,1,0,0,1,.31-.49.94.94,0,0,1,.55-.16.73.73,0,0,1,.64.27,1.76,1.76,0,0,1,.19.94v1.36a1.16,1.16,0,0,1-.21.75.8.8,0,0,1-.64.24.83.83,0,0,1-.51-.15,1.51,1.51,0,0,1-.44-.54,2.19,2.19,0,0,0-.88-.83,2.93,2.93,0,0,0-1.32-.27,2.09,2.09,0,0,0-1.58.64,2.19,2.19,0,0,0-.62,1.62,2.23,2.23,0,0,0,.64,1.67,2.31,2.31,0,0,0,1.71.63,3.85,3.85,0,0,0,1.95-.55,4.29,4.29,0,0,1,1.18-.54.63.63,0,0,1,.51.24.84.84,0,0,1,.21.59c0,.52-.4,1-1.19,1.4a6.1,6.1,0,0,1-2.81.61,4.72,4.72,0,0,1-3.26-1.13,3.71,3.71,0,0,1-1.26-2.9,3.78,3.78,0,0,1,1.25-2.89,4.42,4.42,0,0,1,3.13-1.16,5.22,5.22,0,0,1,1.25.16A5.52,5.52,0,0,1,279.9,678.6Z"/><path d="M285.38,682.48a2.25,2.25,0,0,0,.83,1.37,2.71,2.71,0,0,0,1.65.46,4.58,4.58,0,0,0,2-.5,4.49,4.49,0,0,1,1.21-.5.63.63,0,0,1,.5.22.9.9,0,0,1,.2.59c0,.52-.39,1-1.16,1.34a6.4,6.4,0,0,1-2.85.57,4.73,4.73,0,0,1-3.27-1.13,4,4,0,0,1,0-5.8A4.73,4.73,0,0,1,287.8,678a4.27,4.27,0,0,1,3,1.06,3.36,3.36,0,0,1,1.18,2.59.79.79,0,0,1-.24.67,1.66,1.66,0,0,1-1,.19Zm4.47-1.3a1.79,1.79,0,0,0-.72-1.19,2.49,2.49,0,0,0-1.52-.43,2.41,2.41,0,0,0-1.46.41,2,2,0,0,0-.77,1.21Z"/><path d="M296.35,678.9a2.91,2.91,0,0,1,.94-.55,3.43,3.43,0,0,1,1.15-.2,3.74,3.74,0,0,1,2.82,1.14,4,4,0,0,1,1.1,2.93,3.64,3.64,0,0,1-1.12,2.72,3.84,3.84,0,0,1-2.82,1.09,3.21,3.21,0,0,1-1.4-.28,2.27,2.27,0,0,1-1-.83v.54a.34.34,0,0,1-.13.27.64.64,0,0,1-.36.09h-1.28a1.18,1.18,0,0,1-.8-.21.91.91,0,0,1-.24-.71.81.81,0,0,1,.9-.9h.14v-7.2h-.14a.92.92,0,0,1-.68-.24.91.91,0,0,1-.24-.68.92.92,0,0,1,.24-.71,1.26,1.26,0,0,1,.82-.21h1.55a.54.54,0,0,1,.39.12.62.62,0,0,1,.12.42Zm1.83,1a1.72,1.72,0,0,0-1.35.61,2.25,2.25,0,0,0-.53,1.55,2.28,2.28,0,0,0,.53,1.57,1.69,1.69,0,0,0,1.35.61,1.72,1.72,0,0,0,1.36-.61,2.35,2.35,0,0,0,.53-1.57,2.27,2.27,0,0,0-.54-1.55A1.72,1.72,0,0,0,298.18,679.92Z"/><path d="M308,678a4.69,4.69,0,0,1,3.27,1.13,4,4,0,0,1,0,5.8,5.28,5.28,0,0,1-6.53,0,4,4,0,0,1,0-5.8A4.72,4.72,0,0,1,308,678Zm0,1.75a2.13,2.13,0,0,0-1.6.64,2.23,2.23,0,0,0-.62,1.62,2.33,2.33,0,0,0,.62,1.65,2.29,2.29,0,0,0,3.2,0,2.3,2.3,0,0,0,.63-1.65,2.19,2.19,0,0,0-.62-1.62A2.15,2.15,0,0,0,308,679.72Z"/><path d="M318.24,678a4.69,4.69,0,0,1,3.27,1.13,4,4,0,0,1,0,5.8,5.28,5.28,0,0,1-6.53,0,4,4,0,0,1,0-5.8A4.68,4.68,0,0,1,318.24,678Zm0,1.75a2.11,2.11,0,0,0-1.59.64A2.19,2.19,0,0,0,316,682a2.3,2.3,0,0,0,.63,1.65,2.12,2.12,0,0,0,1.59.65,2.18,2.18,0,0,0,1.61-.65,2.3,2.3,0,0,0,.63-1.65,2.19,2.19,0,0,0-.63-1.62A2.14,2.14,0,0,0,318.24,679.72Z"/><path d="M327.13,681.31l1.75-1.57a.7.7,0,0,1-.36-.23.83.83,0,0,1-.09-.44.94.94,0,0,1,.22-.71,1.18,1.18,0,0,1,.8-.21h1.83a1.23,1.23,0,0,1,.81.21.92.92,0,0,1,.23.7.78.78,0,0,1-.14.53,1,1,0,0,1-.56.25,2.1,2.1,0,0,0-.69.25,3.46,3.46,0,0,0-.7.58l-.59.61,2.19,2.72H332a1,1,0,0,1,.72.23.87.87,0,0,1,.24.67.92.92,0,0,1-.24.71,1.23,1.23,0,0,1-.81.21h-2a1.35,1.35,0,0,1-.79-.18.69.69,0,0,1-.24-.58.78.78,0,0,1,.14-.48,1.06,1.06,0,0,1,.47-.3l-1.35-1.65-1,.93v1.71a.69.69,0,0,1-.11.44.55.55,0,0,1-.39.11h-1.5a1.17,1.17,0,0,1-.78-.21,1.13,1.13,0,0,1,0-1.38A.9.9,0,0,1,325,684h.13v-7.2H325a.89.89,0,0,1-.67-.24.92.92,0,0,1-.23-.68.9.9,0,0,1,.24-.7,1.13,1.13,0,0,1,.79-.22h1.5a.51.51,0,0,1,.39.11.65.65,0,0,1,.11.43Z"/><path d="M338.22,683h2a.41.41,0,0,1,.21,0,.16.16,0,0,1,.08.13.65.65,0,0,1,0,.11,1.12,1.12,0,0,1-.05.13l-2.49,4.87a.49.49,0,0,1-.16.21.46.46,0,0,1-.24.08h-.08l-.09,0-.63-.22a.44.44,0,0,1-.22-.14.26.26,0,0,1-.07-.18v-.14s0-.06,0-.09l1.17-4.31a.5.5,0,0,1,.59-.46Z"/><path d="M356.66,677.81l.3,4.87,1-3.59a1.08,1.08,0,0,1,.38-.6,1.15,1.15,0,0,1,.69-.2,1.17,1.17,0,0,1,.68.19,1.12,1.12,0,0,1,.37.61l1,3.59.29-4.87h-.22a1,1,0,0,1-.72-.22,1.18,1.18,0,0,1,0-1.4,1.23,1.23,0,0,1,.81-.21h2a1.2,1.2,0,0,1,.8.21.92.92,0,0,1,.24.71,1,1,0,0,1-.23.68.92.92,0,0,1-.67.23h-.14l-.8,7.31a1,1,0,0,1-.16.57.86.86,0,0,1-.58.13h-.39a.76.76,0,0,1-.51-.13,1.36,1.36,0,0,1-.32-.67L359,680.09,357.56,685a1.41,1.41,0,0,1-.32.66.72.72,0,0,1-.51.14h-.39c-.3,0-.49,0-.57-.13a1,1,0,0,1-.16-.57l-.83-7.31h-.13a.92.92,0,0,1-.67-.23.91.91,0,0,1-.23-.68.92.92,0,0,1,.24-.71,1.19,1.19,0,0,1,.79-.21h2a1.18,1.18,0,0,1,.8.21.92.92,0,0,1,.24.71.94.94,0,0,1-.23.69,1,1,0,0,1-.72.22Z"/><path d="M367.92,679a1.8,1.8,0,0,1,.82-.77A2.74,2.74,0,0,1,370,678a2.62,2.62,0,0,1,2,.77,3.12,3.12,0,0,1,.71,2.19V684h.14a1,1,0,0,1,.66,1.61,1.22,1.22,0,0,1-.8.21h-2.06a1.19,1.19,0,0,1-.79-.21.92.92,0,0,1-.24-.71,1,1,0,0,1,.22-.67.93.93,0,0,1,.68-.23h.13v-2.41a3,3,0,0,0-.26-1.48,1,1,0,0,0-.89-.41,1.45,1.45,0,0,0-1.14.54,2,2,0,0,0-.47,1.35V684h.13a.91.91,0,0,1,.67.23.88.88,0,0,1,.23.67.92.92,0,0,1-.24.71,1.19,1.19,0,0,1-.79.21h-2.06a1.23,1.23,0,0,1-.81-.21.94.94,0,0,1-.23-.71.92.92,0,0,1,.23-.67.91.91,0,0,1,.67-.23h.14v-7.2h-.14a.84.84,0,0,1-.92-.92.92.92,0,0,1,.24-.71,1.26,1.26,0,0,1,.82-.21h1.56a.51.51,0,0,1,.39.11.65.65,0,0,1,.11.43Z"/><path d="M382.84,684H383a.93.93,0,0,1,.69.24.91.91,0,0,1,.23.68.87.87,0,0,1-.24.69,1.23,1.23,0,0,1-.81.21h-.78a1,1,0,0,1-.62-.16,1.16,1.16,0,0,1-.34-.57,5.31,5.31,0,0,1-1.46.7,5.18,5.18,0,0,1-1.56.24,3.06,3.06,0,0,1-2.1-.67,2.26,2.26,0,0,1-.76-1.81,2.23,2.23,0,0,1,1-1.94,4.79,4.79,0,0,1,2.77-.69c.27,0,.55,0,.85.05s.63.07,1,.13v-.16a1.62,1.62,0,0,0-.36-1.14,1.39,1.39,0,0,0-1.07-.39,3.43,3.43,0,0,0-1.39.41,3.47,3.47,0,0,1-1.25.41.93.93,0,0,1-.64-.23.78.78,0,0,1-.24-.6c0-.45.33-.81,1-1.07a7.42,7.42,0,0,1,2.67-.39,3.77,3.77,0,0,1,2.54.68,3,3,0,0,1,.76,2.3Zm-2-1.6c-.28-.06-.53-.1-.76-.13a3.77,3.77,0,0,0-.65,0,2.74,2.74,0,0,0-1.43.31.92.92,0,0,0-.52.84.88.88,0,0,0,.33.74,1.55,1.55,0,0,0,1,.25,3.22,3.22,0,0,0,1.08-.17,3.73,3.73,0,0,0,1-.51Z"/><path d="M389.08,678.62h2.53a1.31,1.31,0,0,1,.82.2.87.87,0,0,1,.24.69.89.89,0,0,1-.25.71,1.23,1.23,0,0,1-.81.21h-2.53v2.13a2,2,0,0,0,.28,1.23,1.18,1.18,0,0,0,1,.33,4,4,0,0,0,1.53-.37,4,4,0,0,1,1.17-.38.76.76,0,0,1,.59.27,1,1,0,0,1,.24.65c0,.43-.38.82-1.15,1.17a6.33,6.33,0,0,1-2.63.53,4.55,4.55,0,0,1-1.5-.23,2.43,2.43,0,0,1-1-.67,1.82,1.82,0,0,1-.39-.8,6.92,6.92,0,0,1-.12-1.55v-2.31h-.78a1.2,1.2,0,0,1-.8-.21.92.92,0,0,1-.24-.71.91.91,0,0,1,.23-.69,1.23,1.23,0,0,1,.81-.2H387v-2a1.08,1.08,0,0,1,.24-.8,1.06,1.06,0,0,1,.78-.23,1,1,0,0,1,.78.23,1.08,1.08,0,0,1,.24.8Z"/><path d="M397.67,685.71a2,2,0,0,1-.45.25,1.27,1.27,0,0,1-.47.09.59.59,0,0,1-.5-.2,1.18,1.18,0,0,1-.15-.71V684a1.27,1.27,0,0,1,.19-.78.77.77,0,0,1,.63-.23.91.91,0,0,1,.79.48c.13.17.23.29.31.38a2.7,2.7,0,0,0,1,.54,3.61,3.61,0,0,0,1.23.19,1.76,1.76,0,0,0,.95-.23.71.71,0,0,0,.36-.61q0-.67-1.92-.93l-.66-.09a4.21,4.21,0,0,1-2.15-.79,1.93,1.93,0,0,1-.71-1.57,2.13,2.13,0,0,1,.85-1.81,4,4,0,0,1,2.41-.64,7.11,7.11,0,0,1,1.11.09,8.91,8.91,0,0,1,1.17.27A1.18,1.18,0,0,1,402,678a1,1,0,0,1,.43-.1.64.64,0,0,1,.52.21,1,1,0,0,1,.18.64v1a.78.78,0,0,1-.18.55.69.69,0,0,1-.52.2,2.63,2.63,0,0,1-1.16-.6,2.88,2.88,0,0,0-1.66-.59,2,2,0,0,0-1,.21.66.66,0,0,0-.36.59c0,.39.5.64,1.49.78l.68.08a5.81,5.81,0,0,1,2.58.82,1.9,1.9,0,0,1,.7,1.61,2.26,2.26,0,0,1-.92,1.94,4.35,4.35,0,0,1-2.63.69,9,9,0,0,1-2.46-.34Z"/><path d="M414.24,684h.14a.93.93,0,0,1,.68.23.89.89,0,0,1,.24.67.92.92,0,0,1-.25.71,1.23,1.23,0,0,1-.81.21h-2.5a1.23,1.23,0,0,1-.81-.21.91.91,0,0,1-.24-.71.87.87,0,0,1,.24-.69,1.23,1.23,0,0,1,.81-.21H412l-.34-1h-3.58l-.36,1H408a1.17,1.17,0,0,1,.81.22.87.87,0,0,1,.25.68.92.92,0,0,1-.25.71,1.23,1.23,0,0,1-.81.21H405.9a1.23,1.23,0,0,1-.81-.21.92.92,0,0,1-.24-.71.88.88,0,0,1,.23-.67.93.93,0,0,1,.68-.23h.14l2.22-6.19h-.66a1.23,1.23,0,0,1-.81-.21.91.91,0,0,1-.24-.7.92.92,0,0,1,.24-.71,1.23,1.23,0,0,1,.81-.21h3.11a1.05,1.05,0,0,1,1,.79v0Zm-4.35-6.19-1.2,3.5h2.41Z"/><path d="M418.68,685v2.26h1.06a1.21,1.21,0,0,1,.81.22.88.88,0,0,1,.24.7.87.87,0,0,1-.24.69,1.23,1.23,0,0,1-.81.21h-3.52a1.23,1.23,0,0,1-.81-.21,1.15,1.15,0,0,1,0-1.39,1.13,1.13,0,0,1,.8-.22h.49V680h-.14a.94.94,0,0,1-.67-.23,1,1,0,0,1-.23-.68.92.92,0,0,1,.23-.7,1.23,1.23,0,0,1,.81-.21H418a.56.56,0,0,1,.35.09.29.29,0,0,1,.12.25v.6a2.68,2.68,0,0,1,1-.85,3.15,3.15,0,0,1,1.36-.29,3.84,3.84,0,0,1,2.82,1.09,3.66,3.66,0,0,1,1.12,2.74,4,4,0,0,1-1.08,2.86,3.67,3.67,0,0,1-2.74,1.13,4.26,4.26,0,0,1-1.26-.18A3.13,3.13,0,0,1,418.68,685Zm1.92-5.32a1.69,1.69,0,0,0-1.35.61,2.53,2.53,0,0,0,0,3.1,1.69,1.69,0,0,0,1.35.61,1.76,1.76,0,0,0,1.36-.61,2.31,2.31,0,0,0,.53-1.55,2.23,2.23,0,0,0-.53-1.55A1.71,1.71,0,0,0,420.6,679.72Z"/><path d="M428.88,685v2.26h1.06a1.21,1.21,0,0,1,.81.22.88.88,0,0,1,.24.7.87.87,0,0,1-.24.69,1.23,1.23,0,0,1-.81.21h-3.52a1.23,1.23,0,0,1-.81-.21,1.15,1.15,0,0,1,0-1.39,1.14,1.14,0,0,1,.8-.22h.49V680h-.13a1,1,0,0,1-.68-.23,1,1,0,0,1-.23-.68.92.92,0,0,1,.23-.7,1.23,1.23,0,0,1,.81-.21h1.28a.54.54,0,0,1,.35.09.29.29,0,0,1,.12.25v.6a2.68,2.68,0,0,1,1-.85A3.19,3.19,0,0,1,431,678a3.84,3.84,0,0,1,2.82,1.09,3.67,3.67,0,0,1,1.13,2.74,4,4,0,0,1-1.09,2.86,3.67,3.67,0,0,1-2.74,1.13,4.26,4.26,0,0,1-1.26-.18A3.13,3.13,0,0,1,428.88,685Zm1.92-5.32a1.69,1.69,0,0,0-1.35.61,2.53,2.53,0,0,0,0,3.1,1.69,1.69,0,0,0,1.35.61,1.76,1.76,0,0,0,1.36-.61,2.26,2.26,0,0,0,.53-1.55,2.23,2.23,0,0,0-.53-1.55A1.71,1.71,0,0,0,430.8,679.72Z"/><path d="M440.24,683h2a.48.48,0,0,1,.22,0,.16.16,0,0,1,.08.13.65.65,0,0,1,0,.11l-.06.13L440,688.24a.44.44,0,0,1-.17.21.41.41,0,0,1-.24.08h-.08l-.08,0-.63-.22a.44.44,0,0,1-.22-.14.26.26,0,0,1-.07-.18v-.14s0-.06,0-.09l1.18-4.31a.5.5,0,0,1,.59-.46Z"/><path d="M460.17,677.81V684H464v-1.47a1.25,1.25,0,0,1,.2-.82.85.85,0,0,1,.68-.24.87.87,0,0,1,.69.25,1.23,1.23,0,0,1,.21.81v2.54a.81.81,0,0,1-.17.6,1.15,1.15,0,0,1-.7.15h-7.53a1.13,1.13,0,0,1-.77-.21.92.92,0,0,1-.23-.71.91.91,0,0,1,.22-.69,1.17,1.17,0,0,1,.78-.21h.73v-6.19h-.73a1.13,1.13,0,0,1-.77-.21.91.91,0,0,1-.23-.7.9.9,0,0,1,.24-.7,1.12,1.12,0,0,1,.78-.22h3.53a1.12,1.12,0,0,1,.78.22.9.9,0,0,1,.25.7.92.92,0,0,1-.25.7,1.17,1.17,0,0,1-.78.21Z"/><path d="M472.43,684h1.78a1.24,1.24,0,0,1,.82.21.87.87,0,0,1,.24.69.89.89,0,0,1-.25.71,1.23,1.23,0,0,1-.81.21H468.6a1.27,1.27,0,0,1-.81-.21.92.92,0,0,1-.24-.71.87.87,0,0,1,.24-.69,1.21,1.21,0,0,1,.81-.21h1.79v-4h-.94a1.22,1.22,0,0,1-.8-.21.9.9,0,0,1-.24-.7.92.92,0,0,1,.23-.7,1.23,1.23,0,0,1,.81-.21H472a.57.57,0,0,1,.36.1.31.31,0,0,1,.12.26Zm-1.2-9.6a1.07,1.07,0,0,1,.81.23,2,2,0,0,1,.2,1.11,1.84,1.84,0,0,1-.18,1q-.18.21-.84.21a1.31,1.31,0,0,1-.84-.19,1.17,1.17,0,0,1-.18-.77,2.92,2.92,0,0,1,.19-1.35C470.51,674.5,470.8,674.4,471.23,674.4Z"/><path d="M485,684h.1a.93.93,0,0,1,.7.23.89.89,0,0,1,.23.68.92.92,0,0,1-.23.71,1.22,1.22,0,0,1-.8.21h-2a1.24,1.24,0,0,1-.8-.21,1.15,1.15,0,0,1,0-1.39,1,1,0,0,1,.71-.23h.1v-2.4a2.75,2.75,0,0,0-.27-1.42,1,1,0,0,0-.93-.42,1.4,1.4,0,0,0-1.12.51,1.94,1.94,0,0,0-.44,1.33V684h.1a1,1,0,0,1,.71.23,1.15,1.15,0,0,1,0,1.39,1.22,1.22,0,0,1-.8.21h-2.06a1.19,1.19,0,0,1-.79-.21,1.11,1.11,0,0,1,0-1.39.93.93,0,0,1,.7-.23h.1v-4H478a.93.93,0,0,1-.68-.23.87.87,0,0,1-.23-.67.9.9,0,0,1,.24-.7,1.17,1.17,0,0,1,.81-.22h1.41a.6.6,0,0,1,.36.09.32.32,0,0,1,.12.27v.65a2.46,2.46,0,0,1,1-.9,2.88,2.88,0,0,1,1.37-.31,2.38,2.38,0,0,1,2,.81,3.79,3.79,0,0,1,.66,2.45Z"/><path d="M490.35,681.31l1.75-1.57a.63.63,0,0,1-.35-.23.83.83,0,0,1-.09-.44.94.94,0,0,1,.22-.71,1.16,1.16,0,0,1,.8-.21h1.83a1.2,1.2,0,0,1,.8.21.88.88,0,0,1,.24.7.84.84,0,0,1-.14.53,1,1,0,0,1-.56.25,2.1,2.1,0,0,0-.69.25,3.21,3.21,0,0,0-.7.58l-.59.61,2.19,2.72h.21a1,1,0,0,1,.72.23.87.87,0,0,1,.24.67.92.92,0,0,1-.24.71,1.24,1.24,0,0,1-.82.21h-2a1.32,1.32,0,0,1-.78-.18.69.69,0,0,1-.24-.58.78.78,0,0,1,.14-.48,1.06,1.06,0,0,1,.47-.3l-1.36-1.65-1,.93v1.71a.63.63,0,0,1-.11.44.55.55,0,0,1-.39.11h-1.49a1.16,1.16,0,0,1-.78-.21,1.15,1.15,0,0,1,0-1.38.91.91,0,0,1,.67-.23h.13v-7.2h-.13a.91.91,0,0,1-.68-.24,1,1,0,0,1-.23-.68.9.9,0,0,1,.24-.7,1.16,1.16,0,0,1,.8-.22h1.49a.51.51,0,0,1,.39.11.6.6,0,0,1,.11.43Z"/><path d="M499.62,682.48a2.25,2.25,0,0,0,.83,1.37,2.67,2.67,0,0,0,1.65.46,4.57,4.57,0,0,0,2-.5,4.49,4.49,0,0,1,1.21-.5.62.62,0,0,1,.5.22.9.9,0,0,1,.2.59c0,.52-.38,1-1.15,1.34A6.42,6.42,0,0,1,502,686a4.73,4.73,0,0,1-3.27-1.13,4,4,0,0,1,0-5.8A4.73,4.73,0,0,1,502,678a4.24,4.24,0,0,1,3,1.06,3.33,3.33,0,0,1,1.18,2.59.79.79,0,0,1-.24.67,1.64,1.64,0,0,1-1,.19Zm4.47-1.3a1.8,1.8,0,0,0-.73-1.19,2.49,2.49,0,0,0-1.52-.43,2.43,2.43,0,0,0-1.46.41,2,2,0,0,0-.76,1.21Z"/><path d="M515.61,684h.14a.91.91,0,0,1,.67.23,1.13,1.13,0,0,1,0,1.38,1.2,1.2,0,0,1-.8.21h-1.27a.65.65,0,0,1-.37-.09.31.31,0,0,1-.13-.27v-.58a2.61,2.61,0,0,1-1,.85,3.37,3.37,0,0,1-1.44.3,3.67,3.67,0,0,1-2.72-1.11,3.78,3.78,0,0,1-1.1-2.77,3.93,3.93,0,0,1,1.11-2.86,3.77,3.77,0,0,1,2.82-1.14,3.52,3.52,0,0,1,1.15.2,3.6,3.6,0,0,1,1,.55v-2.1h-1.1a1.17,1.17,0,0,1-.81-.22.91.91,0,0,1-.24-.7.92.92,0,0,1,.24-.71,1.23,1.23,0,0,1,.81-.21h2.58a.51.51,0,0,1,.39.11.66.66,0,0,1,.1.43Zm-3.89-4.08a1.7,1.7,0,0,0-1.35.61,2.25,2.25,0,0,0-.54,1.55,2.33,2.33,0,0,0,.53,1.57,1.72,1.72,0,0,0,1.36.61,1.7,1.7,0,0,0,1.35-.61,2.3,2.3,0,0,0,.54-1.57,2.27,2.27,0,0,0-.54-1.55A1.72,1.72,0,0,0,511.72,679.92Z"/><path d="M523.35,677.81V684h1.39a1.17,1.17,0,0,1,.81.22.87.87,0,0,1,.25.68.9.9,0,0,1-.25.7,1.21,1.21,0,0,1-.81.22h-4.93a1.25,1.25,0,0,1-.81-.21.92.92,0,0,1-.24-.71.87.87,0,0,1,.24-.69,1.23,1.23,0,0,1,.81-.21h1.4v-6.19h-1.4a1.25,1.25,0,0,1-.81-.21.91.91,0,0,1-.24-.7.88.88,0,0,1,.24-.7,1.23,1.23,0,0,1,.81-.21h4.93a1.23,1.23,0,0,1,.82.21,1.12,1.12,0,0,1,0,1.4,1.23,1.23,0,0,1-.81.21Z"/><path d="M536,684h.11a.81.81,0,0,1,.93.91,1,1,0,0,1-.23.71,1.23,1.23,0,0,1-.81.21h-2a1.24,1.24,0,0,1-.8-.21,1.15,1.15,0,0,1,0-1.39,1,1,0,0,1,.71-.23h.1v-2.4a2.63,2.63,0,0,0-.28-1.42,1,1,0,0,0-.92-.42,1.42,1.42,0,0,0-1.13.51,1.94,1.94,0,0,0-.43,1.33V684h.1a.93.93,0,0,1,.7.23.89.89,0,0,1,.24.68.92.92,0,0,1-.24.71,1.22,1.22,0,0,1-.8.21H529.1a1.22,1.22,0,0,1-.8-.21.92.92,0,0,1-.24-.71.89.89,0,0,1,.24-.68.91.91,0,0,1,.7-.23h.1v-4H529a.93.93,0,0,1-.68-.23.87.87,0,0,1-.23-.67.9.9,0,0,1,.24-.7,1.17,1.17,0,0,1,.81-.22h1.41a.56.56,0,0,1,.35.09.32.32,0,0,1,.12.27v.65a2.48,2.48,0,0,1,1-.9,2.88,2.88,0,0,1,1.37-.31,2.38,2.38,0,0,1,2,.81,3.8,3.8,0,0,1,.65,2.45Z"/><path d="M1025.54,682.39v-4.58h-.45a1.19,1.19,0,0,1-.79-.21,1,1,0,0,1-.23-.7.93.93,0,0,1,.23-.7,1.13,1.13,0,0,1,.79-.22h2.36a1.11,1.11,0,0,1,.77.22.87.87,0,0,1,.25.7.92.92,0,0,1-.23.67.85.85,0,0,1-.65.24h-.14v7.54a.84.84,0,0,1-.09.49.51.51,0,0,1-.37.1h-.83a1.24,1.24,0,0,1-.56-.09.66.66,0,0,1-.28-.29l-3.45-6.06V684h.48a1.14,1.14,0,0,1,.77.21.87.87,0,0,1,.23.69,1,1,0,0,1-.23.71,1.16,1.16,0,0,1-.77.21H1020a1.17,1.17,0,0,1-.78-.21,1.15,1.15,0,0,1,0-1.38.9.9,0,0,1,.66-.23h.14v-6.19h-.14a.85.85,0,0,1-.65-.24.88.88,0,0,1-.23-.67.9.9,0,0,1,.24-.7,1.12,1.12,0,0,1,.78-.22h1.36a1.14,1.14,0,0,1,.66.13,1.44,1.44,0,0,1,.39.51Z"/><path d="M1031.56,682.48a2.26,2.26,0,0,0,.84,1.37,2.66,2.66,0,0,0,1.64.46,4.58,4.58,0,0,0,2-.5,4.49,4.49,0,0,1,1.21-.5.63.63,0,0,1,.5.22.9.9,0,0,1,.2.59c0,.52-.39,1-1.16,1.34a6.4,6.4,0,0,1-2.85.57,4.73,4.73,0,0,1-3.27-1.13,4,4,0,0,1,0-5.8A4.73,4.73,0,0,1,1034,678a4.27,4.27,0,0,1,3,1.06,3.36,3.36,0,0,1,1.18,2.59.79.79,0,0,1-.24.67,1.66,1.66,0,0,1-1,.19Zm4.48-1.3a1.84,1.84,0,0,0-.73-1.19,2.49,2.49,0,0,0-1.52-.43,2.41,2.41,0,0,0-1.46.41,2.1,2.1,0,0,0-.77,1.21Z"/><path d="M1043.45,678.62H1046a1.3,1.3,0,0,1,.81.2.87.87,0,0,1,.24.69.92.92,0,0,1-.24.71,1.23,1.23,0,0,1-.81.21h-2.53v2.13a2,2,0,0,0,.27,1.23,1.22,1.22,0,0,0,1,.33,3.93,3.93,0,0,0,1.52-.37,4,4,0,0,1,1.18-.38.78.78,0,0,1,.59.27,1,1,0,0,1,.24.65c0,.43-.38.82-1.16,1.17a6.25,6.25,0,0,1-2.62.53,4.65,4.65,0,0,1-1.51-.23,2.43,2.43,0,0,1-1-.67,2.06,2.06,0,0,1-.39-.8,7.78,7.78,0,0,1-.11-1.55v-2.31h-.78a1.18,1.18,0,0,1-.8-.21.92.92,0,0,1-.24-.71.91.91,0,0,1,.23-.69,1.23,1.23,0,0,1,.81-.2h.78v-2a1.12,1.12,0,0,1,.23-.8,1.08,1.08,0,0,1,.79-.23.87.87,0,0,1,1,1Z"/><path d="M1054.76,678.39h1.78a1.23,1.23,0,0,1,.81.21.91.91,0,0,1,.24.7.87.87,0,0,1-.24.69,1.17,1.17,0,0,1-.81.22h-1.78V684h1.65a1.23,1.23,0,0,1,.81.21.87.87,0,0,1,.24.69.92.92,0,0,1-.24.71,1.27,1.27,0,0,1-.81.21h-4.58a1.23,1.23,0,0,1-.81-.21.92.92,0,0,1-.24-.71.87.87,0,0,1,.24-.69,1.21,1.21,0,0,1,.81-.21h.88v-3.79h-.88a1.17,1.17,0,0,1-.81-.22.87.87,0,0,1-.24-.69.88.88,0,0,1,.24-.7,1.21,1.21,0,0,1,.81-.21h.88v-.47a2.8,2.8,0,0,1,.84-2.31,4.56,4.56,0,0,1,2.86-.69,3.71,3.71,0,0,1,1.54.25.82.82,0,0,1,.49.77.72.72,0,0,1-.22.56.82.82,0,0,1-.59.21,5.83,5.83,0,0,1-.78-.08,5.27,5.27,0,0,0-.7-.07,1.38,1.38,0,0,0-1.08.34,1.83,1.83,0,0,0-.31,1.22Z"/><path d="M1065.45,684h1.78a1.23,1.23,0,0,1,.81.21.91.91,0,0,1,.23.69.92.92,0,0,1-.24.71,1.2,1.2,0,0,1-.8.21h-5.63a1.19,1.19,0,0,1-.79-.21.92.92,0,0,1-.24-.71.88.88,0,0,1,.23-.69,1.18,1.18,0,0,1,.8-.21h1.79v-7.2h-.92a1.16,1.16,0,0,1-.8-.22.88.88,0,0,1-.25-.7.92.92,0,0,1,.24-.71,1.23,1.23,0,0,1,.81-.21H1065a.64.64,0,0,1,.36.09.32.32,0,0,1,.13.26Z"/><path d="M1075.79,684h1.78a1.24,1.24,0,0,1,.82.21.87.87,0,0,1,.24.69.89.89,0,0,1-.25.71,1.23,1.23,0,0,1-.81.21H1072a1.27,1.27,0,0,1-.81-.21.92.92,0,0,1-.24-.71.91.91,0,0,1,.23-.69,1.24,1.24,0,0,1,.82-.21h1.79v-4h-.94a1.22,1.22,0,0,1-.8-.21.9.9,0,0,1-.24-.7.92.92,0,0,1,.23-.7,1.23,1.23,0,0,1,.81-.21h2.5a.52.52,0,0,1,.35.1.29.29,0,0,1,.13.26Zm-1.2-9.6a1.07,1.07,0,0,1,.81.23,2,2,0,0,1,.2,1.11,1.84,1.84,0,0,1-.18,1q-.18.21-.84.21a1.3,1.3,0,0,1-.84-.19,1.16,1.16,0,0,1-.19-.77,2.88,2.88,0,0,1,.2-1.35C1073.87,674.5,1074.16,674.4,1074.59,674.4Z"/><path d="M1084,679.82l.88,1,1-1a.43.43,0,0,1-.4-.19,1.22,1.22,0,0,1-.13-.62.86.86,0,0,1,.22-.64.82.82,0,0,1,.61-.22h1.77a1.16,1.16,0,0,1,.8.22.9.9,0,0,1,.24.7.88.88,0,0,1-.24.68,1,1,0,0,1-.73.22h-.33l-1.73,1.89L1088,684h.2a1,1,0,0,1,.72.23,1.07,1.07,0,0,1,0,1.39,1.27,1.27,0,0,1-.81.21h-2a.81.81,0,0,1-.62-.22.85.85,0,0,1-.21-.62,1.14,1.14,0,0,1,.13-.63.45.45,0,0,1,.41-.2h.06l-1-1.17-1,1.17h0a.5.5,0,0,1,.43.19,1,1,0,0,1,.13.58.94.94,0,0,1-.2.68.79.79,0,0,1-.63.22h-1.76a1.18,1.18,0,0,1-.8-.21,1.15,1.15,0,0,1,0-1.39.89.89,0,0,1,.68-.23h.16l2-2-1.9-2h-.26a1.13,1.13,0,0,1-.74-.22,1.08,1.08,0,0,1,0-1.38,1.21,1.21,0,0,1,.81-.22h2a.79.79,0,0,1,.63.23.94.94,0,0,1,.21.68,1.09,1.09,0,0,1-.13.57A.45.45,0,0,1,1084,679.82Z"/><path d="M1094.61,683h2a.41.41,0,0,1,.21,0,.14.14,0,0,1,.08.13.26.26,0,0,1,0,.11,1.12,1.12,0,0,1,0,.13l-2.48,4.87a.51.51,0,0,1-.17.21.41.41,0,0,1-.24.08h-.08l-.09,0-.63-.22a.46.46,0,0,1-.21-.14.27.27,0,0,1-.08-.18.53.53,0,0,1,0-.14.28.28,0,0,1,0-.09l1.18-4.31a.66.66,0,0,1,.19-.37A.67.67,0,0,1,1094.61,683Z"/><path d="M1114.08,677.81v1.91h2.71v-1.91h-.13a.93.93,0,0,1-.68-.23.91.91,0,0,1-.24-.68.92.92,0,0,1,.24-.71,1.27,1.27,0,0,1,.81-.21h2.15a1.22,1.22,0,0,1,.8.21,1,1,0,0,1,.23.71.8.8,0,0,1-.89.91h-.14V684h.14a1,1,0,0,1,.68.23,1.13,1.13,0,0,1,0,1.38,1.23,1.23,0,0,1-.81.21h-2.15a1.23,1.23,0,0,1-.81-.21.91.91,0,0,1-.24-.71.89.89,0,0,1,.24-.67.93.93,0,0,1,.68-.23h.13v-2.44h-2.71V684h.13a1,1,0,0,1,.69.23,1.13,1.13,0,0,1,0,1.38,1.23,1.23,0,0,1-.81.21h-2.14a1.23,1.23,0,0,1-.81-.21.88.88,0,0,1-.25-.71.89.89,0,0,1,.24-.67.93.93,0,0,1,.68-.23h.14v-6.19h-.14a.91.91,0,0,1-.67-.23,1,1,0,0,1-.23-.68.92.92,0,0,1,.24-.71,1.2,1.2,0,0,1,.8-.21h2.14a1.22,1.22,0,0,1,.8.21.89.89,0,0,1,.25.71,1,1,0,0,1-.23.68,1,1,0,0,1-.69.23Z"/><path d="M1128.42,680.6a2.69,2.69,0,0,1,1.33.91,2.44,2.44,0,0,1,.42,1.47,2.68,2.68,0,0,1-.36,1.38,2.71,2.71,0,0,1-1,1,2.79,2.79,0,0,1-.89.34,7.18,7.18,0,0,1-1.4.1h-4.33a1.14,1.14,0,0,1-.78-.21,1.15,1.15,0,0,1,0-1.38.94.94,0,0,1,.67-.23h.14v-6.19H1122a.8.8,0,0,1-.89-.91.9.9,0,0,1,.24-.7,1.12,1.12,0,0,1,.78-.22H1126a4.35,4.35,0,0,1,2.66.68,2.35,2.35,0,0,1,.91,2,2.24,2.24,0,0,1-.28,1.14A2.16,2.16,0,0,1,1128.42,680.6Zm-4.23-2.84v2.09h1.12a3.11,3.11,0,0,0,1.44-.24.86.86,0,0,0,.42-.81.87.87,0,0,0-.38-.79,2.34,2.34,0,0,0-1.22-.25Zm0,3.76v2.53h1.25a4.15,4.15,0,0,0,1.86-.29,1,1,0,0,0,.54-1,1,1,0,0,0-.52-1,4,4,0,0,0-1.8-.29Z"/><path d="M1135.84,675.7a4.34,4.34,0,0,1,3.36,1.46,6,6,0,0,1,0,7.47,4.62,4.62,0,0,1-6.74,0,5.93,5.93,0,0,1,0-7.45A4.35,4.35,0,0,1,1135.84,675.7Zm0,1.93a1.94,1.94,0,0,0-1.68.86,5,5,0,0,0,0,4.81,2.06,2.06,0,0,0,3.36,0,4.11,4.11,0,0,0,.62-2.41,4.17,4.17,0,0,0-.61-2.4A2,2,0,0,0,1135.84,677.63Z"/><path d="M1145.62,683h2a.41.41,0,0,1,.21,0,.16.16,0,0,1,.08.13.65.65,0,0,1,0,.11,1.12,1.12,0,0,1,0,.13l-2.49,4.87a.42.42,0,0,1-.16.21.41.41,0,0,1-.24.08h-.08l-.09,0-.63-.22a.55.55,0,0,1-.22-.14.31.31,0,0,1-.07-.18v-.14s0-.06,0-.09l1.18-4.31a.66.66,0,0,1,.19-.37A.67.67,0,0,1,1145.62,683Z"/><path d="M1168.52,681.3a1.47,1.47,0,0,1,.42.48l.06.08,1.35,2.14h.26a1.06,1.06,0,0,1,.73.23.87.87,0,0,1,.24.67.92.92,0,0,1-.24.71,1.27,1.27,0,0,1-.81.21h-1a1,1,0,0,1-.89-.49h0l-2-3.13a.81.81,0,0,0-.27-.28.52.52,0,0,0-.31-.1h-.79V684h.14a.91.91,0,0,1,.67.23.88.88,0,0,1,.23.67,1,1,0,0,1-.23.71,1.23,1.23,0,0,1-.81.21h-2.14a1.19,1.19,0,0,1-.79-.21,1.15,1.15,0,0,1,0-1.38.94.94,0,0,1,.67-.23h.14v-6.19h-.14a.86.86,0,0,1-.66-.24.88.88,0,0,1-.23-.67.9.9,0,0,1,.24-.7,1.15,1.15,0,0,1,.79-.22h3.83a4.4,4.4,0,0,1,2.66.68,2.37,2.37,0,0,1,.91,2,2.66,2.66,0,0,1-.5,1.61A3,3,0,0,1,1168.52,681.3Zm-3.42-3.54v2.35h1.13a2.83,2.83,0,0,0,1.45-.27,1,1,0,0,0,.41-.9,1,1,0,0,0-.37-.9,2.07,2.07,0,0,0-1.22-.28Z"/><path d="M1174.39,682.48a2.25,2.25,0,0,0,.83,1.37,2.67,2.67,0,0,0,1.65.46,4.57,4.57,0,0,0,2-.5,4.49,4.49,0,0,1,1.21-.5.64.64,0,0,1,.51.22.89.89,0,0,1,.19.59c0,.52-.38,1-1.15,1.34a6.42,6.42,0,0,1-2.86.57,4.68,4.68,0,0,1-3.26-1.13,4,4,0,0,1,0-5.8,4.68,4.68,0,0,1,3.26-1.13,4.24,4.24,0,0,1,3,1.06,3.33,3.33,0,0,1,1.18,2.59.79.79,0,0,1-.24.67,1.64,1.64,0,0,1-1,.19Zm4.47-1.3a1.8,1.8,0,0,0-.73-1.19,2.47,2.47,0,0,0-1.52-.43,2.43,2.43,0,0,0-1.46.41,2.09,2.09,0,0,0-.76,1.21Z"/><path d="M1190.38,684h.14a.89.89,0,0,1,.67.23,1.13,1.13,0,0,1,0,1.38,1.2,1.2,0,0,1-.8.21h-1.27a.65.65,0,0,1-.37-.09.34.34,0,0,1-.13-.27v-.58a2.61,2.61,0,0,1-1,.85,3.37,3.37,0,0,1-1.44.3,3.67,3.67,0,0,1-2.72-1.11,3.78,3.78,0,0,1-1.1-2.77,3.93,3.93,0,0,1,1.11-2.86,3.77,3.77,0,0,1,2.82-1.14,3.52,3.52,0,0,1,1.15.2,3.6,3.6,0,0,1,1,.55v-2.1h-1.1a1.17,1.17,0,0,1-.81-.22.91.91,0,0,1-.24-.7.92.92,0,0,1,.24-.71,1.23,1.23,0,0,1,.81-.21h2.58a.51.51,0,0,1,.39.11.66.66,0,0,1,.1.43Zm-3.89-4.08a1.72,1.72,0,0,0-1.35.61,2.25,2.25,0,0,0-.54,1.55,2.33,2.33,0,0,0,.53,1.57,1.72,1.72,0,0,0,1.36.61,1.69,1.69,0,0,0,1.35-.61,2.3,2.3,0,0,0,.54-1.57,2.27,2.27,0,0,0-.54-1.55A1.72,1.72,0,0,0,1186.49,679.92Z"/><path d="M1200.58,684h.14a.93.93,0,0,1,.68.23,1.15,1.15,0,0,1,0,1.38,1.18,1.18,0,0,1-.8.21h-1.27a.65.65,0,0,1-.37-.09.34.34,0,0,1-.13-.27v-.58a2.61,2.61,0,0,1-1,.85,3.37,3.37,0,0,1-1.44.3,3.67,3.67,0,0,1-2.72-1.11,3.78,3.78,0,0,1-1.1-2.77,3.93,3.93,0,0,1,1.11-2.86,3.77,3.77,0,0,1,2.82-1.14,3.48,3.48,0,0,1,1.15.2,3.79,3.79,0,0,1,1,.55v-2.1h-1.11a1.17,1.17,0,0,1-.81-.22.91.91,0,0,1-.24-.7.92.92,0,0,1,.24-.71,1.23,1.23,0,0,1,.81-.21h2.58a.51.51,0,0,1,.39.11.66.66,0,0,1,.1.43Zm-3.89-4.08a1.72,1.72,0,0,0-1.35.61,2.25,2.25,0,0,0-.54,1.55,2.29,2.29,0,0,0,.54,1.57,1.69,1.69,0,0,0,1.35.61,1.72,1.72,0,0,0,1.36-.61,2.35,2.35,0,0,0,.53-1.57,2.27,2.27,0,0,0-.54-1.55A1.72,1.72,0,0,0,1196.69,679.92Z"/><path d="M1208.41,684h1.78a1.24,1.24,0,0,1,.82.21.87.87,0,0,1,.24.69.89.89,0,0,1-.25.71,1.23,1.23,0,0,1-.81.21h-5.61a1.27,1.27,0,0,1-.81-.21.92.92,0,0,1-.24-.71.87.87,0,0,1,.24-.69,1.21,1.21,0,0,1,.81-.21h1.79v-4h-.94a1.22,1.22,0,0,1-.8-.21.9.9,0,0,1-.24-.7.88.88,0,0,1,.24-.7,1.18,1.18,0,0,1,.8-.21h2.5a.57.57,0,0,1,.36.1.31.31,0,0,1,.12.26Zm-1.2-9.6a1.07,1.07,0,0,1,.81.23,2,2,0,0,1,.2,1.11,1.84,1.84,0,0,1-.18,1q-.18.21-.84.21a1.31,1.31,0,0,1-.84-.19,1.17,1.17,0,0,1-.18-.77,2.92,2.92,0,0,1,.19-1.35A1,1,0,0,1,1207.21,674.4Z"/><path d="M1216.88,678.62h2.53a1.3,1.3,0,0,1,.81.2.87.87,0,0,1,.24.69.92.92,0,0,1-.24.71,1.23,1.23,0,0,1-.81.21h-2.53v2.13a2,2,0,0,0,.27,1.23,1.2,1.2,0,0,0,1,.33,4,4,0,0,0,1.53-.37,4,4,0,0,1,1.18-.38.78.78,0,0,1,.59.27,1,1,0,0,1,.24.65c0,.43-.39.82-1.16,1.17a6.29,6.29,0,0,1-2.62.53,4.65,4.65,0,0,1-1.51-.23,2.43,2.43,0,0,1-1-.67,2.06,2.06,0,0,1-.39-.8,7.08,7.08,0,0,1-.11-1.55v-2.31h-.79a1.22,1.22,0,0,1-.8-.21,1,1,0,0,1-.23-.71.87.87,0,0,1,.23-.69,1.2,1.2,0,0,1,.8-.2h.79v-2a1,1,0,1,1,2,0Z"/><path d="M1227.23,683h2a.48.48,0,0,1,.22,0,.15.15,0,0,1,.07.13.26.26,0,0,1,0,.11,1.12,1.12,0,0,1,0,.13l-2.48,4.87a.51.51,0,0,1-.17.21.41.41,0,0,1-.24.08h-.08l-.08,0-.64-.22a.46.46,0,0,1-.21-.14.27.27,0,0,1-.08-.18.53.53,0,0,1,0-.14.28.28,0,0,1,0-.09l1.18-4.31a.66.66,0,0,1,.19-.37A.7.7,0,0,1,1227.23,683Z"/><path d="M1246.22,677.81l2,5.89,2.06-5.89h-.22a1.19,1.19,0,0,1-.79-.21.88.88,0,0,1-.23-.7.92.92,0,0,1,.23-.71,1.22,1.22,0,0,1,.8-.21h2.1a1.22,1.22,0,0,1,.8.21,1,1,0,0,1,.23.71.82.82,0,0,1-.9.91h-.13l-2.54,7.2a1.57,1.57,0,0,1-.38.69,1.22,1.22,0,0,1-.64.12h-1a1,1,0,0,1-1-.76l0,0-2.58-7.2h-.14a.89.89,0,0,1-.65-.23,1,1,0,0,1-.22-.68.94.94,0,0,1,.23-.71,1.16,1.16,0,0,1,.78-.21h2.46a1.12,1.12,0,0,1,.78.22.9.9,0,0,1,.25.7.92.92,0,0,1-.25.7,1.17,1.17,0,0,1-.78.21Z"/><path d="M1259.42,684h1.78a1.24,1.24,0,0,1,.82.21.87.87,0,0,1,.24.69.89.89,0,0,1-.25.71,1.23,1.23,0,0,1-.81.21h-5.61a1.27,1.27,0,0,1-.81-.21.92.92,0,0,1-.24-.71.91.91,0,0,1,.23-.69,1.26,1.26,0,0,1,.82-.21h1.79v-4h-.94a1.22,1.22,0,0,1-.8-.21.9.9,0,0,1-.24-.7.92.92,0,0,1,.23-.7,1.23,1.23,0,0,1,.81-.21h2.5a.57.57,0,0,1,.36.1.31.31,0,0,1,.12.26Zm-1.2-9.6a1.07,1.07,0,0,1,.81.23,2,2,0,0,1,.2,1.11,1.84,1.84,0,0,1-.18,1q-.18.21-.84.21a1.31,1.31,0,0,1-.84-.19,1.17,1.17,0,0,1-.18-.77,2.92,2.92,0,0,1,.19-1.35C1257.5,674.5,1257.79,674.4,1258.22,674.4Z"/><path d="M1269,678.72a2.3,2.3,0,0,1,.81-.57,2.44,2.44,0,0,1,1-.2,1.91,1.91,0,0,1,1.63.67,3.86,3.86,0,0,1,.5,2.24V684h.12a.72.72,0,0,1,.58.23,1,1,0,0,1,.2.67,1,1,0,0,1-.21.71.92.92,0,0,1-.69.21h-1.41a.58.58,0,0,1-.35-.09.34.34,0,0,1-.13-.27v-4.69a1.56,1.56,0,0,0-.17-.83.57.57,0,0,0-.51-.27.71.71,0,0,0-.64.37,2.06,2.06,0,0,0-.23,1.06V684h.13a.74.74,0,0,1,.58.23,1,1,0,0,1,.2.67,1,1,0,0,1-.21.71,1,1,0,0,1-.7.21h-1.41a.64.64,0,0,1-.36-.09.34.34,0,0,1-.13-.27v-4.69a1.67,1.67,0,0,0-.16-.83.55.55,0,0,0-.5-.27.73.73,0,0,0-.65.37,2,2,0,0,0-.24,1.06V684h.12a.75.75,0,0,1,.59.23,1,1,0,0,1,.19.67,1,1,0,0,1-.2.71,1,1,0,0,1-.7.21h-1.88a.92.92,0,0,1-.69-.21,1.29,1.29,0,0,1,0-1.38.75.75,0,0,1,.59-.23h.12v-4H1264a.72.72,0,0,1-.59-.24,1,1,0,0,1-.21-.67,1,1,0,0,1,.21-.7,1,1,0,0,1,.71-.21h1.12a.62.62,0,0,1,.46.14.84.84,0,0,1,.12.53,2,2,0,0,1,.74-.65,2.12,2.12,0,0,1,1-.22,1.86,1.86,0,0,1,.84.19A1.78,1.78,0,0,1,1269,678.72Z"/><path d="M1276.4,682.48a2.26,2.26,0,0,0,.84,1.37,2.66,2.66,0,0,0,1.64.46,4.58,4.58,0,0,0,2-.5,4.49,4.49,0,0,1,1.21-.5.63.63,0,0,1,.5.22.9.9,0,0,1,.2.59c0,.52-.39,1-1.16,1.34a6.4,6.4,0,0,1-2.85.57,4.73,4.73,0,0,1-3.27-1.13,4,4,0,0,1,0-5.8,4.73,4.73,0,0,1,3.27-1.13,4.27,4.27,0,0,1,3,1.06,3.36,3.36,0,0,1,1.18,2.59.79.79,0,0,1-.24.67,1.66,1.66,0,0,1-1,.19Zm4.48-1.3a1.84,1.84,0,0,0-.73-1.19,2.49,2.49,0,0,0-1.52-.43,2.41,2.41,0,0,0-1.46.41,2.1,2.1,0,0,0-.77,1.21Z"/><path d="M1288.86,678a4.69,4.69,0,0,1,3.27,1.13,4,4,0,0,1,0,5.8,5.28,5.28,0,0,1-6.53,0,4,4,0,0,1,0-5.8A4.72,4.72,0,0,1,1288.86,678Zm0,1.75a2.13,2.13,0,0,0-1.6.64,2.23,2.23,0,0,0-.62,1.62,2.33,2.33,0,0,0,.62,1.65,2.29,2.29,0,0,0,3.2,0,2.3,2.3,0,0,0,.63-1.65,2.19,2.19,0,0,0-.62-1.62A2.15,2.15,0,0,0,1288.86,679.72Z"/><path d="M1298.64,683h2a.46.46,0,0,1,.21,0,.16.16,0,0,1,.08.13.65.65,0,0,1,0,.11l-.06.13-2.48,4.87a.44.44,0,0,1-.17.21.41.41,0,0,1-.24.08h-.08l-.08,0-.63-.22a.44.44,0,0,1-.22-.14.26.26,0,0,1-.07-.18v-.14s0-.06,0-.09l1.18-4.31a.5.5,0,0,1,.59-.46Z"/><path d="M1318.35,682.3V684h.85a1.13,1.13,0,0,1,.77.21.91.91,0,0,1,.23.69.92.92,0,0,1-.24.71,1.11,1.11,0,0,1-.76.21h-2.87a1.19,1.19,0,0,1-.79-.21,1,1,0,0,1-.23-.71.92.92,0,0,1,.22-.67.9.9,0,0,1,.66-.23h.14v-6.19h-.14a.84.84,0,0,1-.65-.24.88.88,0,0,1-.23-.67.9.9,0,0,1,.24-.7,1.12,1.12,0,0,1,.78-.22h3.43a5.07,5.07,0,0,1,3.07.78,2.67,2.67,0,0,1,1,2.3,2.91,2.91,0,0,1-1,2.42,4.9,4.9,0,0,1-3.08.82Zm0-4.49v2.62h1.17a2.68,2.68,0,0,0,1.48-.33,1.11,1.11,0,0,0,.49-1,1.07,1.07,0,0,0-.51-1,2.61,2.61,0,0,0-1.46-.34Z"/><path d="M1330.83,684h1.78a1.24,1.24,0,0,1,.82.21.87.87,0,0,1,.24.69.89.89,0,0,1-.25.71,1.23,1.23,0,0,1-.81.21H1327a1.27,1.27,0,0,1-.81-.21.92.92,0,0,1-.24-.71.87.87,0,0,1,.24-.69,1.21,1.21,0,0,1,.81-.21h1.79v-4h-.94a1.22,1.22,0,0,1-.8-.21.9.9,0,0,1-.24-.7.88.88,0,0,1,.24-.7,1.18,1.18,0,0,1,.8-.21h2.5a.57.57,0,0,1,.36.1.31.31,0,0,1,.12.26Zm-1.2-9.6a1.07,1.07,0,0,1,.81.23,2,2,0,0,1,.2,1.11,1.84,1.84,0,0,1-.18,1q-.18.21-.84.21a1.31,1.31,0,0,1-.84-.19,1.17,1.17,0,0,1-.18-.77,2.92,2.92,0,0,1,.19-1.35A1,1,0,0,1,1329.63,674.4Z"/><path d="M1343.36,684h.1a.93.93,0,0,1,.7.23.89.89,0,0,1,.23.68.92.92,0,0,1-.23.71,1.22,1.22,0,0,1-.8.21h-2a1.24,1.24,0,0,1-.8-.21.92.92,0,0,1-.24-.71.89.89,0,0,1,.24-.68.93.93,0,0,1,.7-.23h.1v-2.4a2.75,2.75,0,0,0-.27-1.42,1,1,0,0,0-.93-.42,1.4,1.4,0,0,0-1.12.51,1.94,1.94,0,0,0-.44,1.33V684h.1a1,1,0,0,1,.71.23,1.15,1.15,0,0,1,0,1.39,1.22,1.22,0,0,1-.8.21h-2.06a1.19,1.19,0,0,1-.79-.21,1.11,1.11,0,0,1,0-1.39.93.93,0,0,1,.7-.23h.1v-4h-.14a1,1,0,0,1-.68-.23.87.87,0,0,1-.23-.67.9.9,0,0,1,.24-.7,1.17,1.17,0,0,1,.81-.22h1.41a.6.6,0,0,1,.36.09.32.32,0,0,1,.12.27v.65a2.46,2.46,0,0,1,1-.9,2.91,2.91,0,0,1,1.37-.31,2.41,2.41,0,0,1,2,.81,3.86,3.86,0,0,1,.65,2.45Z"/><path d="M1349.5,678.62H1352a1.3,1.3,0,0,1,.81.2.87.87,0,0,1,.24.69.92.92,0,0,1-.24.71,1.23,1.23,0,0,1-.81.21h-2.53v2.13a2,2,0,0,0,.27,1.23,1.22,1.22,0,0,0,1,.33,3.93,3.93,0,0,0,1.52-.37,4,4,0,0,1,1.18-.38.78.78,0,0,1,.59.27,1,1,0,0,1,.24.65c0,.43-.38.82-1.16,1.17a6.25,6.25,0,0,1-2.62.53,4.65,4.65,0,0,1-1.51-.23,2.43,2.43,0,0,1-1-.67,2.06,2.06,0,0,1-.39-.8,7.78,7.78,0,0,1-.11-1.55v-2.31h-.78a1.18,1.18,0,0,1-.8-.21.92.92,0,0,1-.24-.71.91.91,0,0,1,.23-.69,1.23,1.23,0,0,1,.81-.2h.78v-2a1.12,1.12,0,0,1,.23-.8,1.08,1.08,0,0,1,.79-.23.87.87,0,0,1,1,1Z"/><path d="M1358,682.48a2.31,2.31,0,0,0,.84,1.37,2.67,2.67,0,0,0,1.65.46,4.57,4.57,0,0,0,2-.5,4.49,4.49,0,0,1,1.21-.5.62.62,0,0,1,.5.22.9.9,0,0,1,.2.59c0,.52-.39,1-1.15,1.34a6.45,6.45,0,0,1-2.86.57,4.73,4.73,0,0,1-3.27-1.13,4,4,0,0,1,0-5.8,4.73,4.73,0,0,1,3.27-1.13,4.24,4.24,0,0,1,3,1.06,3.33,3.33,0,0,1,1.18,2.59.79.79,0,0,1-.24.67,1.64,1.64,0,0,1-1,.19Zm4.48-1.3a1.84,1.84,0,0,0-.73-1.19,2.49,2.49,0,0,0-1.52-.43,2.43,2.43,0,0,0-1.46.41,2.1,2.1,0,0,0-.77,1.21Z"/><path d="M1370.1,681.31V684h2a1.2,1.2,0,0,1,.8.21.87.87,0,0,1,.24.69.92.92,0,0,1-.24.71,1.2,1.2,0,0,1-.8.21h-4.64a1.23,1.23,0,0,1-.81-.21.92.92,0,0,1-.24-.71.91.91,0,0,1,.23-.69,1.26,1.26,0,0,1,.82-.21h.64v-4h-.36a1.23,1.23,0,0,1-.81-.21.93.93,0,0,1-.23-.7.92.92,0,0,1,.22-.7,1.23,1.23,0,0,1,.81-.21h1.77a.52.52,0,0,1,.35.1.31.31,0,0,1,.12.26v1.23a7,7,0,0,1,1.69-1.39,3.55,3.55,0,0,1,1.69-.41,2.08,2.08,0,0,1,1.31.37,1.17,1.17,0,0,1,.48,1,1,1,0,0,1-.33.79,1.2,1.2,0,0,1-.86.31,1.94,1.94,0,0,1-.88-.27,1.84,1.84,0,0,0-.71-.28,1.77,1.77,0,0,0-.94.36A9,9,0,0,0,1370.1,681.31Z"/><path d="M1378.42,682.48a2.25,2.25,0,0,0,.83,1.37,2.69,2.69,0,0,0,1.65.46,4.54,4.54,0,0,0,2-.5,4.49,4.49,0,0,1,1.22-.5.63.63,0,0,1,.5.22.89.89,0,0,1,.19.59c0,.52-.38,1-1.15,1.34a6.42,6.42,0,0,1-2.86.57,4.72,4.72,0,0,1-3.26-1.13,4,4,0,0,1,0-5.8,4.72,4.72,0,0,1,3.26-1.13,4.28,4.28,0,0,1,3,1.06,3.35,3.35,0,0,1,1.17,2.59.79.79,0,0,1-.23.67,1.67,1.67,0,0,1-1,.19Zm4.47-1.3a1.79,1.79,0,0,0-.72-1.19,2.5,2.5,0,0,0-1.53-.43,2.38,2.38,0,0,0-1.45.41,2,2,0,0,0-.77,1.21Z"/><path d="M1388.69,685.71a2,2,0,0,1-.45.25,1.27,1.27,0,0,1-.47.09.6.6,0,0,1-.5-.2,1.2,1.2,0,0,1-.14-.71V684a1.28,1.28,0,0,1,.18-.78.77.77,0,0,1,.63-.23.92.92,0,0,1,.8.48,4.22,4.22,0,0,0,.3.38,2.7,2.7,0,0,0,1,.54,3.61,3.61,0,0,0,1.23.19,1.76,1.76,0,0,0,1-.23.71.71,0,0,0,.36-.61q0-.67-1.92-.93l-.66-.09a4.25,4.25,0,0,1-2.15-.79,1.93,1.93,0,0,1-.71-1.57,2.15,2.15,0,0,1,.85-1.81,4,4,0,0,1,2.42-.64,7.09,7.09,0,0,1,1.1.09,8.91,8.91,0,0,1,1.17.27,1.3,1.3,0,0,1,.37-.31,1,1,0,0,1,.43-.1.64.64,0,0,1,.52.21,1,1,0,0,1,.18.64v1a.78.78,0,0,1-.18.55.67.67,0,0,1-.52.2,2.63,2.63,0,0,1-1.16-.6,2.85,2.85,0,0,0-1.66-.59,2,2,0,0,0-1,.21.66.66,0,0,0-.36.59c0,.39.5.64,1.5.78l.68.08a5.75,5.75,0,0,1,2.57.82,1.91,1.91,0,0,1,.71,1.61,2.27,2.27,0,0,1-.93,1.94,4.33,4.33,0,0,1-2.63.69,9,9,0,0,1-2.46-.34Z"/><path d="M1400.51,678.62H1403a1.3,1.3,0,0,1,.81.2.87.87,0,0,1,.24.69.92.92,0,0,1-.24.71,1.27,1.27,0,0,1-.81.21h-2.53v2.13a2,2,0,0,0,.27,1.23,1.18,1.18,0,0,0,1,.33,4,4,0,0,0,1.53-.37,4,4,0,0,1,1.18-.38.74.74,0,0,1,.58.27.91.91,0,0,1,.25.65c0,.43-.39.82-1.16,1.17a6.3,6.3,0,0,1-2.63.53,4.55,4.55,0,0,1-1.5-.23,2.43,2.43,0,0,1-1-.67,2.06,2.06,0,0,1-.39-.8,6.92,6.92,0,0,1-.12-1.55v-2.31h-.78a1.22,1.22,0,0,1-.8-.21,1,1,0,0,1-.23-.71.87.87,0,0,1,.23-.69,1.19,1.19,0,0,1,.8-.2h.78v-2a1,1,0,1,1,2,0Z"/><path d="M1410.86,683h2a.48.48,0,0,1,.22,0,.15.15,0,0,1,.07.13.26.26,0,0,1,0,.11,1.12,1.12,0,0,1,0,.13l-2.48,4.87a.51.51,0,0,1-.17.21.41.41,0,0,1-.24.08h-.08l-.08,0-.64-.22a.46.46,0,0,1-.21-.14.27.27,0,0,1-.08-.18.53.53,0,0,1,0-.14.28.28,0,0,1,0-.09l1.18-4.31a.66.66,0,0,1,.19-.37A.67.67,0,0,1,1410.86,683Z"/><path d="M1434.49,677.79h-1.73V684h1.39a1.22,1.22,0,0,1,.8.21.91.91,0,0,1,.24.7.92.92,0,0,1-.24.71,1.22,1.22,0,0,1-.8.21h-4.93a1.19,1.19,0,0,1-.79-.21.92.92,0,0,1-.24-.71.88.88,0,0,1,.24-.7,1.17,1.17,0,0,1,.79-.21h1.39v-6.2h-1.73l-.05,1.69v.21a.84.84,0,0,1-.22.62.82.82,0,0,1-.61.22.9.9,0,0,1-.69-.23,1.12,1.12,0,0,1-.22-.75v-.07l.1-2.48c0-.49.08-.79.2-.89a1.22,1.22,0,0,1,.73-.15h7.13a1.22,1.22,0,0,1,.73.15c.12.1.19.4.21.89l.09,2.48v.07a1.1,1.1,0,0,1-.21.75.85.85,0,0,1-.68.23.81.81,0,0,1-.64-.22,1.39,1.39,0,0,1-.21-.83Z"/><path d="M1439.34,680l.66,4.08.89-3.16a1.12,1.12,0,0,1,.36-.65,1,1,0,0,1,.64-.16,1.14,1.14,0,0,1,.64.15,1.24,1.24,0,0,1,.36.66l.92,3.16.63-4.08h-.14a1,1,0,0,1-.68-.23,1,1,0,0,1-.23-.68.88.88,0,0,1,.24-.7,1.19,1.19,0,0,1,.81-.21h2a1.24,1.24,0,0,1,.82.21.9.9,0,0,1,.24.7.92.92,0,0,1-.24.68,1,1,0,0,1-.68.23h-.14l-1,5.24a.91.91,0,0,1-.39.62,2,2,0,0,1-1.73,0,1.07,1.07,0,0,1-.43-.62l-1-3.23-.87,3.23a1,1,0,0,1-.43.62,1.69,1.69,0,0,1-.88.2,1.54,1.54,0,0,1-.86-.2.9.9,0,0,1-.38-.62l-1.05-5.24h-.14a.92.92,0,0,1-.67-.23,1,1,0,0,1-.23-.68.93.93,0,0,1,.23-.7,1.23,1.23,0,0,1,.81-.21h2a1.18,1.18,0,0,1,.8.21.9.9,0,0,1,.24.7,1,1,0,0,1-.23.68.94.94,0,0,1-.67.23Z"/><path d="M1453.25,684H1455a1.24,1.24,0,0,1,.82.21.87.87,0,0,1,.24.69.89.89,0,0,1-.25.71,1.23,1.23,0,0,1-.81.21h-5.61a1.27,1.27,0,0,1-.81-.21.92.92,0,0,1-.24-.71.87.87,0,0,1,.24-.69,1.21,1.21,0,0,1,.81-.21h1.79v-4h-.94a1.22,1.22,0,0,1-.8-.21.9.9,0,0,1-.24-.7.92.92,0,0,1,.23-.7,1.23,1.23,0,0,1,.81-.21h2.5a.57.57,0,0,1,.36.1.31.31,0,0,1,.12.26Zm-1.2-9.6a1.07,1.07,0,0,1,.81.23,2,2,0,0,1,.2,1.11,1.84,1.84,0,0,1-.18,1q-.18.21-.84.21a1.31,1.31,0,0,1-.84-.19,1.17,1.17,0,0,1-.18-.77,2.92,2.92,0,0,1,.19-1.35A1,1,0,0,1,1452.05,674.4Z"/><path d="M1461.72,678.62h2.53a1.3,1.3,0,0,1,.81.2.87.87,0,0,1,.24.69.92.92,0,0,1-.24.71,1.23,1.23,0,0,1-.81.21h-2.53v2.13a2,2,0,0,0,.27,1.23,1.2,1.2,0,0,0,1,.33,4,4,0,0,0,1.53-.37,4,4,0,0,1,1.18-.38.78.78,0,0,1,.59.27,1,1,0,0,1,.24.65c0,.43-.39.82-1.16,1.17a6.29,6.29,0,0,1-2.62.53,4.57,4.57,0,0,1-1.51-.23,2.43,2.43,0,0,1-1-.67,2.06,2.06,0,0,1-.39-.8,7.08,7.08,0,0,1-.11-1.55v-2.31h-.79a1.22,1.22,0,0,1-.8-.21,1,1,0,0,1-.23-.71.87.87,0,0,1,.23-.69,1.2,1.2,0,0,1,.8-.2h.79v-2a1,1,0,1,1,2,0Z"/><path d="M1471.92,678.62h2.53a1.3,1.3,0,0,1,.81.2.87.87,0,0,1,.24.69.92.92,0,0,1-.24.71,1.23,1.23,0,0,1-.81.21h-2.53v2.13a2,2,0,0,0,.27,1.23,1.22,1.22,0,0,0,1,.33,3.93,3.93,0,0,0,1.52-.37,4,4,0,0,1,1.18-.38.78.78,0,0,1,.59.27,1,1,0,0,1,.24.65c0,.43-.38.82-1.16,1.17a6.25,6.25,0,0,1-2.62.53,4.65,4.65,0,0,1-1.51-.23,2.43,2.43,0,0,1-1-.67,2.06,2.06,0,0,1-.39-.8,7.78,7.78,0,0,1-.11-1.55v-2.31h-.78a1.18,1.18,0,0,1-.8-.21.92.92,0,0,1-.24-.71.91.91,0,0,1,.23-.69,1.22,1.22,0,0,1,.81-.2h.78v-2a1.12,1.12,0,0,1,.23-.8,1.08,1.08,0,0,1,.79-.23.87.87,0,0,1,1,1Z"/><path d="M1480.43,682.48a2.31,2.31,0,0,0,.84,1.37,2.67,2.67,0,0,0,1.65.46,4.57,4.57,0,0,0,2-.5,4.49,4.49,0,0,1,1.21-.5.62.62,0,0,1,.5.22.9.9,0,0,1,.2.59c0,.52-.39,1-1.15,1.34a6.45,6.45,0,0,1-2.86.57,4.73,4.73,0,0,1-3.27-1.13,4,4,0,0,1,0-5.8,4.73,4.73,0,0,1,3.27-1.13,4.24,4.24,0,0,1,3,1.06,3.33,3.33,0,0,1,1.18,2.59.79.79,0,0,1-.24.67,1.64,1.64,0,0,1-1,.19Zm4.48-1.3a1.84,1.84,0,0,0-.73-1.19,2.49,2.49,0,0,0-1.52-.43,2.43,2.43,0,0,0-1.46.41,2.1,2.1,0,0,0-.77,1.21Z"/><path d="M1492.52,681.31V684h2a1.2,1.2,0,0,1,.8.21.87.87,0,0,1,.24.69.92.92,0,0,1-.24.71,1.2,1.2,0,0,1-.8.21h-4.64a1.23,1.23,0,0,1-.81-.21.92.92,0,0,1-.24-.71.91.91,0,0,1,.23-.69,1.26,1.26,0,0,1,.82-.21h.64v-4h-.36a1.23,1.23,0,0,1-.81-.21.93.93,0,0,1-.23-.7.92.92,0,0,1,.22-.7,1.23,1.23,0,0,1,.81-.21h1.77a.52.52,0,0,1,.35.1.31.31,0,0,1,.12.26v1.23a7,7,0,0,1,1.69-1.39,3.55,3.55,0,0,1,1.69-.41,2.08,2.08,0,0,1,1.31.37,1.17,1.17,0,0,1,.48,1,1,1,0,0,1-.33.79,1.21,1.21,0,0,1-.86.31,1.94,1.94,0,0,1-.88-.27,1.84,1.84,0,0,0-.71-.28,1.77,1.77,0,0,0-.94.36A9,9,0,0,0,1492.52,681.31Z"/><line class="cls-4" x1="970.41" y1="-11.61" x2="970.41" y2="747.85"/></svg>