<svg id="Layer_1" data-name="Layer 1" xmlns="http://www.w3.org/2000/svg" viewBox="0 0 1920 731.08"><defs><style>.cls-1{fill:#8fe9a0;}.cls-2{fill:#dd595f;}.cls-3{fill:#fff9e8;stroke-width:4.49px;}.cls-3,.cls-8{stroke:#000;stroke-miterlimit:10;}.cls-4{font-size:40.1px;font-family:Moche-Bold, Moche;}.cls-4,.cls-7{font-weight:700;}.cls-5{letter-spacing:-0.13em;}.cls-6{letter-spacing:-0.13em;}.cls-7{font-size:17px;font-family:Courier-Bold, Courier;}.cls-8{fill:none;stroke-width:3px;}</style></defs><rect class="cls-1" x="-0.94" width="971.35" height="731.08"/><rect class="cls-2" x="970.41" width="948.65" height="731.08"/><circle class="cls-3" cx="1261.85" cy="412.44" r="68.89"/><circle class="cls-3" cx="1359.22" cy="315.08" r="68.89"/><circle class="cls-3" cx="1395.84" cy="448.22" r="68.89"/><circle class="cls-3" cx="341.94" cy="379.77" r="68.89"/><circle class="cls-3" cx="439.31" cy="282.4" r="68.89"/><circle class="cls-3" cx="574.03" cy="316.17" r="68.89"/><circle class="cls-3" cx="613.08" cy="448.66" r="68.89"/><circle class="cls-3" cx="475.93" cy="415.55" r="68.89"/><circle class="cls-3" cx="1493.63" cy="350.36" r="68.89"/><circle class="cls-3" cx="1591" cy="252.99" r="68.89"/><circle class="cls-3" cx="1627.62" cy="386.14" r="68.89"/><g id="he9QYG"><path d="M341.93,362.7c3.05-.07,6-.17,8.86-.2,5.56,0,11.11-.08,16.66-.06,2.59,0,5.18.1,7.77.21a22.33,22.33,0,0,1,4,.38,7,7,0,0,1,5.09,4.54,10.73,10.73,0,0,1,.53,3.55c.08,1.16.11,2.33.13,3.5.06,2.87.14,5.73.12,8.6,0,1.89-.2,3.77-.27,5.66a8.81,8.81,0,0,1-.9,3.85,7.34,7.34,0,0,1-5.1,3.82,14.84,14.84,0,0,1-3,.22q-4.43.12-8.86.19-4.83.09-9.66.14c-1.53,0-3.07,0-4.61,0l-7.47-.21c-1.54-.05-3.09-.12-4.62-.23a6.4,6.4,0,0,1-3.09-1.1,7.26,7.26,0,0,1-3.4-5.63c-.16-1.72-.21-3.44-.26-5.17-.06-2.26-.12-4.52-.11-6.78,0-1.7.13-3.39.2-5.09,0-1,.11-1.94.14-2.9a7.33,7.33,0,0,1,1.91-4.78,7.13,7.13,0,0,1,4.64-2.37Zm18.48,5.07v23h3.17v-1.09a14.28,14.28,0,0,0,1.31.95,2.86,2.86,0,0,0,4.09-1.19,4.13,4.13,0,0,0,.36-1.54c0-3.88.05-7.77-.14-11.65a2.74,2.74,0,0,0-4-2.46,13.12,13.12,0,0,0-1.59,1.08v-7.11Zm20.56,15c-.07-2-.14-3.92-.22-5.85a3.86,3.86,0,0,0-.92-2.3c-1.32-1.65-4.48-1.82-6.25-.48a4.85,4.85,0,0,0-1.87,4.17c0,2.7,0,5.39,0,8.09a5.3,5.3,0,0,0,.89,3,4.33,4.33,0,0,0,4.28,1.74,3.93,3.93,0,0,0,3.18-1.74c1-1.52.87-3.23.81-4.94h-3.16c0,.89,0,1.73-.12,2.56s-.44,1.12-1.11,1.15c-.93,0-1.36-.22-1.44-1.06-.12-1.44-.13-2.89-.18-4.38Zm-23.63,8v-17h-3.1v.59c0,3.76,0,7.51,0,11.27a1.8,1.8,0,0,1-.92,1.7,3.66,3.66,0,0,1-.42.26c-.75.39-1.34,0-1.34-.79v-13h-3.16v.53q0,7,0,13.94a5.47,5.47,0,0,0,.17,1.27,2,2,0,0,0,2,1.53,3.18,3.18,0,0,0,1.94-.64c.57-.39,1.09-.86,1.66-1.32v1.71Zm-12.44,0V371.34h3.58v-3.6H337.75v3.62h3.62v19.42Z"/><path d="M310.42,382.31v-4.52a3.85,3.85,0,0,1,3.07-4,5,5,0,0,1,3.85.41,3.71,3.71,0,0,1,2,3c.13,1.31.11,2.63.12,3.95,0,1.84,0,3.67,0,5.51a4.19,4.19,0,0,1-4.32,4.52,4.76,4.76,0,0,1-3.11-.91,3.93,3.93,0,0,1-1.44-2.46,12.81,12.81,0,0,1-.12-2.06C310.41,384.62,310.42,383.46,310.42,382.31Zm5.81.05h0V377.5a1,1,0,0,0-.09-.37,1.52,1.52,0,0,0-1.7-.62,1.08,1.08,0,0,0-.87,1.16c0,3.2,0,6.41,0,9.61a1.08,1.08,0,0,0,1.25,1.08,1.27,1.27,0,0,0,1.37-1.19Z"/><path d="M298.78,368c1.09,0,2.13,0,3.17,0a.61.61,0,0,1,.39.38c.7,2.77,1.38,5.54,2.08,8.32a3.47,3.47,0,0,0,.2.5h.16c.13-.54.28-1.08.4-1.62.44-1.88.87-3.75,1.32-5.62a14.13,14.13,0,0,1,.44-1.61.6.6,0,0,1,.42-.34c1,0,2,0,3.13,0-.3,1-.6,1.89-.88,2.83-.8,2.65-1.59,5.31-2.39,8a6.39,6.39,0,0,1-.31.83c-.66,1.44-.47,3-.48,4.48,0,2,0,4,0,6v.59h-3.2c-.35,0-.29-.26-.29-.46v-5a28.8,28.8,0,0,0,0-3.22,17.23,17.23,0,0,0-.7-2.81c-.71-2.39-1.43-4.76-2.15-7.14C299.65,370.78,299.22,369.44,298.78,368Z"/><path d="M327.87,374.06h3V390.7h-3V389a17.25,17.25,0,0,1-1.82,1.45,2.69,2.69,0,0,1-3,.15,1.67,1.67,0,0,1-.62-.77,5.66,5.66,0,0,1-.3-1.63c0-4.66,0-9.33,0-14,0-.05,0-.09,0-.18h3c0,.17,0,.35,0,.52V386.1c0,.33,0,.66,0,1,0,.86.6,1.21,1.36.79a5.82,5.82,0,0,0,1.09-.83.76.76,0,0,0,.19-.51q0-6,0-12.06C327.84,374.35,327.86,374.22,327.87,374.06Z"/><path d="M366.12,382.55V387c0,.72-.24,1.15-.7,1.29a1.84,1.84,0,0,1-1.77-.63.85.85,0,0,1-.07-.43v-9.66a1.07,1.07,0,0,1,.9-1.07,1.12,1.12,0,0,1,1.38.49,2.89,2.89,0,0,1,.25,1.09C366.13,379.57,366.12,381.06,366.12,382.55Z"/><path d="M374.86,379.88c.07-.85.1-1.69.23-2.51a1,1,0,0,1,1.16-.85c.73,0,1.15.22,1.26.85.15.82.17,1.65.24,2.51Z"/></g><text class="cls-4" transform="translate(46.69 58.06)"><tspan class="cls-5">P</tspan><tspan x="25.63" y="0">ASS</tspan></text><text class="cls-4" transform="translate(1018.52 66.47)"><tspan class="cls-6">F</tspan><tspan x="23.54" y="0">AIL</tspan></text><g id="j9Cxd5"><path d="M439,313.81c-3.31,0-6.62,0-9.93,0a37.53,37.53,0,0,1-8.19-.78,16.22,16.22,0,0,1-10.71-7.83,18.47,18.47,0,0,1-2.28-7.2,103.69,103.69,0,0,1-.4-11.56c0-4.24,0-8.48,0-12.71a50.91,50.91,0,0,1,.53-8.09A16.6,16.6,0,0,1,415.37,254a16.82,16.82,0,0,1,7.94-2.7c3.33-.25,6.67-.36,10-.4,4.86-.06,9.73,0,14.59,0a45.3,45.3,0,0,1,8.3.62,16.35,16.35,0,0,1,11.59,8.11,19,19,0,0,1,2.3,7.89c.37,4.24.32,8.5.32,12.75,0,3.94,0,7.87-.06,11.8a37.2,37.2,0,0,1-.75,8.15c-1.59,6.61-5.64,10.86-12.22,12.66a29,29,0,0,1-7.08.83c-3.78.07-7.56.11-11.35.17Zm-.09-5.56v-.12c3.28,0,6.56,0,9.84,0a31.58,31.58,0,0,0,6.79-.58,10.62,10.62,0,0,0,8.55-8.39,34.74,34.74,0,0,0,.65-7.75c.06-5.16.05-10.33,0-15.49a62.54,62.54,0,0,0-.46-9.18,10.82,10.82,0,0,0-8.94-9.55,38.17,38.17,0,0,0-7.39-.57c-4.41-.06-8.82-.05-13.22,0a93.18,93.18,0,0,0-10.83.38,12.27,12.27,0,0,0-5.59,1.93,10.92,10.92,0,0,0-4.61,7.26,36.68,36.68,0,0,0-.51,6.94c0,6.67,0,13.34,0,20a27.31,27.31,0,0,0,.54,5.84,10.53,10.53,0,0,0,6.94,8.13,19.08,19.08,0,0,0,6.18,1C430.88,308.14,434.87,308.19,438.87,308.25Z"/><path d="M455.1,282.36a16.17,16.17,0,1,1-16.28-16.15A16.23,16.23,0,0,1,455.1,282.36Zm-16.17,10.51a10.49,10.49,0,1,0-10.49-10.35A10.54,10.54,0,0,0,438.93,292.87Z"/><path d="M452,265.54a3.78,3.78,0,0,1,7.55,0,3.78,3.78,0,1,1-7.55,0Z"/></g><g id="BJ4bEr.tif"><path d="M487.46,445.79v-23.4l.73,0c2,0,4.09,0,6.13,0,.7,0,1-.13,1.05-.89.29-2.62.67-5.23,1-7.85,0-.11,0-.22,0-.41h-8.91c0-.27-.05-.47-.05-.67,0-1.69,0-3.39,0-5.09a9.8,9.8,0,0,1,.16-1.71,2.84,2.84,0,0,1,2.76-2.62c1.7-.16,3.43-.12,5.15-.17h1.23v-7.57c0-.29.08-.62-.38-.66a36.61,36.61,0,0,0-9.47,0,10.28,10.28,0,0,0-8.76,9.6c-.2,2.71-.11,5.45-.16,8.18v.7h-7.82v9.16h7.78v23.38a4.6,4.6,0,0,1-.52.06c-6.82,0-13.63,0-20.45,0a11.26,11.26,0,0,1-11-8.8,10.64,10.64,0,0,1-.26-2.25c0-12.78,0-25.56,0-38.35a11.14,11.14,0,0,1,8.83-10.8,13.09,13.09,0,0,1,2.8-.25q18.58,0,37.17,0a11.28,11.28,0,0,1,11.29,8.58,12.54,12.54,0,0,1,.33,2.93q0,18.72,0,37.45a11.27,11.27,0,0,1-9.32,11.32,19.46,19.46,0,0,1-3.15.19c-1.81,0-3.62,0-5.44,0Z"/></g><g id="jomKMa.tif"><path d="M573.07,281.65h3.11a8.83,8.83,0,0,0,1,.16,31.13,31.13,0,0,1,11.46,2.92,33.6,33.6,0,0,1-27.14,61.46c-1.08-.47-2.12-1.32-3.21-1.37s-2.29.64-3.44,1l-15.1,4.85v-.17a1,1,0,0,0,.19-.27c1.87-5.55,3.71-11.11,5.61-16.66a2,2,0,0,0-.14-1.76c-5.6-10.39-6-21-.76-31.58,4.89-9.81,13-15.75,23.73-17.94C569.93,282,571.51,281.86,573.07,281.65ZM548.53,342l.87-.21c3-1,6.08-1.92,9.11-2.92a1.57,1.57,0,0,1,1.44.19c9.84,5.68,19.75,5.78,29.51-.08a28,28,0,1,0-37.91-8,1.38,1.38,0,0,1,.19,1.42c-.49,1.29-.89,2.61-1.33,3.92C549.8,338.17,549.2,340,548.53,342Z"/><path d="M564.18,298.91c.39,0,.71.06,1,0a1.52,1.52,0,0,1,1.59,1.08c.93,2.42,1.85,4.83,2.7,7.27a1.64,1.64,0,0,1-.2,1.29,20.59,20.59,0,0,1-2.15,2.67,1.52,1.52,0,0,0-.28,2.07,23.58,23.58,0,0,0,11.33,10.43,1.39,1.39,0,0,0,1.84-.4c.88-1,1.8-2,2.66-3.06a1.28,1.28,0,0,1,1.72-.49q3.6,1.86,7.18,3.75c.62.33.58.94.53,1.52-.35,3.71-2.18,5.62-6.41,6.75-2.76.74-5.18-.42-7.67-1.3-7.38-2.59-12.57-7.74-16.69-14.17a20.23,20.23,0,0,1-3.27-7.25,9.68,9.68,0,0,1,3.27-9.47A3.31,3.31,0,0,1,564.18,298.91Z"/></g><g id="Gi8Me7"><path d="M608.68,436.66H619.6v4.22l.28.1c.41-.49.79-1,1.22-1.46,3.63-3.89,9.74-5.12,15.2-3a12.34,12.34,0,0,1,7.7,11.66c.08,8.13.06,16.25.08,24.38,0,.28,0,.55-.06.91H632.8c0-2.51,0-5,0-7.52,0-4.45-.08-8.9-.18-13.36-.1-4.17-2.41-6.64-6.08-6.63a6.38,6.38,0,0,0-6.75,6.65c-.12,6.48-.16,12.95-.24,19.43v1.42H608.68Z"/><path d="M590,436.67h11.22V473.4H590Z"/><path d="M602.24,425a6.7,6.7,0,0,1-6.76,6.74,6.79,6.79,0,0,1,0-13.57A6.61,6.61,0,0,1,602.24,425Z"/></g><g id="v8VwRN.tif"><path d="M1316.35,303.48c1.11,0,2.21,0,3.32,0a.43.43,0,0,1,.49.35c1.44,4.12,2.9,8.23,4.35,12.35a.82.82,0,0,0,.19.32v-13h3.5v21.78l-1.65.18c-.67.07-1.35.13-2,.22-.24,0-.34-.05-.42-.28-1.33-3.79-2.67-7.56-4-11.34a1.4,1.4,0,0,0-.2-.38v12.53l-2,.27c-.4,0-.81.13-1.21.2h-.34Z"/><path d="M1401.82,326.68l-2.14-.33c-.37-.05-.73-.11-1.1-.13a.47.47,0,0,1-.47-.37c-.73-2.11-1.48-4.22-2.23-6.33l-.15-.38-.16.38c-.77,1.9-1.55,3.8-2.31,5.7a.43.43,0,0,1-.54.32c-.92-.11-1.84-.2-2.76-.29l-.43-.06.21-.52q2.07-5.1,4.13-10.19a.92.92,0,0,0,0-.59c-1.17-3.36-2.36-6.7-3.54-10.05,0-.11-.07-.21-.11-.34h3.66l2.06,5.83.18-.39,2.08-5.14a.42.42,0,0,1,.48-.32h3.37c0,.14-.08.25-.12.35L1397.83,314a.92.92,0,0,0,0,.54q2.13,6,4.27,12.09a1,1,0,0,0,0,.1Z"/><path d="M1332.2,303.5h8.71v3.33h-5v5.67h4.35v3.37h-4.36v5.37l5-.33v3.36l-8.71.63Z"/><path d="M1358.56,303.5h8.7v3.34h-5v5.66h4.33v3.37h-4.36v7.87h-3.66Z"/><path d="M1351.55,323.84l-3.66.11V306.87h-3.4V303.5H1355v3.34h-3.4Z"/><path d="M1374.53,320.75l5.06.28v3.36l-8.71-.44V303.5h3.65Z"/><path d="M1383.09,303.5h3.65v21.44l-2.08-.16c-.41,0-.82-.09-1.23-.1s-.35-.11-.35-.38q0-4.85,0-9.69V303.5Z"/></g><g id="_0MqMqr.tif" data-name="0MqMqr.tif"><path d="M1285.08,427.94h-2.26a1.77,1.77,0,0,0-.31-.08,15.37,15.37,0,0,1-12.74-9.14c-.07-.14-.13-.28-.22-.48-.07.86-.1,1.64-.19,2.42a7.58,7.58,0,0,1-7.84,6.91h-13.4V397.28l.39,0h12.28a11.24,11.24,0,0,1,4.39.91,7,7,0,0,1,4.5,5.14,22,22,0,0,1,.23,2.47,3,3,0,0,0,.22-.39,15.53,15.53,0,0,1,28.89,3.35c.2.85.31,1.72.46,2.58v2.25a3,3,0,0,0-.08.41,15.49,15.49,0,0,1-11.29,13.39C1287.12,427.63,1286.09,427.75,1285.08,427.94Zm6.55-15.5a7.67,7.67,0,1,0-7.7,7.66A7.67,7.67,0,0,0,1291.63,412.44Zm-36,8h3.84a2.15,2.15,0,0,0,2.37-2.3,2,2,0,0,0-2.23-2.34c-1,.05-2,0-3,0h-1Zm0-15.8v4.58c1.48,0,2.92,0,4.36,0a1.79,1.79,0,0,0,1.5-1,2.85,2.85,0,0,0,.11-2.53,1.61,1.61,0,0,0-1.52-1C1258.62,404.63,1257.15,404.65,1255.64,404.65Zm12.87,5.55a5.19,5.19,0,0,1-3.27,2,6,6,0,0,1,3.27,2.45Z"/><path d="M1246.28,427.55h-8.34V416.4h-5.36v11.15h-8.36V397.29h8.34v11.37h5.34V397.29h8.38Z"/><path d="M1290.19,412.42a6.24,6.24,0,1,1-6.26-6.21A6.21,6.21,0,0,1,1290.19,412.42Z"/></g><g id="J9JHVB.tif"><path d="M1513.1,324.72h1.67l.27,0a11.54,11.54,0,0,1,2.41.39,7.13,7.13,0,0,1,4.51,3.59,9.79,9.79,0,0,1,.88,2.35,14.55,14.55,0,0,1,.44,3.66c0,.11,0,.22,0,.33v1a3.13,3.13,0,0,0,0,.44,12,12,0,0,1-.28,2.38,26.06,26.06,0,0,1-1.61,5.1,55,55,0,0,1-4.31,8,115.63,115.63,0,0,1-7.22,9.95,71.25,71.25,0,0,1-5.84,6.56,38,38,0,0,1-5.17,4.39,19,19,0,0,1-4.51,2.4,11,11,0,0,1-2.51.61l-.73.09h-.81l-.13,0a5.78,5.78,0,0,1-2.94-1.17,10.52,10.52,0,0,1-2.46-2.65,23,23,0,0,1-2.2-4.12,14.71,14.71,0,0,1-.7-1.81c-1.45-5.26-2.87-10.52-4.31-15.78-.52-1.91-1-3.82-1.75-5.67a18.65,18.65,0,0,0-1.57-3.32,6.57,6.57,0,0,0-1.28-1.55,2.75,2.75,0,0,0-1-.55,1.31,1.31,0,0,0-1.06.05c-.31.18-.65.33-1,.52-1,.65-2,1.32-3,2l-.22.14-2.79-3.59.23-.2c2.46-2.2,4.93-4.38,7.38-6.58a51,51,0,0,1,4.63-3.79,20.48,20.48,0,0,1,3.23-1.91,6.68,6.68,0,0,1,3.89-.52,5.94,5.94,0,0,1,3.74,2.07,10.19,10.19,0,0,1,1.69,2.88,21.35,21.35,0,0,1,1.18,4.59c.23,1.42.45,2.84.69,4.26s.52,3.11.79,4.66.55,3.07.91,4.59.72,3.08,1.23,4.58a15,15,0,0,0,1.23,2.85,4.42,4.42,0,0,0,.84,1.08,1.51,1.51,0,0,0,1.3.45,2,2,0,0,0,.77-.31,6.49,6.49,0,0,0,1.22-1,16.46,16.46,0,0,0,1.53-1.81,49.05,49.05,0,0,0,3.55-5.57,24.73,24.73,0,0,0,1.65-3.49,9.2,9.2,0,0,0,.64-4.4,4.36,4.36,0,0,0-.35-1.33,3.11,3.11,0,0,0-2.31-1.75,7.7,7.7,0,0,0-2.79,0,11.79,11.79,0,0,0-2.72.74l-.2.06c0-.12,0-.21.08-.3a28.72,28.72,0,0,1,1.59-4,19.74,19.74,0,0,1,3.55-5.17,14.19,14.19,0,0,1,9.15-4.24Z"/></g><path d="M1559.22,252.17c-.07-8.74,2-15.49,6.32-21.49a33.53,33.53,0,0,1,19.17-13.06,33,33,0,0,1,7.78-1.07,33.91,33.91,0,0,1,20.82,6.29A32.73,32.73,0,0,1,1627,244.16a33.53,33.53,0,0,1-2.8,21.32,32.26,32.26,0,0,1-21.36,17.78c-10.25,2.77-20,1.36-28.91-4.58a32.39,32.39,0,0,1-13.63-19.47A31.71,31.71,0,0,1,1559.22,252.17Zm32.59,7.14c.24.2.45.36.63.54a8.1,8.1,0,0,0,7.31,2.11,12.42,12.42,0,0,0,8.53-5.5,18.55,18.55,0,0,0,3.15-8.51,14.21,14.21,0,0,0,0-5.28c-1.35-5.55-4.48-9.55-10.09-11.31a19,19,0,0,0-15,1.09,16.46,16.46,0,0,0-7.26,6.87,14.65,14.65,0,0,0-1.08,10.94,7.82,7.82,0,0,0,4.38,5.35,1.29,1.29,0,0,0,2-.67,3.6,3.6,0,0,0-.13-3.79,8.47,8.47,0,0,1-1.33-5.33c.18-5.26,4.44-9.15,8-10.23a13.73,13.73,0,0,1,7.65,0,7.94,7.94,0,0,1,6.2,6.62,17.19,17.19,0,0,1,.08,4.91,15.36,15.36,0,0,1-2.79,7.63,5.19,5.19,0,0,1-6.06,2.08,3,3,0,0,1-2.21-4c.52-1.9,1-3.81,1.51-5.71a10.74,10.74,0,0,0,.38-4.4,2.9,2.9,0,0,0-2.23-2.49,4.52,4.52,0,0,0-5,2,9.28,9.28,0,0,0-.76,7.61,3.13,3.13,0,0,1,.1,1.39c-1,4.2-1.93,8.4-3,12.58a20.25,20.25,0,0,0-.13,9.32,4,4,0,0,0,.52,1l.19,0c.79-1,1.63-1.92,2.34-2.94a23.38,23.38,0,0,0,3.28-8C1591.26,261.92,1591.51,260.65,1591.81,259.31Z"/><g id="F2BwwP"><path d="M1601.54,404.51A24.38,24.38,0,0,0,1619,399.6a12.34,12.34,0,0,1-11.17-8.39,13.3,13.3,0,0,0,5.28-.23,12.19,12.19,0,0,1-6.85-4.31,11.72,11.72,0,0,1-2.58-7.6,12.78,12.78,0,0,0,5.29,1.45,12.12,12.12,0,0,1-4.91-7.36,11.91,11.91,0,0,1,1.34-8.63,34.37,34.37,0,0,0,24.68,12.55l-.16-1.28a12,12,0,0,1,20.21-10.16,1.1,1.1,0,0,0,1.19.33,25.11,25.11,0,0,0,6.27-2.41l.66-.33a12.72,12.72,0,0,1-4.81,6.45,21.09,21.09,0,0,0,6.43-1.73c-.24.37-.38.59-.53.8a25.48,25.48,0,0,1-5,5.12,1.18,1.18,0,0,0-.44.78,34.18,34.18,0,0,1-3.51,16.13C1646,399.83,1639,406,1629.2,408.66a34.07,34.07,0,0,1-26.89-3.55l-.66-.41S1601.61,404.63,1601.54,404.51Z"/></g><g id="b5FQOU.tif"><path d="M1355.45,448.55c.16-.71.29-1.43.49-2.14a11.49,11.49,0,0,1,10.6-8.35,10.59,10.59,0,0,1,6.33,1.76c2.77-1.13,5.33-2.3,8-3.24a39.08,39.08,0,0,1,10.76-2,.92.92,0,0,0,.94-.76q2.67-7.74,5.38-15.48c.1-.28.21-.56.33-.88l8.49,2c1.21.29,2.43.55,3.63.88a.78.78,0,0,0,1-.38,8.51,8.51,0,0,1,8.68-3.58,8.87,8.87,0,1,1-5.26,16.78,8.49,8.49,0,0,1-5.12-8.32c0-.18,0-.35,0-.59l-8.86-2.13c-1.42,4.09-2.85,8.17-4.29,12.29,1.71.18,3.35.31,5,.53a40,40,0,0,1,14.07,4.56,1.16,1.16,0,0,0,1.31,0,11.27,11.27,0,0,1,16.62,8.46,11.63,11.63,0,0,1-4.65,11.5,1.38,1.38,0,0,0-.5.78,19.55,19.55,0,0,1-5,10.42,32.1,32.1,0,0,1-13.77,8.72,43.05,43.05,0,0,1-13,2.35,6.5,6.5,0,0,0-.75.12h-2a7.9,7.9,0,0,0-.83-.12,42.76,42.76,0,0,1-9.28-1.27c-6.64-1.67-12.62-4.56-17.34-9.67a19.26,19.26,0,0,1-5-9.85,2,2,0,0,0-1-1.5,9.53,9.53,0,0,1-3.5-4.05,43.41,43.41,0,0,1-1.42-4.4Zm39.2,29.29a41.06,41.06,0,0,0,16.55-3.31,25.16,25.16,0,0,0,10.65-8.27,14,14,0,0,0,0-16.28,25.21,25.21,0,0,0-11-8.44,40.87,40.87,0,0,0-17.89-3.1,38.54,38.54,0,0,0-16.77,4.28c-4.06,2.14-7.53,5-9.65,9.15a13.15,13.15,0,0,0,0,12.52c2.13,4.18,5.6,7,9.66,9.13A39.65,39.65,0,0,0,1394.65,477.84Zm19-52.69a4.93,4.93,0,1,0,4.94-5A5,5,0,0,0,1413.62,425.15ZM1361.36,455c1.07-5.23,4-9.16,8-12.46a7.08,7.08,0,0,0-8.56,2.78A8,8,0,0,0,1361.36,455Zm66.72-.43a7.9,7.9,0,0,0-.45-10.1c-1.92-2.21-5.2-3.12-7.29-2.08,1.57,1.79,3.26,3.55,4.75,5.46A17,17,0,0,1,1428.08,454.58Z"/><path d="M1394.52,473.16a22.74,22.74,0,0,1-12.53-3.92,2,2,0,0,1-.69-2.9,2,2,0,0,1,2.91-.36c6.27,4.15,12.68,4.25,19.21.62.48-.27.95-.58,1.45-.83a2,2,0,0,1,2.09,3.31,22.87,22.87,0,0,1-10.22,3.9C1396,473.07,1395.17,473.11,1394.52,473.16Z"/><path d="M1388.16,454.09a5.27,5.27,0,0,1-5.2,5.29,5.26,5.26,0,1,1-.06-10.52A5.25,5.25,0,0,1,1388.16,454.09Z"/><path d="M1400.33,454.1a5.26,5.26,0,0,1,10.52,0,5.33,5.33,0,0,1-5.31,5.28A5.27,5.27,0,0,1,1400.33,454.1Z"/></g><text class="cls-7" transform="translate(47.9 685.82)">Instagram, YouTube, Facebook, WhatsApp, LinkedIn</text><text class="cls-7" transform="translate(1018.52 685.82)">Netflix, HBO, Reddit, Vimeo, Pinterest, Twitter</text><line class="cls-8" x1="970.41" y1="-11.61" x2="970.41" y2="747.85"/></svg>