<svg id="Layer_1" data-name="Layer 1" xmlns="http://www.w3.org/2000/svg" viewBox="0 0 1920 974.83"><defs><style>.cls-1{fill:#76a0dd;}.cls-16,.cls-2,.cls-3,.cls-6{font-size:17px;}.cls-16,.cls-2,.cls-3,.cls-6,.cls-9{font-family:Moche-Bold, Moche;font-weight:700;}.cls-2,.cls-5{letter-spacing:0.1em;}.cls-16,.cls-3,.cls-7{letter-spacing:0.1em;}.cls-4{letter-spacing:0.08em;}.cls-16,.cls-8{fill:#fff9e8;}.cls-11,.cls-14,.cls-15,.cls-8{stroke:#000;stroke-miterlimit:10;}.cls-8{stroke-width:4px;}.cls-9{font-size:19px;letter-spacing:0.1em;}.cls-10{letter-spacing:0.08em;}.cls-11,.cls-14{fill:none;}.cls-11,.cls-15{stroke-width:3.2px;}.cls-12,.cls-13{font-size:19.2px;font-family:Moche-Regular, Moche;}.cls-12{letter-spacing:0.1em;}.cls-13{letter-spacing:0.1em;}.cls-15{fill:#fbb784;}</style></defs><rect class="cls-1" width="1920" height="974.83"/><text class="cls-2" transform="translate(341.44 820.15)">TikTok</text><text class="cls-3" transform="translate(479.79 820.15)">Reddit</text><text class="cls-3" transform="translate(607.34 820.15)">Pi<tspan class="cls-4" x="22.05" y="0">n</tspan><tspan class="cls-5" x="36.38" y="0">terest</tspan></text><text class="cls-3" transform="translate(747.61 820.15)">Snapch<tspan class="cls-4" x="83.79" y="0">a</tspan><tspan class="cls-5" x="97.19" y="0">t</tspan></text><text class="cls-3" transform="translate(886.89 820.15)">Instagram</text><text class="cls-2" transform="translate(1044.2 820.15)">Twitch</text><text class="cls-2" transform="translate(1179.49 820.15)">Twitter</text><text class="cls-2" transform="translate(1312.14 820.15)">Linkedin</text><text class="cls-3" transform="translate(1450.72 820.15)">Facebook</text><text class="cls-6" transform="translate(1597.88 820.15)">Y<tspan class="cls-7" x="11.95" y="0">outube</tspan></text><path class="cls-8" d="M1630.82,397.55l-24.63-6.81-9.67,23.65-21.88-13.19L1559,421.36l-17.51-18.61-20.55,15.18-11.84-22.64-23.89,9.07-5.29-25-25.45,2.3,1.65-25.5L1431,351.5l8.47-24.11-22.94-11.26,14.66-20.93-19-17,19.76-16.2-13.75-21.54,23.41-10.27-7.43-24.45,25.3-3.57-.55-25.54,25.33,3.38,6.36-24.74L1514,165.33l12.81-22.11,19.88,16.05L1565,141.43l14.81,20.82L1602.22,150l8.64,24.05,24.9-5.74,1.84,25.49,25.52,1.19L1658,220l24.26,8L1670.6,250.8l21.19,14.28-17.38,18.74L1691,303.29l-21.78,13.35,10.68,23.22-24.58,7,4,25.23-25.56.09Z"/><text class="cls-9" transform="translate(1507.64 225.3)">Carbon <tspan x="-14.83" y="24">impact in </tspan><tspan x="-38.65" y="48">grams of CO2 </tspan><tspan x="-21.75" y="72">equivale</tspan><tspan class="cls-10" x="84.92" y="72">n</tspan><tspan x="100.94" y="72">t </tspan><tspan x="-26.77" y="96">(gCO2e) per </tspan><tspan x="1.04" y="120">minute</tspan></text><line class="cls-11" x1="277.68" y1="754.64" x2="1716.33" y2="754.64"/><text class="cls-12" transform="translate(253.54 666.04)">1</text><text class="cls-13" transform="translate(248.72 558.53)">2</text><text class="cls-12" transform="translate(248.68 451.03)">3</text><text class="cls-12" transform="translate(248.68 343.53)">4</text><text class="cls-12" transform="translate(247.68 236.02)">5</text><line class="cls-11" x1="278.79" y1="754.64" x2="278.79" y2="217.12"/><line class="cls-14" x1="277.68" y1="754.64" x2="454.02" y2="754.64"/><line class="cls-11" x1="278.79" y1="647.14" x2="308.02" y2="647.14"/><line class="cls-11" x1="278.79" y1="539.64" x2="308.02" y2="539.64"/><line class="cls-11" x1="278.79" y1="432.13" x2="308.02" y2="432.13"/><line class="cls-11" x1="278.79" y1="324.63" x2="308.02" y2="324.63"/><line class="cls-11" x1="278.79" y1="217.12" x2="308.02" y2="217.12"/><rect class="cls-15" x="1619.51" y="683.69" width="42.08" height="70.95"/><rect class="cls-15" x="1479.23" y="676.17" width="42.08" height="78.48"/><rect class="cls-15" x="1338.95" y="674.02" width="42.08" height="80.63"/><rect class="cls-15" x="1198.67" y="665.42" width="42.08" height="89.23"/><rect class="cls-15" x="1058.39" y="637.47" width="42.08" height="117.18"/><rect class="cls-15" x="918.11" y="549.31" width="42.08" height="205.33"/><rect class="cls-15" x="777.83" y="536.41" width="42.08" height="218.23"/><rect class="cls-15" x="637.55" y="375.16" width="42.08" height="379.49"/><rect class="cls-15" x="497.27" y="266.58" width="42.08" height="488.07"/><rect class="cls-15" x="356.99" y="224.65" width="42.08" height="530"/><text class="cls-16" transform="translate(353.32 207.88)">4.93</text><text class="cls-16" transform="translate(493.29 252.99)">4.54</text><text class="cls-16" transform="translate(636.06 364.02)">3.53</text><text class="cls-16" transform="translate(778.06 524.19)">2.03</text><text class="cls-16" transform="translate(922.84 536.57)">1.91</text><text class="cls-16" transform="translate(1055.82 623.7)">1.09</text><text class="cls-16" transform="translate(1196.54 651.89)">0.83</text><text class="cls-16" transform="translate(1337.58 660.14)">0.75</text><text class="cls-16" transform="translate(1478.61 665.14)">0.73</text><text class="cls-16" transform="translate(1617.01 672.97)">0.66</text></svg>