<svg id="Layer_1" data-name="Layer 1" xmlns="http://www.w3.org/2000/svg" viewBox="0 0 1920 974.83"><defs><style>.cls-1{fill:#76a0dd;}.cls-2,.cls-7{fill:#fff9e8;}.cls-2,.cls-3,.cls-5,.cls-6{stroke:#000;stroke-miterlimit:10;}.cls-2{stroke-width:4px;}.cls-3,.cls-5{fill:none;}.cls-3,.cls-6{stroke-width:3.2px;}.cls-4{font-size:19.2px;font-family:Courier-Bold, Courier;font-weight:700;letter-spacing:0.1em;}.cls-6{fill:#fbb784;}</style></defs><rect class="cls-1" width="1920" height="974.83"/><path d="M346.46,815.9l-.34-4h-4.34l-.17-2.78h11.44l-.17,2.78h-4.32l-.34,4,.87,4.25-1.75,0-1.75,0Z"/><path d="M355.94,807l1.8.05,1.74-.05v2.86h-3.54Zm.89,8.88-.87-4.24,1.75.05,1.75-.05-.87,4.24.87,4.23-1.75,0-1.75,0Z"/><path d="M372.26,820.15h-3.13l-1.73-4-1.34.94.66,3.11-1.75,0-1.75,0,.86-4.23-.86-7.65,1.75.05,1.75-.05-.77,6.66,4.63-4.16.85,1.54.9,1.31-3.55,1.67,3.48,4.47Z"/><path d="M378.7,815.9l-.34-4H374l-.17-2.78H385.3l-.17,2.78h-4.32l-.34,4,.87,4.25-1.75,0-1.75,0Z"/><path d="M387.68,815.93c0-2.58,2-4.48,5.22-4.48s5.2,1.9,5.2,4.48c0,2.84-2.12,4.49-5.2,4.49S387.68,818.77,387.68,815.93Zm8.6.09c0-.84-1-1.77-3.38-1.77s-3.4.93-3.4,1.77,1.29,1.6,3.38,1.6S396.28,817,396.28,816Z"/><path d="M410.37,820.15h-3.12l-1.74-4-1.34.94.66,3.11-1.75,0-1.75,0,.87-4.23-.87-7.65,1.75.05,1.75-.05-.76,6.66,4.62-4.16.85,1.54.9,1.31-3.55,1.67,3.48,4.47Z"/><path d="M492.23,820.15h-3.46l-1.89-3.82h-3.65l1.08,3.82-2.09,0-1.41,0,.53-4.25-.53-6.78,2.79,0,4.27,0c3.09,0,4.48.93,4.48,3.47,0,2.27-1.05,3.43-3.38,3.68l3.26,3.49Zm-8.78-8.24-.22,2.7h4.64c1.8,0,2.61-.56,2.61-1.38s-.83-1.32-2.63-1.32Z"/><path d="M505,819.5a10.74,10.74,0,0,1-4.38.92c-3.2,0-5.55-1.44-5.55-4.37,0-2.65,2-4.6,5.22-4.6,2.52,0,4.73,1.14,4.73,4a8.38,8.38,0,0,1-.1,1.26l-8,0c0,1,1.74,1.32,3.3,1.32a9,9,0,0,0,4.06-.85Zm-1.75-4c0-1.07-1.22-1.79-3.09-1.79s-3.22.72-3.22,1.79Z"/><path d="M517.34,808.32l1.75,0-.86,7.64.86,4.23-1.75,0-1.07,0,.09-1.79a5.12,5.12,0,0,1-4.15,2.06,4.55,4.55,0,0,1-4.47-4.5,4.61,4.61,0,0,1,4.59-4.47,5.46,5.46,0,0,1,3.75,1.58l-.49-4.76Zm-4.28,9.25a5.64,5.64,0,0,0,3.38-1v-.15l-.12-1.17a5.59,5.59,0,0,0-3.29-1c-1.94,0-3.44.73-3.44,1.68S511.09,817.57,513.06,817.57Z"/><path d="M531.93,808.32l1.75,0-.87,7.64.87,4.23-1.75,0-1.07,0,.08-1.79a5.11,5.11,0,0,1-4.14,2.06,4.55,4.55,0,0,1-4.48-4.5,4.62,4.62,0,0,1,4.59-4.47,5.5,5.5,0,0,1,3.76,1.58l-.49-4.76Zm-4.28,9.25a5.66,5.66,0,0,0,3.38-1v-.15l-.12-1.17a5.64,5.64,0,0,0-3.3-1c-1.94,0-3.43.73-3.43,1.68S525.67,817.57,527.65,817.57Z"/><path d="M537.42,807l1.8.05L541,807v2.86h-3.54Zm.88,8.88-.86-4.24,1.75.06,1.75-.06-.87,4.24.87,4.23-1.75,0-1.75,0Z"/><path d="M550,817.55a5.64,5.64,0,0,0,1.68-.29l.27,2.57a8.56,8.56,0,0,1-3.19.59c-3,0-3.35-1.38-3-2.82l.43-1.68v-2h-2l.08-1.07-.07-1.16h1.65l-.69-3,1.83,0,1.74,0-.63,3h3l-.07,1.14.05,1.09h-3.33v2C547.74,817,548.69,817.55,550,817.55Z"/><path d="M610.77,816.32l1.09,3.83-2.09,0-1.41,0,.53-4.25-.53-6.78,2.79,0,4.26,0c3.1,0,4.49.93,4.49,3.46s-1.39,3.74-4.49,3.74Zm.22-4.42-.22,2.71h4.64c1.81,0,2.62-.56,2.62-1.38s-.83-1.33-2.63-1.33Z"/><path d="M623.13,807l1.8.05,1.74-.05v2.86h-3.54Zm.89,8.88-.87-4.24,1.75.05,1.75-.05-.87,4.24.87,4.23-1.75,0-1.75,0Z"/><path d="M631.28,815.92l-.87-4.24,1.75.05,1.75-.05-.37,1.58a5.57,5.57,0,0,1,4.08-1.81c1.9,0,3.8,1,3.26,3.12l-.36,1.35.82,4.23-1.68,0-1.69,0,.84-4.23c.18-1-.65-1.67-2.11-1.67a6.67,6.67,0,0,0-3.64,1.21l.85,4.69-1.75,0-1.75,0Z"/><path d="M650,817.55a5.64,5.64,0,0,0,1.68-.29l.27,2.57a8.56,8.56,0,0,1-3.19.59c-3,0-3.35-1.38-3-2.82l.42-1.68v-2h-2l.08-1.07-.06-1.16h1.65l-.7-3,1.83,0,1.74,0-.63,3h3l-.07,1.14.05,1.09h-3.33v2C647.78,817,648.73,817.55,650,817.55Z"/><path d="M664.27,819.5a10.74,10.74,0,0,1-4.38.92c-3.2,0-5.55-1.44-5.55-4.37,0-2.65,2-4.6,5.22-4.6,2.52,0,4.73,1.13,4.73,4a9.94,9.94,0,0,1-.1,1.26l-8,0c0,1,1.74,1.32,3.3,1.32a9,9,0,0,0,4.06-.85Zm-1.75-4c0-1.07-1.22-1.79-3.09-1.79s-3.22.72-3.22,1.79Z"/><path d="M668.39,815.92l-.87-4.24,1.75.05,1.07-.05-.1,2a5.56,5.56,0,0,1,4-2.23v2.82c-.14,0-.29,0-.46,0a6.67,6.67,0,0,0-3.64,1.21l.85,4.69-1.75,0-1.75,0Z"/><path d="M686.74,819.5a10.71,10.71,0,0,1-4.38.92c-3.2,0-5.54-1.44-5.54-4.37,0-2.65,2-4.6,5.22-4.6,2.51,0,4.72,1.13,4.72,4a8.38,8.38,0,0,1-.1,1.26l-8,0c0,1,1.73,1.32,3.29,1.32a9.05,9.05,0,0,0,4.07-.85Zm-1.75-4c0-1.07-1.22-1.79-3.09-1.79s-3.21.72-3.21,1.79Z"/><path d="M690,816.63a11.06,11.06,0,0,0,5.23,1.41c1.31,0,1.69-.27,1.69-.66,0-1.57-7,.2-7-3.33,0-1.89,2.16-2.62,4.72-2.62a8.12,8.12,0,0,1,3.71.85l-.68,2.28a13,13,0,0,0-4.25-.73c-.68,0-1.67.06-1.67.59,0,1.43,7-.36,7,3.28,0,1.94-2,2.72-4.13,2.72a9.39,9.39,0,0,1-5.17-1.5Z"/><path d="M707.28,817.55a5.59,5.59,0,0,0,1.68-.29l.28,2.57a8.65,8.65,0,0,1-3.2.59c-3,0-3.35-1.38-3-2.82l.42-1.68v-2h-2l.09-1.07-.07-1.16h1.65l-.7-3,1.84,0,1.73,0-.63,3h3l-.07,1.14.06,1.09h-3.34v2C705.05,817,706,817.55,707.28,817.55Z"/><path d="M748.82,815.66a10.15,10.15,0,0,0,6.1,1.92c1.8,0,2.67-.59,2.67-1.19,0-1.9-9,.51-9.06-4.18,0-2.46,2.26-3.38,5.4-3.38a12.86,12.86,0,0,1,5.29,1l-.7,2.8a13.38,13.38,0,0,0-5.47-1c-1.24,0-2.79.29-2.79,1,0,2,9.62-.31,9.55,4.3,0,2.26-2.21,3.48-5.25,3.5a11.29,11.29,0,0,1-6.44-1.83Z"/><path d="M763.91,815.92l-.87-4.24,1.76.05,1.75-.05-.38,1.58a5.61,5.61,0,0,1,4.08-1.81c1.91,0,3.81,1,3.27,3.12l-.36,1.35.82,4.23-1.69,0-1.68,0,.83-4.23c.19-1-.64-1.67-2.11-1.67a6.61,6.61,0,0,0-3.63,1.21l.85,4.69-1.75,0-1.76,0Z"/><path d="M785,818.3a5.51,5.51,0,0,1-4.52,2.12c-1.46,0-3.26-.54-3.26-2.53,0-2.48,3-2.94,7.9-3-.37-.8-1.67-1.19-3-1.19a7.62,7.62,0,0,0-4,1.18l-.61-2.3a9.7,9.7,0,0,1,4.91-1.17c2.62,0,5.37.75,4.83,3.06l-.34,1.43.85,4.23-1.75,0-1,0Zm-4.27,0a6.23,6.23,0,0,0,4.49-2.15c-5.57,0-6.29.51-6.29,1.23C778.92,817.9,779.38,818.3,780.72,818.3Z"/><path d="M793.2,823.51l-1.75,0,.87-7.63-.87-4.24,1.75.05,1.75-.05-.34,1.67a5.34,5.34,0,0,1,3.86-1.94,4.49,4.49,0,0,1-.1,9,5.94,5.94,0,0,1-4.08-1.79l.66,4.95Zm1-8.33-.25,1.25a6.16,6.16,0,0,0,3.69,1.15c1.77,0,3.26-.73,3.26-1.68s-1.49-1.63-3.35-1.63A6.12,6.12,0,0,0,794.25,815.18Z"/><path d="M814.28,814.76a12.13,12.13,0,0,0-3.35-.51c-1.87,0-3.58.51-3.58,1.7,0,.95,1.08,1.61,3.29,1.61a13.24,13.24,0,0,0,3.64-.56l.83,2.35a10,10,0,0,1-4.57,1.07c-2.92,0-5-1.31-5-4.33s2.38-4.64,5.47-4.64a8.34,8.34,0,0,1,4.11,1Z"/><path d="M821.08,813.06a5.52,5.52,0,0,1,3.88-1.61c1.9,0,3.8,1,3.26,3.12l-.36,1.35.82,4.23-1.68,0-1.69,0,.84-4.23c.18-1-.65-1.67-2.11-1.67a6.71,6.71,0,0,0-3.23,1l.87,4.95-1.76,0-1.75,0,.87-4.23-.87-7.65,1.75.05,1.76-.05Z"/><path d="M839.7,818.3a5.53,5.53,0,0,1-4.53,2.12c-1.46,0-3.26-.54-3.26-2.53,0-2.48,3-2.94,7.91-3-.38-.8-1.67-1.19-3-1.19a7.62,7.62,0,0,0-4,1.18l-.62-2.3a9.76,9.76,0,0,1,4.92-1.17c2.62,0,5.37.75,4.83,3.06l-.34,1.43.84,4.23-1.75,0-1,0Zm-4.27,0a6.26,6.26,0,0,0,4.49-2.15c-5.58,0-6.29.51-6.29,1.23C833.63,817.9,834.09,818.3,835.43,818.3Z"/><path d="M851.09,817.55a5.64,5.64,0,0,0,1.68-.29l.27,2.57a8.56,8.56,0,0,1-3.19.59c-3,0-3.35-1.38-3-2.82l.43-1.68v-2h-2l.08-1.07-.07-1.16H847l-.69-3,1.83,0,1.74,0-.63,3h3l-.07,1.14.05,1.09h-3.33v2C848.86,817,849.81,817.55,851.09,817.55Z"/><path d="M888.77,815.92l-.86-6.8,1.75,0,1.75,0-.87,6.78.87,4.25-1.75,0-1.75,0Z"/><path d="M896,815.92l-.87-4.24,1.75.05,1.75-.05-.37,1.58a5.57,5.57,0,0,1,4.08-1.81c1.9,0,3.8,1,3.26,3.12l-.36,1.35.82,4.23-1.68,0-1.69,0,.84-4.23c.18-1-.65-1.67-2.11-1.67a6.67,6.67,0,0,0-3.64,1.21l.85,4.69-1.75,0-1.75,0Z"/><path d="M909.84,816.63a11,11,0,0,0,5.23,1.41c1.31,0,1.68-.27,1.68-.66,0-1.57-7,.2-7-3.33,0-1.89,2.16-2.62,4.73-2.62a8,8,0,0,1,3.7.85l-.67,2.28a13.14,13.14,0,0,0-4.25-.73c-.68,0-1.67.06-1.67.59,0,1.43,7-.36,7,3.28,0,1.94-2,2.72-4.13,2.72a9.37,9.37,0,0,1-5.17-1.5Z"/><path d="M927.11,817.55a5.64,5.64,0,0,0,1.68-.29l.27,2.57a8.56,8.56,0,0,1-3.19.59c-3,0-3.35-1.38-3-2.82l.42-1.68v-2h-2l.08-1.07-.06-1.16H923l-.69-3,1.83,0,1.74,0-.63,3h3l-.07,1.14.05,1.09h-3.33v2C924.88,817,925.83,817.55,927.11,817.55Z"/><path d="M939.23,818.3a5.52,5.52,0,0,1-4.52,2.12c-1.47,0-3.27-.54-3.27-2.53,0-2.48,3-2.94,7.91-3-.38-.8-1.67-1.19-3-1.19a7.62,7.62,0,0,0-4,1.18l-.61-2.3a9.7,9.7,0,0,1,4.91-1.17c2.62,0,5.37.75,4.83,3.06l-.34,1.43.85,4.23-1.75,0-1,0Zm-4.27,0a6.26,6.26,0,0,0,4.49-2.15c-5.58,0-6.29.51-6.29,1.23C933.16,817.9,933.62,818.3,935,818.3Z"/><path d="M947.71,817.12c-.7,0-1,.21-1,.48s.51.58,2.71.58h2.14a2.88,2.88,0,0,1,3.16,2.75c0,1.75-1.89,2.87-5.05,2.87s-4.9-1.15-4.9-2.68a2.21,2.21,0,0,1,1.72-2.08c-.83-.32-1.14-.81-1.14-1.36a1.57,1.57,0,0,1,1.21-1.47,2.77,2.77,0,0,1-.53-1.69c0-1.8,1.45-3.07,3.67-3.07a3.74,3.74,0,0,1,2.43.76l2.69-.65,0,1.52,0,1.15h-1.63a1.37,1.37,0,0,1,0,.29c0,1.89-1.43,3-3.51,3A4.68,4.68,0,0,1,947.71,817.12Zm1.94,4.25c2.36,0,3.21-.39,3.21-1.12,0-.34-.24-.8-1-.8h-2.43a12.09,12.09,0,0,1-1.43-.07c-.66.16-1,.58-1,.94C947,821.08,947.71,821.37,949.65,821.37Zm2.06-6.83c0-.49-.58-1.07-2-1.07s-2,.58-2,1.07.77,1,2,1S951.71,815.1,951.71,814.54Z"/><path d="M958.73,815.92l-.87-4.24,1.75.05,1.07-.05-.1,2a5.6,5.6,0,0,1,4-2.23v2.82c-.14,0-.29,0-.46,0a6.67,6.67,0,0,0-3.64,1.21l.85,4.69-1.75,0-1.75,0Z"/><path d="M974.94,818.3a5.5,5.5,0,0,1-4.52,2.12c-1.46,0-3.26-.54-3.26-2.53,0-2.48,3-2.94,7.9-3-.37-.8-1.66-1.19-3-1.19a7.6,7.6,0,0,0-4,1.18l-.62-2.3a9.74,9.74,0,0,1,4.92-1.17c2.61,0,5.37.75,4.83,3.06l-.34,1.43.84,4.23-1.75,0-1,0Zm-4.26,0a6.26,6.26,0,0,0,4.49-2.15c-5.58,0-6.29.51-6.29,1.23C968.88,817.9,969.33,818.3,970.68,818.3Z"/><path d="M982.27,815.92l-.86-4.24,1.75.05,1.75-.05-.41,1.64a5,5,0,0,1,3.76-1.87c1.27,0,2.49.52,2.7,1.81a5,5,0,0,1,3.7-1.85c1.65,0,3.2.89,2.6,3.13l-.35,1.34.81,4.23-1.68-.05-1.68.05.83-4.23c.26-1.26-.64-1.66-1.63-1.66a5.85,5.85,0,0,0-3,1l.8,4.93-1.69,0-1.68,0,.83-4.23c.26-1.26-.64-1.67-1.63-1.67a6,6,0,0,0-3.11,1l.87,4.86-1.75,0-1.75,0Z"/><path d="M1049.22,815.9l-.34-4h-4.34l-.17-2.78h11.44l-.17,2.78h-4.32l-.33,4,.86,4.25-1.75,0-1.75,0Z"/><path d="M1069.85,820.15l-1.15,0-1.23,0-.85-2.77-1.13-3.13-1.19,3.13-.89,2.77-1.17-.07-1.14.07-1-2.77-2.42-5.73h3.51l.91,6.8,2.57-6.77.8.05.8-.05,2.41,6.79,1-6.82h3.52l-2.38,5.73Z"/><path d="M1075.92,807l1.81.05,1.73-.05v2.86h-3.54Zm.89,8.88-.87-4.24,1.75.05,1.75-.05-.86,4.24.86,4.23-1.75,0-1.75,0Z"/><path d="M1088.47,817.55a5.59,5.59,0,0,0,1.68-.29l.27,2.57a8.56,8.56,0,0,1-3.19.59c-3,0-3.35-1.38-3-2.82l.42-1.68v-2h-2l.09-1.07-.07-1.16h1.65l-.7-3,1.83,0,1.74,0-.63,3h3l-.07,1.14,0,1.09h-3.33v2C1086.24,817,1087.2,817.55,1088.47,817.55Z"/><path d="M1101.56,814.76a12.13,12.13,0,0,0-3.35-.51c-1.87,0-3.59.51-3.59,1.7,0,.95,1.09,1.61,3.3,1.61a13.24,13.24,0,0,0,3.64-.56l.83,2.35a10,10,0,0,1-4.57,1.07c-2.92,0-5-1.31-5-4.33s2.38-4.64,5.47-4.64a8.34,8.34,0,0,1,4.11,1Z"/><path d="M1108.36,813.06a5.52,5.52,0,0,1,3.88-1.61c1.9,0,3.8,1,3.26,3.12l-.36,1.35.82,4.23-1.68,0-1.69,0,.84-4.23c.18-1-.65-1.67-2.11-1.67a6.71,6.71,0,0,0-3.23,1l.86,4.95-1.75,0-1.75,0,.87-4.23-.87-7.65,1.75.05,1.75-.05Z"/><path d="M1184.5,815.9l-.34-4h-4.33l-.17-2.78h11.44l-.17,2.78h-4.32l-.34,4,.87,4.25-1.75,0-1.75,0Z"/><path d="M1205.14,820.15l-1.16,0-1.22,0-.85-2.77-1.14-3.13-1.19,3.13-.88,2.77-1.18-.07-1.13.07-1-2.77-2.41-5.73h3.5l.92,6.8,2.56-6.77.8.05.8-.05,2.42,6.79,1-6.82h3.52l-2.38,5.73Z"/><path d="M1211.21,807l1.8.05,1.74-.05v2.86h-3.54Zm.88,8.88-.86-4.24,1.75.05,1.75-.05-.87,4.24.87,4.23-1.75,0-1.75,0Z"/><path d="M1223.75,817.55a5.65,5.65,0,0,0,1.69-.29l.27,2.57a8.57,8.57,0,0,1-3.2.59c-3,0-3.34-1.38-3-2.82l.43-1.68v-2h-2l.08-1.07-.07-1.16h1.65l-.7-3,1.84,0,1.73,0-.62,3h3l-.07,1.14,0,1.09h-3.33v2C1221.53,817,1222.48,817.55,1223.75,817.55Z"/><path d="M1233.87,817.55a5.59,5.59,0,0,0,1.68-.29l.27,2.57a8.56,8.56,0,0,1-3.19.59c-3,0-3.35-1.38-3-2.82l.42-1.68v-2h-2l.09-1.07-.07-1.16h1.65l-.7-3,1.84,0,1.73,0-.63,3h3l-.07,1.14.06,1.09h-3.34v2C1231.64,817,1232.6,817.55,1233.87,817.55Z"/><path d="M1248.13,819.5a10.74,10.74,0,0,1-4.38.92c-3.2,0-5.55-1.44-5.55-4.37,0-2.65,2-4.6,5.22-4.6,2.52,0,4.73,1.13,4.73,4a8.38,8.38,0,0,1-.1,1.26l-8,0c0,1,1.74,1.32,3.3,1.32a9,9,0,0,0,4.06-.85Zm-1.75-4c0-1.07-1.22-1.79-3.09-1.79s-3.22.72-3.22,1.79Z"/><path d="M1252.25,815.92l-.87-4.24,1.75.05,1.07-.05-.1,2a5.58,5.58,0,0,1,4-2.23v2.82c-.14,0-.29,0-.46,0a6.67,6.67,0,0,0-3.64,1.21l.85,4.69-1.75,0-1.75,0Z"/><path d="M1323.58,820.15l-7.6,0-2.82,0,.52-4.25-.52-6.78,1.41,0,2.09,0-1.29,8.26,8.21-.1,0,1.42Z"/><path d="M1326.81,807l1.8.05,1.73-.05v2.86h-3.53Zm.88,8.88-.87-4.24,1.75.05,1.75-.05-.86,4.24.86,4.23-1.75,0-1.75,0Z"/><path d="M1335,815.92l-.87-4.24,1.75.05,1.75-.05-.37,1.58a5.59,5.59,0,0,1,4.08-1.81c1.9,0,3.81,1,3.26,3.12l-.35,1.35.81,4.23-1.68,0-1.68,0,.83-4.23c.19-1-.65-1.67-2.11-1.67a6.61,6.61,0,0,0-3.63,1.21l.84,4.69-1.75,0-1.75,0Z"/><path d="M1357.8,820.15h-3.13l-1.73-4-1.35.94.67,3.11-1.76,0-1.75,0,.87-4.23-.87-7.65,1.75.05,1.76-.05-.77,6.66,4.62-4.16.85,1.54.91,1.31-3.56,1.67,3.49,4.47Z"/><path d="M1369.66,819.5a10.74,10.74,0,0,1-4.38.92c-3.2,0-5.54-1.44-5.54-4.37,0-2.65,2-4.6,5.21-4.6,2.52,0,4.73,1.13,4.73,4a8.38,8.38,0,0,1-.1,1.26l-8,0c0,1,1.74,1.32,3.3,1.32a9,9,0,0,0,4.06-.85Zm-1.75-4c0-1.07-1.22-1.79-3.09-1.79s-3.21.72-3.21,1.79Z"/><path d="M1382,808.32l1.76,0-.87,7.64.87,4.23-1.76,0-1.07,0,.09-1.79a5.11,5.11,0,0,1-4.15,2.06,4.55,4.55,0,0,1-4.47-4.5,4.61,4.61,0,0,1,4.59-4.47,5.5,5.5,0,0,1,3.76,1.58l-.5-4.76Zm-4.28,9.24a5.6,5.6,0,0,0,3.38-1v-.15l-.12-1.17a5.59,5.59,0,0,0-3.29-1c-1.94,0-3.44.73-3.44,1.68S1375.75,817.56,1377.72,817.56Z"/><path d="M1387.5,807l1.8.05L1391,807v2.86h-3.53Zm.88,8.88-.87-4.24,1.75.05,1.75-.05-.86,4.24.86,4.23-1.75,0-1.75,0Z"/><path d="M1395.64,815.92l-.87-4.24,1.75.05,1.75-.05-.37,1.58a5.57,5.57,0,0,1,4.08-1.81c1.9,0,3.81,1,3.26,3.12l-.35,1.35.81,4.23-1.68,0-1.68,0,.83-4.23c.19-1-.65-1.67-2.11-1.67a6.67,6.67,0,0,0-3.64,1.21l.85,4.69-1.75,0-1.75,0Z"/><path d="M1455.24,820.15l-2.09,0-1.41,0,.52-4.25-.52-6.78,2.82,0,7.66,0,0,1.39,0,1.39h-7.85l-.17,2.11h6.92v1.72h-7.07l0,.17Z"/><path d="M1472.9,818.3a5.51,5.51,0,0,1-4.52,2.12c-1.46,0-3.26-.54-3.26-2.53,0-2.48,3-2.94,7.9-3-.37-.8-1.67-1.19-3-1.19a7.62,7.62,0,0,0-4,1.18l-.61-2.3a9.7,9.7,0,0,1,4.91-1.17c2.62,0,5.37.75,4.83,3.06l-.34,1.43.85,4.23-1.75,0-1,0Zm-4.27,0a6.23,6.23,0,0,0,4.49-2.15c-5.57,0-6.29.51-6.29,1.23C1466.83,817.9,1467.29,818.3,1468.63,818.3Z"/><path d="M1487.61,814.76a12.19,12.19,0,0,0-3.35-.51c-1.87,0-3.59.51-3.59,1.7,0,.95,1.09,1.61,3.3,1.61a13.24,13.24,0,0,0,3.64-.56l.83,2.35a10,10,0,0,1-4.57,1.07c-2.93,0-5-1.31-5-4.33s2.38-4.64,5.47-4.64a8.35,8.35,0,0,1,4.12,1Z"/><path d="M1500.92,819.5a10.75,10.75,0,0,1-4.39.92c-3.2,0-5.54-1.44-5.54-4.37,0-2.65,2-4.6,5.22-4.6,2.51,0,4.72,1.13,4.72,4a8.38,8.38,0,0,1-.1,1.26l-8,0c0,1,1.73,1.32,3.3,1.32a9,9,0,0,0,4.06-.85Zm-1.75-4c0-1.07-1.23-1.79-3.1-1.79s-3.21.72-3.21,1.79Z"/><path d="M1507.16,813.18a5.37,5.37,0,0,1,3.77-1.73,4.63,4.63,0,0,1,4.59,4.48,4.52,4.52,0,0,1-4.47,4.49,5.11,5.11,0,0,1-4.15-2.06l.09,1.79-1.08,0-1.75,0,.87-4.23-.87-7.64,1.75,0,1.76-.05Zm-.34,3.37a6.18,6.18,0,0,0,3.55,1c1.8,0,3.3-.68,3.3-1.63s-1.5-1.68-3.45-1.68a5.27,5.27,0,0,0-3.28,1l-.12,1.17Z"/><path d="M1518.24,815.93c0-2.58,2-4.48,5.22-4.48s5.2,1.9,5.2,4.48c0,2.84-2.13,4.49-5.2,4.49S1518.24,818.77,1518.24,815.93Zm8.6.09c0-.84-1-1.77-3.38-1.77s-3.4.93-3.4,1.77,1.29,1.6,3.38,1.6S1526.84,817,1526.84,816Z"/><path d="M1531.38,815.93c0-2.58,2-4.48,5.22-4.48s5.2,1.9,5.2,4.48c0,2.84-2.12,4.49-5.2,4.49S1531.38,818.77,1531.38,815.93Zm8.6.09c0-.84-1-1.77-3.38-1.77s-3.4.93-3.4,1.77,1.29,1.6,3.38,1.6S1540,817,1540,816Z"/><path d="M1554.07,820.15H1551l-1.74-4-1.34.94.66,3.11-1.75,0-1.75,0,.87-4.23-.87-7.65,1.75.05,1.75-.05-.76,6.66,4.62-4.16.85,1.54.9,1.31-3.55,1.67,3.48,4.47Z"/><path d="M1602.82,815.87l-1.14-1.62-3.8-4.76v-.39h3.35l2.56,5.57,2.52-5.57h3.52v.41l-3.93,4.74-1.17,1.62.64,4.28-1.58,0-1.58,0Z"/><path d="M1610.34,815.93c0-2.58,2-4.48,5.22-4.48s5.2,1.9,5.2,4.48c0,2.84-2.13,4.49-5.2,4.49S1610.34,818.77,1610.34,815.93Zm8.6.09c0-.84-1-1.77-3.38-1.77s-3.4.93-3.4,1.77,1.29,1.6,3.38,1.6S1618.94,817,1618.94,816Z"/><path d="M1633.71,815.92l.87,4.23-1.75,0-1,0,0-2a5.27,5.27,0,0,1-4.13,2.25c-1.9,0-3.81-1.06-3.26-3.13l.35-1.34-.81-4.24,1.68.05,1.68-.05-.83,4.24c-.19,1,.65,1.66,2.11,1.66a5.59,5.59,0,0,0,3.23-1.15l-.78-4.75,1.75.05,1.75-.05Z"/><path d="M1643.59,817.55a5.64,5.64,0,0,0,1.68-.29l.27,2.57a8.56,8.56,0,0,1-3.19.59c-3,0-3.35-1.38-3-2.82l.42-1.68v-2h-2l.08-1.07-.06-1.16h1.65l-.7-3,1.83,0,1.74,0-.63,3h3l-.07,1.14,0,1.09h-3.33v2C1641.36,817,1642.31,817.55,1643.59,817.55Z"/><path d="M1658.16,815.92l.86,4.23-1.75,0-1,0,0-2a5.3,5.3,0,0,1-4.13,2.25c-1.91,0-3.81-1.06-3.27-3.13l.36-1.34-.82-4.24,1.69.05,1.68-.05-.83,4.24c-.19,1,.64,1.66,2.1,1.66a5.54,5.54,0,0,0,3.23-1.15l-.78-4.75,1.75.05,1.75-.05Z"/><path d="M1665.76,813.18a5.37,5.37,0,0,1,3.77-1.73,4.63,4.63,0,0,1,4.59,4.48,4.52,4.52,0,0,1-4.47,4.49,5.11,5.11,0,0,1-4.15-2.06l.09,1.79-1.07,0-1.76,0,.87-4.23-.87-7.64,1.76,0,1.75-.05Zm-.34,3.37a6.18,6.18,0,0,0,3.55,1c1.8,0,3.3-.68,3.3-1.63s-1.5-1.68-3.45-1.68a5.27,5.27,0,0,0-3.28,1l-.12,1.17Z"/><path d="M1686.77,819.5a10.75,10.75,0,0,1-4.39.92c-3.19,0-5.54-1.44-5.54-4.37,0-2.65,2-4.6,5.22-4.6,2.51,0,4.72,1.13,4.72,4a8.38,8.38,0,0,1-.1,1.26l-8,0c0,1,1.73,1.32,3.3,1.32a9,9,0,0,0,4.06-.85Zm-1.75-4c0-1.07-1.23-1.79-3.1-1.79s-3.21.72-3.21,1.79Z"/><path class="cls-2" d="M1630.82,397.55l-24.63-6.81-9.67,23.65-21.88-13.19L1559,421.36l-17.51-18.61-20.55,15.18-11.84-22.64-23.89,9.07-5.29-25-25.45,2.3,1.65-25.5L1431,351.5l8.47-24.11-22.94-11.26,14.66-20.93-19-17,19.76-16.2-13.75-21.54,23.41-10.27-7.43-24.45,25.3-3.57-.55-25.54,25.33,3.38,6.36-24.74L1514,165.33l12.81-22.11,19.88,16.05L1565,141.43l14.81,20.82L1602.22,150l8.64,24.05,24.9-5.74,1.84,25.49,25.52,1.19L1658,220l24.26,8L1670.6,250.8l21.19,14.28-17.38,18.74L1691,303.29l-21.78,13.35,10.68,23.22-24.58,7,4,25.23-25.56.09Z"/><path d="M1522.16,224.28a14.15,14.15,0,0,1-6,1.32c-5.51,0-7.91-2.92-7.91-6.51,0-4.16,3.06-6.44,8.17-6.44a14.06,14.06,0,0,1,5.74,1.18l-.82,3.13a11.59,11.59,0,0,0-5.45-1.25c-3.59,0-5.53,1.31-5.53,3.4s1.86,3.34,5.25,3.34a13,13,0,0,0,5.9-1.37Z"/><path d="M1533.71,223.23a6.15,6.15,0,0,1-5,2.37c-1.64,0-3.65-.6-3.65-2.83,0-2.77,3.38-3.28,8.83-3.32-.42-.89-1.86-1.33-3.38-1.33a8.58,8.58,0,0,0-4.48,1.31l-.69-2.56a10.8,10.8,0,0,1,5.49-1.31c2.93,0,6,.83,5.4,3.41l-.38,1.6,1,4.73-2-.06-1.12.06Zm-4.77,0a7,7,0,0,0,5-2.39c-6.23,0-7,.57-7,1.36C1526.93,222.79,1527.44,223.23,1528.94,223.23Z"/><path d="M1541.9,220.57l-1-4.73,2,.06,1.19-.06-.11,2.24a6.26,6.26,0,0,1,4.5-2.49v3.16a3.77,3.77,0,0,0-.51,0,7.5,7.5,0,0,0-4.07,1.35l.95,5.24-1.95-.06-2,.06Z"/><path d="M1555.24,217.51a6,6,0,0,1,4.21-1.94,5.18,5.18,0,0,1,5.13,5,5,5,0,0,1-5,5,5.73,5.73,0,0,1-4.64-2.29l.1,2-1.2-.06-2,.06,1-4.73-1-8.53,2,0,2-.06Zm-.38,3.76a6.9,6.9,0,0,0,4,1.14c2,0,3.68-.76,3.68-1.82s-1.67-1.88-3.85-1.88a6,6,0,0,0-3.67,1.1l-.13,1.31Z"/><path d="M1567.63,220.59c0-2.89,2.28-5,5.83-5s5.81,2.13,5.81,5c0,3.17-2.37,5-5.81,5S1567.63,223.76,1567.63,220.59Zm9.61.09c0-.93-1.08-2-3.78-2s-3.8,1-3.8,2,1.44,1.79,3.78,1.79S1577.24,221.75,1577.24,220.68Z"/><path d="M1583.85,220.57l-1-4.73,2,.06,2-.06-.42,1.77a6.2,6.2,0,0,1,4.56-2c2.13,0,4.25,1.18,3.64,3.5l-.39,1.5.91,4.73-1.88-.06-1.88.06.93-4.73c.21-1.06-.72-1.86-2.36-1.86a7.45,7.45,0,0,0-4.06,1.35l1,5.24-2-.06-2,.06Z"/><path d="M1494,234.65l2,.06,1.94-.06v3.2h-4Zm1,9.92-1-4.73,2,.06,2-.06-1,4.73,1,4.73-2-.06-2,.06Z"/><path d="M1503.05,244.57l-1-4.73,2,.06,2-.06-.46,1.82a5.65,5.65,0,0,1,4.2-2.09c1.43,0,2.79.59,3,2a5.54,5.54,0,0,1,4.14-2.07c1.85,0,3.58,1,2.91,3.49l-.4,1.5.91,4.73-1.88,0-1.88,0,.93-4.73c.29-1.4-.72-1.86-1.82-1.86a6.67,6.67,0,0,0-3.4,1.12l.89,5.51-1.88-.06-1.88.06.93-4.73c.29-1.4-.72-1.86-1.82-1.86a6.72,6.72,0,0,0-3.48,1.16l1,5.43-2-.06-2,.06Z"/><path d="M1526.46,253.06l-2,0,1-8.53-1-4.73,2,.06,2-.06-.38,1.86a5.94,5.94,0,0,1,4.31-2.16,5,5,0,0,1-.11,10,6.65,6.65,0,0,1-4.56-2l.74,5.53Zm1.18-9.31-.29,1.39a6.9,6.9,0,0,0,4.13,1.29c2,0,3.64-.81,3.64-1.88s-1.67-1.82-3.74-1.82A6.8,6.8,0,0,0,1527.64,243.75Z"/><path d="M1548.94,247.23a6.15,6.15,0,0,1-5,2.37c-1.64,0-3.65-.6-3.65-2.83,0-2.77,3.38-3.28,8.83-3.32-.42-.89-1.86-1.33-3.38-1.33a8.55,8.55,0,0,0-4.48,1.31l-.69-2.56a10.78,10.78,0,0,1,5.49-1.31c2.93,0,6,.83,5.4,3.41l-.38,1.6,1,4.73-2-.06-1.12.06Zm-4.77,0a7,7,0,0,0,5-2.39c-6.24,0-7,.57-7,1.36C1542.16,246.79,1542.67,247.23,1544.17,247.23Z"/><path d="M1565.37,243.28a13.77,13.77,0,0,0-3.74-.57c-2.09,0-4,.57-4,1.9,0,1.06,1.22,1.8,3.69,1.8a15.32,15.32,0,0,0,4.06-.62l.93,2.62a11.14,11.14,0,0,1-5.11,1.19c-3.26,0-5.6-1.46-5.6-4.84s2.66-5.19,6.12-5.19a9.21,9.21,0,0,1,4.59,1.09Z"/><path d="M1575.62,246.39a6.34,6.34,0,0,0,1.88-.32l.3,2.87a9.43,9.43,0,0,1-3.57.66c-3.33,0-3.74-1.53-3.35-3.15l.48-1.88v-2.24h-2.2l.09-1.2-.08-1.29H1571l-.78-3.32,2,0,1.94,0-.7,3.32h3.34l-.08,1.27.06,1.22h-3.72v2.24C1573.13,245.77,1574.19,246.39,1575.62,246.39Z"/><path d="M1589.58,234.65l2,.06,1.94-.06v3.2h-4Zm1,9.92-1-4.73,2,.06,2-.06-1,4.73,1,4.73-2-.06-2,.06Z"/><path d="M1598.68,244.57l-1-4.73,2,.06,2-.06-.42,1.77a6.2,6.2,0,0,1,4.56-2c2.12,0,4.25,1.18,3.64,3.5l-.39,1.5.91,4.73-1.88-.06-1.88.06.93-4.73c.21-1.06-.73-1.86-2.36-1.86a7.45,7.45,0,0,0-4.06,1.35l1,5.24-2-.06-2,.06Z"/><path d="M1472.39,269.92c-.78,0-1.14.23-1.14.53s.57.65,3,.65h2.39a3.23,3.23,0,0,1,3.54,3.07c0,2-2.11,3.21-5.64,3.21s-5.48-1.29-5.48-3a2.47,2.47,0,0,1,1.92-2.31c-.93-.36-1.27-.92-1.27-1.52a1.78,1.78,0,0,1,1.35-1.66,3,3,0,0,1-.59-1.88c0-2,1.61-3.44,4.1-3.44a4.2,4.2,0,0,1,2.72.86l3-.72-.06,1.69.06,1.29h-1.82a1.67,1.67,0,0,1,0,.32c0,2.11-1.6,3.35-3.92,3.35A5.39,5.39,0,0,1,1472.39,269.92Zm2.17,4.75c2.64,0,3.59-.44,3.59-1.25,0-.38-.27-.9-1.14-.9h-2.72a15.07,15.07,0,0,1-1.6-.07c-.74.17-1.08.64-1.08,1C1471.61,274.35,1472.39,274.67,1474.56,274.67Zm2.29-7.64c0-.55-.64-1.19-2.26-1.19s-2.26.64-2.26,1.19.86,1.07,2.24,1.07S1476.85,267.66,1476.85,267Z"/><path d="M1484.7,268.57l-1-4.73,2,.06,1.2-.06-.12,2.24a6.26,6.26,0,0,1,4.51-2.49v3.16a4.07,4.07,0,0,0-.52,0,7.45,7.45,0,0,0-4.06,1.35l1,5.24-2-.06-2,.06Z"/><path d="M1502.83,271.23a6.16,6.16,0,0,1-5.06,2.37c-1.63,0-3.64-.6-3.64-2.83,0-2.77,3.38-3.28,8.83-3.32-.42-.89-1.86-1.33-3.38-1.33a8.59,8.59,0,0,0-4.49,1.31l-.68-2.56a10.75,10.75,0,0,1,5.49-1.31c2.93,0,6,.83,5.4,3.41l-.38,1.6.95,4.73-2-.06-1.12.06Zm-4.77,0a7,7,0,0,0,5-2.39c-6.23,0-7,.57-7,1.36C1496,270.79,1496.56,271.23,1498.06,271.23Z"/><path d="M1511,268.57l-1-4.73,2,.06,2-.06-.45,1.82a5.63,5.63,0,0,1,4.19-2.09c1.43,0,2.8.59,3,2a5.56,5.56,0,0,1,4.15-2.07c1.84,0,3.57,1,2.9,3.49l-.4,1.5.91,4.73-1.88-.05-1.88.05.93-4.73c.29-1.4-.72-1.86-1.82-1.86a6.7,6.7,0,0,0-3.4,1.12l.89,5.51-1.88-.06-1.88.06.93-4.73c.29-1.4-.72-1.86-1.82-1.86a6.75,6.75,0,0,0-3.48,1.16l1,5.43-2-.06-2,.06Z"/><path d="M1532.49,269.37a12.32,12.32,0,0,0,5.85,1.58c1.46,0,1.88-.31,1.88-.75,0-1.74-7.85.23-7.85-3.72,0-2.11,2.41-2.92,5.28-2.92a9,9,0,0,1,4.14.95l-.76,2.54a14.52,14.52,0,0,0-4.75-.82c-.75,0-1.86.08-1.86.67,0,1.59,7.87-.4,7.87,3.67,0,2.16-2.26,3-4.62,3a10.48,10.48,0,0,1-5.77-1.67Z"/><path d="M1553.88,268.59c0-2.89,2.28-5,5.83-5s5.82,2.13,5.82,5c0,3.17-2.38,5-5.82,5S1553.88,271.76,1553.88,268.59Zm9.61.09c0-.93-1.08-2-3.78-2s-3.8,1-3.8,2,1.45,1.79,3.78,1.79S1563.49,269.75,1563.49,268.68Z"/><path d="M1570.75,268.57l0-2.24h-2.16l0-1.18,0-1.31h1.88c-.93-2.22-.06-4,4.65-4a18.62,18.62,0,0,1,3,.25l-.36,2.94a9.9,9.9,0,0,0-3-.59c-1.54,0-2,.55-2,1.39h4.18l-.08,1.27.06,1.22h-4.18v2.24l1,4.73-2-.06-2,.06Z"/><path d="M1602.71,272.28a14.15,14.15,0,0,1-6,1.32c-5.51,0-7.91-2.92-7.91-6.51,0-4.16,3.06-6.44,8.17-6.44a14.06,14.06,0,0,1,5.74,1.18l-.82,3.13a11.59,11.59,0,0,0-5.45-1.25c-3.59,0-5.53,1.31-5.53,3.4s1.86,3.34,5.25,3.34a13,13,0,0,0,5.9-1.37Z"/><path d="M1613.06,260.65c4.35,0,7.47,2.34,7.47,6.38,0,4.45-3.78,6.61-7.47,6.61s-7.5-2.16-7.5-6.61C1605.56,263,1608.71,260.65,1613.06,260.65Zm0,9.88c2.66,0,5.38-1.48,5.38-3.5,0-1.82-2.22-3.27-5.38-3.27s-5.39,1.45-5.39,3.27C1607.67,269.05,1610.35,270.53,1613.06,270.53Z"/><path d="M1634.21,271.76l0,1.54h-10.91v-3c2.23-4.71,9-3.33,9-5.3,0-.91-1.25-1.26-2.56-1.26a7.11,7.11,0,0,0-5.06,2.06l-1.4-2.51c.91-1.43,2.79-2.66,6-2.66s4.92,1.5,4.92,3.68c0,4.2-7.9,2.38-8.72,5.86h8.72Z"/><path d="M1497.56,296.58a12.07,12.07,0,0,1-4.9,1c-3.57,0-6.19-1.61-6.19-4.88,0-3,2.2-5.15,5.83-5.15,2.81,0,5.28,1.28,5.28,4.51a10.59,10.59,0,0,1-.11,1.4l-9,0c0,1.16,1.94,1.48,3.69,1.48a10.13,10.13,0,0,0,4.54-.95Zm-2-4.47c0-1.19-1.37-2-3.46-2s-3.59.8-3.59,2Z"/><path d="M1510.05,295.72a6.47,6.47,0,0,1-4.34,1.87,5.16,5.16,0,0,1-5.09-5,5.08,5.08,0,0,1,5-5,5.79,5.79,0,0,1,4.62,2.26l-.08-2,1.2.06,2-.06-1,4.73,1,8.53-2-.06-1.92,0Zm-3.71-1.27a6.74,6.74,0,0,0,4-1.21l0-.16,0-1.21a7,7,0,0,0-3.93-1.12c-2,0-3.69.76-3.69,1.82S1504.37,294.45,1506.34,294.45Z"/><path d="M1528.36,292.57l1,4.73-2-.06-1.16.06.06-2.24a5.9,5.9,0,0,1-4.61,2.51c-2.13,0-4.26-1.18-3.65-3.5l.4-1.5-.92-4.73,1.89.06,1.88-.06-.93,4.73c-.21,1.06.72,1.86,2.35,1.86a6.13,6.13,0,0,0,3.61-1.29l-.87-5.3,1.95.06,2-.06Z"/><path d="M1533.51,282.65l2,.06,1.93-.06v3.2h-4Zm1,9.92-1-4.73,2,.06,2-.06-1,4.73,1,4.73-2-.06-2,.06Z"/><path d="M1546.75,297.24l-1,.06-1.58-3.1-3.65-6.4h3.94l2.26,7.41,2.39-7.41h4l-3.67,6.4-1.57,3.1Z"/><path d="M1564.23,295.23a6.13,6.13,0,0,1-5,2.37c-1.63,0-3.65-.6-3.65-2.83,0-2.77,3.38-3.28,8.84-3.32-.42-.89-1.87-1.33-3.38-1.33a8.59,8.59,0,0,0-4.49,1.31l-.68-2.56a10.75,10.75,0,0,1,5.49-1.31c2.92,0,6,.83,5.39,3.41l-.38,1.6,1,4.73-2-.06-1.12.06Zm-4.77,0a7,7,0,0,0,5-2.39c-6.23,0-7,.57-7,1.36C1557.45,294.79,1558,295.23,1559.46,295.23Z"/><path d="M1572.42,292.57l-1-8.55,2,.06,2-.06-1,8.55,1,4.73-2-.06-2,.06Z"/><path d="M1590.07,296.58a12.07,12.07,0,0,1-4.9,1c-3.57,0-6.19-1.61-6.19-4.88,0-3,2.2-5.15,5.83-5.15,2.81,0,5.28,1.28,5.28,4.51a10.59,10.59,0,0,1-.11,1.4l-9,0c0,1.16,1.94,1.48,3.69,1.48a10.13,10.13,0,0,0,4.54-.95Zm-2-4.47c0-1.19-1.37-2-3.46-2s-3.59.8-3.59,2Z"/><path d="M1594.67,292.57l-1-4.73,2,.06,2-.06-.42,1.77a6.2,6.2,0,0,1,4.56-2c2.13,0,4.25,1.18,3.65,3.5l-.4,1.5.91,4.73-1.88-.06-1.88.06.93-4.73c.21-1.06-.72-1.86-2.36-1.86a7.45,7.45,0,0,0-4.06,1.35l.95,5.24-2-.06-2,.06Z"/><path d="M1615.61,294.39a6.34,6.34,0,0,0,1.88-.32l.3,2.87a9.43,9.43,0,0,1-3.57.66c-3.32,0-3.74-1.53-3.34-3.15l.47-1.88v-2.24h-2.2l.09-1.2-.07-1.29H1611l-.78-3.32,2,.05,1.94-.05-.7,3.32h3.34l-.07,1.27,0,1.22h-3.72v2.24C1613.12,293.77,1614.18,294.39,1615.61,294.39Z"/><path d="M1487.6,309.05c-1.88,1.56-3.55,4.1-3.55,6.46s1.82,5.32,3.59,6.8l-3.54.34a11.13,11.13,0,0,1,0-14Z"/><path d="M1493.13,317.92c-.78,0-1.14.23-1.14.53s.57.65,3,.65h2.39a3.23,3.23,0,0,1,3.54,3.07c0,2-2.11,3.21-5.65,3.21s-5.47-1.29-5.47-3a2.47,2.47,0,0,1,1.92-2.31c-.93-.36-1.27-.92-1.27-1.52a1.78,1.78,0,0,1,1.35-1.66,3,3,0,0,1-.59-1.88c0-2,1.61-3.44,4.1-3.44a4.21,4.21,0,0,1,2.72.86l3-.72-.06,1.69.06,1.29h-1.82c0,.1,0,.21,0,.32,0,2.11-1.59,3.35-3.91,3.35A5.36,5.36,0,0,1,1493.13,317.92Zm2.16,4.75c2.64,0,3.59-.44,3.59-1.25,0-.38-.26-.9-1.14-.9H1495a15.07,15.07,0,0,1-1.6-.07c-.74.17-1.08.64-1.08,1C1492.35,322.35,1493.13,322.67,1495.29,322.67Zm2.3-7.64c0-.55-.64-1.19-2.26-1.19s-2.26.64-2.26,1.19.86,1.07,2.24,1.07S1497.59,315.66,1497.59,315Z"/><path d="M1517.84,320.28a14.08,14.08,0,0,1-6,1.32c-5.51,0-7.9-2.92-7.9-6.51,0-4.16,3.06-6.44,8.17-6.44a14.06,14.06,0,0,1,5.74,1.18L1517,313a11.62,11.62,0,0,0-5.45-1.25c-3.59,0-5.53,1.31-5.53,3.4s1.86,3.34,5.24,3.34a13.07,13.07,0,0,0,5.91-1.37Z"/><path d="M1528.2,308.65c4.35,0,7.47,2.34,7.47,6.38,0,4.45-3.78,6.61-7.47,6.61s-7.5-2.16-7.5-6.61C1520.7,311,1523.85,308.65,1528.2,308.65Zm0,9.88c2.66,0,5.38-1.48,5.38-3.5,0-1.82-2.23-3.27-5.38-3.27s-5.39,1.45-5.39,3.27C1522.81,317.05,1525.48,318.53,1528.2,318.53Z"/><path d="M1549.35,319.76l0,1.54h-10.9v-3c2.22-4.71,9-3.33,9-5.3,0-.91-1.26-1.26-2.57-1.26a7.1,7.1,0,0,0-5.05,2.06l-1.41-2.51c.92-1.43,2.8-2.66,6-2.66s4.92,1.5,4.92,3.68c0,4.2-7.9,2.38-8.72,5.86h8.72Z"/><path d="M1563.6,320.58a12.14,12.14,0,0,1-4.9,1c-3.58,0-6.2-1.61-6.2-4.88,0-3,2.21-5.15,5.83-5.15,2.82,0,5.29,1.28,5.29,4.51a9.23,9.23,0,0,1-.12,1.4l-9,0c0,1.16,1.94,1.48,3.69,1.48a10.13,10.13,0,0,0,4.54-.95Zm-2-4.47c0-1.19-1.37-2-3.46-2s-3.59.8-3.59,2Z"/><path d="M1572.28,315.64a10.76,10.76,0,0,1-2.47,7l-3.53-.34c1.76-1.48,3.59-4.33,3.59-6.8s-1.67-4.9-3.55-6.46l3.51-.36A10.7,10.7,0,0,1,1572.28,315.64Z"/><path d="M1586.59,325.06l-2,0,1-8.53-1-4.73,2,.06,2-.06-.38,1.86a6,6,0,0,1,4.32-2.16,5,5,0,0,1-.12,10,6.67,6.67,0,0,1-4.56-2l.74,5.53Zm1.18-9.31-.29,1.39a6.88,6.88,0,0,0,4.12,1.29c2,0,3.65-.81,3.65-1.88s-1.67-1.82-3.74-1.82A6.76,6.76,0,0,0,1587.77,315.75Z"/><path d="M1611.46,320.58a12.14,12.14,0,0,1-4.9,1c-3.58,0-6.2-1.61-6.2-4.88,0-3,2.21-5.15,5.84-5.15,2.81,0,5.28,1.28,5.28,4.51a9.23,9.23,0,0,1-.12,1.4l-9,0c0,1.16,1.93,1.48,3.68,1.48a10.13,10.13,0,0,0,4.54-.95Zm-2-4.47c0-1.19-1.37-2-3.46-2s-3.59.8-3.59,2Z"/><path d="M1616.06,316.57l-1-4.73,2,.06,1.2-.06-.11,2.24a6.26,6.26,0,0,1,4.5-2.49v3.16a3.77,3.77,0,0,0-.51,0,7.45,7.45,0,0,0-4.07,1.35l1,5.24-2-.06-2,.06Z"/><path d="M1510.79,340.57l-1-4.73,2,.06,2-.06-.45,1.82a5.63,5.63,0,0,1,4.2-2.09c1.42,0,2.79.59,3,2a5.53,5.53,0,0,1,4.14-2.07c1.84,0,3.57,1,2.9,3.49l-.4,1.5.92,4.73-1.88-.05-1.89.05.94-4.73c.28-1.4-.73-1.86-1.83-1.86a6.7,6.7,0,0,0-3.4,1.12l.89,5.51-1.88-.06-1.88.06.93-4.73c.29-1.4-.72-1.86-1.82-1.86a6.75,6.75,0,0,0-3.48,1.16l1,5.43-2-.06-2,.06Z"/><path d="M1532.24,330.65l2,.06,1.94-.06v3.2h-4Zm1,9.92-1-4.73,2,.06,2-.06-1,4.73,1,4.73-2-.06-2,.06Z"/><path d="M1541.34,340.57l-1-4.73,2,.06,2-.06-.41,1.77a6.18,6.18,0,0,1,4.55-2c2.13,0,4.26,1.18,3.65,3.5l-.4,1.5.92,4.73-1.89-.06-1.88.06.93-4.73c.21-1.06-.72-1.86-2.35-1.86a7.5,7.5,0,0,0-4.07,1.35l1,5.24-2-.06-2,.06Z"/><path d="M1567.63,340.57l1,4.73-1.95-.06-1.16.06,0-2.24a5.89,5.89,0,0,1-4.61,2.51c-2.13,0-4.26-1.18-3.65-3.5l.4-1.5-.91-4.73,1.88.06,1.88-.06-.93,4.73c-.21,1.06.72,1.86,2.35,1.86a6.11,6.11,0,0,0,3.61-1.29l-.87-5.3,2,.06,1.95-.06Z"/><path d="M1578.67,342.39a6.23,6.23,0,0,0,1.88-.32l.31,2.87a9.5,9.5,0,0,1-3.57.66c-3.33,0-3.75-1.53-3.35-3.15l.48-1.88v-2.24h-2.21l.1-1.2-.08-1.29h1.85l-.78-3.32,2,.05,1.94-.05-.71,3.32h3.35l-.08,1.27.06,1.22h-3.73v2.24C1576.18,341.77,1577.25,342.39,1578.67,342.39Z"/><path d="M1594.61,344.58a12.07,12.07,0,0,1-4.9,1c-3.57,0-6.19-1.61-6.19-4.88,0-3,2.2-5.15,5.83-5.15,2.81,0,5.28,1.28,5.28,4.51a9.12,9.12,0,0,1-.11,1.4l-9,0c0,1.16,1.94,1.48,3.69,1.48a10.13,10.13,0,0,0,4.54-.95Zm-1.95-4.47c0-1.19-1.37-2-3.46-2s-3.59.8-3.59,2Z"/><line class="cls-3" x1="277.68" y1="754.64" x2="1716.33" y2="754.64"/><text class="cls-4" transform="translate(249.01 666.04)">1</text><text class="cls-4" transform="translate(249.01 558.53)">2</text><text class="cls-4" transform="translate(249.01 451.03)">3</text><text class="cls-4" transform="translate(249.01 343.53)">4</text><text class="cls-4" transform="translate(248.01 236.02)">5</text><line class="cls-3" x1="278.79" y1="754.64" x2="278.79" y2="217.12"/><line class="cls-5" x1="277.68" y1="754.64" x2="454.02" y2="754.64"/><line class="cls-3" x1="278.79" y1="647.14" x2="308.02" y2="647.14"/><line class="cls-3" x1="278.79" y1="539.64" x2="308.02" y2="539.64"/><line class="cls-3" x1="278.79" y1="432.13" x2="308.02" y2="432.13"/><line class="cls-3" x1="278.79" y1="324.63" x2="308.02" y2="324.63"/><line class="cls-3" x1="278.79" y1="217.12" x2="308.02" y2="217.12"/><rect class="cls-6" x="1619.51" y="683.69" width="42.08" height="70.95"/><rect class="cls-6" x="1479.23" y="676.17" width="42.08" height="78.48"/><rect class="cls-6" x="1338.95" y="674.02" width="42.08" height="80.63"/><rect class="cls-6" x="1198.67" y="665.42" width="42.08" height="89.23"/><rect class="cls-6" x="1058.39" y="637.47" width="42.08" height="117.18"/><rect class="cls-6" x="918.11" y="549.31" width="42.08" height="205.33"/><rect class="cls-6" x="777.83" y="536.41" width="42.08" height="218.23"/><rect class="cls-6" x="637.55" y="375.16" width="42.08" height="379.49"/><rect class="cls-6" x="497.27" y="266.58" width="42.08" height="488.07"/><rect class="cls-6" x="356.99" y="224.65" width="42.08" height="530"/><path class="cls-7" d="M353.43,204.74l0-1.39,6.75-6.51,1,0,1.15,0-.51,6.51h2.06l-.05,1.39.05,1.34h-1.6l.39,1.8-1.43,0-1.39,0,.38-1.8h-6.84Zm6.85-5.08-5.21,3.69h5.63Z"/><path class="cls-7" d="M367.89,205l1.81.05,1.73-.05v2.85h-3.54Z"/><path class="cls-7" d="M380.12,196.58c3.17,0,5.42,2.48,5.42,5.92,0,3.65-2.64,5.62-6,5.62a6,6,0,0,1-3.79-1.12l.83-2.19a6.41,6.41,0,0,0,3.23.86c2,0,4-1.13,4-3a6,6,0,0,1-4.08,1.53c-2.5,0-4.35-1.26-4.35-3.52C375.39,198.08,377.7,196.58,380.12,196.58Zm3.58,4.51c-.3-1.33-2.29-1.79-3.65-1.79-1.53,0-2.94.6-2.94,1.77s1.59,1.8,3,1.8A4.25,4.25,0,0,0,383.7,201.09Z"/><path class="cls-7" d="M388.68,204.32a9.15,9.15,0,0,0,4.49,1.07c1,0,2.69-.14,2.69-.9s-1.07-1-3.32-1h-2l0-1.18,0-1.22h1.49c1.82,0,3.44-.29,3.44-1.09,0-.54-1.52-.64-2.45-.64a7.65,7.65,0,0,0-4,.93L388,197.86a7.33,7.33,0,0,1,4.49-1.3c2.17,0,4.72.68,4.72,3,0,1.63-1.34,2.1-2.09,2.46,1.11.41,2.45.95,2.45,2.7,0,2.6-2.43,3.44-5.05,3.44a8.39,8.39,0,0,1-4.91-1.33Z"/><path class="cls-7" d="M493.39,249.84l0-1.39,6.75-6.51,1,.05,1.16-.05-.51,6.51h2l0,1.39,0,1.35h-1.59l.39,1.8-1.43,0-1.39,0,.37-1.8h-6.83Zm6.85-5.08-5.2,3.69h5.63Z"/><path class="cls-7" d="M507.86,250.13l1.8.05,1.73-.05V253h-3.53Z"/><path class="cls-7" d="M516.44,249.23a7.43,7.43,0,0,0,4.23,1.24c2,0,3.15-.61,3.15-1.71,0-1.3-1.61-1.67-2.87-1.67a5.21,5.21,0,0,0-3.54,1.24l-1.31-.46.43-5.93h8.26l0,1.39,0,1.35h-6.58l-.71,2.22a7,7,0,0,1,4-1.07c2.44,0,4.11.89,4.11,3.18,0,2-1.4,4.25-5.08,4.25a9.28,9.28,0,0,1-5.21-1.46Z"/><path class="cls-7" d="M527.87,249.84l0-1.39,6.75-6.51,1,.05,1.15-.05-.51,6.51h2.06l-.05,1.39.05,1.35h-1.6l.39,1.8-1.42,0-1.4,0,.38-1.8h-6.84Zm6.85-5.08-5.2,3.69h5.62Z"/><path class="cls-7" d="M637.06,360.45a9,9,0,0,0,4.49,1.07c1,0,2.69-.13,2.69-.9,0-.61-1.07-1-3.32-1H639l0-1.17,0-1.23h1.49c1.82,0,3.44-.28,3.44-1.08,0-.55-1.52-.65-2.45-.65a7.56,7.56,0,0,0-4,.94L636.35,354a7.4,7.4,0,0,1,4.49-1.29c2.17,0,4.72.68,4.72,3,0,1.63-1.34,2.11-2.09,2.47,1.11.4,2.45.95,2.45,2.7,0,2.6-2.43,3.43-5,3.43A8.44,8.44,0,0,1,636,363Z"/><path class="cls-7" d="M650.34,361.17l1.8.05,1.74-.05V364h-3.54Z"/><path class="cls-7" d="M658.92,360.26a7.39,7.39,0,0,0,4.24,1.25c2,0,3.14-.62,3.14-1.72,0-1.29-1.61-1.67-2.87-1.67a5.23,5.23,0,0,0-3.54,1.24l-1.31-.46L659,353h8.26l0,1.4,0,1.34h-6.57l-.72,2.23a7,7,0,0,1,4-1.08c2.45,0,4.11.89,4.11,3.18,0,2-1.39,4.25-5.08,4.25a9.25,9.25,0,0,1-5.2-1.46Z"/><path class="cls-7" d="M671.25,360.45a9,9,0,0,0,4.49,1.07c1,0,2.68-.13,2.68-.9,0-.61-1.07-1-3.31-1h-2l0-1.17,0-1.23h1.5c1.82,0,3.43-.28,3.43-1.08,0-.55-1.51-.65-2.44-.65a7.56,7.56,0,0,0-4,.94L670.54,354A7.37,7.37,0,0,1,675,352.7c2.18,0,4.73.68,4.73,3,0,1.63-1.34,2.11-2.09,2.47,1.1.4,2.45.95,2.45,2.7,0,2.6-2.43,3.43-5.05,3.43a8.44,8.44,0,0,1-4.91-1.32Z"/><path class="cls-7" d="M788.08,522.81l0,1.38h-9.76v-2.67c2-4.22,8-3,8-4.75,0-.81-1.12-1.12-2.29-1.12a6.35,6.35,0,0,0-4.52,1.84l-1.26-2.25c.82-1.27,2.5-2.38,5.41-2.38s4.4,1.35,4.4,3.3c0,3.76-7.07,2.13-7.8,5.24h7.8Z"/><path class="cls-7" d="M792.44,521.33l1.8,0,1.73,0v2.86h-3.53Z"/><path class="cls-7" d="M800,518.7c0-4.87,3.39-5.84,5.12-5.84s5.12,1,5.12,5.84c0,4.11-2.59,5.76-5.12,5.76S800,522.81,800,518.7Zm8.54-.07c0-1.65-1.14-3-3.42-3s-3.43,1.33-3.43,3c0,2.12,1.66,3.06,3.43,3.06S808.54,520.75,808.54,518.63Z"/><path class="cls-7" d="M813.23,520.62a9.09,9.09,0,0,0,4.49,1.07c1,0,2.68-.14,2.68-.9s-1.07-1-3.31-1h-2l0-1.18,0-1.22h1.5c1.82,0,3.43-.29,3.43-1.09,0-.54-1.51-.64-2.45-.64a7.68,7.68,0,0,0-4,.93l-1.07-2.41a7.4,7.4,0,0,1,4.49-1.3c2.18,0,4.73.69,4.73,3,0,1.63-1.35,2.1-2.09,2.46,1.1.41,2.44.95,2.44,2.7,0,2.61-2.43,3.44-5,3.44a8.42,8.42,0,0,1-4.92-1.33Z"/><path class="cls-7" d="M926.74,532.3l-.46-3.28h-2.59l0-1.38,0-1.34a4.17,4.17,0,0,0,2.88-.78l.88,0,.9,0-.53,6.78.87,4.27-1.43,0-1.39,0Z"/><path class="cls-7" d="M933.79,533.71l1.8,0,1.74,0v2.86h-3.54Z"/><path class="cls-7" d="M946,525.26c3.18,0,5.43,2.49,5.43,5.92,0,3.66-2.64,5.63-6,5.63a5.92,5.92,0,0,1-3.79-1.13l.83-2.19a6.33,6.33,0,0,0,3.23.87c2,0,4-1.14,4-3a6,6,0,0,1-4.08,1.53c-2.5,0-4.35-1.25-4.35-3.51C941.29,526.76,943.6,525.26,946,525.26Zm3.59,4.51c-.3-1.33-2.29-1.79-3.65-1.79-1.53,0-2.94.6-2.94,1.77s1.59,1.8,3,1.8A4.26,4.26,0,0,0,949.6,529.77Z"/><path class="cls-7" d="M957.47,532.3,957,529h-2.58l0-1.38,0-1.34a4.14,4.14,0,0,0,2.87-.78l.89,0,.9,0-.53,6.78.87,4.27-1.43,0-1.39,0Z"/><path class="cls-7" d="M1059.71,619.43l-.46-3.28h-2.58l0-1.38,0-1.34a4.14,4.14,0,0,0,2.87-.78h1.79l-.53,6.78.87,4.27-1.43,0-1.4,0Z"/><path class="cls-7" d="M1066.77,620.84l1.8,0,1.73,0v2.86h-3.53Z"/><path class="cls-7" d="M1074.33,618.21c0-4.87,3.38-5.83,5.12-5.83s5.11,1,5.11,5.83c0,4.11-2.58,5.76-5.11,5.76S1074.33,622.32,1074.33,618.21Zm8.53-.07c0-1.65-1.13-3-3.41-3s-3.44,1.33-3.44,3c0,2.12,1.67,3.06,3.44,3.06S1082.86,620.26,1082.86,618.14Z"/><path class="cls-7" d="M1091.5,612.39c3.18,0,5.42,2.48,5.42,5.92,0,3.65-2.63,5.62-6,5.62a5.91,5.91,0,0,1-3.79-1.12l.83-2.19a6.3,6.3,0,0,0,3.23.87c2,0,4-1.14,4-3a6,6,0,0,1-4.08,1.53c-2.5,0-4.36-1.26-4.36-3.52C1086.77,613.89,1089.09,612.39,1091.5,612.39Zm3.59,4.51c-.31-1.33-2.3-1.79-3.66-1.79-1.53,0-2.94.6-2.94,1.77s1.6,1.8,3,1.8A4.27,4.27,0,0,0,1095.09,616.9Z"/><path class="cls-7" d="M1196.83,646.4c0-4.87,3.38-5.84,5.11-5.84s5.12,1,5.12,5.84c0,4.11-2.58,5.76-5.12,5.76S1196.83,650.51,1196.83,646.4Zm8.53-.07c0-1.65-1.14-3-3.42-3s-3.43,1.33-3.43,3c0,2.12,1.67,3.06,3.43,3.06S1205.36,648.45,1205.36,646.33Z"/><path class="cls-7" d="M1211.09,649l1.8.05,1.74-.05v2.86h-3.54Z"/><path class="cls-7" d="M1223.77,652.16c-2.75,0-5.08-.94-5.08-3.11a3.08,3.08,0,0,1,2.79-3v0c-1.68-.71-2.4-1.34-2.4-2.45,0-1.87,1.58-3,4.66-3s4.72,1.26,4.69,3c0,1.06-.66,1.7-2.36,2.4v0c1.68.38,2.79,1.33,2.79,3C1228.86,651.17,1226.87,652.16,1223.77,652.16Zm3.42-4c0-1.19-2.24-1.58-3.23-1.73h-.36c-1,.15-3.24.57-3.24,1.71s2.19,1.38,3.41,1.38S1227.19,649.32,1227.19,648.18Zm-6.44-3.93c0,.8,2,1.16,2.85,1.28h.36c.9-.12,2.84-.51,2.84-1.29s-1.77-1-3-1S1220.75,643.52,1220.75,644.25Z"/><path class="cls-7" d="M1231.88,648.32a9.15,9.15,0,0,0,4.49,1.07c1,0,2.69-.14,2.69-.9s-1.07-1-3.32-1h-2l0-1.18,0-1.22h1.49c1.82,0,3.44-.29,3.44-1.09,0-.54-1.52-.64-2.45-.64a7.65,7.65,0,0,0-4,.93l-1.07-2.41a7.4,7.4,0,0,1,4.49-1.3c2.17,0,4.72.69,4.72,3,0,1.63-1.34,2.1-2.09,2.46,1.11.41,2.45,1,2.45,2.7,0,2.61-2.43,3.44-5,3.44a8.36,8.36,0,0,1-4.91-1.33Z"/><path class="cls-7" d="M1337.87,654.65c0-4.87,3.39-5.84,5.12-5.84s5.12,1,5.12,5.84c0,4.11-2.59,5.76-5.12,5.76S1337.87,658.76,1337.87,654.65Zm8.54-.07c0-1.65-1.14-3-3.42-3s-3.43,1.33-3.43,3c0,2.12,1.66,3.06,3.43,3.06S1346.41,656.7,1346.41,654.58Z"/><path class="cls-7" d="M1352.14,657.28l1.8.05,1.73-.05v2.86h-3.53Z"/><path class="cls-7" d="M1359.72,650.48l0-1.39h8.54l0,1.34,0,1.39-5,8.6h-3.35l6.85-8.51h-7.1Z"/><path class="cls-7" d="M1371.65,656.38a7.43,7.43,0,0,0,4.23,1.24c2,0,3.15-.61,3.15-1.72,0-1.29-1.62-1.66-2.87-1.66a5.21,5.21,0,0,0-3.54,1.24l-1.31-.46.43-5.93H1380l0,1.39,0,1.34h-6.58l-.71,2.23a7,7,0,0,1,4-1.07c2.44,0,4.11.88,4.11,3.18,0,2-1.4,4.25-5.08,4.25a9.28,9.28,0,0,1-5.21-1.46Z"/><path class="cls-7" d="M1478.9,659.65c0-4.87,3.38-5.84,5.12-5.84s5.11,1,5.11,5.84c0,4.11-2.58,5.76-5.11,5.76S1478.9,663.76,1478.9,659.65Zm8.53-.07c0-1.65-1.14-3-3.41-3s-3.44,1.33-3.44,3c0,2.12,1.67,3.06,3.44,3.06S1487.43,661.7,1487.43,659.58Z"/><path class="cls-7" d="M1493.16,662.28l1.8.05,1.74-.05v2.86h-3.54Z"/><path class="cls-7" d="M1500.74,655.48l0-1.39h8.53l0,1.34,0,1.39-4.94,8.6H1501l6.85-8.51h-7.11Z"/><path class="cls-7" d="M1512.37,661.57a9.15,9.15,0,0,0,4.49,1.07c1,0,2.68-.14,2.68-.9s-1.07-1-3.31-1h-2l0-1.18,0-1.22h1.49c1.82,0,3.43-.29,3.43-1.09,0-.54-1.51-.64-2.44-.64a7.65,7.65,0,0,0-4,.93l-1.07-2.41a7.4,7.4,0,0,1,4.49-1.3c2.17,0,4.72.69,4.72,3,0,1.63-1.34,2.1-2.09,2.46,1.11.41,2.45,1,2.45,2.7,0,2.61-2.43,3.44-5,3.44a8.36,8.36,0,0,1-4.91-1.33Z"/><path class="cls-7" d="M1617.3,667.48c0-4.86,3.38-5.83,5.11-5.83s5.12,1,5.12,5.83c0,4.11-2.58,5.76-5.12,5.76S1617.3,671.59,1617.3,667.48Zm8.53-.07c0-1.65-1.14-3-3.42-3s-3.43,1.32-3.43,3c0,2.13,1.67,3.06,3.43,3.06S1625.83,669.54,1625.83,667.41Z"/><path class="cls-7" d="M1631.56,670.11l1.8,0,1.74,0V673h-3.54Z"/><path class="cls-7" d="M1644.53,673.19c-3.18,0-5.42-2.48-5.42-5.92,0-3.65,2.63-5.62,6-5.62a6,6,0,0,1,3.79,1.12L1648,665a6.35,6.35,0,0,0-3.22-.86c-2,0-4,1.13-4,3a6,6,0,0,1,4.08-1.53c2.5,0,4.35,1.26,4.35,3.52C1649.26,671.69,1647,673.19,1644.53,673.19Zm-3.58-4.5c.3,1.32,2.29,1.78,3.65,1.78,1.53,0,2.94-.59,2.94-1.77s-1.6-1.8-3-1.8A4.24,4.24,0,0,0,1641,668.69Z"/><path class="cls-7" d="M1657,673.19c-3.17,0-5.42-2.48-5.42-5.92,0-3.65,2.64-5.62,6-5.62a6,6,0,0,1,3.79,1.12l-.83,2.19a6.41,6.41,0,0,0-3.23-.86c-2,0-4,1.13-4,3a6,6,0,0,1,4.08-1.53c2.5,0,4.35,1.26,4.35,3.52C1661.77,671.69,1659.46,673.19,1657,673.19Zm-3.58-4.5c.3,1.32,2.29,1.78,3.65,1.78,1.53,0,2.94-.59,2.94-1.77s-1.59-1.8-3-1.8A4.24,4.24,0,0,0,1653.46,668.69Z"/></svg>