<svg id="Layer_1" data-name="Layer 1" xmlns="http://www.w3.org/2000/svg" viewBox="0 0 547.83 552.38"><defs><style>.cls-1{fill:#ffe255;}</style></defs><path class="cls-1" d="M269.76,486.62a41.23,41.23,0,0,1-34.48-18.53,45.29,45.29,0,0,0-51.58-18.18,41.11,41.11,0,0,1-42.48-10.85,40.89,40.89,0,0,1-11.35-30.33,45.5,45.5,0,0,0-31.05-45,41.31,41.31,0,0,1-19.35-64.95,45.48,45.48,0,0,0,1.35-54.68,41.3,41.3,0,0,1,22.53-63.92,45.49,45.49,0,0,0,33.23-43.44,41.23,41.23,0,0,1,55.8-38.48,44.93,44.93,0,0,0,15.88,2.88,45.47,45.47,0,0,0,36.53-18.49,41.31,41.31,0,0,1,67.76,1.67,45.29,45.29,0,0,0,51.58,18.18,41,41,0,0,1,42.48,10.85A40.86,40.86,0,0,1,418,143.65a45.46,45.46,0,0,0,31,45,41.31,41.31,0,0,1,19.35,65A45.48,45.48,0,0,0,467,308.3a41.31,41.31,0,0,1-22.53,63.93,45.47,45.47,0,0,0-33.22,43.44,41.21,41.21,0,0,1-55.8,38.47A45.31,45.31,0,0,0,303,469.76,40.9,40.9,0,0,1,269.76,486.62Z"/><path d="M278.07,67.76a39.22,39.22,0,0,1,32.81,17.63,47.27,47.27,0,0,0,53.86,19,39.07,39.07,0,0,1,40.43,10.33A38.89,38.89,0,0,1,416,143.56a47.47,47.47,0,0,0,32.41,47,39.31,39.31,0,0,1,18.42,61.81,47.48,47.48,0,0,0-1.41,57.09A39.32,39.32,0,0,1,444,370.3a47.47,47.47,0,0,0-34.69,45.36,39.22,39.22,0,0,1-53.1,36.61,47.3,47.3,0,0,0-54.73,16.3A39.3,39.3,0,0,1,237,467a47.31,47.31,0,0,0-53.85-19,39.07,39.07,0,0,1-40.43-10.33,38.84,38.84,0,0,1-10.8-28.85,47.47,47.47,0,0,0-32.42-47A39.31,39.31,0,0,1,81,300a47.5,47.5,0,0,0,1.41-57.09,39.31,39.31,0,0,1,21.43-60.83,47.49,47.49,0,0,0,34.7-45.35,39.21,39.21,0,0,1,53.09-36.61A47.33,47.33,0,0,0,246.4,83.8a38.93,38.93,0,0,1,31.67-16m0-4a43,43,0,0,0-34.89,17.68h0a43.32,43.32,0,0,1-50.1,14.92h0a43.22,43.22,0,0,0-58.5,40.34h0a43.32,43.32,0,0,1-31.76,41.52h0a43.31,43.31,0,0,0-23.62,67h0a43.31,43.31,0,0,1-1.29,52.26h0A43.3,43.3,0,0,0,98.2,365.6h0a43.31,43.31,0,0,1,29.67,43h0a43.21,43.21,0,0,0,56.44,43.17h0a43.33,43.33,0,0,1,49.31,17.38h0a43.3,43.3,0,0,0,71,1.75h0A43.29,43.29,0,0,1,354.76,456a43.22,43.22,0,0,0,58.5-40.34h0A43.29,43.29,0,0,1,445,374.16h0a43.31,43.31,0,0,0,23.62-67h0a43.3,43.3,0,0,1,1.28-52.26h0a43.31,43.31,0,0,0-20.28-68.11h0a43.31,43.31,0,0,1-29.68-43h0a43.21,43.21,0,0,0-56.44-43.17,43.27,43.27,0,0,1-49.3-17.37h0a43.05,43.05,0,0,0-36.15-19.43Z"/><path d="M234.14,195.11l-.86-10.1h-11l-.43-7h28.94l-.43,7H239.47l-.86,10.1,2.2,10.75-4.43-.08-4.43.08Z"/><path d="M277.66,204.23a27.42,27.42,0,0,1-11.1,2.32c-8.08,0-14-3.66-14-11.05,0-6.71,5-11.65,13.2-11.65,6.36,0,11.95,2.88,11.95,10.19a21,21,0,0,1-.26,3.18l-20.29.08c0,2.63,4.38,3.36,8.34,3.36a23.13,23.13,0,0,0,10.28-2.15Zm-4.43-10.11c0-2.71-3.1-4.51-7.83-4.51-4.9,0-8.12,1.8-8.12,4.51Z"/><path d="M281.61,197a27.79,27.79,0,0,0,13.25,3.57c3.31,0,4.26-.69,4.26-1.68,0-3.95-17.76.52-17.76-8.43,0-4.77,5.46-6.62,11.95-6.62a20.56,20.56,0,0,1,9.37,2.15L301,191.71a33.16,33.16,0,0,0-10.75-1.84c-1.72,0-4.21.17-4.21,1.5,0,3.61,17.8-.9,17.8,8.3,0,4.9-5.12,6.88-10.45,6.88-4.81,0-10-1.55-13.07-3.78Z"/><path d="M321,199.28a14.27,14.27,0,0,0,4.26-.73L326,205a21.44,21.44,0,0,1-8.09,1.51c-7.52,0-8.47-3.48-7.57-7.14l1.08-4.26v-5.07h-5l.22-2.71-.18-2.92h4.18l-1.77-7.53,4.65.13,4.38-.13-1.59,7.53h7.57l-.17,2.88.13,2.75h-8.43v5.07C315.37,197.86,317.78,199.28,321,199.28Z"/><path d="M188.76,236v.69l-8,13.8-5.12,9.76c-2,3.62-7.57,6.15-14.1,4.13l.64-7.09c3.7,1.07,7.83,1.42,9.2-1.47l-2.66-5.33-8-13.71V236h8.39l5.33,16.6L180,236Z"/><path d="M190.05,246.8c0-6.54,5.16-11.35,13.2-11.35s13.16,4.81,13.16,11.35c0,7.18-5.38,11.35-13.16,11.35S190.05,254,190.05,246.8Zm21.75.21c0-2.1-2.45-4.47-8.55-4.47s-8.6,2.37-8.6,4.47c0,2.41,3.27,4,8.55,4S211.8,249.42,211.8,247Z"/><path d="M244.87,246.75l2.19,10.71-4.43-.13-2.62.13.13-5.07c-2.92,3.44-6.06,5.67-10.45,5.67-4.81,0-9.63-2.66-8.25-7.91l.9-3.4-2.06-10.7,4.25.13,4.26-.13-2.11,10.7c-.47,2.41,1.64,4.22,5.33,4.22a13.9,13.9,0,0,0,8.17-2.93l-2-12,4.42.13,4.43-.13Z"/><path d="M254.42,246.75l-2.2-10.7,4.43.13,2.71-.13-.26,5.07c2.67-3.18,6.37-5.63,10.19-5.63v7.14a7.93,7.93,0,0,0-1.16-.09,17.06,17.06,0,0,0-9.2,3.05l2.15,11.87-4.43-.13-4.43.13Z"/><path d="M286.49,246.8c0-6.54,5.17-11.35,13.21-11.35s13.15,4.81,13.15,11.35c0,7.18-5.37,11.35-13.15,11.35S286.49,254,286.49,246.8Zm21.76.21c0-2.1-2.45-4.47-8.55-4.47s-8.6,2.37-8.6,4.47c0,2.41,3.26,4,8.55,4S308.25,249.42,308.25,247Z"/><path d="M344.93,257.46l-2.92-.13-3.1.13-2.15-7-2.88-7.91-3,7.91-2.24,7-3-.17-2.88.17-2.54-7L314.14,236H323l2.32,17.2,6.5-17.11,2,.13,2-.13L342,253.2,344.5,236h8.9l-6,14.49Z"/><path d="M358.17,246.75,356,236.05l4.43.13,4.43-.13-.95,4a14.09,14.09,0,0,1,10.32-4.6c4.82,0,9.64,2.66,8.26,7.91l-.9,3.39,2.06,10.71-4.26-.13-4.25.13,2.1-10.71c.48-2.4-1.63-4.21-5.33-4.21a17.06,17.06,0,0,0-9.2,3.05l2.15,11.87-4.43-.13-4.43.13Z"/><path d="M210.3,309.06l-2.93-.13-3.09.13-2.15-7-2.88-7.91-3,7.91-2.24,7-3-.17-2.88.17-2.53-7-6.11-14.49h8.86l2.32,17.2,6.49-17.11,2,.13,2-.13,6.1,17.15,2.54-17.24h8.9l-6,14.49Z"/><path d="M245.17,307.43a27.41,27.41,0,0,1-11.09,2.32c-8.09,0-14-3.66-14-11.05,0-6.71,5-11.65,13.2-11.65,6.36,0,12,2.88,12,10.19a22.24,22.24,0,0,1-.25,3.18l-20.3.08c0,2.63,4.39,3.36,8.34,3.36a23.13,23.13,0,0,0,10.28-2.15Zm-4.43-10.11c0-2.71-3.09-4.51-7.82-4.51-4.9,0-8.13,1.8-8.13,4.51Z"/><path d="M256.65,291.43a13.71,13.71,0,0,1,9.55-4.38,11.73,11.73,0,0,1,11.61,11.35,11.44,11.44,0,0,1-11.31,11.35,13,13,0,0,1-10.49-5.2l.21,4.51-2.71-.13-4.43.13,2.2-10.71-2.2-19.3,4.43.08,4.43-.13Zm-.86,8.52a15.79,15.79,0,0,0,9,2.58c4.56,0,8.34-1.72,8.34-4.13s-3.78-4.26-8.73-4.26a13.49,13.49,0,0,0-8.3,2.49l-.3,3Z"/><path d="M281.72,300.16A27.76,27.76,0,0,0,295,303.73c3.31,0,4.25-.69,4.25-1.68,0-3.95-17.76.52-17.76-8.42,0-4.78,5.46-6.63,12-6.63a20.56,20.56,0,0,1,9.37,2.15l-1.72,5.77a33,33,0,0,0-10.75-1.85c-1.72,0-4.21.17-4.21,1.5,0,3.61,17.8-.9,17.8,8.3,0,4.9-5.12,6.88-10.45,6.88-4.82,0-10-1.55-13.07-3.78Z"/><path d="M307.78,275.91l4.56.13,4.38-.13v7.22h-8.94ZM310,298.35l-2.19-10.7,4.43.13,4.43-.13-2.19,10.7,2.19,10.71-4.43-.13-4.43.13Z"/><path d="M335.21,302.48a14.27,14.27,0,0,0,4.26-.73l.69,6.49a21.44,21.44,0,0,1-8.09,1.51c-7.52,0-8.47-3.48-7.56-7.14l1.07-4.26v-5.07h-5l.22-2.71-.17-2.92h4.17L323,280.12l4.65.13,4.38-.13-1.59,7.53h7.57l-.17,2.88.13,2.75h-8.43v5.07C329.58,301.06,332,302.48,335.21,302.48Z"/><path d="M367,307.43a27.41,27.41,0,0,1-11.09,2.32c-8.09,0-14-3.66-14-11.05,0-6.71,5-11.65,13.2-11.65,6.36,0,11.95,2.88,11.95,10.19a21,21,0,0,1-.26,3.18l-20.29.08c0,2.63,4.38,3.36,8.34,3.36a23.13,23.13,0,0,0,10.28-2.15Zm-4.43-10.11c0-2.71-3.1-4.51-7.83-4.51-4.9,0-8.12,1.8-8.12,4.51Z"/><path d="M223.05,342.73a14,14,0,0,1,9.8-4.08c4.82,0,9.63,2.66,8.26,7.91l-.9,3.39,2.06,10.71-4.26-.13-4.25.13,2.1-10.71c.48-2.4-1.63-4.21-5.33-4.21a16.91,16.91,0,0,0-8.17,2.41l2.19,12.51-4.43-.13-4.42.13L217.89,350,215.7,330.6l4.42.13,4.43-.13Z"/><path d="M271.25,359a27.41,27.41,0,0,1-11.09,2.32c-8.09,0-14-3.66-14-11.05,0-6.71,5-11.65,13.2-11.65,6.36,0,12,2.88,12,10.19A22.24,22.24,0,0,1,271,352l-20.3.08c0,2.63,4.39,3.36,8.34,3.36a23.13,23.13,0,0,0,10.28-2.15Zm-4.43-10.11c0-2.71-3.09-4.51-7.82-4.51-4.91,0-8.13,1.8-8.13,4.51Z"/><path d="M277.36,350l-2.2-10.7,4.43.13,2.71-.13-.26,5.07c2.67-3.18,6.37-5.63,10.19-5.63v7.14a7.93,7.93,0,0,0-1.16-.09,17.06,17.06,0,0,0-9.2,3.05L284,360.66l-4.43-.13-4.43.13Z"/><path d="M319.5,359a27.45,27.45,0,0,1-11.1,2.32c-8.08,0-14-3.66-14-11.05,0-6.71,5-11.65,13.21-11.65,6.36,0,12,2.88,12,10.19a22.36,22.36,0,0,1-.26,3.18L299,352.1c0,2.63,4.38,3.36,8.34,3.36a23.09,23.09,0,0,0,10.27-2.15Zm-4.43-10.11c0-2.71-3.1-4.51-7.83-4.51-4.9,0-8.13,1.8-8.13,4.51Z"/><path d="M324.1,344.54l-2-14.62,5,.13,5-.13-2,14.62v6.27h-6Zm-1.47,8.9,4.56.13,4.39-.13v7.22h-8.95Z"/></svg>