<svg id="Layer_1" data-name="Layer 1" xmlns="http://www.w3.org/2000/svg" viewBox="0 0 547.83 552.38"><defs><style>.cls-1{fill:#ffe255;}.cls-2{font-size:43px;font-family:Moche-Bold, Moche;font-weight:700;}</style></defs><path class="cls-1" d="M269.76,486.62a41.23,41.23,0,0,1-34.48-18.53,45.29,45.29,0,0,0-51.58-18.18,41.11,41.11,0,0,1-42.48-10.85,40.89,40.89,0,0,1-11.35-30.33,45.5,45.5,0,0,0-31.05-45,41.31,41.31,0,0,1-19.35-64.95,45.48,45.48,0,0,0,1.35-54.68,41.3,41.3,0,0,1,22.53-63.92,45.49,45.49,0,0,0,33.23-43.44,41.23,41.23,0,0,1,55.8-38.48,44.93,44.93,0,0,0,15.88,2.88,45.47,45.47,0,0,0,36.53-18.49,41.31,41.31,0,0,1,67.76,1.67,45.29,45.29,0,0,0,51.58,18.18,41,41,0,0,1,42.48,10.85A40.86,40.86,0,0,1,418,143.65a45.46,45.46,0,0,0,31,45,41.31,41.31,0,0,1,19.35,65A45.48,45.48,0,0,0,467,308.3a41.31,41.31,0,0,1-22.53,63.93,45.47,45.47,0,0,0-33.22,43.44,41.21,41.21,0,0,1-55.8,38.47A45.31,45.31,0,0,0,303,469.76,40.9,40.9,0,0,1,269.76,486.62Z"/><path d="M278.07,67.76a39.22,39.22,0,0,1,32.81,17.63,47.27,47.27,0,0,0,53.86,19,39.07,39.07,0,0,1,40.43,10.33A38.89,38.89,0,0,1,416,143.56a47.47,47.47,0,0,0,32.41,47,39.31,39.31,0,0,1,18.42,61.81,47.48,47.48,0,0,0-1.41,57.09A39.32,39.32,0,0,1,444,370.3a47.47,47.47,0,0,0-34.69,45.36,39.22,39.22,0,0,1-53.1,36.61,47.3,47.3,0,0,0-54.73,16.3A39.3,39.3,0,0,1,237,467a47.31,47.31,0,0,0-53.85-19,39.07,39.07,0,0,1-40.43-10.33,38.84,38.84,0,0,1-10.8-28.85,47.47,47.47,0,0,0-32.42-47A39.31,39.31,0,0,1,81,300a47.5,47.5,0,0,0,1.41-57.09,39.31,39.31,0,0,1,21.43-60.83,47.49,47.49,0,0,0,34.7-45.35,39.21,39.21,0,0,1,53.09-36.61A47.33,47.33,0,0,0,246.4,83.8a38.93,38.93,0,0,1,31.67-16m0-4a43,43,0,0,0-34.89,17.68h0a43.32,43.32,0,0,1-50.1,14.92h0a43.22,43.22,0,0,0-58.5,40.34h0a43.32,43.32,0,0,1-31.76,41.52h0a43.31,43.31,0,0,0-23.62,67h0a43.31,43.31,0,0,1-1.29,52.26h0A43.3,43.3,0,0,0,98.2,365.6h0a43.31,43.31,0,0,1,29.67,43h0a43.21,43.21,0,0,0,56.44,43.17h0a43.33,43.33,0,0,1,49.31,17.38h0a43.3,43.3,0,0,0,71,1.75h0A43.29,43.29,0,0,1,354.76,456a43.22,43.22,0,0,0,58.5-40.34h0A43.29,43.29,0,0,1,445,374.16h0a43.31,43.31,0,0,0,23.62-67h0a43.3,43.3,0,0,1,1.28-52.26h0a43.31,43.31,0,0,0-20.28-68.11h0a43.31,43.31,0,0,1-29.68-43h0a43.21,43.21,0,0,0-56.44-43.17,43.27,43.27,0,0,1-49.3-17.37h0a43.05,43.05,0,0,0-36.15-19.43Z"/><text class="cls-2" transform="translate(221.46 205.86)">Test <tspan x="-59.83" y="51.6">your own </tspan><tspan x="-41.95" y="103.2">website </tspan><tspan x="-8.34" y="154.8">here!</tspan></text></svg>