<svg id="Layer_1" data-name="Layer 1" xmlns="http://www.w3.org/2000/svg" viewBox="0 0 1920 1451.87"><defs><style>.cls-1,.cls-17,.cls-3{fill:none;}.cls-1,.cls-17{stroke:#1a1a1a;}.cls-1{stroke-linejoin:bevel;}.cls-1,.cls-2{stroke-width:4px;}.cls-16,.cls-19,.cls-2{fill:#fff;}.cls-19,.cls-2,.cls-3{stroke:#000;stroke-miterlimit:10;}.cls-3{stroke-width:2px;}.cls-4{fill:#141414;}.cls-5{fill:#272727;}.cls-6{fill:#3b3b3b;}.cls-7{fill:#4e4e4e;}.cls-8{fill:#626262;}.cls-9{fill:#767676;}.cls-10{fill:#898989;}.cls-11{fill:#9d9d9d;}.cls-12{fill:#b1b1b1;}.cls-13{fill:#c4c4c4;}.cls-14{fill:#d8d8d8;}.cls-15{fill:#ebebeb;}.cls-17{stroke-linecap:round;stroke-linejoin:round;stroke-width:9.69px;}.cls-18{fill:#1a1a1a;}.cls-19{stroke-width:3.99px;}.cls-20{font-size:37.26px;font-family:P22Underground-BkP, P22 Underground;}</style></defs><circle class="cls-1" cx="960" cy="723.1" r="636.57"/><path class="cls-1" d="M960,723.1V86.53S771.17,203.22,771.17,723.1"/><path class="cls-1" d="M593.74,723.1C593.74,188,960,86.53,960,86.53S454.33,162.66,454.33,723.1"/><path class="cls-1" d="M727.2,130.45c.56-.22,33.81,103.7,232.8,103.7"/><path class="cls-1" d="M510.39,272.48S565.84,429.33,960,429.33"/><path class="cls-1" d="M395.15,429.33s71.83,180,564.85,180"/><path class="cls-1" d="M960,723.1V86.53s188.83,116.69,188.83,636.57"/><path class="cls-1" d="M1326.26,723.1C1326.26,188,960,86.53,960,86.53s505.67,76.13,505.67,636.57"/><path class="cls-1" d="M1192.8,130.45c-.56-.22-33.81,103.7-232.8,103.7"/><path class="cls-1" d="M1409.61,272.48S1354.16,429.33,960,429.33"/><path class="cls-1" d="M1524.85,429.33s-71.83,180-564.85,180"/><line class="cls-1" x1="323.43" y1="723.1" x2="1596.57" y2="723.1"/><path class="cls-1" d="M960,723.37v636.57s188.83-116.69,188.83-636.57"/><path class="cls-1" d="M1326.26,723.37c0,535.09-366.26,636.57-366.26,636.57s505.67-76.13,505.67-636.57"/><path class="cls-1" d="M1192.8,1316c-.56.23-33.81-103.69-232.8-103.69"/><path class="cls-1" d="M1409.61,1174S1354.16,1017.14,960,1017.14"/><path class="cls-1" d="M1524.85,1017.14s-71.83-180-564.85-180"/><path class="cls-1" d="M960,723.37v636.57S771.17,1243.25,771.17,723.37"/><path class="cls-1" d="M593.74,723.37c0,535.09,366.26,636.57,366.26,636.57s-505.67-76.13-505.67-636.57"/><path class="cls-1" d="M727.2,1316c.56.23,33.81-103.69,232.8-103.69"/><path class="cls-1" d="M510.39,1174S565.84,1017.14,960,1017.14"/><path class="cls-1" d="M395.15,1017.14s71.83-180,564.85-180"/><path class="cls-2" d="M1659.52,612a48.32,48.32,0,0,0-14.61,2.25c-13.46-35.19-41.81-59.44-74.62-59.44-25.54,0-48.38,14.7-63.59,37.81a74.21,74.21,0,0,0-104.42,67.78h305.64A48.4,48.4,0,0,0,1659.52,612Z"/><rect class="cls-2" x="1460.98" y="314.3" width="85.14" height="151.68" rx="9.86" transform="translate(167.05 -401.47) rotate(16.09)"/><rect x="1472.2" y="325.31" width="66.41" height="116.78" transform="translate(165.34 -402.24) rotate(16.09)"/><circle class="cls-3" cx="1486.01" cy="450.93" r="6.37"/><rect class="cls-2" x="704.58" y="335.41" width="195.13" height="125.08" rx="10.14" transform="translate(-63.64 169.44) rotate(-11.6)"/><rect class="cls-2" x="792.74" y="458.9" width="50.27" height="31.34" transform="translate(-78.73 174.17) rotate(-11.6)"/><rect class="cls-2" x="772.05" y="489.89" width="99.96" height="9.75" transform="translate(-82.7 175.42) rotate(-11.6)"/><rect x="711.88" y="343.4" width="177.7" height="95.28" transform="translate(-62.28 169.02) rotate(-11.6)"/><circle cx="821.02" cy="387.57" r="2.87"/><circle class="cls-4" cx="817.13" cy="379.03" r="2.87"/><circle class="cls-5" cx="810.23" cy="373.22" r="2.88"/><circle class="cls-6" cx="801.45" cy="371.38" r="2.89"/><circle class="cls-7" cx="792.54" cy="374.26" r="2.89"/><circle class="cls-8" cx="786.25" cy="380.7" r="2.9"/><circle class="cls-9" cx="783.54" cy="389.32" r="2.9"/><circle class="cls-10" cx="785.22" cy="398.58" r="2.91"/><circle class="cls-11" cx="790.8" cy="405.73" r="2.92"/><circle class="cls-12" cx="798.94" cy="409.52" r="2.92"/><circle class="cls-13" cx="808.34" cy="409.11" r="2.93"/><circle class="cls-14" cx="816.29" cy="404.52" r="2.93"/><circle class="cls-15" cx="820.8" cy="396.98" r="2.94"/><circle class="cls-16" cx="821.11" cy="387.63" r="2.94"/><path class="cls-17" d="M1017,535.07a75.07,75.07,0,0,1,84.33-22.37"/><path class="cls-17" d="M1031.77,547.71a55.7,55.7,0,0,1,63-16.83"/><path class="cls-17" d="M1046.52,560.25a36.38,36.38,0,0,1,41.72-11.13"/><circle class="cls-18" cx="1071.83" cy="571.42" r="8.5"/><circle cx="1279.92" cy="273.91" r="46.66"/><path class="cls-16" d="M1301.75,271.92a1.83,1.83,0,0,1,0,3.16l-16.41,9.47L1268.93,294a1.83,1.83,0,0,1-2.74-1.58v-37.9a1.83,1.83,0,0,1,2.74-1.58l16.41,9.48Z"/><path d="M1139.58,326.63c-2.1,21.13-47.77,73.77-47.77,73.77S1061,340.18,1063,319a38.46,38.46,0,0,1,76.54,7.59Z"/><circle class="cls-16" cx="1101.52" cy="320.75" r="18.33"/><g id="v8VwRN.tif"><path d="M1230.1,478.43c2.24.46,4.48.94,6.73,1.36a.9.9,0,0,1,.86.91q1.83,13.43,3.71,26.86a1.47,1.47,0,0,0,.24.72l5.39-26.34,7.09,1.45-9,44.17-3.4-.31c-1.41-.14-2.81-.29-4.21-.4-.52,0-.68-.24-.75-.74q-1.7-12.35-3.41-24.67a2.33,2.33,0,0,0-.24-.84L1227.86,526c-1.45-.1-2.8-.21-4.16-.29-.85-.06-1.7-.07-2.55-.11l-.68-.13Z"/><path d="M1393.87,561l-4.21-1.55c-.72-.25-1.44-.52-2.17-.72a1,1,0,0,1-.8-.94c-.61-4.6-1.26-9.19-1.9-13.78,0-.22-.07-.44-.14-.83-.22.32-.36.51-.49.71-2.36,3.53-4.72,7.06-7.05,10.6a.89.89,0,0,1-1.23.43c-1.81-.61-3.65-1.16-5.48-1.74l-.84-.29.64-1q6.32-9.48,12.6-19a2,2,0,0,0,.27-1.2c-1-7.29-2-14.58-3-21.86,0-.23,0-.45-.07-.73l7.41,1.52c.59,4.17,1.17,8.36,1.77,12.69.23-.32.38-.52.52-.73,2.12-3.18,4.25-6.36,6.35-9.57a.91.91,0,0,1,1.12-.45c2,.45,4.08.85,6.11,1.27l.72.15c-.16.26-.27.46-.39.65q-6.27,9.42-12.53,18.84a1.73,1.73,0,0,0-.33,1.06c1.19,8.77,2.42,17.54,3.63,26.31a1.17,1.17,0,0,0,.05.2Z"/><path d="M1262.25,485l17.67,3.62-1.39,6.76-10.17-2.08L1266,504.83l8.81,1.81-1.4,6.85-8.84-1.81-2.23,10.89,10.34,1.42-1.4,6.81-17.92-2.34Z"/><path d="M1315.73,496l17.66,3.62-1.39,6.78-10.18-2.09-2.35,11.49,8.8,1.8-1.4,6.83-8.86-1.81-3.27,16-7.41-1.52Z"/><path d="M1293.07,534.36l-7.48-1.31,7.1-34.66-6.9-1.41,1.39-6.83,21.23,4.34-1.39,6.78-6.89-1.41Z"/><path d="M1341,537.61l10.13,2.69-1.4,6.8-17.49-4.51,8.49-41.48,7.43,1.52Z"/><path d="M1365.49,506.17l7.41,1.51L1364,551.2l-4.14-1.2c-.82-.24-1.63-.53-2.46-.71-.58-.13-.66-.37-.55-.91q2-9.82,4-19.66l4.44-21.7Z"/></g><path class="cls-19" d="M550.08,506.92a77.16,77.16,0,0,0-23.52,3.65c-21.65-57-67.29-96.32-120.09-96.32-41.09,0-77.84,23.8-102.32,61.23a118.43,118.43,0,0,0-48.63-10.39c-66,0-119.44,53.84-119.44,120.25H628C628,542,593.09,506.92,550.08,506.92Z"/><path d="M996.59,174.89l-81.36,16.75a10.21,10.21,0,0,0-7.94,12.06l8.17,39.67a10.2,10.2,0,0,0,12,7.94l27.29-5.62,17.29,16.16,9.49-21.67,27.29-5.62a10.21,10.21,0,0,0,7.94-12.05l-8.17-39.68A10.21,10.21,0,0,0,996.59,174.89Z"/><path class="cls-16" d="M950.54,201.2c-5.52,1.13-5.71,7.85-5.71,7.85s-2.83-6.1-8.35-5-7.2,7.09-5.91,10.68c3,8.29,18.33,14,18.33,14s11.83-11.34,11.29-20.14C960,204.87,956.06,200.06,950.54,201.2Z"/><path class="cls-16" d="M978.7,215.94l4.58-.94-2.77-13.44-3.78.78-.48-2.33a13.43,13.43,0,0,0,4.38-2.66l2.76-.57,3.6,17.46,4-.83.62,3L979.32,219Z"/><g id="he9QYG"><rect class="cls-16" x="637.91" y="227.2" width="87.8" height="57.72" rx="7.02" transform="translate(-20.98 64.97) rotate(-5.37)"/><path d="M645.47,225.77c6-.66,11.66-1.35,17.35-1.9q16.3-1.56,32.65-3c5.07-.43,10.17-.69,15.26-.91a44.66,44.66,0,0,1,7.93.07c5,.68,8.48,3.58,10.75,8,1.11,2.17,1.3,4.53,1.65,6.86s.6,4.55.84,6.84c.59,5.61,1.24,11.21,1.7,16.84.29,3.7.26,7.42.43,11.14a17.19,17.19,0,0,1-1.11,7.71,14.48,14.48,0,0,1-9.34,8.35,30.46,30.46,0,0,1-5.82.94q-8.67,1-17.34,1.88-9.46,1-18.91,1.92c-3,.29-6,.52-9,.72q-7.35.48-14.69.86c-3,.16-6.06.28-9.1.34a12.62,12.62,0,0,1-6.24-1.64,14.28,14.28,0,0,1-7.62-10.46c-.6-3.33-1-6.71-1.38-10.08-.51-4.42-1-8.84-1.37-13.28-.27-3.32-.33-6.67-.47-10-.09-1.9-.12-3.81-.22-5.72a14.48,14.48,0,0,1,2.92-9.69,14,14,0,0,1,8.7-5.42C643.91,226,644.84,225.88,645.47,225.77Zm37.09,6.79,3.92,45.1,6.23-.54-.19-2.14a27.18,27.18,0,0,0,2.73,1.65c3.23,1.42,6.84,0,7.81-3a8.08,8.08,0,0,0,.43-3.07c-.67-7.61-1.21-15.25-2.24-22.82a5.4,5.4,0,0,0-8.35-4.14A26.78,26.78,0,0,0,690,246L688.76,232Zm42.88,26c-.49-3.91-.94-7.67-1.43-11.43a7.67,7.67,0,0,0-2.2-4.36c-2.86-3-9.09-2.81-12.34.12-2.56,2.29-3.23,5.24-3,8.5.45,5.28.91,10.57,1.41,15.85a10.33,10.33,0,0,0,2.27,5.81c2.29,2.77,5.32,3.26,8.66,2.67a7.67,7.67,0,0,0,5.95-3.94c1.63-3.15,1.15-6.49.75-9.82l-6.19.53c.08,1.75.2,3.4.2,5.05s-.68,2.27-2,2.43c-1.81.23-2.71-.19-3-1.83-.49-2.8-.75-5.65-1.11-8.55Zm-45,19.64-2.9-33.4-6.07.53.1,1.17c.64,7.36,1.22,14.73,2,22.08a3.55,3.55,0,0,1-1.51,3.5,9.28,9.28,0,0,1-.78.58c-1.4.88-2.61.3-2.76-1.34l-2-23.64c-.06-.63-.11-1.27-.17-1.87l-6.2.54c0,.39.07.71.09,1,.8,9.11,1.58,18.22,2.4,27.33a10.46,10.46,0,0,0,.57,2.46,3.85,3.85,0,0,0,4.25,2.67,6.46,6.46,0,0,0,3.7-1.59c1-.87,2-1.87,3-2.87l.29,3.36Zm-24.4,2.12-3.31-38.13,7-.61-.61-7-21,1.82.61,7.1,7.1-.61,3.31,38.07Z"/><path d="M587,269.56q-.39-4.43-.77-8.85c-.34-4,1.54-6.89,5.35-8.32a9.76,9.76,0,0,1,7.61.15,7.29,7.29,0,0,1,4.35,5.56c.48,2.54.66,5.15.91,7.73.34,3.59.67,7.19.92,10.79a9,9,0,0,1-2.29,7.17,8.72,8.72,0,0,1-5.4,2.42,9.27,9.27,0,0,1-6.26-1.25,7.68,7.68,0,0,1-3.25-4.56,25.73,25.73,0,0,1-.57-4C587.41,274.1,587.24,271.83,587,269.56Zm11.39-.88h0c-.27-3.18-.54-6.35-.83-9.52a1.68,1.68,0,0,0-.25-.72,3,3,0,0,0-3.42-.92,2.11,2.11,0,0,0-1.52,2.41q.82,9.44,1.7,18.85a2.14,2.14,0,0,0,2.64,1.9,2.48,2.48,0,0,0,2.47-2.58Q598.85,273.39,598.43,268.68Z"/><path d="M561.78,243.53c2.16-.18,4.19-.39,6.24-.5.26,0,.71.38.81.67,1.85,5.31,3.66,10.63,5.5,15.95a6.87,6.87,0,0,0,.47.94l.32,0c.17-1.08.36-2.16.51-3.25.55-3.75,1.07-7.5,1.62-11.24.16-1.08.33-2.17.59-3.23a1.17,1.17,0,0,1,.77-.73c2-.23,4-.38,6.13-.56-.42,1.94-.84,3.82-1.24,5.7l-3.33,16a12.69,12.69,0,0,1-.46,1.68c-1.05,2.94-.41,5.91-.18,8.87.31,3.93.68,7.85,1,11.77l.1,1.16-6.28.55c-.67.06-.6-.46-.64-.86-.29-3.24-.57-6.49-.85-9.73a55,55,0,0,0-.6-6.31,32.23,32.23,0,0,0-1.86-5.4q-2.67-6.83-5.43-13.62C564,248.81,562.9,246.25,561.78,243.53Z"/><path d="M619.85,250.43l5.91-.52,2.83,32.64-5.94.51-.29-3.25A38.85,38.85,0,0,1,619,283c-1.55,1.18-3.87,2-5.86.82a3.42,3.42,0,0,1-1.34-1.41,10.62,10.62,0,0,1-.86-3.15c-.84-9.14-1.62-18.28-2.41-27.43a2.58,2.58,0,0,1,0-.35l5.91-.51c0,.33.11.67.14,1q1,11.28,2,22.57c.06.65.14,1.29.21,1.94.21,1.67,1.37,2.25,2.8,1.31a11.45,11.45,0,0,0,2-1.81,1.5,1.5,0,0,0,.29-1q-1-11.82-2-23.64C619.84,251,619.85,250.75,619.85,250.43Z"/><path d="M696.27,260.56c.25,2.91.51,5.83.76,8.74.12,1.43-.26,2.3-1.15,2.66a3.66,3.66,0,0,1-3.58-.94,1.69,1.69,0,0,1-.21-.82l-1.65-18.95A2.09,2.09,0,0,1,692,249a2.2,2.2,0,0,1,2.78.71,5.58,5.58,0,0,1,.68,2.1C695.8,254.73,696,257.64,696.27,260.56Z"/><path d="M713,253.85c0-1.69-.1-3.33,0-5a2,2,0,0,1,2.13-1.87c1.43-.12,2.29.24,2.62,1.46.42,1.57.6,3.21.89,4.88Z"/></g><text class="cls-20" transform="matrix(0.79, -0.62, 0.62, 0.79, 531.21, 196.61)">T</text><text class="cls-20" transform="translate(555.2 178.01) rotate(-35.3)">H</text><text class="cls-20" transform="matrix(0.84, -0.54, 0.54, 0.84, 583.43, 158.3)">E</text><text class="cls-20" transform="matrix(0.86, -0.51, 0.51, 0.86, 607.37, 143.21)"> </text><text class="cls-20" transform="translate(620.65 135.24) rotate(-28.72)">C</text><text class="cls-20" transform="matrix(0.9, -0.44, 0.44, 0.9, 650.99, 118.85)">A</text><text class="cls-20" transform="matrix(0.92, -0.4, 0.4, 0.92, 680.03, 104.95)">R</text><text class="cls-20" transform="matrix(0.94, -0.36, 0.35, 0.94, 707.87, 93.15)">B</text><text class="cls-20" transform="translate(735.44 82.78) rotate(-17.85)">O</text><text class="cls-20" transform="translate(772.57 71.07) rotate(-14.69)">N</text><text class="cls-20" transform="matrix(0.98, -0.22, 0.22, 0.98, 807.47, 62.26)"> </text><text class="cls-20" transform="translate(824.06 58.64) rotate(-10.6)">F</text><text class="cls-20" transform="translate(848.49 54.05) rotate(-7.99)">O</text><text class="cls-20" transform="translate(887.07 48.84) rotate(-4.73)">O</text><text class="cls-20" transform="translate(922.97 46.07) rotate(-2.1)">T</text><text class="cls-20" transform="matrix(1, 0.02, -0.02, 1, 953.28, 45.02)">P</text><text class="cls-20" transform="translate(981.53 45.41) rotate(2.73)">R</text><text class="cls-20" transform="translate(1011.76 47.09) rotate(4.67)">I</text><text class="cls-20" transform="translate(1028.27 48.4) rotate(6.87)">N</text><text class="cls-20" transform="matrix(0.99, 0.17, -0.17, 0.99, 1063.89, 52.93)">T</text><text class="cls-20" transform="matrix(0.98, 0.2, -0.2, 0.98, 1091.66, 57.84)"> </text><text class="cls-20" transform="translate(1106.82 60.81) rotate(13.7)">O</text><text class="cls-20" transform="translate(1144.62 70.36) rotate(16.48)">F</text><text class="cls-20" transform="matrix(0.95, 0.32, -0.31, 0.95, 1170.26, 78.15)"> </text><text class="cls-20" transform="translate(1186.41 83.6) rotate(19.76)">I</text><text class="cls-20" transform="translate(1201.99 89.15) rotate(21.98)">N</text><text class="cls-20" transform="translate(1235.21 102.83) rotate(24.79)">T</text><text class="cls-20" transform="matrix(0.89, 0.46, -0.46, 0.89, 1262.72, 115.72)">E</text><text class="cls-20" transform="translate(1287.76 128.78) rotate(29.72)">R</text><text class="cls-20" transform="translate(1313.94 143.85) rotate(32.51)">N</text><text class="cls-20" transform="matrix(0.82, 0.58, -0.58, 0.82, 1344.09, 163.37)">E</text><text class="cls-20" transform="translate(1366.91 179.62) rotate(37.64)">T</text><rect class="cls-16" x="734.18" y="581.78" width="65.45" height="65.45" rx="8.47" transform="translate(187.16 -179) rotate(15.14)"/><g id="j9Cxd5"><path d="M758.54,651.89c-4-.92-8-1.79-12-2.77a45.6,45.6,0,0,1-9.65-3.22,20.05,20.05,0,0,1-10.72-12.39,22.7,22.7,0,0,1-.74-9.31,131.09,131.09,0,0,1,2.72-14c1.17-5.11,2.35-10.21,3.58-15.3a63,63,0,0,1,2.89-9.59c2.37-5.64,6.25-9.79,12.07-11.93A20.73,20.73,0,0,1,757,572.3c4.08.62,8.14,1.41,12.17,2.29,5.87,1.28,11.72,2.67,17.56,4.08a55.57,55.57,0,0,1,9.82,3.06c5.8,2.61,9.86,6.82,11.7,13a23.51,23.51,0,0,1,.59,10.15c-.74,5.21-2,10.32-3.16,15.44-1.09,4.74-2.18,9.48-3.36,14.19a45.82,45.82,0,0,1-3.15,9.61c-3.76,7.52-9.81,11.51-18.23,11.84a35.34,35.34,0,0,1-8.76-1c-4.58-1-9.14-2-13.71-2.94Zm1.42-6.72,0-.14c4,.91,7.89,1.86,11.85,2.72a40.52,40.52,0,0,0,8.34,1.19c5.79,0,10-2.54,12.62-7.74a42.74,42.74,0,0,0,2.94-9.14c1.5-6.21,2.93-12.43,4.34-18.65a78.65,78.65,0,0,0,2-11.18,13.38,13.38,0,0,0-8.12-14,47.1,47.1,0,0,0-8.74-2.73c-5.29-1.3-10.6-2.51-15.91-3.73a117.36,117.36,0,0,0-13.15-2.54,15.2,15.2,0,0,0-7.26.77,13.48,13.48,0,0,0-7.56,7.46,44.18,44.18,0,0,0-2.55,8.22c-1.89,8-3.7,16.06-5.51,24.1a34.07,34.07,0,0,0-1,7.18c0,5,1.86,9,6.09,11.73a23.91,23.91,0,0,0,7.17,2.9C750.37,642.81,755.17,644,760,645.17Z"/><path d="M786.7,618.5a20,20,0,1,1-15.11-24A20,20,0,0,1,786.7,618.5Zm-22.38,8.16a13,13,0,1,0-9.76-15.36A13,13,0,0,0,764.32,626.66Z"/><path d="M787.6,597.38A4.67,4.67,0,1,1,791,603,4.67,4.67,0,0,1,787.6,597.38Z"/></g></svg>